<svg id="Layer_1" data-name="Layer 1" xmlns="http://www.w3.org/2000/svg" viewBox="0 0 177.83 178.91"><path d="M175.13,159.26a17.36,17.36,0,0,1-17.33,17.39H20.53A17.36,17.36,0,0,1,3.2,159.26V20.07A17.36,17.36,0,0,1,20.53,2.68H157.8a17.36,17.36,0,0,1,17.33,17.39Z" fill="#069"/><path d="M59.13,45.22c0,6.39-4.72,11.56-12.48,11.56-7.3,0-12-5.17-12-11.56,0-6.55,4.87-11.57,12.32-11.57S59,38.67,59.13,45.22ZM35.24,140.33V65.91H58.37v74.42Z" fill="#fff"/><path d="M72.21,89.65c0-9.28-.3-17-.6-23.74H91.69l1.07,10.35h.46c3-4.87,10.5-12,23-12,15.21,0,26.63,10.2,26.63,32.11v44H119.7V99.09C119.7,89.5,116.35,83,108,83c-6.4,0-10.2,4.41-11.87,8.67a16.65,16.65,0,0,0-.77,5.79v42.91H72.21Z" fill="#fff"/></svg>