<svg id="Layer_1" data-name="Layer 1" xmlns="http://www.w3.org/2000/svg" viewBox="0 0 432 432"><path d="M363.17,0A68.84,68.84,0,0,1,432,68.84V363.17A68.83,68.83,0,0,1,363.17,432H68.84A68.84,68.84,0,0,1,0,363.17V68.84A68.84,68.84,0,0,1,68.84,0Z" fill="#fffc00"/><path d="M217.59,364.52c-.82,0-1.62,0-2.42-.06h0c-.51,0-1,.06-1.58.06-18.75,0-30.79-8.5-42.42-16.73-8-5.68-15.62-11-24.55-12.53a79.42,79.42,0,0,0-12.89-1.08,88.31,88.31,0,0,0-17.87,2,38.85,38.85,0,0,1-6.66,1c-1.81,0-3.77-.4-4.62-3.31-.74-2.52-1.28-5-1.8-7.33-1.32-6.09-2.27-9.84-4.82-10.23C68.23,311.7,59.71,305.44,57.82,301a5.74,5.74,0,0,1-.46-1.9,3.34,3.34,0,0,1,2.8-3.49c45.71-7.53,66.21-54.25,67.06-56.23,0-.06,0-.11.07-.16,2.8-5.67,3.35-10.59,1.64-14.63-3.14-7.39-13.37-10.64-20.14-12.79-1.66-.52-3.23-1-4.47-1.51-13.51-5.34-14.64-10.82-14.11-13.62.91-4.76,7.27-8.08,12.42-8.08a8.69,8.69,0,0,1,3.7.74c6.08,2.85,11.56,4.29,16.28,4.29,6.53,0,9.39-2.75,9.73-3.11-.16-3.09-.37-6.32-.58-9.66-1.36-21.61-3-48.46,3.79-63.79C156,71.1,199.5,67.54,212.33,67.54l5.62-.06h.76c12.86,0,56.41,3.57,76.92,49.54,6.84,15.34,5.14,42.22,3.78,63.81l-.06.94c-.19,3-.37,5.93-.52,8.73.33.33,2.95,2.86,8.87,3.08h0c4.5-.17,9.67-1.6,15.34-4.26a11.56,11.56,0,0,1,4.77-.94,14.7,14.7,0,0,1,5.49,1l.1,0c4.59,1.63,7.6,4.85,7.66,8.21.06,3.17-2.36,7.93-14.21,12.61-1.23.48-2.8,1-4.47,1.51-6.78,2.15-17,5.4-20.14,12.79-1.71,4-1.16,8.95,1.63,14.62l.08.17c.85,2,21.33,48.69,67.06,56.22a3.36,3.36,0,0,1,2.8,3.5,5.52,5.52,0,0,1-.47,1.91c-1.88,4.41-10.39,10.67-40.13,15.26-2.43.38-3.38,3.54-4.83,10.18-.52,2.42-1.06,4.79-1.79,7.29a4,4,0,0,1-4.26,3.18H322a37,37,0,0,1-6.65-.84,88.58,88.58,0,0,0-17.87-1.89,79.63,79.63,0,0,0-12.9,1.08c-8.92,1.49-16.5,6.84-24.52,12.51C248.37,356,236.34,364.52,217.59,364.52Z" fill="#fff"/><path d="M218.71,70.83c12.18,0,54.1,3.26,73.86,47.56,6.5,14.58,4.84,41,3.5,62.23-.21,3.37-.42,6.63-.59,9.75l-.07,1.34.9,1c.36.41,3.74,3.94,11.26,4.23h.25c5-.19,10.57-1.73,16.66-4.58a8.06,8.06,0,0,1,3.34-.62,11.25,11.25,0,0,1,4.23.8l.19.07c3.19,1.12,5.44,3.23,5.48,5.14,0,1.08-.79,5-12.1,9.42-1.1.44-2.56.9-4.24,1.43-7.36,2.34-18.47,5.87-22.22,14.68-2.1,5-1.53,10.83,1.72,17.42,1.33,3.11,22.33,50.42,69.59,58.21a2.06,2.06,0,0,1-.19.76c-.8,1.88-5.9,8.4-37.57,13.29-5,.76-6.18,6.32-7.59,12.78-.5,2.31-1,4.64-1.74,7.06-.21.72-.25.77-1,.77H322a34.55,34.55,0,0,1-6-.78,92.63,92.63,0,0,0-18.51-1.95A82.56,82.56,0,0,0,284,332c-9.7,1.61-17.58,7.19-25.94,13.09-11.21,7.93-22.8,16.12-40.48,16.12q-1.16,0-2.28-.06h-.2l-.2,0c-.44,0-.87.05-1.32.05-17.68,0-29.28-8.19-40.49-16.11-8.35-5.91-16.24-11.49-25.93-13.1a82.65,82.65,0,0,0-13.44-1.13,92,92,0,0,0-18.51,2.07,37.24,37.24,0,0,1-6,.91c-1.14,0-1.17-.07-1.41-.9-.71-2.42-1.23-4.81-1.73-7.12-1.41-6.46-2.64-12.05-7.59-12.81-31.68-4.89-36.77-11.42-37.57-13.3a2.44,2.44,0,0,1-.2-.77c47.26-7.79,68.26-55.1,69.6-58.22,3.24-6.59,3.82-12.45,1.71-17.42-3.74-8.81-14.85-12.34-22.21-14.68-1.69-.53-3.14-1-4.25-1.43-9.55-3.77-12.49-7.57-12-9.87.51-2.66,5.11-5.36,9.13-5.36a5.59,5.59,0,0,1,2.28.42c6.52,3.05,12.48,4.61,17.7,4.61,8.22,0,11.88-3.82,12.26-4.26l.9-1-.08-1.34c-.17-3.11-.37-6.37-.58-9.74-1.34-21.22-3-47.63,3.5-62.21,19.68-44.14,61.4-47.54,73.72-47.54l5.65,0h.73m0-6.7h-.8l-5.59.05c-13.33,0-58.51,3.72-79.83,51.51-7.17,16.08-5.45,43.38-4.07,65.33.16,2.58.33,5.27.48,7.87a12.89,12.89,0,0,1-6.29,1.37c-4.23,0-9.23-1.34-14.86-4a12,12,0,0,0-5.12-1.05c-6.59,0-14.48,4.34-15.71,10.8-.89,4.66,1.2,11.45,16.17,17.37,1.35.53,3,1,4.69,1.59,6.18,2,15.53,4.93,18.06,10.9,1.32,3.1.79,7.08-1.55,11.84l-.15.32c-.82,1.92-20.61,47-64.53,54.24a6.71,6.71,0,0,0-5.6,7,9,9,0,0,0,.72,3C58,310,71.93,315.64,97.25,319.57c.84,1.15,1.72,5.19,2.26,7.65s1.08,4.94,1.85,7.58,2.75,5.71,7.84,5.71a41,41,0,0,0,7.3-1,85.76,85.76,0,0,1,17.23-2,76.25,76.25,0,0,1,12.35,1c8.17,1.36,15.11,6.27,23.14,11.95,11.52,8.14,24.55,17.35,44.37,17.35.54,0,1.09,0,1.63-.05s1.48.05,2.37.05c19.82,0,32.85-9.21,44.35-17.35,8.06-5.69,15-10.59,23.16-11.95a76.16,76.16,0,0,1,12.35-1,86,86,0,0,1,17.23,1.83,41,41,0,0,0,7.29.9h.37a7.29,7.29,0,0,0,7.48-5.6c.76-2.59,1.31-5,1.85-7.5s1.41-6.48,2.25-7.62c25.33-3.93,39.23-9.57,42.52-17.24a9,9,0,0,0,.72-3,6.69,6.69,0,0,0-5.6-7c-43.94-7.24-63.7-52.33-64.52-54.24l-.15-.33c-2.35-4.75-2.87-8.73-1.56-11.83,2.54-6,11.88-8.94,18.07-10.9,1.72-.55,3.35-1.07,4.69-1.59,11-4.33,16.45-9.64,16.33-15.8-.09-4.83-3.86-9.14-9.84-11.28h0a17.86,17.86,0,0,0-6.74-1.29,14.79,14.79,0,0,0-6.18,1.25c-5.21,2.44-9.9,3.77-13.93,3.95a12.32,12.32,0,0,1-5.43-1.35c.13-2.23.27-4.52.42-6.91l.06-.93c1.38-22,3.1-49.29-4.08-65.38-21.32-47.81-66.6-51.53-80-51.53Z" fill="#030303"/></svg>