<svg id="Capa_1" data-name="Capa 1" xmlns="http://www.w3.org/2000/svg" viewBox="0 0 283.46 283.46"><rect x="0.34" y="-0.17" width="283.46" height="283.46" rx="53.37"/><path d="M193.63,60.7c-11.61-12.78-11-29.37-11-29.37h-9C175.11,39.66,179.68,52.77,193.63,60.7Z" fill="#e02f54"/><path d="M115.37,122.46a26.2,26.2,0,0,0-11,50,26.2,26.2,0,0,1,28.76-41V98.69a59.4,59.4,0,0,0-8.06-.55l-1.67,0v25.56A26.13,26.13,0,0,0,115.37,122.46Z" fill="#e02f54"/><path d="M217.41,73.66V99.43s-19.45,2.78-44.07-13.9V115.3c0,20.19,2.63,41.16-6.72,59.83a57.14,57.14,0,0,1-51.26,32,58,58,0,0,1-31.24-9.06,58.16,58.16,0,0,0,41,16.8,57.15,57.15,0,0,0,51.26-32c9.35-18.68,6.72-39.65,6.72-59.83V93.27c24.61,16.68,44.07,13.9,44.07,13.9V75A70.05,70.05,0,0,1,217.41,73.66Z" fill="#e02f54"/><path d="M217.41,73.66v-6.4c-10-.69-17.76-3.14-23.78-6.56C198.78,66.36,206.33,71.27,217.41,73.66Z" fill="#2cb1bb"/><path d="M66.72,156.51a58.38,58.38,0,0,1,56.7-58.35V91a59.36,59.36,0,0,0-8-.56A58.38,58.38,0,0,0,84.12,198.07,58.19,58.19,0,0,1,66.72,156.51Z" fill="#21b0ba"/><path d="M125.09,182.61c14.25,0,24.92-11.11,25.95-24.85,1.32-17.72.66-35.5.66-53.25V31.33h21.94a40.05,40.05,0,0,1-.7-7.74H142V96.77c0,17.74.66,35.53-.66,53.25-1,13.74-11.69,24.85-25.94,24.85a26.13,26.13,0,0,1-11-2.41A26.15,26.15,0,0,0,125.09,182.61Z" fill="#21b0ba"/><path d="M166.62,175.13c9.35-18.67,6.72-39.64,6.72-59.83V85.53c24.62,16.68,44.07,13.9,44.07,13.9V73.66c-11.08-2.39-18.63-7.3-23.78-13-13.95-7.93-18.52-21-20-29.37H151.7v73.18c0,17.75.66,35.53-.66,53.25-1,13.74-11.7,24.85-25.95,24.85a26.15,26.15,0,0,1-20.7-10.15,26.21,26.21,0,0,1,19-48.74V98.16a58.36,58.36,0,0,0-39.3,99.91,58,58,0,0,0,31.24,9.06A57.14,57.14,0,0,0,166.62,175.13Z" fill="#fff"/><polygon points="56.8 222.72 56.8 231.06 65.93 231.06 65.93 260.24 75.46 260.24 75.46 231.25 82.81 231.25 85.98 222.72 56.8 222.72" fill="#fff"/><polygon points="132.24 222.72 132.24 231.06 141.37 231.06 141.37 260.24 150.9 260.24 150.9 231.25 158.25 231.25 161.43 222.72 132.24 222.72" fill="#fff"/><rect x="86.78" y="235.22" width="9.53" height="25.02" fill="#fff"/><circle cx="91.54" cy="227.48" r="4.76" fill="#fff"/><path d="M99.28,222.72v37.52s9.24-.3,9.53,0,0-9.13,0-9.13l3.18-2.58,7.94,11.72h10.13l-12.71-17.88,11.52-10.12H117.55l-8.34,8.14V222.72Z" fill="#fff"/><path d="M196.57,222.72v37.52s9.23-.3,9.53,0,0-9.13,0-9.13l3.17-2.58,7.94,11.72h10.13l-12.71-17.88,11.52-10.12H214.83l-8.34,8.14V222.72Z" fill="#fff"/><path d="M159.84,245.05a16,16,0,0,1,14.89-15.94c-.36,0-.73,0-1.09,0a16,16,0,1,0,0,32c.36,0,.73,0,1.09,0A16,16,0,0,1,159.84,245.05Z" fill="#36b3be"/><path d="M177.41,229.07l-.8,0a16,16,0,0,1,0,31.92c.27,0,.53,0,.8,0a16,16,0,0,0,0-32Z" fill="#e03154"/><path d="M176.61,229.09l-.79,0c-.37,0-.73,0-1.09,0a16,16,0,0,0,0,31.88c.36,0,.72,0,1.09,0s.53,0,.79,0a16,16,0,0,0,0-31.92Zm-7.83,16a7,7,0,0,1,5.95-6.94,6.5,6.5,0,0,1,1.09-.09,6.84,6.84,0,0,1,.79,0,7,7,0,0,1,0,14,6.84,6.84,0,0,1-.79.05,6.5,6.5,0,0,1-1.09-.1A7,7,0,0,1,168.78,245.05Z" fill="#fff"/></svg>