<svg id="Layer_1" data-name="Layer 1" xmlns="http://www.w3.org/2000/svg" viewBox="0 0 69.81 47.8"><path d="M34.2,52.82c0-1.27-1.11-2.86-1.11-3.81s-7-2.55-7-1a53.64,53.64,0,0,0,3.34,18.2C30.86,70,33.73,70.5,34,67.32S34.2,56.21,34.2,52.82Z" fill="#98221f"/><path d="M25.37,43c0,2.27.45,2.84,1.79,2.63a10.68,10.68,0,0,1,5.49,1.19c1.21.62,1.55.12,1.55-1.55V40.06c0-1.19-1.83-1.71-4.1-1.71S25.37,39.34,25.37,43Z" fill="#98221f"/><path d="M25.37,35c0,2.27.18,3.11,1.39,2.51a10.87,10.87,0,0,1,5.89-.6c1.35.16,1.55.12,1.55-1.55V30.6c0-1.2-2.31-1.67-4.69-.72S25.37,32.88,25.37,35Z" fill="#98221f"/><path d="M25.37,27.79c0,2.27.18,3.07,1.39,2.13a13,13,0,0,1,5.89-2.22c1.35-.2,1.55-.3,1.55-2V23.21c0-1.19-2.43-1.31-4.69-.36C27,23.9,25.37,25.66,25.37,27.79Z" fill="#98221f"/><path d="M24,45.87a5.42,5.42,0,0,0-3.22-4.78c-1.79-1-2.39-.35-2.39,2s-.24,6-.47,8.59-.36,4.18,2.14,6.44,5.73,4.09,5.25,1.09A74.64,74.64,0,0,1,24,45.87Z" fill="#98221f"/><path d="M16.5,28.21c.81,1.87,3.46,5.85,4.66,6.8s1.31,5.73,0,4.89c-2.23-1.39-4.18-4.29-4.89-9.07C15.93,28.89,16.15,27.37,16.5,28.21Z" fill="#98221f"/><path d="M21.63,29c1.17,1,1.56,5.14.24,4.3a11,11,0,0,1-4.17-5.73C17.44,26.63,20.08,27.73,21.63,29Z" fill="#98221f"/><path d="M16.62,25.35c-.62-.67-.45-3.85.27-3.27a7,7,0,0,1,2.18,3.77C19.18,26.48,17.46,26.21,16.62,25.35Z" fill="#98221f"/><path d="M22.59,24.27c1,.64.43,4.64-.48,3.82a11,11,0,0,1-3.18-6.33C18.83,20.74,20.56,23,22.59,24.27Z" fill="#98221f"/><path d="M23.66,21.89c1,.38.6,1.84-.36,1.31a6.44,6.44,0,0,1-2.62-2.75C20.27,19.52,22.11,21.29,23.66,21.89Z" fill="#98221f"/><path d="M16.59,18.71c-.33,1-.41,2,.63,2s2.5-.73,1.67-1.15S16.8,18.09,16.59,18.71Z" fill="#98221f"/><path d="M31.06,3.87a2.28,2.28,0,0,1,3,1.14,2.31,2.31,0,0,1,.2,1,20.89,20.89,0,0,1-.36,3.7,7.31,7.31,0,0,1,.48,3,5.88,5.88,0,0,1-.72,3.1,4.83,4.83,0,0,1,.72,2.75c0,1.79-3.7,3.46-8.35,2.26s-9.78-4-11.81-6.32C19.37,12,23.3,7,31.06,3.87Z" fill="#98221f"/><path d="M14.24,13.3C19.37,10.79,23,5,31.06,2.68c.83-.24,0-1.43-3.7-1.55a8.67,8.67,0,0,0-7.75,4.41C18.53,7.69,17.1,11,14.24,13.3Z" fill="#98221f"/><path d="M20.08,2c-.45,1.36-3.46,8.47-6.68,11.1a12.67,12.67,0,0,1-6.47,2.86c1.91-5.37,4.29-9.78,8.83-13.6C17.18,1.15,20.44.89,20.08,2Z" fill="#98221f"/><path d="M14.93,2c.84-.59-3.82-1.55-6.68,1.19S4.79,12.82,5,16.4C6.36,15.8,8.15,6.5,14.93,2Z" fill="#98221f"/><path d="M28.28-14.06c.23,2.74.59,6.8,2.74,10.5S34.6,2.88,34.6,2.88c.71-2.75-.48-7.16-2-10S28.63-12.79,28.28-14.06Z" fill="#98221f"/><path d="M12.33,15.21a17.82,17.82,0,0,1-4.74,2c-2.26,6.68-5.28,16.27-1.94,17.7s6.92-5.73,8-10.5a48.7,48.7,0,0,0,1.18-7.3A18.5,18.5,0,0,1,12.33,15.21Z" fill="#98221f"/><path d="M6.4,17.79C4.51,22,1.33,29.64,4.49,37.6c.36.91-.88.68-1.43-1.79C1.75,30,3.22,22.55,4.73,19.22A2.3,2.3,0,0,1,6.4,17.79Z" fill="#98221f"/><path d="M11.93,30.83C9.07,36.56,5,38,4.41,39.54s1.32.24,3.35-1.43A12.91,12.91,0,0,0,11.93,30.83Z" fill="#98221f"/><path d="M10.08,39.41c-1,.74-6.19,3.23-8.38,8.41a37.19,37.19,0,0,1,7.36-4.19C10.82,42.84,11,38.78,10.08,39.41Z" fill="#98221f"/><path d="M2.11,34.85C1.63,36.76,4.25,41.65.45,48.3-2.84,54.07-9.28,63.58-9.74,64.81l-1.55.45A32.06,32.06,0,0,0-5.07,51.91C-2.84,40.86-.52,37.12,2.11,34.85Z" fill="#98221f"/><path d="M5.53,46.64C3.38,47.75.16,50.06-2.41,55.45-4.52,59.87-8,65.37-8,65.37l.49.23A118.92,118.92,0,0,1,.79,53.37,71.49,71.49,0,0,0,5.53,46.64Z" fill="#98221f"/><path d="M8.71,44.79c-2,2.08-3.5,8.27-13.18,22.94C2.86,58.21,9.06,48.54,8.71,44.79Z" fill="#98221f"/><path d="M36.81,52.82c0-1.27,1.11-2.86,1.11-3.81s7-2.55,7-1a53.59,53.59,0,0,1-3.34,18.2C40.15,70,37.29,70.5,37,67.32S36.81,56.21,36.81,52.82Z" fill="#98221f"/><path d="M45.64,43c0,2.27-.44,2.84-1.79,2.63a10.66,10.66,0,0,0-5.49,1.19c-1.21.62-1.55.12-1.55-1.55V40.06c0-1.19,1.83-1.71,4.1-1.71S45.64,39.34,45.64,43Z" fill="#98221f"/><path d="M45.64,35c0,2.27-.17,3.11-1.39,2.51a10.87,10.87,0,0,0-5.89-.6c-1.35.16-1.55.12-1.55-1.55V30.6c0-1.2,2.31-1.67,4.7-.72S45.64,32.88,45.64,35Z" fill="#98221f"/><path d="M45.64,27.79c0,2.27-.17,3.07-1.39,2.13a13.07,13.07,0,0,0-5.89-2.22c-1.35-.2-1.55-.3-1.55-2V23.21c0-1.19,2.43-1.31,4.7-.36C44,23.9,45.64,25.66,45.64,27.79Z" fill="#98221f"/><path d="M47,45.87a5.43,5.43,0,0,1,3.22-4.78c1.79-1,2.39-.35,2.39,2s.24,6,.48,8.59.36,4.18-2.15,6.44-5.73,4.09-5.25,1.09A75.57,75.57,0,0,0,47,45.87Z" fill="#98221f"/><path d="M54.51,28.21A26.81,26.81,0,0,1,49.86,35c-1.2,1-1.32,5.73,0,4.89,2.19-1.39,4.17-4.29,4.89-9.07C55,28.89,54.87,27.37,54.51,28.21Z" fill="#98221f"/><path d="M49.38,29c-1.17,1-1.55,5.14-.24,4.3a11,11,0,0,0,4.18-5.73C53.58,26.63,50.93,27.73,49.38,29Z" fill="#98221f"/><path d="M54.39,25.35c.63-.67.45-3.85-.27-3.27a7,7,0,0,0-2.19,3.77C51.84,26.48,53.55,26.21,54.39,25.35Z" fill="#98221f"/><path d="M48.43,24.27c-1,.64-.44,4.64.47,3.82a11.05,11.05,0,0,0,3.19-6.33C52.18,20.74,50.45,23,48.43,24.27Z" fill="#98221f"/><path d="M47.35,21.89c-1,.38-.6,1.84.36,1.31a6.44,6.44,0,0,0,2.62-2.75C50.75,19.52,48.93,21.29,47.35,21.89Z" fill="#98221f"/><path d="M54.42,18.71c.34,1,.42,2-.63,2s-2.5-.73-1.66-1.15S54.21,18.09,54.42,18.71Z" fill="#98221f"/><path d="M39.93,3.87A2.29,2.29,0,0,0,36.7,6a20.89,20.89,0,0,0,.36,3.7,7.14,7.14,0,0,0-.48,3,5.88,5.88,0,0,0,.72,3.1,4.83,4.83,0,0,0-.72,2.75c0,1.79,3.7,3.46,8.36,2.26s9.78-4,11.81-6.32C51.65,12,47.71,7,39.93,3.87Z" fill="#98221f"/><path d="M56.78,13.3C51.65,10.79,48,5,39.93,2.68c-.84-.24,0-1.43,3.69-1.55a8.7,8.7,0,0,1,7.76,4.41C52.48,7.69,53.93,11,56.78,13.3Z" fill="#98221f"/><path d="M50.93,2c.45,1.36,3.46,8.47,6.68,11.1a12.74,12.74,0,0,0,6.44,2.86c-1.91-5.37-4.29-9.78-8.82-13.6C53.83,1.15,50.57.89,50.93,2Z" fill="#98221f"/><path d="M56.06,2c-.83-.59,3.82-1.55,6.68,1.19s3.46,9.67,3.19,13.25C64.65,15.8,62.86,6.5,56.06,2Z" fill="#98221f"/><path d="M42.74-14.06c-.24,2.74-.6,6.8-2.75,10.5s-3.57,6.44-3.57,6.44c-.72-2.75.47-7.16,2-10S42.38-12.79,42.74-14.06Z" fill="#98221f"/><path d="M58.69,15.21a17.62,17.62,0,0,0,4.73,2c2.27,6.68,5.29,16.27,2,17.7s-6.92-5.73-8-10.5a48.46,48.46,0,0,1-1.19-7.28A18.26,18.26,0,0,0,58.69,15.21Z" fill="#98221f"/><path d="M64.61,17.79C66.5,22,69.69,29.64,66.52,37.6c-.36.91.88.68,1.43-1.79a30.46,30.46,0,0,0-1.67-16.6A2.29,2.29,0,0,0,64.61,17.79Z" fill="#98221f"/><path d="M59,30.83c2.89,5.73,6.89,7.16,7.52,8.71s-1.31.24-3.34-1.43A12.84,12.84,0,0,1,59,30.83Z" fill="#98221f"/><path d="M60.93,39.41c1,.74,6.19,3.23,8.38,8.41a37.34,37.34,0,0,0-7.38-4.19C60.19,42.84,60,38.78,60.93,39.41Z" fill="#98221f"/><path d="M68.93,34.85c.47,1.91-2.15,6.8,1.65,13.45,3.3,5.77,9.74,15.28,10.19,16.51l1.56.45a31.71,31.71,0,0,1-6.26-13.35C73.86,40.86,71.53,37.12,68.93,34.85Z" fill="#98221f"/><path d="M65.48,46.64c2.15,1.11,5.37,3.42,7.94,8.81,2.12,4.42,5.6,9.92,5.6,9.92l-.5.23a117.85,117.85,0,0,0-8.3-12.23A73.38,73.38,0,0,1,65.48,46.64Z" fill="#98221f"/><path d="M62.3,44.79c2,2.08,3.51,8.27,13.18,22.94C68.16,58.21,61.93,48.54,62.3,44.79Z" fill="#98221f"/></svg>