<svg id="Layer_1" data-name="Layer 1" xmlns="http://www.w3.org/2000/svg" viewBox="0 0 117.15 226.4"><path d="M45.46,167c-2.2.46-1.05,8.44,1.28,17.09s5,22.05,6.79,28.77l1.41-.21c-3.11-9.62-4.22-15.42-4-23S49.22,166.22,45.46,167Z" fill="#98221f"/><path d="M44.32,178.79c-.74-2.72-1.72-1-1.21,4.11s4.69,16.46,7.38,30.53L51.6,213C49.38,205.92,47.55,190.48,44.32,178.79Z" fill="#98221f"/><path d="M53.75,186.55c.86,1.66,1.74,4.27,1.17,8.63s-.56,10.4,0,12.83C53,203.43,52.71,184.56,53.75,186.55Z" fill="#98221f"/><path d="M54.88,171.19a37.61,37.61,0,0,0-1.08,10.53c0,3.66,1.58,7.36,2.27,5.15S56.48,177.59,54.88,171.19Z" fill="#98221f"/><path d="M56.48,155.68a33.94,33.94,0,0,1-3.82,12.41c-.84,1.73-1,4.45,0,8.74.64-7.63,3.18-8,4-12.24A23.24,23.24,0,0,0,56.48,155.68Z" fill="#98221f"/><path d="M49.87,157.59c-2.07,0-3.66,1.59-2.23,3.65s2.71,1.59,4.14.16S52.42,157.59,49.87,157.59Z" fill="#98221f"/><path d="M57.11,109.7c.57,2.4.51,7.22,0,11.13a19.35,19.35,0,0,1-1.85,6.64,73.55,73.55,0,0,0-2.23-8C52.47,117.45,55.71,115.76,57.11,109.7Z" fill="#98221f"/><path d="M56.79,138.66c-1.59-15.27-13-36.43-13-39.45-.48,5.25.16,8.74,3.82,16.7S54.89,131.66,56.79,138.66Z" fill="#98221f"/><path d="M55.86,110.35A20.91,20.91,0,0,1,52.52,117c-2.74-3.8-3-6.54-3-6.54A8.27,8.27,0,0,0,51,106.25C51.15,105.33,56.11,109.57,55.86,110.35Z" fill="#98221f"/><path d="M53.14,131.5c1.9,4.93,3.65,11.77,3.65,15.9s-.08,10.19-2.94,10.19-2-7.64-2-11S52.66,135.64,53.14,131.5Z" fill="#98221f"/><path d="M43.59,108.75c-1.27,4.46-2,13.63-1,17.66a203.82,203.82,0,0,1,5.72,29.26,4.61,4.61,0,0,1,2.5-.11c-1.11-3.82-.11-19.92.84-24.06C52.78,126.83,45.66,117.18,43.59,108.75Z" fill="#98221f"/><path d="M42.8,98.57c0,3.66-1.6,15.59-1.75,23.23s1.27,23.06,3.66,29.58c-5.25-8.59-6.3-31.8-5.73-38.17a145.6,145.6,0,0,1,2.39-15.59C41.52,97,42.8,97.62,42.8,98.57Z" fill="#98221f"/><path d="M39.78,96.66c-.55.92-1.75,9.07-1.44,13.68a107.26,107.26,0,0,1,2.23-12.88C40.89,96.5,40.25,95.87,39.78,96.66Z" fill="#98221f"/><path d="M47.49,156c-.48-5-2.41-18.28-5.17-26.57.32,8.11,1.51,20.68,4.21,27.68C46.53,157.11,47,156.15,47.49,156Z" fill="#98221f"/><path d="M48.16,103.94c-.23,1.17-.83,1.31-.59,2.27s.9,3.14,1.55,2.5a4.71,4.71,0,0,0,1.07-3.1C50.07,104.65,48.28,103.34,48.16,103.94Z" fill="#98221f"/><path d="M47.33,103.34c0,.72-.24,1.43-1.07-.12a29.79,29.79,0,0,1-1.32-2.74S47.33,102.27,47.33,103.34Z" fill="#98221f"/><path d="M57.27,90.61c0-1.27-1.11-2.86-1.11-3.81s-7-2.55-7-1A53.77,53.77,0,0,0,52.5,104c1.43,3.81,4.3,4.29,4.61,1.11S57.27,94,57.27,90.61Z" fill="#98221f"/><path d="M48.44,80.83c0,2.27.45,2.84,1.79,2.63a10.59,10.59,0,0,1,5.49,1.19c1.21.62,1.55.12,1.55-1.55V77.85c0-1.19-1.83-1.71-4.1-1.71S48.44,77.13,48.44,80.83Z" fill="#98221f"/><path d="M48.44,72.8c0,2.27.18,3.11,1.39,2.51a10.8,10.8,0,0,1,5.89-.6c1.35.16,1.55.12,1.55-1.55V68.39c0-1.2-2.31-1.67-4.69-.72S48.44,70.67,48.44,72.8Z" fill="#98221f"/><path d="M48.44,65.58c0,2.27.18,3.07,1.39,2.13a13,13,0,0,1,5.89-2.22c1.35-.2,1.55-.3,1.55-2V61c0-1.19-2.43-1.31-4.69-.36C50.07,61.69,48.44,63.45,48.44,65.58Z" fill="#98221f"/><path d="M47.09,83.66a5.41,5.41,0,0,0-3.22-4.78c-1.79-.95-2.39-.35-2.39,2s-.24,6-.47,8.59-.36,4.18,2.14,6.44S48.88,100,48.4,97A74.93,74.93,0,0,1,47.09,83.66Z" fill="#98221f"/><path d="M39.57,66c.81,1.87,3.46,5.85,4.66,6.8s1.31,5.73,0,4.89C42,76.3,40.05,73.4,39.34,68.62,39,66.68,39.22,65.16,39.57,66Z" fill="#98221f"/><path d="M44.7,66.83c1.17,1,1.56,5.14.24,4.3a11,11,0,0,1-4.17-5.73C40.51,64.42,43.15,65.52,44.7,66.83Z" fill="#98221f"/><path d="M39.69,63.14c-.62-.67-.45-3.85.27-3.27a7,7,0,0,1,2.18,3.77C42.25,64.27,40.53,64,39.69,63.14Z" fill="#98221f"/><path d="M45.66,62.06c1,.64.43,4.64-.48,3.82A10.93,10.93,0,0,1,42,59.55C41.9,58.53,43.63,60.75,45.66,62.06Z" fill="#98221f"/><path d="M46.73,59.68c1,.38.6,1.84-.36,1.31a6.48,6.48,0,0,1-2.62-2.75C43.34,57.31,45.18,59.08,46.73,59.68Z" fill="#98221f"/><path d="M39.66,56.5c-.33,1-.41,2,.63,2s2.5-.73,1.67-1.15S39.87,55.88,39.66,56.5Z" fill="#98221f"/><path d="M54.13,41.66a2.28,2.28,0,0,1,3.22,2.15,21.29,21.29,0,0,1-.36,3.7,7.17,7.17,0,0,1,.48,3,5.89,5.89,0,0,1-.72,3.1,4.83,4.83,0,0,1,.72,2.75c0,1.79-3.7,3.46-8.35,2.26s-9.78-4.05-11.81-6.32C42.44,49.77,46.37,44.76,54.13,41.66Z" fill="#98221f"/><path d="M37.31,51.09c5.13-2.51,8.79-8.33,16.82-10.62.83-.24,0-1.43-3.7-1.55a8.66,8.66,0,0,0-7.75,4.41C41.6,45.48,40.17,48.82,37.31,51.09Z" fill="#98221f"/><path d="M43.15,39.75c-.45,1.36-3.46,8.47-6.68,11.1A12.74,12.74,0,0,1,30,53.71c1.91-5.37,4.29-9.78,8.83-13.6C40.25,38.94,43.51,38.68,43.15,39.75Z" fill="#98221f"/><path d="M38,39.75c.84-.59-3.82-1.55-6.68,1.19s-3.46,9.67-3.22,13.25C29.43,53.59,31.22,44.29,38,39.75Z" fill="#98221f"/><path d="M41.68,36.49c1.67-.12,5.25.36,6.09-.36s3.69-3.45,3.69-3.45l-.11-1.44S47.05,33.75,41.68,36.49Z" fill="#98221f"/><path d="M51.35,23.73c.23,2.74.59,6.8,2.74,10.5s3.58,6.44,3.58,6.44c.71-2.75-.48-7.16-2-10S51.7,25,51.35,23.73Z" fill="#98221f"/><path d="M52.32,32.64a10.16,10.16,0,0,1-1.21,3.85c-.22.33,2.75.88,3,.33S52.87,34.84,52.32,32.64Z" fill="#98221f"/><path d="M35.4,53a17.81,17.81,0,0,1-4.74,2c-2.26,6.68-5.28,16.27-1.94,17.7s6.92-5.73,8-10.5A47.81,47.81,0,0,0,37.9,54.9,18.54,18.54,0,0,1,35.4,53Z" fill="#98221f"/><path d="M29.47,55.58c-1.89,4.21-5.07,11.85-1.91,19.81.36.91-.88.68-1.43-1.79-1.31-5.85.16-13.26,1.67-16.59A2.3,2.3,0,0,1,29.47,55.58Z" fill="#98221f"/><path d="M35,68.62c-2.86,5.73-6.92,7.16-7.52,8.71s1.32.24,3.35-1.43A12.87,12.87,0,0,0,35,68.62Z" fill="#98221f"/><path d="M33.15,77.2c-1,.74-6.19,3.23-8.38,8.41a37.38,37.38,0,0,1,7.36-4.19C33.89,80.63,34.05,76.57,33.15,77.2Z" fill="#98221f"/><path d="M25.18,72.64c-.48,1.91,2.14,6.8-1.66,13.45-3.29,5.77-9.73,15.28-10.19,16.51l-1.55.45A31.91,31.91,0,0,0,18,89.7C20.23,78.65,22.55,74.91,25.18,72.64Z" fill="#98221f"/><path d="M28.6,84.43c-2.15,1.11-5.37,3.42-7.94,8.81-2.11,4.42-5.59,9.92-5.59,9.92l.49.23a119.51,119.51,0,0,1,8.3-12.23A71.77,71.77,0,0,0,28.6,84.43Z" fill="#98221f"/><path d="M27.69,87.57a62.18,62.18,0,0,0-6,8.65c-1.59,2.72-3.32,7-4.28,8.18l.47.56C20.46,100.14,25.9,92.43,27.69,87.57Z" fill="#98221f"/><path d="M31.78,82.58c-2,2.08-3.5,8.27-13.18,22.94C25.93,96,32.13,86.33,31.78,82.58Z" fill="#98221f"/><path d="M45.48,159.09c.29,1.33.55,2.82,1.67,3.78a28.09,28.09,0,0,1,.31,3.66c-1.34-2-2.7-3-3.65-2.23-.94-3.6.47-8.19-.64-11.93A35.86,35.86,0,0,1,45.48,159.09Z" fill="#98221f"/><path d="M49.06,164c.95.48,2.7-.48,3.18-1.11a22.57,22.57,0,0,0-1.75,6.2A29.61,29.61,0,0,0,49.06,164Z" fill="#98221f"/><path d="M52,10.41c-.13-1.28.5-3.45,2.23-3.83S57.51,8,57.76,9.15s-.17.8-1.19.26a3.88,3.88,0,0,0-3.51.56C52.62,10.48,52,11,52,10.41Z" fill="#98221f"/><path d="M52,11.44c-.14,1.33-.07,2.19,2.31,1.78,1.71-.3,2.94-.74,3.27-1.91.14-.48.29-.88-1-.57a12.41,12.41,0,0,1-3.31.3C52.67,11,52,10.81,52,11.44Z" fill="#98221f"/><path d="M58,.88c0,1.91.31,4.43.31,5.18s.09.88-1.37,0a4.58,4.58,0,0,0-4.17.2c-.67.4-.2-1.91-.75-2.86s.43-1.9,2.4-2.79S58-.21,58,.88Z" fill="#98221f"/><path d="M59.18.88c0,1.91-.31,4.43-.31,5.18s-.1.88,1.36,0a4.58,4.58,0,0,1,4.17.2c.68.4.2-1.91.75-2.86s-.42-1.9-2.4-2.79S59.18-.21,59.18.88Z" fill="#98221f"/><path d="M52.85,14.92c-.56-.9-2.38.41-1.7,1.09a14.24,14.24,0,0,1,1.77,2.52c.27.48,1.21-.64,1.09-1A12.93,12.93,0,0,0,52.85,14.92Z" fill="#98221f"/><path d="M53.4,14.58c.38.67.88,1.84,1.09,2.25s1.63-.41,1.63-1.23a9,9,0,0,0-.2-1.77C55.85,13.56,53.13,14.1,53.4,14.58Z" fill="#98221f"/><path d="M50.83,16.87a16.45,16.45,0,0,0,2.18,6c1,1.16-.81.36-1.89-1a9.23,9.23,0,0,1-1.67-4.69C49.41,16.61,50.76,16.26,50.83,16.87Z" fill="#98221f"/><path d="M53.13,21.59a7,7,0,0,0,2.74,3.68c1.31.75,2.38.55,1.9,0a15.89,15.89,0,0,1-1.55-2.59C56,22.27,53,21,53.13,21.59Z" fill="#98221f"/><path d="M50.66,10.63c.16-1.73,1-4.09.75-5.25s-.82-2.25-1.57-.27S49.5,7.7,49.7,9,50.45,12.81,50.66,10.63Z" fill="#98221f"/><path d="M58.58,19.91c-1.46,0-4.36-.54-4.36.37s3.09,1.63,4.36,1.63,4.35-.72,4.35-1.63S60,19.91,58.58,19.91Z" fill="#98221f"/><path d="M58.58,17.17c-1.84,0-4.36.52-4.36,1.43s2-.09,4.36-.09,4.35,1,4.35.09S60.42,17.17,58.58,17.17Z" fill="#98221f"/><path d="M65.18,10.41C65.32,9.13,64.68,7,63,6.58S59.64,8,59.39,9.15s.18.8,1.2.26a3.87,3.87,0,0,1,3.5.56C64.54,10.48,65.12,11,65.18,10.41Z" fill="#98221f"/><path d="M65.18,11.44c.14,1.33.07,2.19-2.31,1.78-1.71-.3-2.93-.74-3.27-1.91-.14-.48-.29-.88,1-.57a12.34,12.34,0,0,0,3.3.3C64.49,11,65.12,10.81,65.18,11.44Z" fill="#98221f"/><path d="M64.3,14.92c.56-.9,2.38.41,1.7,1.09a14.24,14.24,0,0,0-1.77,2.52c-.27.48-1.2-.64-1.09-1A12.93,12.93,0,0,1,64.3,14.92Z" fill="#98221f"/><path d="M63.76,14.58c-.39.67-.89,1.84-1.1,2.25S61,16.42,61,15.6a9.73,9.73,0,0,1,.21-1.77C61.3,13.56,64,14.1,63.76,14.58Z" fill="#98221f"/><path d="M66.32,16.87a16.27,16.27,0,0,1-2.18,6c-1,1.16.81.36,1.89-1a9.23,9.23,0,0,0,1.67-4.69C67.74,16.61,66.39,16.26,66.32,16.87Z" fill="#98221f"/><path d="M64,21.59a7,7,0,0,1-2.74,3.68c-1.31.75-2.38.55-1.91,0a15.89,15.89,0,0,0,1.55-2.59C61.11,22.27,64.21,21,64,21.59Z" fill="#98221f"/><path d="M66.5,10.63c-.16-1.73-1-4.09-.75-5.25s.81-2.25,1.56-.27A5.45,5.45,0,0,1,67.45,9C67.25,10.29,66.7,12.81,66.5,10.63Z" fill="#98221f"/><path d="M60.54,26.86a7.23,7.23,0,0,1-2,.28,7.31,7.31,0,0,1-2-.28,1.48,1.48,0,0,1-1.51,1,12.2,12.2,0,0,1,3.48,4.93,12.19,12.19,0,0,1,3.47-4.93A1.49,1.49,0,0,1,60.54,26.86Z" fill="#98221f"/><path d="M13.2,105.18c-1.54,2.88-4.22,3.54-7,3.31s0-2.13,2.14-3.18S13.68,104.29,13.2,105.18Z" fill="#98221f"/><path d="M13.69,105.84c-1.74,3.56-7.06,4.44-8.58,6.79-.56.88,1.77,2.61,5.64,3s5,.23,4.27-1.6-1.32-5.11-.79-6.67S14.13,104.92,13.69,105.84Z" fill="#98221f"/><path d="M15.59,106.49a12.41,12.41,0,0,0,0,6.37,9.93,9.93,0,0,0,1.63-5.56C17.19,106.1,15.76,105.61,15.59,106.49Z" fill="#98221f"/><path d="M10.39,116.59l-2,5.71c-.42,1.26,1,1.8,1.42.48.21-.62,1.82-5.34,1.94-5.71S10.5,116.28,10.39,116.59Z" fill="#98221f"/><path d="M3.64,108.52.83,110.33c-1.69,1.09-.55,3,1.23,1.91l2.81-1.82C5.37,110.1,4.06,108.25,3.64,108.52Z" fill="#98221f"/><path d="M4.12,114.6,1,119.79c-.68,1.14.57,2,1.28.76l3.09-5.18C5.6,115,4.28,114.33,4.12,114.6Z" fill="#98221f"/><path d="M7.21,116.05l-2.67,6c-.59,1.32.86,2,1.48.66.29-.64,2.5-5.6,2.67-6S7.35,115.73,7.21,116.05Z" fill="#98221f"/><path d="M13.74,116.63c-.15.51-1.26,4.3-1.4,4.75-.3,1.05.85,1.45,1.18.35.15-.51,1.31-4.45,1.39-4.75S13.82,116.38,13.74,116.63Z" fill="#98221f"/><path d="M50.7,214.73c-1,2.7-3.14,5.4-3.77,6.52-.27.47,1.32.81,1.54.32A33.08,33.08,0,0,0,50.7,214.73Z" fill="#98221f"/><path d="M56.93,215.12a64.69,64.69,0,0,0,0,6.6c0,.36-1.55.24-1.55,0,0-1.23.62-6.08.72-6.8S57,214.53,56.93,215.12Z" fill="#98221f"/><path d="M55.1,214.57c-.25,1.79-.57,5.17-.77,7.16,0,.36-1.86.51-1.86.23,0-1.23.81-7.16.91-7.87S55.18,214,55.1,214.57Z" fill="#98221f"/><path d="M51.2,215.12c-.13,1-1.27,6.21-1.4,6.6s1.66.64,1.67,0,.84-6.61,1-6.92S51.26,214.73,51.2,215.12Z" fill="#98221f"/><path d="M54.43,223.57c0,.58-.09,1.44-.13,2-.09,1.18,2.18,1.19,2.27-.05,0-.58.11-1.61.14-2S54.46,223.28,54.43,223.57Z" fill="#98221f"/><path d="M51.48,223.72c-.08.34-.38,1.47-.46,1.78-.17.7,1.12.94,1.31.21.08-.35.41-1.58.45-1.78S51.53,223.55,51.48,223.72Z" fill="#98221f"/><path d="M48.73,224.94c-.24.6.83,1,1.08.35l.62-1.52c.07-.17-1-.5-1.08-.35S48.83,224.67,48.73,224.94Z" fill="#98221f"/><path d="M46.91,224.38c-.3.49.54,1,.86.49l.79-1.26c.09-.14-.78-.61-.86-.49Z" fill="#98221f"/><path d="M46,222.65l-.86,1.08c-.33.42.36,1,.71.56l.86-1.08C46.84,223.09,46.12,222.55,46,222.65Z" fill="#98221f"/><path d="M71.7,167c2.2.46,1,8.44-1.29,17.09s-5,22.05-6.78,28.77l-1.42-.21c3.11-9.62,4.22-15.42,4-23S67.94,166.22,71.7,167Z" fill="#98221f"/><path d="M72.83,178.79c.75-2.72,1.72-1,1.21,4.11s-4.69,16.46-7.37,30.53L65.55,213C67.77,205.92,69.61,190.48,72.83,178.79Z" fill="#98221f"/><path d="M63.41,186.55c-.86,1.66-1.74,4.27-1.18,8.63s.56,10.4,0,12.83C64.12,203.43,64.44,184.56,63.41,186.55Z" fill="#98221f"/><path d="M62.27,171.19a37.61,37.61,0,0,1,1.08,10.53c0,3.66-1.57,7.36-2.26,5.15S60.68,177.59,62.27,171.19Z" fill="#98221f"/><path d="M60.68,155.68c.47,4.61,1.59,7.79,3.81,12.41.84,1.73,1,4.45,0,8.74-.63-7.63-3.18-8-4-12.24A23.24,23.24,0,0,1,60.68,155.68Z" fill="#98221f"/><path d="M67.28,157.59c2.07,0,3.66,1.59,2.23,3.65s-2.7,1.59-4.14.16S64.74,157.59,67.28,157.59Z" fill="#98221f"/><path d="M60,109.7c-.56,2.4-.5,7.22,0,11.13a19.58,19.58,0,0,0,1.85,6.64,73.55,73.55,0,0,1,2.23-8C64.69,117.45,61.45,115.76,60,109.7Z" fill="#98221f"/><path d="M60.36,138.66c1.59-15.27,13-36.43,13-39.45.48,5.25-.16,8.74-3.82,16.7S62.27,131.66,60.36,138.66Z" fill="#98221f"/><path d="M61.29,110.35A20.7,20.7,0,0,0,64.64,117a15.57,15.57,0,0,0,3-6.54,8.27,8.27,0,0,1-1.52-4.25C66,105.33,61,109.57,61.29,110.35Z" fill="#98221f"/><path d="M64,131.5c-1.91,4.93-3.66,11.77-3.66,15.9s.08,10.19,3,10.19,2-7.64,2-11S64.5,135.64,64,131.5Z" fill="#98221f"/><path d="M73.56,108.75c1.27,4.46,2,13.63,1,17.66a202.41,202.41,0,0,0-5.72,29.26,4.64,4.64,0,0,0-2.51-.11c1.11-3.82.11-19.92-.84-24.06C64.37,126.83,71.49,117.18,73.56,108.75Z" fill="#98221f"/><path d="M74.36,98.57c0,3.66,1.59,15.59,1.75,23.23s-1.28,23.06-3.66,29.58c5.25-8.59,6.29-31.8,5.72-38.17a144,144,0,0,0-2.38-15.59C75.63,97,74.36,97.62,74.36,98.57Z" fill="#98221f"/><path d="M77.38,96.66c.55.92,1.75,9.07,1.43,13.68a105.1,105.1,0,0,0-2.23-12.88C76.27,96.5,76.9,95.87,77.38,96.66Z" fill="#98221f"/><path d="M69.67,156c.48-5,2.4-18.28,5.16-26.57-.31,8.11-1.5,20.68-4.21,27.68C70.62,157.11,70.15,156.15,69.67,156Z" fill="#98221f"/><path d="M69,103.94c.24,1.17.83,1.31.6,2.27s-.91,3.14-1.55,2.5a4.67,4.67,0,0,1-1.08-3.1C67.08,104.65,68.87,103.34,69,103.94Z" fill="#98221f"/><path d="M69.82,103.34c0,.72.24,1.43,1.08-.12s1.31-2.74,1.31-2.74S69.82,102.27,69.82,103.34Z" fill="#98221f"/><path d="M59.88,90.61c0-1.27,1.11-2.86,1.11-3.81s7-2.55,7-1A53.52,53.52,0,0,1,64.65,104c-1.43,3.81-4.29,4.29-4.61,1.11S59.88,94,59.88,90.61Z" fill="#98221f"/><path d="M68.71,80.83c0,2.27-.44,2.84-1.79,2.63a10.62,10.62,0,0,0-5.49,1.19c-1.21.62-1.55.12-1.55-1.55V77.85c0-1.19,1.83-1.71,4.1-1.71S68.71,77.13,68.71,80.83Z" fill="#98221f"/><path d="M68.71,72.8c0,2.27-.17,3.11-1.39,2.51a10.8,10.8,0,0,0-5.89-.6c-1.35.16-1.55.12-1.55-1.55V68.39c0-1.2,2.31-1.67,4.7-.72S68.71,70.67,68.71,72.8Z" fill="#98221f"/><path d="M68.71,65.58c0,2.27-.17,3.07-1.39,2.13a13,13,0,0,0-5.89-2.22c-1.35-.2-1.55-.3-1.55-2V61c0-1.19,2.43-1.31,4.7-.36C67.08,61.69,68.71,63.45,68.71,65.58Z" fill="#98221f"/><path d="M70.06,83.66a5.43,5.43,0,0,1,3.22-4.78c1.79-.95,2.39-.35,2.39,2s.24,6,.48,8.59.36,4.18-2.15,6.44S68.27,100,68.75,97A74.93,74.93,0,0,0,70.06,83.66Z" fill="#98221f"/><path d="M77.58,66a27,27,0,0,1-4.65,6.8c-1.2,1-1.32,5.73,0,4.89,2.19-1.39,4.17-4.29,4.89-9.07C78.11,66.68,77.94,65.16,77.58,66Z" fill="#98221f"/><path d="M72.45,66.83c-1.17,1-1.55,5.14-.24,4.3a11,11,0,0,0,4.18-5.73C76.65,64.42,74,65.52,72.45,66.83Z" fill="#98221f"/><path d="M77.46,63.14c.63-.67.45-3.85-.27-3.27A7,7,0,0,0,75,63.64C74.91,64.27,76.62,64,77.46,63.14Z" fill="#98221f"/><path d="M71.5,62.06c-1,.64-.44,4.64.47,3.82a11,11,0,0,0,3.19-6.33C75.25,58.53,73.52,60.75,71.5,62.06Z" fill="#98221f"/><path d="M70.42,59.68c-1,.38-.6,1.84.36,1.31a6.42,6.42,0,0,0,2.62-2.75C73.82,57.31,72,59.08,70.42,59.68Z" fill="#98221f"/><path d="M77.49,56.5c.34,1,.42,2-.63,2s-2.5-.73-1.66-1.15S77.28,55.88,77.49,56.5Z" fill="#98221f"/><path d="M63,41.66a2.29,2.29,0,0,0-3.23,2.15,21.29,21.29,0,0,0,.36,3.7,7.17,7.17,0,0,0-.48,3,5.89,5.89,0,0,0,.72,3.1,4.83,4.83,0,0,0-.72,2.75c0,1.79,3.7,3.46,8.36,2.26s9.78-4.05,11.81-6.32C74.72,49.77,70.78,44.76,63,41.66Z" fill="#98221f"/><path d="M79.85,51.09C74.72,48.58,71.06,42.76,63,40.47c-.84-.24,0-1.43,3.69-1.55a8.69,8.69,0,0,1,7.76,4.41C75.55,45.48,77,48.82,79.85,51.09Z" fill="#98221f"/><path d="M74,39.75c.45,1.36,3.46,8.47,6.68,11.1a12.74,12.74,0,0,0,6.44,2.86c-1.91-5.37-4.29-9.78-8.82-13.6C76.9,38.94,73.64,38.68,74,39.75Z" fill="#98221f"/><path d="M79.13,39.75c-.83-.59,3.82-1.55,6.68,1.19S89.27,50.61,89,54.19C87.72,53.59,85.93,44.29,79.13,39.75Z" fill="#98221f"/><path d="M75.47,36.49c-1.67-.12-5.25.36-6.08-.36s-3.7-3.45-3.7-3.45l.12-1.44S70.1,33.75,75.47,36.49Z" fill="#98221f"/><path d="M65.81,23.73c-.24,2.74-.6,6.8-2.75,10.5s-3.57,6.44-3.57,6.44c-.72-2.75.47-7.16,2-10S65.45,25,65.81,23.73Z" fill="#98221f"/><path d="M64.83,32.64a10.15,10.15,0,0,0,1.22,3.85c.22.33-2.76.88-3,.33S64.28,34.84,64.83,32.64Z" fill="#98221f"/><path d="M81.76,53a17.8,17.8,0,0,0,4.73,2c2.27,6.68,5.29,16.27,2,17.7s-6.92-5.73-8-10.5a47.81,47.81,0,0,1-1.19-7.28A18.12,18.12,0,0,0,81.76,53Z" fill="#98221f"/><path d="M87.68,55.58c1.89,4.21,5.08,11.85,1.91,19.81-.36.91.88.68,1.43-1.79A30.39,30.39,0,0,0,89.35,57,2.28,2.28,0,0,0,87.68,55.58Z" fill="#98221f"/><path d="M82.11,68.62C85,74.35,89,75.78,89.63,77.33s-1.31.24-3.34-1.43A12.83,12.83,0,0,1,82.11,68.62Z" fill="#98221f"/><path d="M84,77.2c1,.74,6.19,3.23,8.38,8.41A37.14,37.14,0,0,0,85,81.42C83.26,80.63,83.1,76.57,84,77.2Z" fill="#98221f"/><path d="M92,72.64c.47,1.91-2.15,6.8,1.65,13.45,3.3,5.77,9.74,15.28,10.19,16.51l1.56.45A31.79,31.79,0,0,1,99.14,89.7C96.93,78.65,94.6,74.91,92,72.64Z" fill="#98221f"/><path d="M88.55,84.43c2.15,1.11,5.37,3.42,7.94,8.81,2.12,4.42,5.6,9.92,5.6,9.92l-.5.23a117.91,117.91,0,0,0-8.3-12.23A74.11,74.11,0,0,1,88.55,84.43Z" fill="#98221f"/><path d="M89.46,87.57a62.14,62.14,0,0,1,6,8.65c1.58,2.72,3.31,7,4.28,8.18l-.47.56C96.69,100.14,91.26,92.43,89.46,87.57Z" fill="#98221f"/><path d="M85.37,82.58c2,2.08,3.51,8.27,13.18,22.94C91.23,96,85,86.33,85.37,82.58Z" fill="#98221f"/><path d="M71.68,159.09c-.3,1.33-.56,2.82-1.67,3.78a28.1,28.1,0,0,0-.32,3.66c1.34-2,2.7-3,3.66-2.23.93-3.6-.48-8.19.63-11.93A35.82,35.82,0,0,0,71.68,159.09Z" fill="#98221f"/><path d="M68.1,164c-1,.48-2.71-.48-3.18-1.11a22.89,22.89,0,0,1,1.74,6.2A29.11,29.11,0,0,1,68.1,164Z" fill="#98221f"/><path d="M104,105.18c1.55,2.88,4.23,3.54,7,3.31s0-2.13-2.15-3.18S103.47,104.29,104,105.18Z" fill="#98221f"/><path d="M103.47,105.84c1.73,3.56,7,4.44,8.57,6.79.57.88-1.77,2.61-5.63,3s-5,.23-4.28-1.6,1.32-5.11.79-6.67S103,104.92,103.47,105.84Z" fill="#98221f"/><path d="M101.56,106.49a12.3,12.3,0,0,1,0,6.37A10,10,0,0,1,100,107.3C100,106.1,101.4,105.61,101.56,106.49Z" fill="#98221f"/><path d="M106.76,116.59l1.95,5.71c.43,1.26-1,1.8-1.41.48-.21-.62-1.82-5.34-2-5.71S106.66,116.28,106.76,116.59Z" fill="#98221f"/><path d="M113.51,108.52l2.81,1.81c1.7,1.09.55,3-1.23,1.91-.82-.54-2.3-1.5-2.81-1.82S113.1,108.25,113.51,108.52Z" fill="#98221f"/><path d="M113,114.6c.33.57,2.78,4.69,3.08,5.19.68,1.14-.57,2-1.28.76l-3.08-5.18C111.56,115,112.87,114.33,113,114.6Z" fill="#98221f"/><path d="M109.94,116.05c.29.64,2.41,5.4,2.68,6,.58,1.32-.87,2-1.48.66-.29-.64-2.5-5.6-2.68-6S109.8,115.73,109.94,116.05Z" fill="#98221f"/><path d="M103.41,116.63c.15.51,1.26,4.3,1.4,4.75.31,1.05-.85,1.45-1.18.35-.14-.51-1.3-4.45-1.39-4.75S103.34,116.38,103.41,116.63Z" fill="#98221f"/><path d="M66.45,214.73c1,2.7,3.14,5.4,3.78,6.52.27.47-1.33.81-1.55.32A33.69,33.69,0,0,1,66.45,214.73Z" fill="#98221f"/><path d="M60.23,215.12a64.39,64.39,0,0,1,0,6.6c0,.36,1.55.24,1.55,0,0-1.23-.61-6.08-.71-6.8S60.14,214.53,60.23,215.12Z" fill="#98221f"/><path d="M62.06,214.57c.25,1.79.56,5.17.76,7.16,0,.36,1.86.51,1.86.23,0-1.23-.8-7.16-.9-7.87S62,214,62.06,214.57Z" fill="#98221f"/><path d="M66,215.12c.14,1,1.27,6.21,1.4,6.6s-1.66.64-1.67,0-.84-6.61-1-6.92S65.9,214.73,66,215.12Z" fill="#98221f"/><path d="M62.72,223.57c0,.58.1,1.44.13,2,.09,1.18-2.18,1.19-2.27-.05,0-.58-.11-1.61-.14-2S62.69,223.28,62.72,223.57Z" fill="#98221f"/><path d="M65.67,223.72c.09.34.39,1.47.46,1.78.18.7-1.12.94-1.3.21l-.46-1.78C64.32,223.72,65.63,223.55,65.67,223.72Z" fill="#98221f"/><path d="M68.42,224.94c.24.6-.82,1-1.07.35-.12-.29-.56-1.34-.63-1.52s1-.5,1.08-.35S68.32,224.67,68.42,224.94Z" fill="#98221f"/><path d="M70.24,224.38c.31.49-.54,1-.86.49l-.79-1.26c-.08-.14.79-.61.86-.49Z" fill="#98221f"/><path d="M71.11,222.65l.86,1.08c.33.42-.36,1-.71.56l-.86-1.08C70.31,223.09,71,222.55,71.11,222.65Z" fill="#98221f"/></svg>