<svg id="Layer_1" data-name="Layer 1" xmlns="http://www.w3.org/2000/svg" viewBox="0 0 114.16 223.73"><path d="M53.93,18.69A11.77,11.77,0,0,1,52.15,23c-.48.72-1.08-1.31-1.2-1.91s.36-6.32.24-7.63S54.06,17.14,53.93,18.69Z" fill="#98221f"/><path d="M49,13.56a5.4,5.4,0,0,0,0,4.65c.84,1.91,1.44-2.27,1.44-4.18C50.48,13.56,49.28,13.08,49,13.56Z" fill="#98221f"/><path d="M56.08.08c-.18-.24-4-.12-6,3.58,3-2.45,5.64-2.26,6-2.69A.8.8,0,0,0,56.08.08Z" fill="#98221f"/><path d="M55.84,8.43a8.06,8.06,0,0,0,.06-2.75c-.12-.77-1.43-.71-3.52.9C50.61,8,48.92,8.07,48.81,8.73s-.47,1.47.41,1.61C51.19,10.63,55.52,9.57,55.84,8.43Z" fill="#98221f"/><path d="M54.77,17.18a10,10,0,0,1-2.62,9.65,68,68,0,0,1-10,7.84c-1.12.6,2.86-.3,6.52,1.2s6.36,2.84,6.2-.15,1.59-8,1.59-11.73V18C56.44,17.26,54.53,16.36,54.77,17.18Z" fill="#98221f"/><path d="M40.85,35.72c-2.38-.42-7.63,1.33-6.52,1.33s6.2.46,8,3.6,4.94,10.62,8,13.76,5.25,6.13,5.25,2.24.19-15.76-1.43-16.89C50.4,37.22,45.24,36.5,40.85,35.72Z" fill="#98221f"/><path d="M39.27,40.07c-2.07,1.2-4.3,4.71-6.37,7.4s-4.29,4-5.41,6c-2.22-4.94-.64-11,2.55-13.76C32.74,37.36,36.88,38.42,39.27,40.07Z" fill="#98221f"/><path d="M28.27,60.36c.28,4.24,1.63,11.67.34,14.39s3.49-1.75,4.77-8c1.22-6-2.23-12.25-.32-17.47C29.4,53.21,28.05,57,28.27,60.36Z" fill="#98221f"/><path d="M28,54.46C27,56.61,24.35,67.61,23.91,73.73,23,68.86,24.28,57.67,28,54.46Z" fill="#98221f"/><path d="M26.74,62.45c-.4,1.91-1,6.55-1.31,9-.16,1.11,1.74,2.38,2,.67C27.93,68.57,27.53,58.63,26.74,62.45Z" fill="#98221f"/><path d="M27.17,74.59c-.16,2.71-1.48,5-3.25,8.57C22.93,79.93,25.27,75.07,27.17,74.59Z" fill="#98221f"/><path d="M23.68,75.12c-3,7.53.53,12.44-7.26,27.94C16.28,96.73,19.69,84.83,23.68,75.12Z" fill="#98221f"/><path d="M21.29,75.54c-4.77,4.93-6.2,18.77-9.59,25.59-.31,1.08,3,2.47,3,1.51C14.76,99.36,16.26,87.58,21.29,75.54Z" fill="#98221f"/><path d="M27.5,78.67c.76,1,2.73.52,3.6-.65s-.63,3.37-3.37,9.11S20.79,98,19.59,99.87c3.24-7.26,3.8-12.41,4.91-14.88S27,79.83,27.5,78.67Z" fill="#98221f"/><path d="M45.31,53.27C44,50.73,42.12,44.2,40.69,43.09s-2.86.16-4.77,3-2.39,4.46-2.23,5.57C37.19,51.52,42,53.91,45.31,53.27Z" fill="#98221f"/><path d="M49.12,58c2.87,2.87,5,4.48,5.41,7,1,6.37,1.64,26.41,1.44,31.5s-2.87-2.23-8.75-7c-2.2-1.78-3-5.41-4.94-10.66s-7.91-21.57-8.43-24.66c-.16-.95,1.87-.71,5.57,0C43.56,55,46.9,55.82,49.12,58Z" fill="#98221f"/><path d="M40.37,78.4c.4,3-.31,9.55-.47,11s1.59-.32,3.82-.32C45,89.06,40.06,76,40.37,78.4Z" fill="#98221f"/><path d="M52.15,98.77c1.12,1.69,4.12,1.75,4.12,5.08s-.46,6.69-.31,8-2.52-4-3.18-7.32C52,100.52,51.83,98.29,52.15,98.77Z" fill="#98221f"/><path d="M41.53,90.93c-2.44,1.36-3,8.11-3.7,12.77s.41-2.94,3.7-5.85c4.17-3.7,7.75-3.1,7-4.53S44.75,89.14,41.53,90.93Z" fill="#98221f"/><path d="M48.45,95.47a15,15,0,0,0-10.74,13.36c-.72,6.92,1.91,10.62,1.91,14.08,4.26-7.12,13.12-6.45,13.12-11.82,0-2.26-1.19-5.25-1.91-11.93C50.45,95.59,50,95,48.45,95.47Z" fill="#98221f"/><path d="M37,116.83c.72,2.83,2.5,6.55,1.4,9.73a21.15,21.15,0,0,0-1.26,6.5C36,124.52,36.23,120.81,37,116.83Z" fill="#98221f"/><path d="M40,124.34c-1,3.86-2.58,11.46-2.14,15.74s2.6,9.79,2.17,13.51a20,20,0,0,0,.6,7.86l.35-2.77c-.25-3,1.28-6,1.85-9S41.9,145.27,42,138s.88-14.49,1.94-17.4C42.5,122,40.87,123,40,124.34Z" fill="#98221f"/><path d="M45.15,119.92c-.51,1.93-2.34,16.59-1.28,24.06s6.16,17.15,6.27,19.54l1.13-1.37c.35-2.88-3.34-7.61-3.53-14.41-.33-12.4,2.9-17.45,1.71-30.29A11.13,11.13,0,0,0,45.15,119.92Z" fill="#98221f"/><path d="M54.37,115.19c-.08,3.59,0,20.07-2,23.86C51.58,132.4,51,128.3,51,128.3a88.27,88.27,0,0,0,.15-12.2C52,115.35,53.74,114.51,54.37,115.19Z" fill="#98221f"/><path d="M50.31,133.42c.9,4,2,10.17,1.82,13.64s.87,8.56-.42,11.61c-1.87-4.34-2.89-8.35-2.46-11.95S50.39,135.32,50.31,133.42Z" fill="#98221f"/><path d="M42.21,154.69a71.65,71.65,0,0,1-1.13,9.12c-1.16,6-2.76,13.59-.19,19.24.8,1.76,2.2,6.23,3.44,4.74s2.45-1.31,1.62-3.9a50.09,50.09,0,0,1-1.29-15,77.75,77.75,0,0,0-.26-13.36C44.24,154.71,42.6,152.76,42.21,154.69Z" fill="#98221f"/><path d="M45.38,156.09c.25,1.78.63,11.08.74,16a89.86,89.86,0,0,0,1.06,12.73c.45,1.89,3.42,4.15,4.17,5s1.85-1.28,2.26-5.36-1.87-14.73-3.36-18.48-2.22-6.7-2.63-8S45.2,154.79,45.38,156.09Z" fill="#98221f"/><path d="M45.4,187.85c-1,1.08-1.8.81-1.23,3.32S47,203.49,47.46,209.1s.86,10,.85,11.23c0,.59,1.31.6,1.31-.23a104.09,104.09,0,0,1,.88-16.58c1.14-6.91,1.53-10.84,0-12.76S47.33,185.71,45.4,187.85Z" fill="#98221f"/><path d="M44.23,197.85c.81,2.52,2.38,12.44,2.12,15.42a21,21,0,0,0,.29,6.56c.35,1.56-1.67.22-1.42-.73s.73-1.18-.07-5.37S43,203.93,44.23,197.85Z" fill="#98221f"/><path d="M43.31,219.2c-1-.4-.84.71.1,1.79s3.31,3.62,3.56,2.42a1.82,1.82,0,0,0-.7-1.91C45.32,221,43.9,219.45,43.31,219.2Z" fill="#98221f"/><path d="M48.69,221.6c-.55.05-.8.63-.8,1.42s2.14.82,2.22.19A1.51,1.51,0,0,0,48.69,221.6Z" fill="#98221f"/><path d="M50.62,220.19a6.33,6.33,0,0,1,1.53-2.69c.4-.4,1.74,1.05,1.11,1.36s-1.78,2.13-2.18,2.68S50.37,221.14,50.62,220.19Z" fill="#98221f"/><path d="M9.76,104.72c-.47.51-2.47,2.28-3.15,2.89s-.77,3.45.2,2.45,2.86-3.42,3.53-4S10,104.44,9.76,104.72Z" fill="#98221f"/><path d="M11,107.23s-2.61,3.15-2.8,3.58.68,1.09,1.08.49S11,107.23,11,107.23Z" fill="#98221f"/><path d="M12.61,107.43s-1.93,3.6-2,4.06.88.94,1.16.27S12.61,107.43,12.61,107.43Z" fill="#98221f"/><path d="M15.14,107.4s-1.58,3.76-1.65,4.23,1,.85,1.19.16S15.14,107.4,15.14,107.4Z" fill="#98221f"/><path d="M10.66,115.22c-.17.63-1.45,5.25-1.61,5.82-.35,1.28,1.07,1.74,1.44.4.18-.63,1.51-5.44,1.61-5.82S10.75,114.91,10.66,115.22Z" fill="#98221f"/><path d="M3.46,107.56c-.8.58-2,1.44-2.7,2-1.63,1.19-.38,3.08,1.33,1.83l2.7-2C5.27,109,3.85,107.27,3.46,107.56Z" fill="#98221f"/><path d="M4.29,113.6c-.31.58-2.51,4.85-2.78,5.36-.61,1.18.68,1.92,1.32.69.3-.58,2.59-5,2.78-5.36S4.44,113.32,4.29,113.6Z" fill="#98221f"/><path d="M7.46,114.87c-.25.66-2.1,5.53-2.32,6.13-.51,1.34,1,2,1.51.57L9,115.44C9.12,115,7.58,114.54,7.46,114.87Z" fill="#98221f"/><path d="M14,115.07l-1.12,4.83c-.25,1.06.93,1.39,1.19.27.13-.52,1.05-4.51,1.12-4.82S14.07,114.81,14,115.07Z" fill="#98221f"/><path d="M60.22,18.69A12,12,0,0,0,62,23c.48.72,1.08-1.31,1.2-1.91s-.36-6.32-.24-7.63S60.11,17.14,60.22,18.69Z" fill="#98221f"/><path d="M65.12,13.56a5.4,5.4,0,0,1,0,4.65c-.84,1.91-1.44-2.27-1.44-4.18C63.68,13.56,64.88,13.08,65.12,13.56Z" fill="#98221f"/><path d="M58.08.08c.18-.24,4.05-.12,6,3.58-3-2.45-5.64-2.26-6-2.69A.8.8,0,0,1,58.08.08Z" fill="#98221f"/><path d="M58.32,8.43a8.06,8.06,0,0,1-.06-2.75c.12-.77,1.43-.71,3.51.9C63.55,8,65.23,8.07,65.35,8.73s.47,1.47-.41,1.61C63,10.63,58.64,9.57,58.32,8.43Z" fill="#98221f"/><path d="M59.39,17.18A10,10,0,0,0,62,26.83a68,68,0,0,0,10,7.84c1.12.6-2.86-.3-6.52,1.2s-6.36,2.84-6.2-.15-1.59-8-1.59-11.73V18C57.72,17.26,59.63,16.36,59.39,17.18Z" fill="#98221f"/><path d="M73.31,35.72c2.38-.42,7.63,1.33,6.52,1.33s-6.2.46-8,3.6-4.93,10.62-8,13.76-5.25,6.13-5.25,2.24-.19-15.76,1.43-16.89C63.76,37.22,68.92,36.5,73.31,35.72Z" fill="#98221f"/><path d="M74.89,40.07c2.07,1.2,4.3,4.71,6.37,7.4s4.29,4,5.41,6c2.22-4.94.65-11-2.55-13.76C81.42,37.36,77.28,38.42,74.89,40.07Z" fill="#98221f"/><path d="M85.89,60.36c-.28,4.24-1.63,11.67-.34,14.39s-3.49-1.75-4.77-8c-1.22-6,2.23-12.25.32-17.47C84.76,53.21,86.11,57,85.89,60.36Z" fill="#98221f"/><path d="M86.13,54.46c1.06,2.15,3.68,13.15,4.11,19.27C91.12,68.86,89.88,57.67,86.13,54.46Z" fill="#98221f"/><path d="M87.43,62.45c.39,1.91,1,6.55,1.3,9,.16,1.11-1.75,2.38-2,.67C86.23,68.57,86.63,58.63,87.43,62.45Z" fill="#98221f"/><path d="M87,74.59c.17,2.71,1.49,5,3.26,8.57C91.23,79.93,88.89,75.07,87,74.59Z" fill="#98221f"/><path d="M90.48,75.12c3,7.53-.53,12.44,7.26,27.94C97.88,96.73,94.47,84.83,90.48,75.12Z" fill="#98221f"/><path d="M92.87,75.54c4.77,4.93,6.2,18.77,9.59,25.59.31,1.08-3,2.47-3,1.51C99.4,99.36,97.9,87.58,92.87,75.54Z" fill="#98221f"/><path d="M86.66,78.67c-.76,1-2.73.52-3.6-.65s.63,3.37,3.37,9.11S93.37,98,94.57,99.87c-3.24-7.26-3.8-12.41-4.91-14.88S87.18,79.83,86.66,78.67Z" fill="#98221f"/><path d="M68.85,53.27c1.28-2.54,3.19-9.07,4.62-10.18s2.86.16,4.77,3,2.39,4.46,2.23,5.57C77,51.52,72.19,53.91,68.85,53.27Z" fill="#98221f"/><path d="M65,58c-2.87,2.87-5,4.48-5.41,7-1,6.37-1.67,26.41-1.48,31.5s2.91-2.23,8.79-7c2.2-1.78,3-5.41,4.94-10.66s7.91-21.57,8.43-24.66c.16-.95-1.87-.71-5.57,0C70.6,55,67.26,55.82,65,58Z" fill="#98221f"/><path d="M73.79,78.4c-.41,3,.31,9.55.47,11s-1.59-.32-3.82-.32C69.17,89.06,74.1,76,73.79,78.4Z" fill="#98221f"/><path d="M62,98.77c-1.12,1.69-4.15,1.75-4.15,5.08s.49,6.69.34,8,2.52-4,3.18-7.32C62.17,100.52,62.33,98.29,62,98.77Z" fill="#98221f"/><path d="M72.63,90.93c2.44,1.36,3,8.11,3.7,12.77s-.41-2.94-3.7-5.85c-4.17-3.7-7.75-3.1-7-4.53S69.41,89.14,72.63,90.93Z" fill="#98221f"/><path d="M77.15,116.83c-.72,2.83-2.5,6.55-1.4,9.73a21.15,21.15,0,0,1,1.26,6.5C78.12,124.52,77.93,120.81,77.15,116.83Z" fill="#98221f"/><path d="M74.18,124.34c1,3.86,2.58,11.46,2.14,15.74s-2.6,9.79-2.17,13.51a20,20,0,0,1-.6,7.86l-.35-2.77c.25-3-1.28-6-1.85-9s.91-4.37.77-11.67-.88-14.49-2-17.4C71.66,122,73.29,123,74.18,124.34Z" fill="#98221f"/><path d="M69,119.92c.51,1.93,2.34,16.59,1.28,24.06S64.13,161.13,64,163.52l-1.13-1.37c-.35-2.88,3.34-7.61,3.53-14.41.33-12.4-2.9-17.45-1.72-30.29A11.09,11.09,0,0,1,69,119.92Z" fill="#98221f"/><path d="M59.79,115.19c.08,3.59,0,20.07,2,23.86.78-6.65,1.32-10.75,1.32-10.75A88.27,88.27,0,0,1,63,116.1C62.16,115.35,60.42,114.51,59.79,115.19Z" fill="#98221f"/><path d="M63.85,133.42c-.9,4-2,10.17-1.82,13.64s-.87,8.56.42,11.61c1.87-4.34,2.89-8.35,2.46-11.95S63.76,135.32,63.85,133.42Z" fill="#98221f"/><path d="M72,154.69a71.65,71.65,0,0,0,1.13,9.12c1.16,6,2.76,13.59.19,19.24-.8,1.76-2.2,6.23-3.44,4.74s-2.45-1.31-1.62-3.9a50.09,50.09,0,0,0,1.29-15,76.72,76.72,0,0,1,.26-13.36C69.92,154.71,71.56,152.76,72,154.69Z" fill="#98221f"/><path d="M68.78,156.09c-.25,1.78-.63,11.08-.74,16A89.86,89.86,0,0,1,67,184.79c-.45,1.89-3.42,4.15-4.17,5s-1.85-1.28-2.26-5.36,1.87-14.73,3.36-18.48,2.22-6.7,2.63-8S69,154.79,68.78,156.09Z" fill="#98221f"/><path d="M68.76,187.85c1,1.08,1.8.81,1.23,3.32s-2.87,12.32-3.29,17.93-.86,10-.85,11.23c0,.59-1.31.6-1.31-.23a105.38,105.38,0,0,0-.88-16.58c-1.14-6.91-1.53-10.84,0-12.76S66.83,185.71,68.76,187.85Z" fill="#98221f"/><path d="M69.93,197.85c-.81,2.52-2.39,12.44-2.12,15.42a21,21,0,0,1-.29,6.56c-.35,1.56,1.67.22,1.42-.73s-.73-1.18.07-5.37S71.18,203.93,69.93,197.85Z" fill="#98221f"/><path d="M70.85,219.2c1-.4.84.71-.1,1.79s-3.31,3.62-3.56,2.42a1.82,1.82,0,0,1,.7-1.91C68.84,221,70.26,219.45,70.85,219.2Z" fill="#98221f"/><path d="M65.46,221.6c.56.05.81.63.81,1.42s-2.14.82-2.22.19A1.51,1.51,0,0,1,65.46,221.6Z" fill="#98221f"/><path d="M63.54,220.19A6.33,6.33,0,0,0,62,217.5c-.4-.4-1.73,1.05-1.1,1.36s1.78,2.13,2.18,2.68S63.79,221.14,63.54,220.19Z" fill="#98221f"/><path d="M65.71,95.47a15,15,0,0,1,10.74,13.36c.71,6.92-1.91,10.62-1.91,14.08-4.26-7.12-13.12-6.45-13.12-11.82,0-2.26,1.19-5.25,1.91-11.93C63.71,95.59,64.16,95,65.71,95.47Z" fill="#98221f"/><path d="M104.4,104.72c.47.51,2.47,2.28,3.15,2.89s.77,3.45-.2,2.45-2.86-3.42-3.53-4S104.14,104.44,104.4,104.72Z" fill="#98221f"/><path d="M103.18,107.23s2.61,3.15,2.8,3.58-.68,1.09-1.08.49S103.18,107.23,103.18,107.23Z" fill="#98221f"/><path d="M101.55,107.43s1.93,3.6,2,4.06-.88.94-1.16.27S101.55,107.43,101.55,107.43Z" fill="#98221f"/><path d="M99,107.4s1.58,3.76,1.64,4.23-1,.85-1.18.16S99,107.4,99,107.4Z" fill="#98221f"/><path d="M103.5,115.22c.17.63,1.45,5.25,1.61,5.82.35,1.28-1.07,1.74-1.44.4-.18-.63-1.51-5.44-1.61-5.82S103.41,114.91,103.5,115.22Z" fill="#98221f"/><path d="M110.7,107.56c.8.58,2,1.44,2.7,2,1.63,1.19.38,3.08-1.33,1.83l-2.7-2C108.89,109,110.31,107.27,110.7,107.56Z" fill="#98221f"/><path d="M109.87,113.6c.31.58,2.51,4.85,2.78,5.36.61,1.18-.68,1.92-1.32.69-.29-.58-2.59-5-2.78-5.36S109.72,113.32,109.87,113.6Z" fill="#98221f"/><path d="M106.7,114.87c.25.66,2.1,5.53,2.32,6.13.51,1.34-1,2-1.52.57-.24-.66-2.16-5.73-2.31-6.13S106.58,114.54,106.7,114.87Z" fill="#98221f"/><path d="M100.15,115.07l1.12,4.83c.24,1.06-.93,1.39-1.19.27-.13-.52-1-4.51-1.12-4.82S100.09,114.81,100.15,115.07Z" fill="#98221f"/></svg>