<svg id="Capa_1" data-name="Capa 1" xmlns="http://www.w3.org/2000/svg" viewBox="0 0 63.88 63.88">
  <g>
    <path d="M63.82,31.6a25.42,25.42,0,0,0-3.25-9A7,7,0,0,1,56,27.29c.32.7.61,1.42.86,2.15-1.1,0-2.2,0-3.29,0A5.82,5.82,0,0,0,45.21,28a19.32,19.32,0,0,1-1.59-4.93c1.31.08,2.63.18,3.93.36A6.87,6.87,0,0,1,47,20.66a7,7,0,0,1,.94-3.48c-2.54-.3-5.12-.39-7.67-.6a3.16,3.16,0,0,0-3.15,3.15,25,25,0,0,0,3.14,12.43c-2,1.61-3.88,3.07-5.94,4.74A59.38,59.38,0,0,0,25.59,30c-1.58-1.06-3.43-.43-4.77.62L8.49,40.27a3.61,3.61,0,0,0-1.21,1.6H3.8c-5.07,0-5.07,7.86,0,7.86H33.67a6.74,6.74,0,0,0,4.61-1.88c5.48-4.74,9-7.13,14.48-11.87.13-.11.24-.23.35-.34,2.56.12,5.15,0,7.69-.06A3.2,3.2,0,0,0,63.82,31.6ZM19.09,41.87Q21.4,40,23.73,38.23a40,40,0,0,1,4.5,3.64Z" fill="#010002"/>
    <path d="M54.07,26.38A6.12,6.12,0,1,0,48,20.26,6.12,6.12,0,0,0,54.07,26.38Z" fill="#010002"/>
  </g>
</svg>
