<svg id="Layer_1" data-name="Layer 1" xmlns="http://www.w3.org/2000/svg" viewBox="0 0 100 100">
  <path d="M83.2,16.2C78.5,7.4,69.3,3.6,50.3,3.6S22.2,7.4,17.5,16.2c-7,13.1,3.6,30.3,6.7,34.9a31.29,31.29,0,0,0-4.8,16.6c0,22.6,13.9,28.2,31,28.2s31-5.6,31-28.2a31.29,31.29,0,0,0-4.8-16.6c3.1-4.6,13.6-21.8,6.6-34.9ZM36.3,86.1c-1.6.9-4.5-1.1-6.4-4.4s-2.2-6.8-.6-7.8,4.5,1.1,6.4,4.4S37.9,85.2,36.3,86.1Zm6.9-29.5c-3.9.4-7.2-.7-7.3-2.6s2.8-3.6,6.7-4,7.2.8,7.3,2.6S47.1,56.3,43.2,56.6ZM67.7,42a31.21,31.21,0,0,0-34.8,0c-3.4-5.7-7.3-14.9-4.6-19.9,2.3-4.2,10.2-5.8,22-5.8S70,17.9,72.3,22C75,27,71.1,36.3,67.7,42Z"/>
</svg>
