<svg id="Layer_1" data-name="Layer 1" xmlns="http://www.w3.org/2000/svg" viewBox="0 0 100 100">
  <g>
    <path d="M56.1,13.4a9.07,9.07,0,0,0,18.14-.1v-.11a9.07,9.07,0,1,0-18.14.11Z"/>
    <path d="M82.8,19.87a4.85,4.85,0,0,1,8.28,5A26.43,26.43,0,0,1,63,37a2.14,2.14,0,0,0-2.29,1L48.8,57.73l15.31,6.93a6.68,6.68,0,0,1,.57,11.86L45.19,87.72a5.93,5.93,0,0,1-5.9-10.28l9.25-5.32a.83.83,0,0,0,.35-.39.86.86,0,0,0-.43-1.14L37.88,65.8a2.17,2.17,0,0,0-2.74.85L19.26,93A5.93,5.93,0,0,1,9.11,86.84l34-56.29a2,2,0,0,0,.26-.63,2.16,2.16,0,0,0-1.62-2.58,18.28,18.28,0,0,0-19.34,7.82,4.85,4.85,0,0,1-8.12-5.32c.31-.47.63-.92,1-1.37A28,28,0,0,1,54.4,22.73l5.76,3a16.74,16.74,0,0,0,22.63-5.84Z"/>
  </g>
</svg>
