<svg id="Layer_1" data-name="Layer 1" xmlns="http://www.w3.org/2000/svg" viewBox="0 0 100 100">
  <path d="M8.12,84.75l-.77.31L5.07,95.31h7.79l.68-2.55A12.89,12.89,0,0,1,8.12,84.75Z"/>
  <path d="M42.19,93.75v1.56h6.25V92.19H43.75A1.56,1.56,0,0,0,42.19,93.75Z"/>
  <path d="M11,83.25a9.73,9.73,0,0,0,3.38,6.25l3.13-11.73A26.32,26.32,0,0,1,11,83.25Z"/>
  <path d="M25.36,85.57a44.89,44.89,0,0,1,1.18,9.74H39.06V93.75a4.7,4.7,0,0,1,4.69-4.69h4.69V85.94H28.12A11,11,0,0,1,25.36,85.57Z"/>
  <path d="M17.19,69.19a10.92,10.92,0,0,0-2.29,5.46l-.2,1.6A22.83,22.83,0,0,0,17.19,73Z"/>
  <path d="M32.81,29.69V23.44a3.13,3.13,0,0,0,0,6.25Z"/>
  <path d="M70.31,26.56a3.12,3.12,0,0,0-3.12-3.12v6.25A3.13,3.13,0,0,0,70.31,26.56Z"/>
  <path d="M88.15,83.46l.5.84a14.07,14.07,0,0,0,4.91,4.85L92,81.94a23,23,0,0,1-3.1-1.33A17.44,17.44,0,0,1,88.15,83.46Z"/>
  <path d="M58,10.94a9.08,9.08,0,0,1,5.67,2A11,11,0,0,0,53.12,4.69H51.56V13.1L54,11.9A9.21,9.21,0,0,1,58,10.94Z"/>
  <path d="M64.06,31.25V20.08a6,6,0,0,0-8.71-5.38l-3.79,1.89V31.25h4.69a6.24,6.24,0,0,1-4.69,6v4.91h1.56A11,11,0,0,0,64.06,31.25Z"/>
  <path d="M19.67,81.92,16.1,95.31h7.31a42,42,0,0,0-1.77-11.52A10.58,10.58,0,0,1,19.67,81.92Z"/>
  <path d="M56.64,81.25A11.8,11.8,0,0,0,66,85.94,13.7,13.7,0,0,0,79.69,72.27a15.18,15.18,0,0,0-2.56-8.44l-.3-.46,2.6-1.74.3.47a18.29,18.29,0,0,1,3,9.18l1,1.21a20.2,20.2,0,0,0,7.4,5.77l-3-13.53A14.12,14.12,0,0,0,77.46,54.06l-13.53-3a7.73,7.73,0,0,1-6-6.59,14,14,0,0,1-4.78.85H51.56V56.46l.69-.46a7.74,7.74,0,0,1,4.33-1.31H70.31v3.12H56.58a4.63,4.63,0,0,0-2.6.79l-2.42,1.61V89.06h4.69a4.7,4.7,0,0,1,4.69,4.69v1.56H73.46a45.9,45.9,0,0,1,.93-8.51A16.64,16.64,0,0,1,66,89.06a14.92,14.92,0,0,1-11.88-5.94l-.7-.93,2.5-1.88Zm2.89-15.47a6.26,6.26,0,0,1,12.19,0,6.26,6.26,0,0,1,0,12.19,6.26,6.26,0,0,1-12.19,0,6.26,6.26,0,0,1,0-12.19Z"/>
  <path d="M56.25,92.19H51.56v3.12h6.25V93.75A1.56,1.56,0,0,0,56.25,92.19Z"/>
  <path d="M60.94,75H62.5v1.56a3.13,3.13,0,1,0,6.25,0V75h1.56a3.13,3.13,0,1,0,0-6.25H68.75V67.19a3.13,3.13,0,1,0-6.25,0v1.56H60.94a3.13,3.13,0,1,0,0,6.25Zm4.68-6.25a3.13,3.13,0,1,1-3.12,3.13A3.13,3.13,0,0,1,65.62,68.75Z"/>
  <path d="M78.43,83.54a42.35,42.35,0,0,0-1.85,11.77H83.9l-3.74-14A15.91,15.91,0,0,1,78.43,83.54Z"/>
  <path d="M82.44,75.76c-.07.34-.16.66-.25,1l2.08,7.81A13.61,13.61,0,0,0,85.9,78.8,23.7,23.7,0,0,1,82.44,75.76Z"/>
  <path d="M94.42,93a17.12,17.12,0,0,1-7.84-6.19,16.18,16.18,0,0,1-1.24,1.74l1.8,6.74h7.79Z"/>
  <path d="M42.1,44.46a7.73,7.73,0,0,1-6,6.59l-13.52,3A14.13,14.13,0,0,0,11.87,64.73L8.2,81.24a22.2,22.2,0,0,0,3-1.81l.65-5.17a14.08,14.08,0,0,1,5.68-9.63,7.66,7.66,0,0,1,2-3.5l1.29-1.3L23,62l-1.29,1.3a4.69,4.69,0,0,0-1.38,3.31V75a7.82,7.82,0,0,0,7.81,7.81H48.44V60.21L46,58.6a4.63,4.63,0,0,0-2.6-.79H29.69V54.69H43.42A7.74,7.74,0,0,1,47.75,56l.69.46V45.31H46.88A14,14,0,0,1,42.1,44.46Zm2.35,30.7L43.05,78,36.8,74.83,38.2,72Zm-4.63-14,1.61,2.68L25.8,73.22l-1.6-2.68Z"/>
  <path d="M42,14.06a6,6,0,0,0-6,6V31.25A11,11,0,0,0,46.88,42.19h1.56V37.28a6.24,6.24,0,0,1-4.69-6h4.69V16.59L44.65,14.7A6,6,0,0,0,42,14.06Z"/>
  <path d="M36.29,12.92a9.08,9.08,0,0,1,5.67-2,9.21,9.21,0,0,1,4.09,1l2.39,1.2V4.69H46.88A11,11,0,0,0,36.29,12.92Z"/>
</svg>
