<svg id="Layer_1" data-name="Layer 1" xmlns="http://www.w3.org/2000/svg" viewBox="0 0 190.57 193.85"><g id="Layer_2" data-name="Layer 2"><g id="Layer_1-2" data-name="Layer 1-2"><path d="M136.5,76.9c5.54.4,10.82.88,16.11,1.15,5.48.27,9.23,3.88,9.16,9.37-.05,3.8.61,7.65-.5,11.41a8.66,8.66,0,0,1-7.79,6.31c-5,.33-10,.71-14.95.94-1.56.08-2,.68-1.95,2.14.11,4.24.2,8.49.1,12.74-.05,1.84.55,2.41,2.36,2.57,5.22.45,10.5.1,15.67,1.12,3.87.77,6.31,3.21,6.8,7,.56,4.43.84,9-.26,13.39a7.79,7.79,0,0,1-6.52,6.06c-1.26.24-1.7.65-1.7,1.88v27.23c0,1.49.64,1.84,2,1.8,2.58-.08,5.16,0,7.74-.06,2.25,0,3.44,1,3.39,3.3v3c0,2.07-1,2.89-3.12,3-3.82.15-7.62,0-11.44,0-8.23-.11-16.48,1-24.69.32-9.92-.86-19.78.46-29.67.08-4-.15-5.07-.81-5.09-3.52,0-5,.76-5.92,5-5.93,2.16,0,4.33-.1,6.49-.08,1.44,0,2.16-.56,2.16-2.06v-27c0-1.21-.4-1.73-1.68-1.95A8.26,8.26,0,0,1,97,142.6v-9.24a8.33,8.33,0,0,1,7-8.7c5.16-1.07,10.45-.7,15.67-1.18,1.8-.17,2.46-.59,2.4-2.48-.13-4.33-.07-8.66,0-13,0-1.16-.16-1.85-1.58-1.92-4.9-.24-9.79-.65-14.69-.92-4.22-.23-7.55-2.64-8.53-6.69-.38-1.54-1-1.79-2.38-1.79H41.7c-1.39,0-1.81.37-1.82,1.86q-.32,42.84-1.82,85.66a27.34,27.34,0,0,1-.33,3.72c-.4,3-1.8,4.2-4.84,4.2H14.15c-4.34,0-5.79-1.38-5.92-5.78-.44-15.48-.76-31-1.31-46.44-1.25-35.06-.3-70.11.45-105.17.19-8.82.64-17.64,1-26.46.18-4.34,1.47-5.52,5.86-5.51H31.88c4.85,0,6,1,6.13,6,.89,25,1.52,50,1.66,74.93,0,2.07.32,2.85,2.68,2.84,17.57-.1,35.15,0,52.72,0,1.37,0,1.75-.4,2.08-1.72a8.88,8.88,0,0,1,8.25-6.74l14.95-1c.61,0,1.54.23,1.54-.76s-.86-.79-1.52-.85c-5.3-.47-10.66,0-15.92-1.15A9.74,9.74,0,0,1,97,65.44Q96.92,57.21,97,49a10,10,0,0,1,9.55-9.84c4.57-.29,9.13-.7,13.71-.81,2.08,0,1.88-1.31,1.68-2.48s1.16-3.58-1.73-3.44c-2.33.12-3.31-1-3-3.14.23-1.73-.87-2.13-2-2.63q-17.86-7.72-35.69-15.4c-3.66-1.57-5.13-3.58-4.21-6a5.45,5.45,0,0,1,7.19-2.77l.17.08q10.53,4.44,21,9c4.94,2.14,9.83,4.37,14.77,6.51a6.83,6.83,0,0,0,2.41.5c6.41.1,12.82.31,19.22.14,2.74-.07,5.1-1.88,7.6-3,10.23-4.33,20.4-8.8,30.58-13.25a5.82,5.82,0,0,1,4.61-.11A4.44,4.44,0,0,1,186,6.22c.1,2.08-1.27,3.35-3,4.13q-12.28,5.4-24.59,10.75c-4.88,2.11-9.78,4.15-14.64,6.28-1.26.55-2.62,1.08-2.47,3s-1.29,1.92-2.59,1.83c-3.07-.21-1.74,2.17-2,3.5s.11,2.44,1.86,2.53c4.16.2,8.3.56,12.46.71,5.88.22,10,3,10.59,8.77a89.42,89.42,0,0,1,.11,17.92c-.52,5.62-3.89,8.47-9.57,9.07-4.3.45-8.64.47-13,.68C138.18,75.53,137.19,75.36,136.5,76.9ZM21.55,72.29h0v63c0,2.14-.7,2.84-2.74,2.65a37.49,37.49,0,0,0-4.74-.06c-1.74.05-2.83.85-2.84,2.75s1,2.67,2.83,2.65,3.83,0,5.74,0c.83,0,1.61.07,1.64,1.05s-.85.86-1.48.87c-1.91,0-3.83.08-5.74,0a2.91,2.91,0,0,0-.77,5.74,2.81,2.81,0,0,0,.71,0c1.67,0,3.34-.07,5,0,.78.05,2.19-.53,2.16.82,0,1-1.3.72-2.11.72h-5a2.7,2.7,0,0,0-3,2.9c0,2,1.14,2.75,3,2.67S18.09,158,20,158c.74,0,1.37.21,1.36,1.08s-.66,1-1.39,1c-1.92,0-3.84.09-5.75,0s-3,.72-3,2.68,1.12,2.88,3,2.93,3.82,0,5.74,0c.56,0,1.28,0,1.19.88-.06.64-.68.63-1.16.63H14a2.54,2.54,0,0,0-2.78,2.28,3.25,3.25,0,0,0,0,.54c0,1.84.76,3,2.85,2.94,1.74-.07,3.49-.06,5.24,0,.76,0,2-.32,2,.88s-1.07,1-1.92,1h-5.5a2.4,2.4,0,0,0-2.64,2.13,2.17,2.17,0,0,0,0,.51c0,1.87,1,2.73,2.79,2.73h6c.78,0,1.35.33,1.34,1.11s-.73.81-1.31.82c-2,0-4,.06-6,0-1.83,0-2.77.8-2.81,2.68s.9,3,2.82,3H31.81a2.67,2.67,0,0,0,2.93-2.39A3.33,3.33,0,0,0,32.55,182a2.66,2.66,0,0,0-.63,0H26.17c-.69,0-1.68.15-1.6-1,0-.84.83-.94,1.51-.94,1.84,0,3.67-.06,5.5.06s3.13-.67,3.15-2.6-1.21-2.93-3.26-2.85-3.82,0-5.74,0c-.6,0-1.2-.28-1.22-1s.69-.84,1.26-.85c2,0,4-.1,6,0s2.85-1.14,2.89-2.91a2.55,2.55,0,0,0-2.24-2.83,2.35,2.35,0,0,0-.53,0H26.14c-.64,0-1.57.17-1.65-.68-.1-1,.88-1,1.62-1,2,0,4,.1,6,0s2.63-1.41,2.57-3.06a2.23,2.23,0,0,0-2.15-2.31,2.32,2.32,0,0,0-.53.05,54.59,54.59,0,0,1-6,0c-.68,0-1.42-.13-1.42-1s.72-1,1.41-1c1.91,0,3.83,0,5.74.06s3-.6,3.05-2.64-1.22-3-3.15-3c-1.58-.05-3.16,0-4.74,0-.76,0-2,.41-2-.78,0-1,1.13-.67,1.8-.68,1.83,0,3.66,0,5.49,0s2.61-1.48,2.57-3.08-.77-2.7-2.64-2.65-4,0-6,0c-.62,0-1.52.1-1.53-.83s.87-1.07,1.64-1.08H32c1.91,0,2.67-.79,2.71-2.5A2.5,2.5,0,0,0,32,138.06a24.29,24.29,0,0,0-4,.06c-2.92.42-3.62-.75-3.61-3.61q.16-62.2.09-124.41c0-1.09.62-2.75-1.46-2.79s-1.5,1.6-1.5,2.71Q21.54,41.1,21.55,72.29Zm124.55,94v-7.18c0-7.43,0-7.39-7.58-7-1.45.08-1.84.58-1.81,1.95a92.67,92.67,0,0,1-.06,10c-.27,3.09.46,4.35,3.82,4,2.87-.3,4.44,2.09,3.51,4.76-.75,2.16-2.53,2.52-4.46,2.2-2.63-.43-3.5.69-3.18,3.15a7.32,7.32,0,0,1,0,1.75c-.17,1.7.5,2.42,2.27,2.3a49.79,49.79,0,0,1,5.73,0c1.62.08,2.35-.49,2.1-2.16-.69-4.72-.19-9.47-.35-13.73Zm-33.71.41h0v7.74c.17,8.88-1.82,7.35,8.1,7.75.59,0,1.4.09,1.54-.52a11.29,11.29,0,0,0-.2-5.91c-.45-1.37-2.06-.62-3.13-.68-3-.16-4.44-1.55-4-4.28s2.45-3.09,4.64-2.82,3-.51,2.75-2.74a54.76,54.76,0,0,1,0-5.73c0-7.4,0-7.34-7.36-7.49-1.74,0-2.35.41-2.3,2.21.08,4.19,0,8.35,0,12.51Zm-44.24-74h26.2c1,0,2.53.56,2.5-1.12s-1.65-1-2.56-1q-26.08-.09-52.15,0c-.87,0-2.07-.32-2.13,1-.08,1.64,1.29,1.13,2.19,1.14Z"/></g></g></svg>