<svg height='100px' width='100px'  fill="#000000" xmlns="http://www.w3.org/2000/svg" data-name="Layer 1" viewBox="0 0 100 100" x="0px" y="0px"><title>crossfit</title><path d="M38.49,43.83a.5.5,0,0,1-.19,0A21.09,21.09,0,0,0,36.12,43a.5.5,0,1,1,.27-1,22.29,22.29,0,0,1,2.28.78.5.5,0,0,1-.19,1Z"></path><path d="M50.37,72.07a.49.49,0,0,1-.19,0,.5.5,0,0,1-.27-.65,20.85,20.85,0,0,0,.82-2.4.5.5,0,0,1,1,.26,22,22,0,0,1-.86,2.51A.5.5,0,0,1,50.37,72.07Z"></path><path d="M49.51,66.68h0a.3.3,0,0,1-.25-.34,19.11,19.11,0,0,0-10-19.86.3.3,0,1,1,.28-.53A19.72,19.72,0,0,1,49.81,66.43.3.3,0,0,1,49.51,66.68Z"></path><path d="M37.85,45.79l-.12,0c-.54-.23-1.09-.43-1.65-.6a.3.3,0,1,1,.18-.57c.57.18,1.15.39,1.7.62a.3.3,0,0,1-.12.58Z"></path><path d="M30.35,83.07a19.69,19.69,0,1,1,0-39.39c.61,0,1.23,0,1.83.08a.3.3,0,1,1-.05.6c-.59-.05-1.19-.08-1.78-.08a19.09,19.09,0,1,0,0,38.19c.61,0,1.22,0,1.82-.09a.29.29,0,0,1,.33.27.3.3,0,0,1-.27.33C31.61,83,31,83.07,30.35,83.07Z"></path><path d="M36.18,82.18a.3.3,0,0,1-.09-.59,19,19,0,0,0,11-9,.3.3,0,0,1,.53.29,19.63,19.63,0,0,1-11.31,9.25Z"></path><path d="M48,71.69l-.12,0a.3.3,0,0,1-.15-.4,19,19,0,0,0,1.05-2.95.3.3,0,0,1,.37-.21.3.3,0,0,1,.21.37,19.74,19.74,0,0,1-1.09,3A.3.3,0,0,1,48,71.69Z"></path><path d="M30.35,69.29A5.92,5.92,0,1,1,32.3,57.79a.3.3,0,1,1-.2.57,5.32,5.32,0,1,0-1.75,10.34,5.37,5.37,0,0,0,1.14-.12.3.3,0,0,1,.36.23.3.3,0,0,1-.23.36A6,6,0,0,1,30.35,69.29Z"></path><path d="M32.17,71.61a.91.91,0,0,1-.24,0l-.66-.18a.91.91,0,0,1-.63-1.11L44.27,20.72a5.54,5.54,0,0,1,5.33-4.05h0l14,.2a1.25,1.25,0,0,1,1.23,1.27,1.27,1.27,0,0,1-.4.91,1.19,1.19,0,0,1-.89.32l-13.93-.2h0a3,3,0,0,0-3,2.21L33,70.94a.91.91,0,0,1-.87.67Zm-.55-1.15.48.13L45.71,21.12a4,4,0,0,1,3.87-2.95l14,.2a.19.19,0,0,0,.17-.05.27.27,0,0,0,.08-.19.25.25,0,0,0-.25-.25l-14-.2h0A4.54,4.54,0,0,0,45.23,21Z"></path><path d="M63.72,19.58h0l-7-.1,0-3h0l7,.1a1.5,1.5,0,0,1,0,3Z"></path><path d="M32.17,71.61a.91.91,0,0,1-.24,0l-.66-.18a.91.91,0,0,1-.63-1.11L44.27,20.72a5.54,5.54,0,0,1,5.33-4.05h0l14,.2a1.25,1.25,0,0,1,1.23,1.27,1.27,1.27,0,0,1-.4.91,1.19,1.19,0,0,1-.89.32l-13.93-.2h0a3,3,0,0,0-3,2.21L33,70.94a.91.91,0,0,1-.87.67Zm-.55-1.15.48.13L45.71,21.12a4,4,0,0,1,3.87-2.95l14,.2a.19.19,0,0,0,.17-.05.27.27,0,0,0,.08-.19.25.25,0,0,0-.25-.25l-14-.2h0A4.54,4.54,0,0,0,45.23,21Z"></path><path d="M63.72,19.58h0l-7-.1,0-3h0l7,.1a1.5,1.5,0,0,1,0,3Z"></path><path d="M25.91,42,18.43,22.91a5.54,5.54,0,0,1,1.85-6.44L31.62,8.24a1.25,1.25,0,0,1,1.75.28,1.27,1.27,0,0,1,.22,1,1.19,1.19,0,0,1-.52.79L21.8,18.46a3,3,0,0,0-1,3.54l7.69,19.62-.93.37L19.83,22.37a4,4,0,0,1,1.33-4.68L32.5,9.46a.21.21,0,0,0,.1-.15.26.26,0,0,0,0-.2.25.25,0,0,0-.35-.06L20.91,17.25a4.55,4.55,0,0,0-1.55,5.3l7.48,19.08Z"></path><rect x="29.28" y="43.64" width="1" height="13.76" transform="translate(-16.38 14.35) rotate(-21.4)"></rect><rect x="36.41" y="66.98" width="1" height="3.44" transform="translate(-22.53 18.21) rotate(-21.4)"></rect><path d="M39.57,70.21l-1,0-1.89-4.81.93-.37,1.9,4.84A.91.91,0,0,1,39.57,70.21Z"></path><rect x="30.02" y="43.62" width="1" height="9.37" transform="translate(-15.48 14.41) rotate(-21.33)"></rect><path d="M33.32,10.34h0l-5.67,4.11-1.78-2.42h0l5.67-4.11a1.5,1.5,0,0,1,1.78,2.42Z"></path><path d="M32.76,66.13h-1V40.07a.9.9,0,0,1,.9-.9h3.2a.9.9,0,0,1,.9.9V51.81h-1V40.17h-3Z"></path><rect x="31.76" y="70.75" width="1" height="15.31"></rect><rect x="35.76" y="57.38" width="1" height="27.79"></rect><rect x="32.26" y="85.76" width="3" height="0.6"></rect><path d="M33.49,91.67H31.65a1.5,1.5,0,0,1-1.39-2.07l1.53-3.73a.5.5,0,0,1,.93.38L31.19,90a.5.5,0,0,0,.46.69h1.84a.5.5,0,0,0,.46-.31l1.43-3.47a.5.5,0,0,1,.93.38l-1.43,3.47A1.5,1.5,0,0,1,33.49,91.67Z"></path><path d="M87.06,91.75H85.22a1.5,1.5,0,0,1-1.39-.93L82,86.33a.52.52,0,0,1,0-.14l-.36-3.52a.49.49,0,0,1,0-.24A1.5,1.5,0,0,1,83,81.5a.5.5,0,1,1,0,1,.5.5,0,0,0-.41.22l.34,3.3,1.82,4.42a.5.5,0,0,0,.46.31h1.84a.5.5,0,0,0,.46-.69L86.4,87.32a.5.5,0,0,1,.93-.38l1.12,2.74a1.5,1.5,0,0,1-1.39,2.07Z"></path><path d="M35.72,40.17h-3V23.71l3,1.79Zm-2-1h1V26.08l-1-.61Z"></path><path d="M39,28.31a.5.5,0,0,1-.25-.07L27.81,22a.5.5,0,0,1-.19-.68l1.19-2.08A.5.5,0,0,1,29.5,19l11,6.27a.5.5,0,0,1,.19.68l-1.19,2.08a.5.5,0,0,1-.3.23Zm-10.28-7,10.09,5.78.69-1.21L29.43,20.14Z"></path><polygon points="62.09 75.07 35.76 72.17 35.76 69.66 62.36 72.59 62.25 73.58 36.76 70.77 36.76 71.28 62.2 74.08 62.09 75.07"></polygon><path d="M63,75.59A1.63,1.63,0,1,1,64.63,74,1.63,1.63,0,0,1,63,75.59Zm0-2.25a.63.63,0,1,0,.63.63A.63.63,0,0,0,63,73.34Z"></path><path d="M60.15,69.9l-.81-.58a7.64,7.64,0,0,1,6.18-3.16v1A6.64,6.64,0,0,0,60.15,69.9Z"></path><path d="M59,72.85l-1-.14a7.59,7.59,0,0,1,.53-1.91l.92.39A6.61,6.61,0,0,0,59,72.85Z"></path><path d="M60.83,79.77a7.61,7.61,0,0,1-2.91-5.58l1-.05A6.61,6.61,0,0,0,61.45,79Z"></path><path d="M65.52,81.38v-1a6.65,6.65,0,0,0,6.54-5.62l1,.15A7.66,7.66,0,0,1,65.52,81.38Z"></path><path d="M72.11,73.17a6.61,6.61,0,0,0-2.69-4.75l.59-.81a7.62,7.62,0,0,1,3.1,5.46Z"></path><path d="M64,71.11l-.15,0a.5.5,0,0,1-.33-.63l5-15.74L68,54.59a.5.5,0,0,1-.33-.62l.75-2.55a.5.5,0,0,1,.63-.34l.49.15,2.62-8.3a.5.5,0,0,1,1,.3L70.36,52a.5.5,0,0,1-.63.33l-.48-.15-.47,1.59.45.14a.5.5,0,0,1,.33.63L64.43,70.76A.5.5,0,0,1,64,71.11Z"></path><path d="M68.49,72.38l-.15,0a.5.5,0,0,1-.33-.63l5.07-16.06a.5.5,0,0,1,.63-.33l.32.1.46-1.59-.28-.09a.5.5,0,0,1-.33-.63L77.1,42.94a.5.5,0,1,1,1,.3L75,53l.27.09a.5.5,0,0,1,.33.62l-.75,2.55a.5.5,0,0,1-.63.34l-.33-.1L69,72A.5.5,0,0,1,68.49,72.38Z"></path><path d="M64.13,86.19H59.2a.5.5,0,0,1-.48-.65l3.37-10.68a.5.5,0,1,1,1,.3l-3.17,10h3.88l3.71-11.54a.5.5,0,1,1,1,.31L64.6,85.84A.5.5,0,0,1,64.13,86.19Z"></path><path d="M74.36,56.37h-.09l-6.2-2a.3.3,0,0,1-.2-.37l.75-2.55a.3.3,0,0,1,.38-.2l6.2,2a.3.3,0,0,1,.2.37l-.75,2.55a.3.3,0,0,1-.29.22Zm-5.83-2.46,5.63,1.78.58-2-5.63-1.78Z"></path><path d="M85.26,43.25H64.13a1.5,1.5,0,0,1-1.5-1.5V39.81a3.31,3.31,0,0,1,3.31-3.31h4.7c.53,0,1.37.74,2.48,2.2l.61.8h-7.8a.31.31,0,0,0-.31.31v.44H85.26a.8.8,0,0,1,.8.8v1.4A.8.8,0,0,1,85.26,43.25ZM70.59,37.49H65.94a2.31,2.31,0,0,0-2.31,2.31v1.94a.5.5,0,0,0,.5.5H85.06v-1H64.63V39.81a1.31,1.31,0,0,1,1.31-1.31h5.73A4.61,4.61,0,0,0,70.59,37.49Z"></path><path d="M74.24,39.36a4.63,4.63,0,0,1-3.55-1.5,2.44,2.44,0,0,0-.27-.25c-.33-.13-3.18-.64-7.26-1.29a1,1,0,0,1-.67-.44,1,1,0,0,1-.12-.83c.71-2.53,2.88-2.26,4.8-2,1.42.17,2.88.35,3.93-.43h0c1.46-1.09,5.13-1.84,7.26.57a3.07,3.07,0,0,1,.6,3.3,4.94,4.94,0,0,1-4.1,2.86ZM65.4,33.89a1.81,1.81,0,0,0-2.07,1.44c7,1.13,7.41,1.33,7.54,1.39a2.21,2.21,0,0,1,.52.42,3.76,3.76,0,0,0,3.38,1.19A3.91,3.91,0,0,0,78,36.1a2.08,2.08,0,0,0-.42-2.27c-1.7-1.92-4.75-1.3-5.91-.43h0c-1.37,1-3.11.81-4.65.62A14.23,14.23,0,0,0,65.4,33.89Z"></path><rect x="51.93" y="50.71" width="1" height="33.35" transform="translate(-26.59 99.72) rotate(-74.37)"></rect><rect x="51.55" y="52.99" width="1" height="32.74" transform="translate(-28.77 100.79) rotate(-74.37)"></rect><path d="M86.07,87.82a1.49,1.49,0,0,1-1.4-1l-2.31-6a6.1,6.1,0,0,0-4-3.66l-10.65-3,.27-1,10.65,3a7.11,7.11,0,0,1,4.69,4.26l2.31,6a.5.5,0,0,0,.92,0,.49.49,0,0,0,0-.38l-2.31-6a8.11,8.11,0,0,0-5.35-4.86L68.35,72.36l.27-1,10.52,2.94a9.11,9.11,0,0,1,6,5.47l2.31,6a1.5,1.5,0,0,1-1.4,2Z"></path><path d="M82.14,85.67H64.35a.5.5,0,1,1,0-1H82.14a.5.5,0,0,1,0,1Z"></path><path d="M82.45,87.67H36.26a1.5,1.5,0,0,1,0-3H59.41a.5.5,0,1,1,0,1H36.26a.5.5,0,0,0,0,1H82.45a.49.49,0,0,0,.19,0,.5.5,0,1,1,.39.92A1.49,1.49,0,0,1,82.45,87.67Z"></path><path d="M73.57,41.25a.5.5,0,0,1-.5-.5V39a.5.5,0,0,1,1,0v1.74A.5.5,0,0,1,73.57,41.25Z"></path><path d="M75.67,41.25a.5.5,0,0,1-.5-.5v-2a.5.5,0,0,1,1,0v2A.5.5,0,0,1,75.67,41.25Z"></path><path d="M30.37,66.16A2.8,2.8,0,0,1,29,65.8a2.79,2.79,0,0,1,2.74-4.87,2,2,0,0,1,.41.29.3.3,0,0,1-.41.44,1.33,1.33,0,0,0-.28-.2,2.19,2.19,0,1,0,.06,3.76,1.52,1.52,0,0,0,.46-.45.3.3,0,0,1,.5.33,2.11,2.11,0,0,1-.66.64A2.77,2.77,0,0,1,30.37,66.16Z"></path><path d="M30.35,85.5a22.13,22.13,0,1,1,0-44.25c.62,0,1.24,0,1.86.08a.5.5,0,1,1-.08,1c-.59,0-1.18-.07-1.78-.07a21.13,21.13,0,1,0,0,42.25c.6,0,1.21,0,1.81-.08a.51.51,0,0,1,.54.46.5.5,0,0,1-.46.54C31.62,85.47,31,85.5,30.35,85.5Z"></path><path d="M36.26,84.68a.5.5,0,0,1-.14-1,21.22,21.22,0,0,0,13-10.6.5.5,0,1,1,.89.46,22.22,22.22,0,0,1-13.6,11.1Z"></path><path d="M50.37,72.07a.5.5,0,0,1-.46-.69,21.15,21.15,0,0,0-10.2-26.95.5.5,0,1,1,.44-.9A22.15,22.15,0,0,1,50.83,71.76.5.5,0,0,1,50.37,72.07Z"></path><path d="M38.48,43.83a.5.5,0,0,1-.19,0A21,21,0,0,0,36.13,43a.5.5,0,1,1,.27-1,22.14,22.14,0,0,1,2.27.78.5.5,0,0,1-.19,1Z"></path><path d="M30.35,47.9a.3.3,0,0,1-.3-.3V44a.3.3,0,1,1,.6,0V47.6A.3.3,0,0,1,30.35,47.9Z"></path><path d="M30.35,58.06a.3.3,0,0,1-.3-.3V52a.3.3,0,1,1,.6,0v5.8A.3.3,0,0,1,30.35,58.06Z"></path><path d="M26.38,59.7a.3.3,0,0,1-.21-.09l-9.74-9.74a.3.3,0,0,1,.42-.42l9.74,9.74a.3.3,0,0,1-.21.51Z"></path><path d="M24.73,63.67H11a.3.3,0,0,1,0-.6H24.73a.3.3,0,0,1,0,.6Z"></path><path d="M16.64,77.39a.3.3,0,0,1-.21-.51l9.74-9.74a.3.3,0,1,1,.42.42L16.85,77.3A.3.3,0,0,1,16.64,77.39Z"></path><path d="M30.35,83.07a.3.3,0,0,1-.3-.3V69a.3.3,0,1,1,.6,0V82.77A.3.3,0,0,1,30.35,83.07Z"></path><path d="M44.06,77.39a.3.3,0,0,1-.21-.09l-5-5a.3.3,0,0,1,.42-.42l5,5a.3.3,0,0,1-.21.51Z"></path><path d="M49.74,63.67H36.31a.3.3,0,1,1,0-.6H49.74a.3.3,0,0,1,0,.6Z"></path><path d="M36.3,57.72a.3.3,0,0,1-.21-.51l7.76-7.76a.3.3,0,0,1,.42.42l-7.76,7.76A.3.3,0,0,1,36.3,57.72Z"></path><path d="M28.25,58.46a.3.3,0,0,1-.28-.19L22.83,45.49a.3.3,0,1,1,.56-.22l5.14,12.78a.3.3,0,0,1-.17.39Z"></path><path d="M25.18,61.47l-.12,0L12.39,56a.3.3,0,1,1,.23-.55L25.3,60.9a.3.3,0,0,1-.12.58Z"></path><path d="M12.36,70.91a.3.3,0,0,1-.11-.58L25,65.19a.3.3,0,0,1,.22.56L12.47,70.89Z"></path><path d="M22.75,81.52l-.12,0a.3.3,0,0,1-.16-.39l5.4-12.67a.3.3,0,0,1,.55.24L23,81.33A.3.3,0,0,1,22.75,81.52Z"></path><path d="M37.59,81.67a.3.3,0,0,1-.28-.19l-1.17-2.92a.3.3,0,1,1,.56-.22l1.17,2.92a.3.3,0,0,1-.17.39Z"></path><path d="M48.07,71.25,37.69,66.83a.3.3,0,1,1,.23-.55L48.31,70.7Z"></path><path d="M36.37,61.25a.3.3,0,0,1-.11-.58l12-4.82a.3.3,0,0,1,.22.56l-12,4.82Z"></path><path d="M37.72,52.88a.3.3,0,0,1-.17-.05.3.3,0,0,1-.08-.42L41,47.19a.3.3,0,0,1,.5.34L38,52.75A.3.3,0,0,1,37.72,52.88Z"></path><path d="M29.31,58.16a.3.3,0,0,1-.29-.24L26.46,44.37a.3.3,0,0,1,.59-.11L29.6,57.8a.3.3,0,0,1-.24.35Z"></path><path d="M25.71,60.51a.3.3,0,0,1-.17-.05L14.17,52.69a.3.3,0,1,1,.34-.5L25.88,60a.3.3,0,0,1-.17.55Z"></path><path d="M11.29,67.27a.3.3,0,0,1-.06-.6l13.54-2.55a.3.3,0,0,1,.35.24.3.3,0,0,1-.24.35L11.35,67.26Z"></path><path d="M19.41,79.69a.3.3,0,0,1-.17-.05.3.3,0,0,1-.08-.42l7.77-11.38a.3.3,0,0,1,.5.34L19.66,79.56A.3.3,0,0,1,19.41,79.69Z"></path><path d="M40.82,70.82a.3.3,0,0,1-.17-.05l-2.18-1.49a.3.3,0,0,1,.34-.5L41,70.28a.3.3,0,0,1-.17.55Z"></path><path d="M46.37,74.61a.3.3,0,0,1-.17-.05l-2.88-2a.3.3,0,1,1,.34-.5l2.88,2a.3.3,0,0,1-.17.55Z"></path><path d="M36.45,62.53a.3.3,0,0,1-.06-.6l13-2.44.11.59-13,2.44Z"></path><path d="M31.55,58.19h-.06a.3.3,0,0,1-.23-.36l.4-1.85a.29.29,0,0,1,.36-.23.3.3,0,0,1,.23.36L31.84,58A.3.3,0,0,1,31.55,58.19Z"></path><path d="M27.31,58.95a.3.3,0,0,1-.25-.14L19.62,47.22a.3.3,0,1,1,.5-.32l7.45,11.59a.3.3,0,0,1-.25.46Z"></path><path d="M24.86,62.48H24.8L11.34,59.54a.3.3,0,1,1,.13-.59l13.46,2.93a.3.3,0,0,1-.06.59Z"></path><path d="M14,74.16a.3.3,0,0,1-.16-.55l11.59-7.45a.3.3,0,0,1,.32.5L14.19,74.11A.3.3,0,0,1,14,74.16Z"></path><path d="M26.22,82.63h-.06a.3.3,0,0,1-.23-.36L28.86,68.8a.3.3,0,0,1,.36-.23.3.3,0,0,1,.23.36L26.52,82.39A.3.3,0,0,1,26.22,82.63Z"></path><path d="M40.58,79.85,36.19,73a.3.3,0,1,1,.5-.32l4.39,6.83Z"></path><path d="M36.37,59.81a.3.3,0,0,1-.16-.55L46.5,52.64a.3.3,0,0,1,.32.5L36.54,59.76A.3.3,0,0,1,36.37,59.81Z"></path></svg>