<svg id="Layer_1" data-name="Layer 1" xmlns="http://www.w3.org/2000/svg" viewBox="0 0 100 42"><path d="M20.06,10.48h-2.2a1.18,1.18,0,0,0-1.17,1.17v20.7a1.18,1.18,0,0,0,1.17,1.17h2.2a1.18,1.18,0,0,0,1.17-1.17V11.65A1.18,1.18,0,0,0,20.06,10.48Z" fill="none"/><path d="M26.87,11.65a1.17,1.17,0,0,0-1.17-1.17H23.51a1.17,1.17,0,0,0-1.17,1.17v20.7a1.17,1.17,0,0,0,1.17,1.17H25.7a1.17,1.17,0,0,0,1.17-1.17V11.65Z" fill="none"/><path d="M28.28,23.76h0V20.24h0V19H28v5.59h.3v-.86Z" fill="none"/><path d="M29.39,20.79H71v2.42H29.39Z" fill="none"/><path d="M14.84,13.5H13.2a.74.74,0,0,0-.74.74V29.76a.74.74,0,0,0,.74.74h1.64a.74.74,0,0,0,.74-.74V14.24A.74.74,0,0,0,14.84,13.5Z" fill="none"/><path d="M7.32,20.79a1.21,1.21,0,1,0,0,2.42h.86V20.79Z" fill="none"/><path d="M10.93,15.76H9.7a.42.42,0,0,0-.42.42V27.82a.42.42,0,0,0,.42.42h1.23a.42.42,0,0,0,.42-.42V16.18A.42.42,0,0,0,10.93,15.76Z" fill="none"/><path d="M72.07,19h.3v5.59h-.3Z" fill="none"/><path d="M92.68,20.79h-.5v2.42h.5a1.21,1.21,0,0,0,0-2.42Z" fill="none"/><path d="M76.85,10.48h-2.2a1.18,1.18,0,0,0-1.17,1.17v20.7a1.18,1.18,0,0,0,1.17,1.17h2.2A1.18,1.18,0,0,0,78,32.35V11.65A1.18,1.18,0,0,0,76.85,10.48Z" fill="none"/><path d="M91.07,16.18a.42.42,0,0,0-.42-.42H89.42a.42.42,0,0,0-.42.42V27.82a.42.42,0,0,0,.42.42h1.23a.42.42,0,0,0,.42-.42Z" fill="none"/><path d="M87.89,14.24a.74.74,0,0,0-.74-.74H85.51a.74.74,0,0,0-.74.74V29.76a.74.74,0,0,0,.74.74h1.64a.74.74,0,0,0,.74-.74V14.24Z" fill="none"/><path d="M83.66,11.65a1.17,1.17,0,0,0-1.17-1.17H80.3a1.17,1.17,0,0,0-1.17,1.17v20.7a1.17,1.17,0,0,0,1.17,1.17h2.19a1.17,1.17,0,0,0,1.17-1.17V11.65Z" fill="none"/><path d="M92.68,19.68h-.5v-3.5a1.54,1.54,0,0,0-1.53-1.53H89.42a1.48,1.48,0,0,0-.42.07v-.48a1.85,1.85,0,0,0-1.84-1.85H85.51a1.86,1.86,0,0,0-.74.16v-.9a2.28,2.28,0,0,0-2.28-2.27H80.3a2.26,2.26,0,0,0-1.73.8,2.25,2.25,0,0,0-1.72-.8h-2.2a2.28,2.28,0,0,0-2.28,2.27v6.27h-.85a.56.56,0,0,0-.56.55v1.21H29.39V18.47a.55.55,0,0,0-.55-.55H28V11.65A2.28,2.28,0,0,0,25.7,9.38H23.5a2.25,2.25,0,0,0-1.72.8,2.25,2.25,0,0,0-1.72-.8h-2.2a2.28,2.28,0,0,0-2.28,2.27v.9a1.82,1.82,0,0,0-.74-.16H13.2a1.85,1.85,0,0,0-1.85,1.85v.48a1.42,1.42,0,0,0-.42-.07H9.7a1.54,1.54,0,0,0-1.53,1.53v3.5H7.32a2.32,2.32,0,0,0,0,4.64h.85v3.5A1.53,1.53,0,0,0,9.7,29.34h1.23a1.42,1.42,0,0,0,.42-.06v.48a1.85,1.85,0,0,0,1.85,1.85h1.64a1.78,1.78,0,0,0,.74-.16v.9a2.28,2.28,0,0,0,2.28,2.27h2.2a2.25,2.25,0,0,0,1.72-.8,2.26,2.26,0,0,0,1.73.8H25.7A2.28,2.28,0,0,0,28,32.35V25.73h.86a.56.56,0,0,0,.55-.56v-.85H71v.85a.56.56,0,0,0,.56.56h.85v6.62a2.28,2.28,0,0,0,2.28,2.27h2.2a2.25,2.25,0,0,0,1.72-.8,2.26,2.26,0,0,0,1.73.8h2.19a2.28,2.28,0,0,0,2.28-2.27v-.9a1.86,1.86,0,0,0,.74.16h1.64A1.85,1.85,0,0,0,89,29.76v-.48a1.47,1.47,0,0,0,.42.06h1.23a1.53,1.53,0,0,0,1.53-1.52v-3.5h.5a2.32,2.32,0,0,0,0-4.64ZM7.32,23.21a1.21,1.21,0,1,1,0-2.42h.86v2.42Zm3.61,5H9.7a.42.42,0,0,1-.42-.42V16.18a.42.42,0,0,1,.42-.42h1.23a.42.42,0,0,1,.42.42V27.82A.42.42,0,0,1,10.93,28.24Zm3.91,2.26H13.2a.74.74,0,0,1-.74-.74V14.24a.74.74,0,0,1,.74-.74h1.64a.74.74,0,0,1,.74.74V29.76A.74.74,0,0,1,14.84,30.5Zm5.22,3h-2.2a1.18,1.18,0,0,1-1.17-1.17V11.65a1.18,1.18,0,0,1,1.17-1.17h2.2a1.18,1.18,0,0,1,1.17,1.17v20.7A1.18,1.18,0,0,1,20.06,33.52Zm6.81-1.17a1.18,1.18,0,0,1-1.17,1.17H23.5a1.18,1.18,0,0,1-1.17-1.17V11.65a1.18,1.18,0,0,1,1.17-1.17h2.2a1.18,1.18,0,0,1,1.17,1.17v20.7ZM28,24.62V19h.3v1.21h0v3.52h0v.85Zm1.41-1.41V20.79H71v2.42Zm42.68,1.41V19h.3v5.59Zm4.78,8.9h-2.2a1.18,1.18,0,0,1-1.17-1.17V11.65a1.18,1.18,0,0,1,1.17-1.17h2.2A1.18,1.18,0,0,1,78,11.65v20.7A1.18,1.18,0,0,1,76.85,33.52Zm6.81-1.17a1.17,1.17,0,0,1-1.17,1.17H80.3a1.17,1.17,0,0,1-1.17-1.17V11.65a1.17,1.17,0,0,1,1.17-1.17h2.19a1.17,1.17,0,0,1,1.17,1.17v20.7Zm4.23-2.59a.74.74,0,0,1-.73.74H85.51a.74.74,0,0,1-.74-.74V14.24a.74.74,0,0,1,.74-.74h1.65a.74.74,0,0,1,.73.74V29.76Zm3.18-1.94a.42.42,0,0,1-.42.42H89.42a.42.42,0,0,1-.42-.42V16.18a.42.42,0,0,1,.42-.42h1.23a.42.42,0,0,1,.42.42Zm1.61-4.61h-.5V20.79h.5a1.21,1.21,0,0,1,0,2.42Z" stroke="#000" stroke-miterlimit="10" stroke-width="2"/></svg>