<svg id="Layer_1" data-name="Layer 1" xmlns="http://www.w3.org/2000/svg" viewBox="0 0 1024 1024"><path d="M1012,478c-.64,1.88-1.25,3.77-1.91,5.64-3.86,11-12,17.08-23.52,17.61l-4.57.23v6q0,44.49,0,89c0,8.86-2.16,16.82-8.59,23.22a28.08,28.08,0,0,1-30.94,6.17c-11-4.83-17.49-13.35-17.57-25.6-.21-30.83-.09-61.66-.1-92.49v-5.34l-1.36-.12c-.09,1.6-.26,3.21-.26,4.81,0,34.83-.05,69.66.09,104.49.05,11.73-3.31,21.73-13.34,28.54-9.62,6.53-20,7.24-30.34,2.11S863.13,628.53,863,616.86c-.3-36.16-.17-72.32-.21-108.48v-5.87l-1.4-.12c-.08,1.76-.23,3.52-.23,5.28q0,60.49,0,121c0,17.28-9.15,29.65-24.37,33.43a31.64,31.64,0,0,1-39-29c-.11-2.17-.09-4.34-.09-6.5q0-59.25,0-118.49v-6.6H226.24v6.59q0,60.74,0,121.48c0,16.52-9.26,28.7-24.26,32.47-18.6,4.67-37.54-8.79-38.94-27.92-.46-6.3-.22-12.65-.22-19q0-54,0-108a7.37,7.37,0,0,0-1.37-4.77c-.09,1.65-.25,3.31-.25,5,0,35.16,0,70.32,0,105.49,0,15.23-6.95,25.93-19.47,30.69-18.56,7.06-39-5.64-40.59-25.42-.51-6.3-.27-12.66-.28-19q0-46,0-92a7.37,7.37,0,0,0-1.36-4.79c-.09,1.65-.25,3.29-.25,4.94,0,31.16.11,62.33-.15,93.49C99,612.15,93,620.41,82.86,625.25s-20.15,3.69-29.24-3C45.14,616.07,42,607.24,42,597q0-40.25,0-80.49V501.83a24.28,24.28,0,0,0-3.07-.55c-13.86-.58-21.9-6.81-25.79-20-.33-1.11-.76-2.18-1.14-3.27V467c.59-1.72,1.18-3.43,1.76-5.15,4-11.65,11.9-17.6,24.14-18.1,1.14-.05,2.28-.15,4.1-.27v-6c0-30-.06-60,0-90,0-14.37,7.63-25.27,19.94-29.22A28.29,28.29,0,0,1,99.1,345.22c.24,30.67.08,61.33.08,92v5.3l1.64.1v-5.32q0-52.23,0-104.48c0-16,7.63-27.47,20.89-31.81,18.93-6.21,39,7.26,39.29,27.22.49,36.16.2,72.32.23,108.49,0,1.93,0,3.87,0,5.8l1.63.1c0-1.77,0-3.54,0-5.31,0-40.5-.1-81,0-121.49,0-17.36,9.55-29.55,25.38-33.1,18-4,36.26,9.34,37.87,27.74.21,2.32.19,4.66.2,7q0,59.74,0,119.49v6.39H797.76v-5.89c0-40.83-.06-81.66,0-122.49,0-19.42,14.4-33.56,33.11-32.9,15.57.54,29,13.22,30.06,28.78.46,6.8.21,13.66.22,20.49q0,53,0,106v5.23l1.63.08v-5.39q0-52.75,0-105.49c0-14.78,7-25.52,19.4-30.24a30,30,0,0,1,40.65,25.34c.51,5.79.29,11.65.29,17.48q0,47,0,94a6.29,6.29,0,0,0,1.36,4.33c.09-1.63.25-3.27.26-4.9,0-31.17-.16-62.33.16-93.49.12-12.22,6.81-20.67,18-25.26a28,28,0,0,1,30.82,6.69c6.18,6.39,8.27,14.2,8.25,22.86q-.07,44.49,0,89v5.65a23.65,23.65,0,0,0,3.09.58c13.91.6,21.77,6.7,25.79,20,.33,1.1.74,2.17,1.12,3.26Z"/></svg>