<svg id="Layer_1" data-name="Layer 1" xmlns="http://www.w3.org/2000/svg" viewBox="0 0 100 69"><path d="M4.91,63h90v1H4.9Z"/><path d="M69,20.2l4.6-1.47a4.41,4.41,0,0,0,1.3-3.08c0-2.64-1.21-4.78-3.91-4.78S67.09,13,67.09,15.65C67.09,18,67.75,19.62,69,20.2Z"/><path d="M95,31.22a.71.71,0,0,0-.1-.14L94.75,31a4.25,4.25,0,0,0-.47-.48l-9.94-9.94a7.89,7.89,0,0,0-7.65-1.93s0,0,0,0l-.28.09-.3.09L61.34,23.48,52,21.1a6.07,6.07,0,0,0-1.32-4.28,7.63,7.63,0,0,0-6-2.27c-2.93.08-7.37,1.47-11.94,7.63a230.29,230.29,0,0,0-14,22,123,123,0,0,1-7.26,11.57,25.55,25.55,0,0,1-3.64-5,1,1,0,1,0-1.78.9,26.05,26.05,0,0,0,4.1,5.69C9,58.49,8,59.07,7.19,58.81a1,1,0,1,0-.6,1.91,3.48,3.48,0,0,0,1,.16c1.3,0,2.59-.77,4-2.17a15.64,15.64,0,0,0,9.57,4.2l.68,0c7.66,0,15.61-6.43,23.65-19.12,4.11-6.48,7-8.24,8.71-8.57a2.91,2.91,0,0,1,2.34.48,6.42,6.42,0,0,1,1.33,2,.85.85,0,0,0-.33,1.06l.35.81a.86.86,0,0,0,1,.48c.13.32.24.63.34.92a1,1,0,0,0,1.89-.66c-.07-.21-.22-.63-.43-1.16l9.1-4.72h0l6.34-8.58,8.66,7.51a1.88,1.88,0,0,1,2.53.06,2,2,0,0,0-2,.54L74.9,44.36v0a1.74,1.74,0,0,0-.41,1.11v.12l.87,16.65a.81.81,0,0,0,.87.73H78a.81.81,0,0,0,.87-.73l.81-15a3.35,3.35,0,0,0-.81-1.65,1.86,1.86,0,0,1,1.56.93L93.7,38a0,0,0,0,1,0,0A4.61,4.61,0,0,0,95,31.22ZM76.17,25.81a1.89,1.89,0,0,0-.25-.25l0,0-.22-.14h0a2.68,2.68,0,0,0-2-.15l-2.79.52-3.18,5.79-8.17,5.07a7.51,7.51,0,0,0-1.86-2.53,4.9,4.9,0,0,0-3.89-.82c-3,.59-6.41,3.77-10,9.47-7.86,12.4-15.43,18.53-22.53,18.17a13.67,13.67,0,0,1-8.34-3.75,114,114,0,0,0,7.53-12A230.51,230.51,0,0,1,34.37,23.37c4.09-5.51,7.9-6.75,10.38-6.82a5.7,5.7,0,0,1,4.39,1.55A4,4,0,0,1,50,20.61a.87.87,0,0,0-.86.53l-.35.82a.87.87,0,0,0,.47,1.13l.32.11a7.11,7.11,0,0,1-.31.82,1,1,0,0,0,1.8.87,9.57,9.57,0,0,0,.41-1.05L60.76,27h0v0l9.49-1.82,1.1-.21,2.52-.5.25,0h.07l.25,0h0a1.94,1.94,0,0,1,1.73,1.5l0-.06Z"/></svg>