<svg height="100px" width="100px" fill="#000000" xmlns="http://www.w3.org/2000/svg" xmlns:xlink="http://www.w3.org/1999/xlink" version="1.1" x="0px" y="0px" viewBox="0 0 100 100" enable-background="new 0 0 100 100" xml:space="preserve">
    <g>
        <path d="M83.298,84.724l9.107-28.419l-11.701-35.33l4.932-4.932V6.5h-3v8.301L68.414,29.021l2.121,2.121l3.663-3.664l7.666,28.625   l-5.862,9.861h-0.045v0.076L65.544,83.559l-2.648-0.879c0.584-2.207,1.18-4.934,1.18-7.209c0-7.022-4.127-12.568-10.76-14.473   c-2.085-0.61-4.683-1.523-7.432-2.49c-1.23-0.432-2.49-0.875-3.759-1.311L38.047,44.43h0.739c1.285,0,2.402-0.769,2.848-1.962   c0.448-1.212,0.086-2.522-0.924-3.341c-2.943-2.385-6.608-3.645-10.6-3.645h-6.102c-1.672,0-3.031,1.342-3.031,2.99v2.967   c0,1.648,1.359,2.99,3.031,2.99h5.099l3.354,9.836c-2.4-0.576-4.625-0.94-6.499-0.94c-9.956,0-18.367,8.518-18.367,18.601   c0,3.852,1.007,7.496,2.912,10.539c0.74,1.182,1.6,2.236,2.545,3.181c-1.53,1.081-2.534,2.859-2.534,4.871V93.5h5.264h8.146h50.53   h5.313h8.096v-2.983C87.866,87.709,85.914,85.354,83.298,84.724z M85.089,56.549l-8.33-31.109l1.73-1.606l10.76,32.487l-3.09,9.645   h-6.668L85.089,56.549z M23.978,41.439l0.031-2.957h6.102c3.343,0,6.273,1.001,8.713,2.942c-0.003,0.001-0.015,0.005-0.037,0.005   L23.978,41.439z M32.277,44.43h2.621l3.702,11.594c-0.891-0.287-1.774-0.561-2.648-0.818L32.277,44.43z M15.781,90.5h-2.264   c0.01-1.627,1.336-2.948,2.965-2.948h1.479c1.629,0,2.955,1.321,2.965,2.948H15.781z M23.926,90.5   c-0.01-3.281-2.681-5.948-5.964-5.948h-1.479c-0.054,0-0.105,0.007-0.158,0.008c-1.26-1.004-2.365-2.234-3.275-3.687   c-1.605-2.564-2.454-5.659-2.454-8.947c0-8.457,7.037-15.601,15.367-15.601c4.664,0,12.572,2.78,18.927,5.013   c2.788,0.98,5.422,1.906,7.591,2.542c5.383,1.544,8.596,5.878,8.596,11.591c0,2.407-0.826,5.59-1.446,7.775l-0.393,1.381   l7.653,2.538l10.818-18.2h7.489l-4.998,15.598c-3.18,0.119-5.732,2.73-5.741,5.938H23.926z M79.771,90.5h-2.313   c0.009-1.627,1.336-2.948,2.966-2.948h1.479c1.629,0,2.955,1.321,2.965,2.948H79.771z"/>
        <path d="M48.827,78.139c2.018-1.334,3.352-3.619,3.352-6.213c0-4.107-3.341-7.447-7.448-7.447c-4.106,0-7.447,3.34-7.447,7.447   s3.341,7.447,7.447,7.447c0.446,0,0.882-0.046,1.307-0.121l1.756,3.813h-4.549v3h11.901v-3h-4.05L48.827,78.139z M40.283,71.926   c0-2.453,1.995-4.447,4.447-4.447c2.453,0,4.448,1.994,4.448,4.447s-1.995,4.447-4.448,4.447   C42.278,76.373,40.283,74.379,40.283,71.926z"/>
    </g>
</svg>
