<svg height='100px' width='100px'  fill="#000000" xmlns="http://www.w3.org/2000/svg" xmlns:xlink="http://www.w3.org/1999/xlink" version="1.1" x="0px" y="0px" viewBox="0 0 66 66" enable-background="new 0 0 66 66" xml:space="preserve"><g><path d="M39.6,37.5l-10.7-1.4l-0.8,2.2l7,0.9c2.5,0.3,4.1,2.9,3.3,5.3l-5.8,16.9c1.4,0.2,2.8-0.6,3.3-2l6.2-18   C42.7,39.7,41.5,37.7,39.6,37.5z"></path><path d="M34.7,19.1h14.7c0.7,0,1.3,0.2,1.8,0.6c0.1-0.2,0.2-0.5,0.2-0.8c0-1.1-0.9-2-2-2h-15C34.6,17.6,34.7,18.3,34.7,19.1z"></path><path d="M33.3,13.3c3.2,0,5.8-2.6,5.8-5.8c0-3.2-2.6-5.8-5.8-5.8c-3.2,0-5.8,2.6-5.8,5.8C27.5,10.7,30.1,13.3,33.3,13.3z"></path><path d="M49.3,20.1H27.7c-1.1,0-2,0.9-2,2s0.9,2,2,2h21.6c1.1,0,2-0.9,2-2S50.5,20.1,49.3,20.1z"></path><path d="M35,40.2l-8.3-1.1l5.2-14.1h-4.2c-1.7,0-3-1.3-3-3c0-1.7,1.4-3,3-3h6c0-2.3-1.5-4.6-3.9-5.5c-3.1-1.2-6.6,0.4-7.7,3.5   L15,36.3c-1.4,3.7,1.2,7.6,4.8,8.1l10.8,1.4l-5,14.5c-0.5,1.6,0.3,3.3,1.9,3.8c1.6,0.5,3.3-0.3,3.8-1.9l6.2-18   C38.1,42.4,36.9,40.5,35,40.2z"></path></g></svg>