<svg height="100px" width="100px" fill="#000000" xmlns="http://www.w3.org/2000/svg" xmlns:xlink="http://www.w3.org/1999/xlink" version="1.1" x="0px" y="0px" viewBox="0 0 1000 1000" style="enable-background:new 0 0 1000 1000" xml:space="preserve">
    <g>
        <path d="M826.9,286.2c-0.2-0.3-0.5-0.5-0.8-0.6L506.6,145.2c-2.4-1-5.1-1-7.5,0L174,285.2c-0.5,0.2-0.9,0.6-1.2,1.1   c-2.4,1.8-3.9,4.6-3.9,7.6v413.9c0,3.8,2.2,7.2,5.7,8.7L496.2,855c1.2,0.5,2.5,0.8,3.7,0.8c0.8,0,3.5-0.7,3.7-0.8l321.6-138.5   c3.5-1.5,5.7-4.9,5.7-8.7V293.9C831,290.8,829.4,288,826.9,286.2z M490.5,832L187.8,701.6V308.3l302.7,130.4V832z M499.9,422.1   l-298-128.4l301-129.7l295,129.7L499.9,422.1z M812.1,701.6L509.4,832V438.6l302.7-130.4V701.6z"/>
        <path d="M270.8,458.2l109.1,47c4.2,1.8,8.7,2.7,13.2,2.7c6.4,0,12.7-1.8,18.3-5.5c9.4-6.2,15-16.5,15-27.8   c0-13.3-7.9-25.3-20.1-30.5l-109.1-47c-10.3-4.4-22-3.4-31.4,2.8c-9.4,6.2-15,16.5-15,27.8C250.7,441,258.6,452.9,270.8,458.2z    M276,415.7c4.1-2.7,9-3.1,13.6-1.2l109.1,47c5.3,2.3,8.7,7.4,8.7,13.2c0,4.9-2.4,9.3-6.5,12c-4.1,2.7-9,3.1-13.6,1.2l-109.1-47   c-5.3-2.3-8.7-7.4-8.7-13.2C269.6,422.8,271.9,418.4,276,415.7z"/>
        <path d="M597.5,497.8c5.5,3.6,11.9,5.5,18.3,5.5c4.5,0,8.9-0.9,13.2-2.7l109.1-47c12.2-5.3,20.1-17.2,20.1-30.5   c0-11.2-5.6-21.6-15-27.8c-9.4-6.2-21.1-7.2-31.4-2.8l-109.2,47c-12.2,5.3-20.1,17.2-20.1,30.5   C582.5,481.3,588.1,491.7,597.5,497.8z M610.1,456.9l109.1-47c1.9-0.8,3.8-1.2,5.7-1.2c2.7,0,5.4,0.8,7.8,2.4   c4.1,2.7,6.5,7.1,6.5,12c0,5.7-3.4,10.9-8.7,13.2l-109.1,47c-4.5,1.9-9.5,1.5-13.6-1.2c-4.1-2.7-6.5-7.1-6.5-12   C601.4,464.3,604.8,459.2,610.1,456.9z"/>
    </g>
</svg>
