<svg id="Layer_1" data-name="Layer 1" xmlns="http://www.w3.org/2000/svg" viewBox="0 0 349.29 258.97"><g id="Layer_2" data-name="Layer 2"><g id="Layer_1-2" data-name="Layer 1-2"><path d="M173.87,160.62a60.87,60.87,0,0,0-3.28,9.06c-3.61,12.38-7.4,24.7-10.76,37.15-4,14.76-8.57,29.34-12.57,44.1-.71,2.6-2.24,3.69-4.71,3.49-2.21-.18-3.57-1.58-3.85-4.16a33.34,33.34,0,0,1-.06-3.74c0-12.17.24-24.34-.09-36.5a56.23,56.23,0,0,1,3.24-19.57c3.64-11,7-22,10.51-33.06a14,14,0,0,0,.32-5.65c-1.13-12.11-2.14-24.23-3.19-36.35Q147.7,95.49,146,75.57c-.28-3.21-.1-3.53,3.07-3.53q25.25,0,50.49-.05c2.2,0,3.14.6,2.91,3-1.34,14.1-2.56,28.2-3.8,42.31q-1.62,18-3.15,36.09c-.27,3.12,1.22,5.84,2.09,8.68,3.75,12.24,7.68,24.44,11.5,36.66a11.53,11.53,0,0,1,.42,3.2v47.5c0,3.12-1,4.58-3.43,4.92-2.61.37-4.14-.76-5-3.72Q189.34,210,177.6,169.37C176.74,166.45,176.56,163.14,173.87,160.62Z" fill="#010101"/><path d="M174.34,4.52H320.81c3.65,0,3.65,0,3.65,3.7,0,12.58,0,25.16,0,37.74,0,2.26-.57,3-3,3-5.36-.21-5.37-.08-5.37-5.56,0-9.16-.1-18.33.06-27.49,0-2.59-.78-3.19-3.26-3.19q-116.34.09-232.68,0-22.62,0-45.24,0c-2.17,0-2.88.59-2.86,2.81.11,10.16,0,20.33.09,30.49,0,2.2-.42,3.09-2.91,2.94-5.52-.34-5.52-.19-5.52-5.81v-35c0-3.6,0-3.6,3.54-3.6Q100.87,4.5,174.34,4.52Z" fill="#010101"/><path d="M324.08,105.3a8.51,8.51,0,0,1,.37,3.65V251.19c0,3.37,0,3.38-3.44,3.38h-14.5c-1.64,0-2.41-.35-2.4-2.2q.09-24,0-48c0-1.61.5-2.26,2.16-2.18,2.24.1,4.51-.13,6.74.05,2.39.18,3.18-.61,3.17-3.08-.09-23.41-.05-46.83-.05-70.24v-21.5c0-1.66.32-2.45,2.25-2.21A45.16,45.16,0,0,0,324.08,105.3Z" fill="#010101"/><path d="M53.42,77.21c.23,14.44-12.3,25.38-25.56,25.31C14.09,102.44,2.53,90.79,2.6,76.62c.08-13.58,11.78-25,25.65-25A25.23,25.23,0,0,1,53.42,76.89Zm-20.18-.16a5.73,5.73,0,0,0-5.57-5.6A5.53,5.53,0,0,0,22.15,77,5.23,5.23,0,0,0,27,82.58a4.82,4.82,0,0,0,.76,0A5.57,5.57,0,0,0,33.24,77.05Z" fill="#010101"/><path d="M295.34,76.89a25.33,25.33,0,0,1,25.4-25.27h.11c13.86.16,25.43,11.76,25.3,25.38a25.41,25.41,0,0,1-50.82.89C295.33,77.56,295.33,77.22,295.34,76.89Zm19.89.18a5.22,5.22,0,0,0,4.88,5.55h.49a5.4,5.4,0,0,0,5.73-5c0-.16,0-.32,0-.48a5.69,5.69,0,0,0-5.48-5.65,5.33,5.33,0,0,0-5.63,5A2.91,2.91,0,0,0,315.23,77.07Z" fill="#010101"/><path d="M23.81,179.74V108.26c0-2.47.71-3.1,3.14-3,5.35.33,5.36.19,5.36,5.69v87.72c0,3.57,0,3.57,3.53,3.56h6.25c1.5,0,2.24.4,2.24,2.13q-.09,24,0,48c0,1.62-.53,2.23-2.15,2.22-5.25-.06-10.5-.09-15.75,0-2,0-2.62-.68-2.6-2.62.09-6.08,0-12.16,0-18.24Z" fill="#010101"/><path d="M174.06,34.36c10.34,0,17.43,7.94,17.82,17.34.42,10.21-7.66,18.09-17.83,18.11a17.73,17.73,0,0,1,0-35.45Z" fill="#010101"/><path d="M142.56,74.74c.94.94.66,2,.75,3,.45,5.06.65,10.14,1.32,15.17.36,2.7-.66,4.14-2.82,5.32-4.54,2.48-9,5.08-13.57,7.52-1.88,1-2.4,2.06-1.45,4.17,2.52,5.61,4.8,11.32,7.15,17a22.56,22.56,0,0,1,.69,2.3c-1.17.61-1.54-.3-2-.75q-10.41-10.92-20.77-21.9c-.17-.18-.33-.37-.49-.57-2.75-3.47-2.72-3.44.64-6.24l27.56-23C140.47,76,141.2,75,142.56,74.74Z" fill="#010101"/><path d="M215.46,129.5c-1.31-1.85-.54-2.65-.11-3.63,2.4-5.5,4.66-11.07,7-16.6.63-1.49.29-2.41-1.18-3.25-5.12-3-10.13-6.09-15.27-9a3.76,3.76,0,0,1-2.18-4.41c.7-5.36,1-10.77,1.52-16.16.06-.65-.07-1.35.47-1.92,1.2-.37,1.79.65,2.51,1.24,5,4.15,9.95,8.34,14.92,12.52s10.19,8.59,15.35,12.8c1.47,1.19,1.46,1.89.12,3.27-7,7.24-13.9,14.59-20.79,21.94A29.3,29.3,0,0,0,215.46,129.5Z" fill="#010101"/><path d="M313,30.69a6.44,6.44,0,0,1-1.87,6.48C287,62.47,262.87,87.74,239,113.28c-7.3,7.81-15,15.26-22.12,23.21a5.15,5.15,0,0,1-2,1.76c-2.77-1.75-2.79-1.89-.65-4.15l89.22-94c2.39-2.52,4.75-5.08,7.15-7.59A4.64,4.64,0,0,1,313,30.69Z" fill="#010101"/><path d="M35.64,30.27l12.4,13,53.43,56.34,32.46,34.24c.23.25.41.53.65.76.88.83,1.42,1.67.31,2.73s-2,.62-2.94-.37c-5.24-5.58-10.51-11.12-15.77-16.68Q99.44,102.64,82.69,85l-46-48.47C35,34.78,34.9,33,35.64,30.27Z" fill="#010101"/></g></g></svg>