<svg id="Layer_1" data-name="Layer 1" xmlns="http://www.w3.org/2000/svg" viewBox="0 0 204.97 204.09"><g id="Layer_2" data-name="Layer 2"><g id="Layer_1-2" data-name="Layer 1-2"><path d="M4.2,100.09C3.64,72,4.56,44,5.81,15.93c.12-2.59,1.39-4,4-4.06q10-.07,20,0c2.83,0,4.16,1.45,4.24,4.35.16,5.92-.83,5.35,5.64,5.35H95.41c2.38,0,3-.45,2-2.78C94.9,13.38,96,11.86,101.93,11c9.16-1.28,18.32-2.3,27.58-1.47q7.47.69,14.86,1.73c4,.57,5.13,2.43,3.6,6-5,11.75-3.56,23.52-.57,35.38,2.44,9.64,5.95,19,8.11,28.67s1.83,19.5-2.07,28.87a12.52,12.52,0,0,1-7,6.76c-2.68,1.12-1,3.27-1.38,4.9s1.08,1.55,2.12,1.75c4.16.79,6.52,3.57,6.57,7.8a23.86,23.86,0,0,1-.11,5c-.7,3.61-2.92,6-6.67,6.4-1.68.19-2,.87-2,2.38.09,3.91.1,7.83,0,11.74,0,1.68.54,2.24,2.16,2.1a13.78,13.78,0,0,1,3.74,0c4.36.86,6.72-1.32,8.79-4.88a140.29,140.29,0,0,0,14.21-34.61,207.34,207.34,0,0,0,6.88-54.25c0-2.33.66-4.17,3.35-4.36,2.44-.18,3.51,1,3.86,3.49s2.68,1,4.07,1.39,1.84-.45,1.84-1.73V53.6a1.28,1.28,0,0,0-1.19-1.51q-10.55-2.45-21-5.07c-2-.5-4.16-.85-4.86-3.29-1.1-3.81,1.68-6.54,6-5.63,4.62,1,9.18,2.24,13.77,3.36,3.06.76,6.14,1.45,9.18,2.25,4.47,1.19,6.8,4.17,6.85,8.81.06,4.24,0,8.49,0,12.74-.06,5.9-3.44,9.19-9.39,9.18-5,0-5.06,0-5.43,4.94a220.56,220.56,0,0,1-4.88,34.79c-4.44,18.67-10.7,36.62-22.86,51.91a48.89,48.89,0,0,1-13.6,12.27c-2.43,1.41-1.21,3.78-1.2,5.66s1.81.9,2.81,1c2.58.11,5.17.07,7.75,0,1.7,0,2.46.72,2.39,2.4v1.49c.06,5.77-.28,5.9-6,5.53-12.72-.82-25.48-.55-38.2-.2-8.42.23-16.81-.58-25.22-.17-.76,0-1.64,0-1.68-1-.07-2.25-.1-4.49,0-6.74,0-1.28,1.16-1.21,2.07-1.21,2.5,0,5,.07,7.5,0,1,0,2.85.65,2.95-.89.11-1.83,1.15-4.22-.93-5.55-15.18-9.75-23.21-24.73-29.53-40.81A170.94,170.94,0,0,1,58.82,95.67a178.14,178.14,0,0,1-2-19.38c-.06-1.53-.62-2-2.14-1.9a29.83,29.83,0,0,1-7-.35c-3.14-.64-5.66-4.49-5.74-8.25s0-7.66,0-11.49c0-7,2.35-9.7,9.11-11.18s13.39-3.15,20-4.86c4.31-1.11,7.29.83,6.86,4.71a3.37,3.37,0,0,1-2.55,3.3L55.69,51.2c-1.29.32-2.57.69-3.87.94-1.06.21-1,1-1,1.72v10c0,1,0,2.36,1.44,1.93s4,1.55,4.43-1.56c.3-2.37,1.5-3.49,3.78-3.3,2.46.21,3.42,2,3.39,4.17A204.55,204.55,0,0,0,67.77,107C71,123.57,76.11,139.41,85,153.9c1.08,1.76,1.87,4.45,3.65,4.83,3.2.66,6.62.22,10,.18.89,0,1-.74,1-1.45v-13c0-1.15-.57-1.32-1.47-1.54-7-1.7-10-10.67-5.68-16.48a7.87,7.87,0,0,1,5.52-3c.84-.12,1.83-.4,1.59-1.49-.37-1.59,1.17-3.92-.85-4.73-6.44-2.58-8.38-8.1-9.79-14-2.48-10.48-.43-20.6,2.55-30.66s6.42-19.73,8-30c.49-3.19.36-6.47.55-9.71.07-1.21-.45-1.54-1.63-1.53H36.63c-2,0-1.83,1.08-1.78,2.39,1,29,1.23,58,1.07,86.93-.12,23.32-1,46.61-2,69.9-.1,2.27-1.32,3.74-3.51,3.78-7.16.11-14.32.11-21.48-.06-2.46-.06-3.1-2-3.27-4.24-1-14-1.09-27.93-1.41-41.9C3.92,132.09,4.2,116.09,4.2,100.09Zm14.27-21h0v57c0,6,0,6-5.91,6a8.69,8.69,0,0,1-1.25,0c-2.1-.19-2.49,1.11-2.56,2.81a2.23,2.23,0,0,0,2.53,2.6h5.25c.79,0,1.76,0,1.83.88.09,1.14-1,.78-1.69.81-1.66.07-3.33.08-5,0-1.82-.08-2.9.59-3,2.5s.77,3.18,2.92,3.14c1.74,0,3.49-.06,5.24-.06.57,0,1.37,0,1.4.69.05,1-.88.79-1.49.8H11.5c-1.74,0-2.74.78-2.77,2.69s.67,3,2.71,3h5.49c.55,0,1.39-.1,1.44.62.05.9-.85.88-1.48.88H11.4c-1.83,0-2.7,1-2.69,2.82s.68,2.85,2.65,2.8,3.67,0,5.5,0c.6,0,1.59-.19,1.56.73,0,.68-.85.92-1.57.91-2,0-4-.09-6,0-1.72,0-2.18,1.17-2.13,2.73s.46,2.63,2.24,2.63,3.34-.07,5,0c.88.05,2.43-.52,2.41.84s-1.5,1-2.5,1c-1.5,0-3,0-4.49-.07-1.84-.11-2.56.76-2.57,2.51s.63,2.83,2.64,2.7c1.66-.1,3.33,0,5,0,.85,0,2.11-.32,2.06,1.08,0,1.13-1.16,1-2,1H11c-1.64,0-2.21.81-2.19,2.31s.12,2.79,2,2.79h18c1.78,0,2.18-1.1,2.18-2.65s-.55-2.54-2.31-2.48-3.33,0-5,0c-.94,0-2.36.46-2.44-.94s1.38-1,2.28-1.06a46.84,46.84,0,0,1,4.74,0c1.93.13,2.71-.7,2.75-2.59s-.9-2.66-2.74-2.59-3.66,0-5.49,0c-.73,0-1.43-.16-1.5-1-.08-1,.8-.92,1.43-.93,1.83,0,3.66-.08,5.49,0s2.71-.68,2.78-2.61-.85-2.76-2.64-2.78-3.49,0-5.24.09c-.81,0-1.74,0-1.82-.85-.11-1.09,1-.84,1.65-.86,1.74-.05,3.5-.06,5.24,0A2.43,2.43,0,0,0,31,166.29c0-1.86-.77-3-2.78-3H22.48c-.49,0-1.1,0-1.12-.7s.63-.68,1.1-.69c1.66,0,3.33-.08,5,0,2.11.09,3.61-.29,3.58-2.91s-1.66-2.88-3.7-2.8c-1.57.07-3.16,0-4.74,0-.49,0-1.14,0-1.22-.58-.12-.82.65-.84,1.2-.85,1.83,0,3.66-.07,5.49,0s3-.76,3-2.78-.82-2.94-2.89-2.81a46.84,46.84,0,0,1-4.74,0c-.72,0-1.94.43-1.87-.87,0-1,1.06-.79,1.82-.77h4.74c1.81,0,3-.6,2.93-2.75-.09-2-1-2.86-3-2.7-1.49.11-3-.06-4.49,0-1.86.14-2.4-.54-2.4-2.43q.12-60.7.11-121.42c0-1,.15-2.1-1.34-2.15-1.7-.06-1.47,1.17-1.47,2.25ZM67.38,27.45H97.11c.86,0,2.37.68,2.49-.76s-1.38-1.31-2.44-1.31H37c-.93,0-2.31-.37-2.25,1.16.06,1.31,1.33,1,2.19,1Zm38.55,123.69v6c0,1.12.08,2.19,1.53,1.84,2.53-.62,5.53,1.6,7.67-1.26.09-.11,0-.33,0-.49V145.76c0-1.24-.46-1.7-1.74-1.83-7.46-.75-7.46-.78-7.46,6.73A3.84,3.84,0,0,1,105.93,151.14Zm32.75.11h0v-5.47c0-1,.35-2.67-1.33-2.23-2.63.67-5.77-1-7.93,1.67-.09.1,0,.33,0,.49v11.44c0,1.19.33,1.75,1.67,1.86,7.6.65,7.6.69,7.59-6.77Zm-4.7,16c-4.62,0-4.62,0-4.64,4.76v.49c0,4,.06,4.13,4,3.41a29.18,29.18,0,0,0,4-1.19,1.85,1.85,0,0,0,1.34-1.32c1.2-4.37-.08-6.15-4.46-6.15Zm-18.93,4.65v-3c0-1.31-.62-1.94-1.83-1.66-2.4.56-6-1.61-7.08,1.19-1.65,4.17-.3,5.8,4,7.14s4.93.94,4.91-3.65Zm23.6-51.24c.51-2.33-.62-2.65-2.62-2.21a32.38,32.38,0,0,1-4.91.56c-1.12.08-1.89.25-1.86,1.67s.6,1.76,1.79,1.81c1.82.08,3.64.11,5.44.34s2.53-.3,2.16-2.15Zm-32.63,0c-.56,2,.55,2.34,2.31,2.12s3.47-.33,5.21-.39a1.5,1.5,0,0,0,1.67-1.3,1.27,1.27,0,0,0,0-.39c0-1.09-.45-1.64-1.63-1.71a32.27,32.27,0,0,1-5.18-.62c-2-.4-2.86.15-2.38,2.34Zm4.4,64.3h3.23c.49,0,1.12,0,1.18-.6s-.53-.71-1-.81c-2.18-.45-4.47-.27-6.54-1.28-.73-.35-1.33-.11-1.33.84,0,.77-.29,1.79,1,1.83a26.65,26.65,0,0,0,3.46.07Zm23.38,0h3.75c1.42,0,1.25-1.12,1.14-2-.15-1.29-1-.68-1.68-.51-1,.23-1.95.37-2.89.67-1.41.46-4-.24-4,1.31,0,1.37,2.57.22,3.68.6ZM147,167.14c-1.37-.08-2.13.33-2,1.68,0,.47,0,1.26.66,1a3.48,3.48,0,0,0,2.52-2.17c.16-.65-.85-.37-1.18-.44Zm-49.41,0c-.22.3-1.32-.36-1.12.49a3.45,3.45,0,0,0,2.45,2.15c.84.29.77-.53.77-1.09,0-1.23-.79-1.6-2.1-1.47Z"/></g></g></svg>