<svg height='100px' width='100px'  fill="#000000" xmlns="http://www.w3.org/2000/svg" xmlns:xlink="http://www.w3.org/1999/xlink" version="1.1" x="0px" y="0px" viewBox="0 0 10 10" enable-background="new 0 0 10 10" xml:space="preserve"><path d="M8.034,7.994c0.009-0.008,0.019-0.016,0.026-0.025C8.329,7.701,8.46,7.279,8.402,6.874C8.369,6.63,8.271,6.398,8.113,6.186  c-0.053-0.072-0.114-0.143-0.18-0.207c-0.15-0.152-0.338-0.291-0.555-0.41c-0.484-0.271-0.854-0.51-1.122-0.703l0.086-0.086  c0.041-0.042,0.04-0.108-0.002-0.15c-0.034-0.034-0.086-0.04-0.126-0.017C6.236,4.57,6.23,4.519,6.195,4.484  C6.162,4.45,6.109,4.443,6.068,4.466c0.023-0.041,0.018-0.093-0.018-0.127C6.018,4.305,5.965,4.298,5.925,4.321  C5.947,4.28,5.941,4.229,5.907,4.194C5.873,4.16,5.82,4.153,5.779,4.176c0.023-0.041,0.018-0.093-0.018-0.127  C5.729,4.015,5.675,4.008,5.635,4.031C5.658,3.99,5.652,3.938,5.617,3.904C5.583,3.87,5.531,3.863,5.49,3.886  c0.022-0.041,0.017-0.093-0.018-0.127C5.437,3.724,5.385,3.718,5.345,3.741C5.368,3.7,5.361,3.648,5.327,3.614  C5.285,3.572,5.219,3.572,5.178,3.613L5.096,3.695C4.909,3.432,4.682,3.08,4.428,2.625C4.309,2.409,4.171,2.222,4.019,2.07  C3.953,2.004,3.882,1.944,3.811,1.89C3.598,1.732,3.366,1.634,3.122,1.6C2.714,1.543,2.295,1.675,2.026,1.944  C2.018,1.952,2.009,1.961,2.001,1.971L1.967,2.004C1.958,2.013,1.949,2.021,1.94,2.03c-0.269,0.268-0.4,0.688-0.343,1.095  c0.034,0.245,0.132,0.476,0.29,0.689c0.053,0.072,0.114,0.142,0.18,0.208c0.152,0.152,0.338,0.291,0.554,0.41  c0.454,0.252,0.806,0.48,1.07,0.667L3.599,5.191c-0.042,0.042-0.041,0.108,0,0.149c0.035,0.035,0.088,0.041,0.127,0.02  C3.704,5.399,3.71,5.452,3.745,5.486C3.78,5.52,3.832,5.525,3.871,5.505C3.849,5.544,3.855,5.598,3.89,5.631  c0.035,0.034,0.087,0.04,0.126,0.02C3.995,5.689,4,5.742,4.035,5.775c0.035,0.035,0.087,0.041,0.126,0.02  C4.14,5.834,4.145,5.887,4.18,5.921c0.035,0.034,0.087,0.041,0.126,0.019C4.285,5.979,4.29,6.032,4.325,6.066  C4.36,6.1,4.412,6.105,4.451,6.085C4.429,6.124,4.435,6.174,4.466,6.208C4.465,6.434,4.447,6.691,4.41,6.984  C4.405,7.018,4.384,7.173,4.433,7.352C4.47,7.482,4.535,7.598,4.628,7.689C4.721,7.783,4.838,7.854,4.979,7.9  c0.056,0.018,0.117,0.004,0.158-0.039C5.155,7.844,5.167,7.824,5.175,7.8C5.194,7.745,5.18,7.684,5.138,7.643  C5.122,7.626,5.1,7.611,5.077,7.605c-0.095-0.031-0.17-0.076-0.229-0.135C4.794,7.417,4.756,7.352,4.734,7.273  c-0.038-0.119-0.02-0.229-0.018-0.238c0-0.003,0-0.006,0.001-0.01c0.03-0.246,0.049-0.474,0.055-0.678l0.095-0.095  c0.194,0.269,0.434,0.636,0.703,1.12C5.691,7.59,5.83,7.775,5.982,7.928c0.064,0.065,0.134,0.127,0.207,0.18  c0.213,0.158,0.443,0.258,0.688,0.291c0.407,0.057,0.827-0.074,1.096-0.344c0.01-0.009,0.019-0.017,0.025-0.025L8.034,7.994z   M2.167,2.127C2.174,2.12,2.182,2.113,2.188,2.106C2.407,1.887,2.752,1.781,3.09,1.828c0.279,0.04,0.538,0.175,0.766,0.403  c0.137,0.137,0.262,0.307,0.373,0.506C4.447,3.131,4.647,3.448,4.818,3.7l-0.04,0.041c-0.13-0.184-0.33-0.473-0.429-0.639  c-0.011-0.02-0.025-0.043-0.04-0.07c-0.097-0.169-0.26-0.453-0.507-0.693C3.498,2.044,3.157,1.908,2.788,1.933  C2.767,1.934,2.464,1.951,2.229,2.201L2.2,2.231C1.949,2.466,1.933,2.769,1.932,2.79c-0.025,0.368,0.11,0.709,0.405,1.013  C2.344,3.81,2.352,3.818,2.359,3.825C2.594,4.06,2.867,4.215,3.03,4.31C3.058,4.325,3.081,4.338,3.1,4.351  C3.267,4.45,3.556,4.649,3.74,4.78L3.697,4.821C3.445,4.65,3.127,4.45,2.733,4.232C2.534,4.121,2.364,3.996,2.228,3.859  C2,3.63,1.863,3.374,1.824,3.093c-0.047-0.337,0.06-0.682,0.278-0.901c0.007-0.007,0.014-0.014,0.021-0.021  C2.125,2.17,2.126,2.169,2.127,2.167L2.164,2.13C2.165,2.13,2.167,2.129,2.167,2.127z M2.284,2.252  C2.5,2.021,2.789,2.007,2.792,2.007h0.001c0.812-0.056,1.26,0.728,1.452,1.063C4.26,3.097,4.274,3.12,4.286,3.14  c0.102,0.172,0.31,0.47,0.439,0.654L4.674,3.845c-0.126-0.168-0.319-0.429-0.417-0.58C4.246,3.248,4.232,3.227,4.218,3.203  c-0.097-0.154-0.259-0.41-0.489-0.634c-0.284-0.276-0.586-0.42-0.901-0.427c-0.019,0-0.281-0.01-0.466,0.191L2.338,2.356  c-0.2,0.186-0.191,0.447-0.191,0.466c0.007,0.315,0.15,0.618,0.426,0.901C2.581,3.73,2.587,3.737,2.594,3.744  c0.22,0.22,0.465,0.375,0.614,0.468C3.232,4.227,3.253,4.24,3.27,4.252c0.151,0.098,0.412,0.29,0.581,0.416L3.792,4.726  c-0.183-0.13-0.482-0.337-0.653-0.44c-0.02-0.012-0.044-0.025-0.071-0.041C2.734,4.054,1.95,3.606,2.005,2.794c0,0,0,0,0-0.001  c0-0.003,0.013-0.29,0.246-0.508c0,0,0,0,0.001-0.001L2.284,2.252C2.283,2.253,2.283,2.253,2.284,2.252z M2.415,2.384  C2.58,2.206,2.822,2.216,2.824,2.217h0.001C3.518,2.232,3.964,2.94,4.154,3.243C4.17,3.267,4.183,3.288,4.195,3.306  c0.1,0.154,0.299,0.423,0.425,0.592L4.539,3.979c-0.119-0.15-0.288-0.363-0.378-0.49C4.011,3.279,3.534,2.532,2.9,2.44  c0,0-0.214-0.039-0.341,0.103L2.542,2.561C2.4,2.688,2.439,2.902,2.439,2.902c0.091,0.633,0.839,1.11,1.049,1.26  C3.614,4.253,3.828,4.42,3.977,4.54L3.903,4.615C3.735,4.489,3.465,4.29,3.311,4.19C3.293,4.178,3.272,4.165,3.248,4.149  C2.945,3.958,2.237,3.513,2.222,2.82V2.819c0-0.002-0.011-0.245,0.167-0.409c0-0.001,0.001-0.001,0.001-0.001L2.415,2.384  C2.414,2.385,2.415,2.384,2.415,2.384z M3.783,4.151L3.539,4C3.537,3.999,3.535,3.998,3.533,3.996  C3.522,3.985,3.52,3.967,3.528,3.954c0.01-0.016,0.031-0.021,0.047-0.011l0.243,0.151C3.834,4.104,3.84,4.125,3.83,4.141  C3.82,4.157,3.798,4.161,3.783,4.151z M3.3,3.84C3.215,3.776,3.141,3.71,3.077,3.647C2.929,3.499,2.835,3.36,2.779,3.256  c-0.089-0.163-0.11-0.274-0.11-0.278C2.665,2.96,2.677,2.942,2.695,2.938c0.019-0.003,0.037,0.009,0.04,0.028  c0,0.001,0.021,0.107,0.105,0.261c0.079,0.141,0.229,0.354,0.501,0.56C3.355,3.799,3.359,3.82,3.347,3.835  C3.336,3.849,3.315,3.852,3.3,3.84z M2.659,4.367C2.448,4.25,2.267,4.116,2.12,3.969c-0.064-0.063-0.123-0.13-0.174-0.198  c-0.15-0.203-0.243-0.425-0.275-0.656C1.617,2.731,1.74,2.335,1.993,2.082C2,2.074,2.009,2.066,2.018,2.058c0,0,0,0,0.001-0.001  l0.035-0.035c0,0,0,0,0.001-0.001c0.008-0.009,0.016-0.018,0.024-0.025C2.331,1.743,2.727,1.62,3.112,1.674  C3.343,1.707,3.564,1.8,3.767,1.951c0.068,0.051,0.136,0.108,0.2,0.172c0.147,0.147,0.28,0.329,0.397,0.539  c0.209,0.375,0.4,0.682,0.567,0.926L4.872,3.646C4.703,3.398,4.508,3.086,4.293,2.7C4.179,2.496,4.049,2.32,3.908,2.178  C3.671,1.942,3.392,1.795,3.1,1.754c-0.36-0.05-0.729,0.065-0.964,0.3C2.128,2.062,2.12,2.069,2.113,2.078L2.075,2.115L2.074,2.116  C2.065,2.124,2.058,2.132,2.05,2.139C1.815,2.375,1.7,2.744,1.75,3.104c0.041,0.292,0.188,0.571,0.425,0.808  c0.141,0.142,0.316,0.272,0.521,0.387c0.386,0.213,0.698,0.409,0.947,0.577L3.585,4.934C3.34,4.767,3.033,4.576,2.659,4.367z   M3.697,5.29C3.685,5.302,3.665,5.301,3.652,5.289c-0.013-0.012-0.013-0.032,0-0.044L5.23,3.666c0.012-0.012,0.032-0.012,0.044,0  c0.013,0.013,0.013,0.033,0.001,0.045L3.697,5.29z M3.842,5.434c-0.013,0.013-0.032,0.012-0.044,0  C3.784,5.421,3.784,5.401,3.796,5.389L5.375,3.81c0.012-0.012,0.032-0.012,0.044,0.001C5.432,3.824,5.432,3.844,5.42,3.855  L3.842,5.434z M3.987,5.58c-0.013,0.013-0.033,0.012-0.045,0C3.93,5.566,3.929,5.546,3.941,5.534L5.52,3.956  c0.013-0.012,0.033-0.012,0.045,0.001c0.013,0.012,0.014,0.032,0.002,0.044L3.987,5.58z M4.132,5.725  c-0.013,0.012-0.033,0.012-0.045,0C4.075,5.711,4.074,5.691,4.086,5.68L5.665,4.1c0.013-0.012,0.03-0.012,0.044,0.001  S5.723,4.134,5.71,4.146L4.132,5.725z M4.277,5.87c-0.013,0.012-0.033,0.012-0.045,0C4.22,5.855,4.219,5.836,4.231,5.824l1.58-1.578  c0.012-0.012,0.031-0.012,0.045,0.001c0.012,0.012,0.013,0.032,0,0.044L4.277,5.87z M4.422,6.016C4.41,6.027,4.39,6.025,4.377,6.014  C4.365,6.002,4.364,5.98,4.376,5.969l1.579-1.578C5.967,4.378,5.986,4.379,6,4.392c0.012,0.012,0.014,0.032,0,0.044L4.422,6.016z   M7.832,7.871c-0.006,0.008-0.014,0.015-0.02,0.023c-0.22,0.219-0.563,0.324-0.9,0.277c-0.28-0.04-0.538-0.176-0.768-0.404l0,0  C6.009,7.632,5.883,7.462,5.771,7.262C5.535,6.835,5.321,6.498,5.14,6.236l0.033-0.032c0.128,0.182,0.345,0.491,0.449,0.668  c0.012,0.019,0.024,0.041,0.04,0.069c0.095,0.162,0.25,0.436,0.484,0.672C6.152,7.62,6.161,7.627,6.168,7.635  C6.473,7.93,6.814,8.064,7.182,8.04c0.021,0,0.324-0.019,0.56-0.269L7.77,7.742c0.252-0.234,0.27-0.537,0.27-0.559  C8.063,6.814,7.928,6.475,7.632,6.17C7.393,5.922,7.109,5.76,6.939,5.663C6.913,5.648,6.889,5.635,6.87,5.623  C6.695,5.52,6.384,5.302,6.202,5.174l0.039-0.039c0.262,0.181,0.6,0.396,1.024,0.633c0.2,0.11,0.371,0.235,0.506,0.371  c0.229,0.229,0.365,0.486,0.403,0.768c0.048,0.337-0.06,0.682-0.276,0.9C7.891,7.814,7.884,7.82,7.876,7.828  C7.875,7.829,7.874,7.83,7.873,7.831L7.836,7.868C7.835,7.869,7.834,7.87,7.832,7.871z M7.688,7.721  C7.471,7.952,7.182,7.966,7.18,7.966s-0.002,0-0.002,0c-0.813,0.056-1.26-0.728-1.451-1.063C5.71,6.877,5.697,6.854,5.686,6.833  C5.578,6.652,5.354,6.332,5.226,6.15L5.276,6.1C5.4,6.268,5.609,6.549,5.712,6.707c0.013,0.02,0.024,0.038,0.041,0.063  c0.093,0.148,0.248,0.395,0.468,0.613c0.006,0.008,0.014,0.014,0.021,0.021C6.523,7.68,6.828,7.823,7.143,7.83  c0.02,0.001,0.281,0.011,0.467-0.191l0.021-0.021C7.833,7.432,7.822,7.17,7.822,7.152C7.814,6.837,7.672,6.533,7.396,6.25  C7.171,6.02,6.914,5.857,6.762,5.761c-0.023-0.015-0.044-0.028-0.063-0.04C6.541,5.618,6.258,5.409,6.093,5.284L6.15,5.227  c0.182,0.128,0.502,0.352,0.683,0.458c0.021,0.013,0.042,0.025,0.069,0.041C7.236,5.918,8.02,6.367,7.965,7.178  c0,0-0.001,0.002,0,0.002c0,0.002-0.013,0.291-0.244,0.508c-0.002,0-0.002,0.002-0.002,0.002L7.689,7.718  C7.688,7.721,7.688,7.721,7.688,7.721z M7.555,7.588c-0.164,0.18-0.406,0.168-0.408,0.168s-0.002,0-0.002,0.001  C6.452,7.742,6.006,7.033,5.816,6.73C5.8,6.707,5.788,6.686,5.775,6.667C5.669,6.505,5.454,6.213,5.33,6.048l0.08-0.081  C5.531,6.118,5.712,6.35,5.809,6.482c0.15,0.211,0.627,0.959,1.26,1.051c0,0,0.216,0.037,0.342-0.104l0.018-0.018  C7.57,7.285,7.532,7.07,7.532,7.07c-0.091-0.635-0.841-1.11-1.05-1.262C6.348,5.714,6.116,5.532,5.965,5.412l0.074-0.074  c0.165,0.124,0.457,0.34,0.619,0.446c0.02,0.012,0.039,0.024,0.064,0.041c0.303,0.19,1.01,0.637,1.024,1.329l0,0  c0,0.003,0.01,0.244-0.168,0.408l0,0L7.555,7.588C7.557,7.588,7.555,7.588,7.555,7.588z M6.236,5.827L6.48,5.979  C6.497,5.989,6.501,6.01,6.491,6.025C6.48,6.042,6.461,6.047,6.445,6.038L6.201,5.886C6.197,5.884,6.195,5.882,6.195,5.88  c-0.01-0.011-0.014-0.026-0.006-0.042C6.201,5.822,6.221,5.816,6.236,5.827z M6.721,6.139c0.282,0.215,0.438,0.437,0.521,0.584  c0.089,0.163,0.11,0.273,0.11,0.278c0.004,0.021-0.01,0.036-0.027,0.04c-0.012,0.002-0.023-0.002-0.03-0.009  C7.289,7.027,7.285,7.02,7.284,7.014c-0.001,0-0.021-0.107-0.104-0.261c-0.078-0.142-0.228-0.354-0.5-0.562  c-0.017-0.01-0.02-0.032-0.008-0.045C6.684,6.13,6.705,6.127,6.721,6.139z M6.245,4.681c0.012-0.012,0.03-0.012,0.043,0  C6.303,4.694,6.303,4.714,6.29,4.726L4.712,6.305c-0.012,0.012-0.032,0.012-0.045,0c-0.012-0.014-0.012-0.033,0-0.046L6.245,4.681z   M6.1,4.536c0.012-0.012,0.032-0.012,0.045,0.001c0.013,0.012,0.013,0.032,0,0.044L4.566,6.159c-0.012,0.013-0.032,0.013-0.044,0  C4.51,6.146,4.509,6.127,4.521,6.114L6.1,4.536z M4.643,7.021L4.643,7.021c0,0.006-0.021,0.131,0.019,0.273  C4.688,7.384,4.733,7.46,4.796,7.523C4.862,7.59,4.949,7.641,5.053,7.676c0.013,0.006,0.023,0.01,0.033,0.02  C5.108,7.717,5.115,7.75,5.105,7.777c-0.004,0.013-0.01,0.023-0.02,0.033C5.063,7.832,5.033,7.838,5.002,7.83  C4.874,7.786,4.765,7.723,4.681,7.639S4.538,7.45,4.503,7.331c-0.044-0.166-0.025-0.308-0.02-0.335V6.995  c0.025-0.199,0.043-0.384,0.051-0.552l0.148,0.199C4.672,6.762,4.66,6.886,4.643,7.018C4.643,7.02,4.643,7.02,4.643,7.021z   M7.945,7.979C7.938,7.986,7.93,7.995,7.922,8.003C7.669,8.256,7.273,8.379,6.889,8.325C6.657,8.292,6.438,8.199,6.232,8.05  c-0.067-0.051-0.135-0.11-0.197-0.174C5.889,7.729,5.753,7.548,5.637,7.338C5.411,6.93,5.204,6.604,5.027,6.35l0.059-0.059  c0.178,0.257,0.389,0.588,0.622,1.007C5.822,7.504,5.951,7.68,6.092,7.82l0,0c0.237,0.236,0.518,0.384,0.811,0.425  c0.357,0.051,0.728-0.063,0.963-0.3C7.872,7.938,7.88,7.932,7.887,7.922l0.038-0.038l0.003-0.002  C7.936,7.876,7.941,7.868,7.95,7.859c0.233-0.234,0.351-0.604,0.3-0.965c-0.041-0.291-0.188-0.57-0.425-0.807  C7.684,5.945,7.509,5.816,7.303,5.702C6.885,5.47,6.553,5.26,6.295,5.082l0.059-0.059c0.256,0.176,0.582,0.383,0.989,0.609  c0.21,0.117,0.392,0.25,0.538,0.397c0.063,0.063,0.122,0.132,0.172,0.199c0.151,0.203,0.244,0.424,0.276,0.654  C8.384,7.27,8.26,7.665,8.008,7.917C8,7.925,7.991,7.934,7.982,7.939L7.98,7.941L7.945,7.979L7.945,7.979z"></path></svg>