<svg height='100px' width='100px'  fill="#000000" xmlns="http://www.w3.org/2000/svg" xmlns:xlink="http://www.w3.org/1999/xlink" version="1.1" x="0px" y="0px" viewBox="0 0 100 100" enable-background="new 0 0 100 100" xml:space="preserve"><polygon points="25.233,31.856 23.208,31.856 7.467,31.856 5.441,31.856 0.795,39.903 0.719,47.242 0.769,54.535 5.441,62.628   7.467,62.628 23.208,62.628 25.233,62.628 29.879,54.581 29.957,47.242 29.906,39.949 "></polygon><polygon points="99.229,39.949 94.557,31.856 92.531,31.856 76.792,31.856 74.766,31.856 70.118,39.903 70.042,47.242   70.093,54.535 74.766,62.628 76.792,62.628 92.531,62.628 94.557,62.628 99.203,54.581 99.279,47.242 "></polygon><rect x="31.503" y="42.685" width="37.353" height="9.114"></rect><rect x="30.503" y="41.685" fill="none" width="39.353" height="11.114"></rect></svg>