<svg id="Layer_1" data-name="Layer 1" xmlns="http://www.w3.org/2000/svg" viewBox="0 0 260.45 223"><g id="Layer_2" data-name="Layer 2"><g id="Layer_1-2" data-name="Layer 1-2"><path d="M160.32,87c-1.84.9-3.48.83-4.83-.68s-.61-3.07.25-4.56q6.39-11,12.73-22c1.11-1.94,2.51-2.93,4.67-1.76s2.29,3,1,5a.91.91,0,0,1-.11.22c-9.59,10.6-8.81,21.32-1.49,33,4.24,6.76,6.83,14.57,10.09,21.94a3.65,3.65,0,0,0,2.85,2.37c9.65,2.12,19.19,4.68,29,6.47,25.84,4.75,40,33,28.76,56.67a3.71,3.71,0,0,0,.16,4.07c1.75,2.82,3.29,5.77,4.91,8.67,1.43,2.56,2.63,5,5.9,6.17,2.9,1,3.91,4,3.29,7.1a6.68,6.68,0,0,1-6.27,5.57,6.33,6.33,0,0,1-6.65-4.29c-.56-1.42-1.07-2-2.73-2q-49.71.09-99.44,0a2,2,0,0,0-2.24,1.64,6.7,6.7,0,0,1-12.8-.09c-.42-1.38-1.06-1.54-2.27-1.54H17.36c-1.32,0-1.95.23-2.47,1.63-1.22,3.31-3.84,5.21-7.37,4.5-3.85-.77-6.2-3.42-5.73-7.54.42-3.8,2.9-6,6.74-6.07,7.24-.13,14.49-.09,21.74,0a3.36,3.36,0,0,0,3.19-1.75c6.51-9.42,12.19-19.43,19.82-28.53-6.62-.54-13.17-1.21-19.72-1.63-3.1-.21-4.75-1.13-4.53-4.67s1.34-5.43,5.3-4.91c4.43.58,8.89.8,13.56,1.2-6-7.35-5.71-11.19,1.28-17.39,7.23-6.41,14.29-13,21.78-19.11,3.38-2.75,4.67-5.34,2.85-9.37a29.74,29.74,0,0,1-1.14-4.74c7.3,5.88,14.24,11.33,21,17,1.26,1.07-.49,2.29-1.26,3-11.75,10.53-23.57,21-35.3,31.4,5.06.45,10.42.94,15.78,1.39,1.13.1,2.64.29,2.75,1.32.53,5,4.68,4,7.55,4.32,3.64.46,4.26,2,2.93,5.2-5.3-.73-10.6-2.37-16.29-1.21.3,4.51-1.36,8.27-6.45,9.32-4.15.85-7-1.26-9.1-5.48-5.52,8.25-10.87,16.25-16.5,24.65,18.3,0,36.09,0,53.88-.07.78,0,1.67-.91,2.31-1.57,6-6.23,10.61-14,18.74-18.09.59-.3.8-1.34,1.41-2.43-7.47-.64-14.56-1.33-21.67-1.81-3.12-.21-4.49-1.42-4.24-4.69s.93-5.41,4.83-4.88c2.78.38,5.6.48,8.55.72-1.29-13-2.57-25.85-3.77-38.66a3.38,3.38,0,0,0-1.52-2.64C86.63,120,77.55,112,67.64,104.9c-7.45-5.31-6-14-7-21.89,8.88,1.43,17.4,2.83,25.94,4.16,1.41.22,1.77.88,1.63,2.17-.58,5.42,1.41,9.26,6.08,12.45,6,4.12,11.45,9.12,17.23,13.62a12,12,0,0,1,4.75,8.92c1.21,13.27,2.53,26.52,3.84,39.78a11.33,11.33,0,0,1-1,6.1c3.7.3,7.15.86,10.6.81,6.57-.09,6.25,3.8,5.06,8.56l76.92,5c-.12,1.52-.24,2.9-.37,4.5l-51.34-3.3-29.42-1.86c-.76,0-1.41-.28-2,.86-3.38,7-9.35,7.71-14.62,1.57-6.48,3.44-10.1,9.76-15.47,15.18,16.38,0,32.17-.3,47.94.16,5.52.16,8.51-1.14,9.09-6.77.63-6.22,3.72-8.89,10.12-7.09a23.34,23.34,0,0,0,5.47.34c7.53.26,14.92.49,21.09,6.09,2.51,2.28,6.3,3,9.82,3.3,6.92.66,13.83-.43,20.71,2.94,4.58,2.25,9.6-.77,12.71-5.14a12.54,12.54,0,0,0,.73-14.12,3.55,3.55,0,0,1-.25-3.4,31.29,31.29,0,0,0-43.51-39.1c-1.62.84-2.21.46-3.41-.7-13.81-13.33-19.35-31.33-27.24-48C161.23,89,160.8,88.05,160.32,87ZM62.11,169.84c-2.91.17-4.78,1.59-4.93,4.52s1.54,4.93,4.56,5,4.86-1.64,4.92-4.69S64.94,170.22,62.11,169.84Zm59,7.93c-2.94.3-4.78,1.82-4.8,4.77a4.44,4.44,0,0,0,4.87,4.8c3-.06,4.65-1.84,4.62-4.8s-1.87-4.47-4.73-4.77Z" fill="#050505"/><path d="M113.31,23a16.89,16.89,0,1,1,0-.1Z" fill="#050505"/><path d="M73.24,71.09c9.39,1.53,18.32,3,27.26,4.43,4,.64,6.68,2.68,6.08,7s-3.68,5.65-7.74,5c-12.49-2-25-4-37.46-6.09-4.93-.83-6.86-5.92-3.77-9.92Q66,60.76,74.5,50.17c2.33-2.88,5.39-3.42,8.37-1.13s3.28,5.53,1,8.59C80.52,62,77,66.34,73.24,71.09Z" fill="#050505"/><path d="M164.56,102.1c-5.08-2.25-10.15-4.53-15.25-6.75-11-4.8-15.1-13.11-12.69-26.43-8.18.53-16.27,1-24.36,1.6-4.79.34-7.48-1.11-6.87-6.56a83.1,83.1,0,0,0,.07-9.6c11.69,7.83,24.2,1.27,36.2,2.07.49,0,1.19-1,1.57-1.68,3.38-6,6.72-12,10.11-18.1l3.93,2.2c-3.16,5.68-6.27,11.32-9.43,16.92-.66,1.15-.91,1.94,0,3.24a5.85,5.85,0,0,1-1.1,8.2,5.93,5.93,0,0,1-3.31,1.19c-1.69.15-2.19.74-2.52,2.27-2.17,10,1.39,16.69,10.8,20.82,5.24,2.3,12,2.86,13.32,10.3Z" fill="#050505"/><path d="M218.23,175.86l-3.57,2.79q-20.4-24.57-40.82-49.13c-4.31-5.18-9-10.13-12.81-15.63-7.95-11.33-18.48-14.92-31.77-12.21-5.37,1.09-10.89,1.58-16.23-.62s-8.86-6.19-11.16-11.48l4.06-1.94c4.26,10.26,12.66,11.64,22.14,9.65,15.54-3.26,27.17,1.72,37,14.26C182.31,133.36,200.45,154.42,218.23,175.86Z" fill="#050505"/><path d="M196.25,146.71c8.91-3.87,17-3.37,24.32,2.53s9.71,13.66,7.64,22.8c-.48,2.1-7.48,4-8.9,2.34C211.66,165.29,204.08,156.12,196.25,146.71Z" fill="#050505"/><path d="M190.09,151.77l23,27.57c.77.92,0,1.47-.23,2.2a1.74,1.74,0,0,1-2.08,1.25q-9.72-.72-19.44-1.28a2.94,2.94,0,0,1-2.29-1.19C182.39,172.33,182.78,159.51,190.09,151.77Z" fill="#050505"/><path d="M174.75,133.28l9.36,11.28c-9.44,10.8-11.33,22.68-5.68,36.09l-18.17-1.15Z" fill="#050505"/><path d="M97.1,62.6l-5.38-3.71a84.71,84.71,0,0,0-1.6,9.36c-.21,3.39-1.58,4-4.62,3.2-2.84-.76-5.81-1-9.09-1.61,3-3.82,5.9-7.33,8.62-11,3-4,2.93-8.11-1.1-11.21s-7.86-2.2-11,1.61C69.58,53.31,66.37,57.5,62.78,62c3.38-16.17,10.54-24,20.6-22.43a20.54,20.54,0,0,1,13.28,8.67C98.86,51.56,97.1,57.52,97.1,62.6Z" fill="#050505"/><path d="M234.87,187.83a10.27,10.27,0,1,1-10.16-10.41A10.26,10.26,0,0,1,234.87,187.83Zm-5.4-.14c-.35-2.82-1.75-4.71-4.72-4.77a4.43,4.43,0,0,0-4.9,4.71,4.37,4.37,0,0,0,3.94,4.77,4.85,4.85,0,0,0,.66,0c3.08.08,4.61-1.79,5-4.72Z" fill="#050505"/><path d="M103.71,74.08c-4.33.64-4.73-1.6-4.59-4.93.26-6,.15-12,0-18,0-1.8.52-2.26,2.23-2.16,1.44.08,2.43-.06,2.39,2C103.66,58.76,103.71,66.49,103.71,74.08Z" fill="#050505"/></g></g></svg>