<svg height="100px" width="100px" fill="#000000" xmlns="http://www.w3.org/2000/svg" xmlns:xlink="http://www.w3.org/1999/xlink" version="1.1" x="0px" y="0px" viewBox="0 0 100 100" style="enable-background:new 0 0 100 100" xml:space="preserve">
    <g>
        <path d="M88.5,14.5v12H80c0.9-1.3,1.5-2.8,1.5-4.5c0-4.1-3.4-7.5-7.5-7.5s-7.5,3.4-7.5,7.5c0,2.1,0.8,3.9,2.2,5.3   c-0.1,0.2-0.2,0.5-0.2,0.7v6c0,0.3,0.1,0.5,0.2,0.7c-1.4,1.4-2.2,3.2-2.2,5.3c0,2.4,1.2,4.6,3,6v10.5h-31v-9H50   c0.8,0,1.5-0.7,1.5-1.5c0-9.6-7.9-17.5-17.5-17.5c-9.5,0-17.2,7.6-17.5,17H10c-0.8,0-1.5,0.7-1.5,1.5s0.7,1.5,1.5,1.5h16   c0.7,0,1.2-0.4,1.4-1h2.1v29H18c-0.8,0-1.5,0.7-1.5,1.5v6c0,0.8,0.7,1.5,1.5,1.5h72c0.8,0,1.5-0.7,1.5-1.5V58   c0-0.8-0.7-1.5-1.5-1.5H78.5V46c1.8-1.4,3-3.5,3-6c0-1.7-0.6-3.2-1.5-4.5h8.5v12h3v-33H88.5z M78.5,39.7c0,0.1,0,0.2,0,0.3   c0,2-1.3,3.6-3,4.2c-0.5,0.2-1,0.3-1.5,0.3s-1-0.1-1.5-0.3c-1.7-0.6-3-2.3-3-4.2c0-0.1,0-0.2,0-0.3c0.2-2.3,2.1-4.2,4.5-4.2   C76.4,35.5,78.3,37.4,78.5,39.7z M71.5,32.5v-3h17v3H71.5z M74,17.5c2.5,0,4.5,2,4.5,4.5s-2,4.5-4.5,4.5s-4.5-2-4.5-4.5   S71.5,17.5,74,17.5z M82.5,65.5v11h-44v-11H82.5z M19.6,44.5c0.8-7.3,6.9-13,14.4-13s13.7,5.7,14.4,13H19.6z M32.5,47.5h3v29h-3   V47.5z M88.5,82.5h-69v-3h69V82.5z M88.5,76.5h-3v-17h3V76.5z M82.5,59.5v3h-43v-3H82.5z M75.5,56.5h-3v-9.2c0.5,0.1,1,0.2,1.5,0.2   s1-0.1,1.5-0.2V56.5z"/>
    </g>
</svg>
