<svg height='100px' width='100px'  fill="#000000" xmlns="http://www.w3.org/2000/svg" xmlns:xlink="http://www.w3.org/1999/xlink" version="1.1" x="0px" y="0px" viewBox="0 0 100 100" style="enable-background:new 0 0 100 100;" xml:space="preserve"><path d="M70.3784027,45.1860352v-2.2768555h0.668457c1.5307617,0,2.7763672-1.2490234,2.7763672-2.7841797v-5.0800781  c0-1.4682617-1.1442871-2.6625977-2.5839844-2.7636719V16.6191406C71.2392426,15.1748047,70.0673676,14,68.6269379,14h-8.8325233  c-1.4404297,0-2.6123047,1.1748047-2.6123047,2.6191406V32.28125c-1.4396973,0.1010742-2.5839844,1.2954102-2.5839844,2.7636719  V40.125c0,1.5351563,1.2456055,2.7841797,2.7763672,2.7841797h0.668457v2.2692871  c-2.9910889,0.9316406-5.7412109,2.5402832-8.0429688,4.7077637c-2.3017578-2.1674805-5.0518799-3.776123-8.0429688-4.7077637  v-2.2692871h0.668457c1.5307617,0,2.7763672-1.2490234,2.7763672-2.7841797v-5.0800781  c0-1.4682617-1.1442871-2.6625977-2.5839844-2.7636719V16.6191406C42.817852,15.1748047,41.645977,14,40.2055473,14h-8.8325176  c-1.4404297,0-2.6123047,1.1748047-2.6123047,2.6191406V32.28125c-1.4396973,0.1010742-2.5839844,1.2954102-2.5839844,2.7636719  V40.125c0,1.5351563,1.2456055,2.7841797,2.7763672,2.7841797h0.668457v2.2768555  c-8.6544189,2.6960449-14.6411133,10.7702637-14.6411133,19.9262695C14.9804516,76.6298828,24.3154125,86,35.7895317,86  c5.3409424,0,10.3405762-2.0283203,14.2103271-5.6904297C53.8711967,83.972168,58.8702202,86,64.210434,86  c11.4741211,0,20.809082-9.3701172,20.809082-20.8876953C85.019516,55.9562988,79.0328217,47.8820801,70.3784027,45.1860352z   M57.3744926,40.9091797c-0.4282227,0-0.7763672-0.3515625-0.7763672-0.7841797v-5.0800781  c0-0.4316406,0.3481445-0.7832031,0.7763672-0.7832031h0.8076172h12.0571327h0.8076172  c0.4282227,0,0.7763672,0.3515625,0.7763672,0.7832031V40.125c0,0.4326172-0.3481445,0.7841797-0.7763672,0.7841797h-1.668457  h-10.335453H57.3744926z M58.1189995,55.8515625c0.0036621,0.0231934,0.012207,0.0449219,0.0161133,0.0681152  c0.0479736,0.286377,0.112793,0.5678711,0.1994629,0.8417969c0.0092773,0.0290527,0.0209961,0.0568848,0.0307617,0.0856934  c0.088623,0.2663574,0.1954346,0.5251465,0.3195801,0.7758789c0.0134277,0.0270996,0.0249023,0.0549316,0.0386963,0.0817871  c0.1346436,0.262207,0.2901611,0.5134277,0.4626465,0.7548828c0.0233154,0.0324707,0.0477295,0.064209,0.0716553,0.0964355  c0.1809082,0.2429199,0.3745117,0.4777832,0.5926514,0.6948242c1.1665039,1.1708984,2.7148438,1.8164063,4.3598671,1.8164063  c0.3839111,0,0.7579346-0.0400391,1.1226807-0.107666c0.0009766-0.0002441,0.0018311-0.0002441,0.0028076-0.0004883  c0.3533936-0.0656738,0.6947021-0.1638184,1.0245361-0.2875977c0.0187988-0.0070801,0.0375977-0.0134277,0.0561523-0.020752  c0.3203125-0.1235352,0.6270752-0.2729492,0.9191895-0.4462891c0.0206299-0.012207,0.0406494-0.0246582,0.0611572-0.0371094  c0.2910156-0.1772461,0.5672607-0.3754883,0.8243408-0.5969238c0.0111084-0.0095215,0.0212402-0.0197754,0.0322266-0.029541  c0.5228271-0.4570313,0.9682617-0.9990234,1.3139648-1.6069336c0.0078125-0.0136719,0.0166016-0.0266113,0.0244141-0.0402832  c0.1616211-0.2893066,0.296875-0.5944824,0.4111328-0.9099121c0.0140381-0.0385742,0.0289307-0.0761719,0.0422363-0.1152344  c0.104248-0.3071289,0.1838379-0.6245117,0.2391357-0.9511719c0.0040283-0.0239258,0.0137939-0.0458984,0.0177002-0.0698242  c0.0021973,0.0014648,0.0046387,0.0026855,0.006958,0.0041504c0.3465576,0.2316895,0.6740723,0.4863281,0.9898682,0.7531738  c0.0484619,0.0410156,0.0983887,0.0805664,0.1461182,0.1223145c0.2974854,0.260498,0.5788574,0.5373535,0.8459473,0.826416  c0.050415,0.0546875,0.0999756,0.1098633,0.149292,0.1652832c0.2617188,0.295166,0.5097656,0.6018066,0.7387695,0.9223633  c0.0344238,0.0480957,0.06604,0.0983887,0.0997314,0.1469727c0.2318115,0.3354492,0.4498291,0.6806641,0.6439209,1.0393066  c0.0036621,0.0068359,0.0079346,0.0131836,0.0114746,0.0200195c0.1948242,0.3618164,0.3642578,0.7373047,0.5184326,1.1191406  c0.0235596,0.0583496,0.0491943,0.1157227,0.0716553,0.1745605c0.1413574,0.3674316,0.2613525,0.7438965,0.3635254,1.1264648  c0.0192871,0.0725098,0.0378418,0.1450195,0.0556641,0.2180176c0.0947266,0.3862305,0.1715088,0.777832,0.2243652,1.175293  c0.0080566,0.0595703,0.0126953,0.119873,0.0195313,0.1796875c0.0489502,0.4199219,0.0806885,0.8432617,0.0806885,1.2714844  c0,6.1240234-4.9604492,11.1054688-11.0576172,11.1054688c-0.4386024,0-0.8737831-0.0280762-1.304081-0.0795898  c-0.1448975-0.0175781-0.2856445-0.0524902-0.4291992-0.0756836c-0.2828369-0.0454102-0.5661621-0.0883789-0.8433838-0.1555176  c-0.1694336-0.0407715-0.3331299-0.0993652-0.5001221-0.1481934c-0.244751-0.0717773-0.4907227-0.1396484-0.7294922-0.2277832  c-0.1738281-0.064209-0.3408203-0.1442871-0.5109863-0.217041c-0.2233887-0.095459-0.4481201-0.1879883-0.6647949-0.2978516  c-0.1699219-0.0864258-0.3325195-0.1865234-0.4980469-0.2817383C58.5247612,74.6162109,58.3179741,74.5,58.119976,74.3686523  c-0.1618652-0.1071777-0.315918-0.2265625-0.47229-0.3425293c-0.1890869-0.1401367-0.3781738-0.2797852-0.5584717-0.4321289  c-0.1496582-0.1262207-0.2913818-0.2626953-0.4345703-0.3972168c-0.1723633-0.1618652-0.3435059-0.324707-0.5059814-0.498291  c-0.1348877-0.144043-0.262085-0.2963867-0.3897705-0.447998c-0.0993652-0.1181641-0.1945801-0.2402344-0.2893066-0.362793  c0.078125-0.2260742,0.1358643-0.4575195,0.2058105-0.685791c0.0754395-0.2458496,0.1556396-0.4899902,0.2216797-0.7385254  c0.092041-0.3466797,0.1650391-0.697998,0.2390137-1.0493164c0.0491943-0.2338867,0.1065674-0.4655762,0.1477051-0.7011719  c0.0686035-0.3945313,0.114502-0.793457,0.1602783-1.192627c0.0228271-0.1982422,0.0566406-0.394043,0.0738525-0.5932617  c0.0515137-0.6005859,0.0802002-1.2055664,0.0802002-1.8146973c0-0.6064453-0.0284424-1.2089844-0.0797119-1.8076172  c-0.0170898-0.2001953-0.0511475-0.3974609-0.0739746-0.5966797c-0.0454102-0.3959961-0.0905762-0.7915039-0.1584473-1.1831055  c-0.0410156-0.2370605-0.0986328-0.4702148-0.1479492-0.7053223c-0.072998-0.3491211-0.1451416-0.6982422-0.2363281-1.0427246  c-0.0651855-0.2468262-0.1447754-0.489502-0.2192383-0.7338867c-0.0700684-0.2299805-0.1281738-0.4628906-0.2062988-0.6906738  c0.1887207-0.2487793,0.3718262-0.5024414,0.5805664-0.7333984c0.0041504-0.0046387,0.0087891-0.0085449,0.0130615-0.0134277  c0.2808838-0.3095703,0.5845947-0.5966797,0.8985596-0.8718262c0.0717773-0.0627441,0.1433105-0.1257324,0.2166748-0.1867676  C57.4835014,56.2988281,57.795269,56.0668945,58.1189995,55.8515625z M58.0429497,47.2724609v6.2871094  c-0.2904053,0.1560059-0.5721436,0.3261719-0.8491211,0.5036621c-0.0228271,0.0144043-0.0472412,0.0266113-0.0699463,0.0412598  c-0.4182129,0.2717285-0.8139648,0.5742188-1.1973877,0.8916016c-0.0892334,0.0739746-0.1772461,0.1484375-0.2645264,0.2246094  c-0.3640137,0.3183594-0.7167969,0.6491699-1.043335,1.0068359c-0.0374756-0.079834-0.0819092-0.1557617-0.1203613-0.2348633  c-0.0689697-0.1425781-0.1439209-0.28125-0.2159424-0.421875c-0.236084-0.4604492-0.4884033-0.9111328-0.7575684-1.3515625  c-0.0759277-0.1242676-0.1479492-0.2509766-0.2265625-0.3735352c-0.3382568-0.527832-0.699707-1.0407715-1.0859375-1.5373535  c-0.0823975-0.1057129-0.1713867-0.2067871-0.2558594-0.3112793c-0.1865234-0.2304688-0.3679199-0.4643555-0.5648193-0.6875  C53.3139458,49.5058594,55.5815239,48.1308594,58.0429497,47.2724609z M28.9531078,40.9091797  c-0.4282227,0-0.7763672-0.3515625-0.7763672-0.7841797v-5.0800781c0-0.4316406,0.3481445-0.7832031,0.7763672-0.7832031h0.8076172  h12.057127h0.8076172c0.4282227,0,0.7763672,0.3515625,0.7763672,0.7832031V40.125  c0,0.4326172-0.3481445,0.7841797-0.7763672,0.7841797h-1.668457H30.6215649H28.9531078z M29.6899242,55.8525391  c0.0020752-0.0014648,0.0043945-0.0026855,0.0064697-0.0041504c0.0041504,0.0258789,0.0136719,0.0500488,0.0180664,0.0756836  c0.0478516,0.2849121,0.1125488,0.5646973,0.1987305,0.8374023c0.0101318,0.0319824,0.0231934,0.0627441,0.0338135,0.0947266  c0.0878906,0.2626953,0.1936035,0.5183105,0.3162842,0.7661133c0.013916,0.0283203,0.0258789,0.057373,0.0402832,0.0854492  c0.1342773,0.2609863,0.2893066,0.5112305,0.4611816,0.751709c0.0236816,0.0332031,0.0487061,0.0656738,0.0732422,0.0986328  c0.1804199,0.2421875,0.3735352,0.4763184,0.5911865,0.6928711c1.166502,1.1708984,2.7153301,1.8164063,4.3603497,1.8164063  c0.3843994,0,0.7590332-0.0400391,1.1241455-0.1079102c0.0003662,0,0.0007324-0.0002441,0.0012207-0.0002441  c0.3540039-0.0656738,0.6958008-0.1640625,1.0258789-0.2878418c0.0183105-0.0070801,0.0367432-0.0134277,0.0550537-0.0205078  c0.3208008-0.1237793,0.6280518-0.2734375,0.9205322-0.4470215c0.0200195-0.0119629,0.0397949-0.0244141,0.0598145-0.0366211  c0.291626-0.1774902,0.5683594-0.3762207,0.8259277-0.5983887c0.0102539-0.0090332,0.0198975-0.0185547,0.0302734-0.0275879  c0.5241699-0.458252,0.970459-1.0021973,1.3166504-1.6120605c0.0070801-0.0124512,0.0153809-0.0241699,0.0223389-0.0366211  c0.1617432-0.2897949,0.2969971-0.5949707,0.4112549-0.9108887c0.0141602-0.0390625,0.0291748-0.0771484,0.0424805-0.1164551  c0.1037598-0.3059082,0.1827393-0.6223145,0.237915-0.9475098c0.0039063-0.0227051,0.0130615-0.0437012,0.0167236-0.0668945  c0.326416,0.217041,0.6408691,0.4509277,0.9418945,0.7016602c0.0688477,0.057373,0.1359863,0.1164551,0.2033691,0.175293  c0.5541992,0.4851074,1.0496826,1.034668,1.4984131,1.6254883c-0.0789795,0.2299805-0.1378174,0.4655762-0.2084961,0.697998  c-0.0731201,0.2407227-0.1514893,0.4794922-0.2156982,0.7224121c-0.0922852,0.3479004-0.1650391,0.7004395-0.2387695,1.0527344  c-0.0487061,0.232666-0.1057129,0.4631348-0.1462402,0.6975098c-0.0681152,0.392334-0.1135254,0.7890625-0.1589355,1.1860352  c-0.0227051,0.1987305-0.0566406,0.3950195-0.0737305,0.5947266c-0.0512695,0.5986328-0.0797119,1.2011719-0.0797119,1.8076172  c0,0.6091309,0.0286865,1.2141113,0.0802002,1.8146973c0.0172119,0.1992188,0.0510254,0.3950195,0.0738525,0.5932617  c0.0457764,0.3991699,0.0916748,0.7980957,0.1602783,1.192627c0.0411377,0.2355957,0.0985107,0.4672852,0.1477051,0.7011719  c0.0739746,0.3513184,0.1469727,0.7026367,0.2390137,1.0493164c0.06604,0.2485352,0.1462402,0.4926758,0.2216797,0.7385254  c0.0699463,0.2282715,0.1276855,0.4597168,0.2058105,0.685791c-0.0947266,0.1225586-0.1899414,0.2446289-0.2893066,0.362793  c-0.1276855,0.1516113-0.2548828,0.3039551-0.3897705,0.447998c-0.1624756,0.173584-0.3338623,0.3366699-0.5062256,0.4985352  c-0.1430664,0.1345215-0.2844238,0.270752-0.43396,0.3967285c-0.180542,0.1525879-0.3699951,0.2924805-0.5594482,0.4328613  c-0.1561279,0.1157227-0.3100586,0.2348633-0.4716797,0.342041C41.6819878,74.5,41.4752007,74.6162109,41.2696342,74.734375  c-0.1655273,0.0952148-0.328125,0.1953125-0.4980469,0.2817383c-0.2166748,0.1098633-0.4414063,0.2023926-0.6647949,0.2978516  c-0.170166,0.0727539-0.3371582,0.152832-0.5109863,0.217041c-0.2388916,0.0883789-0.4851074,0.15625-0.7301025,0.2277832  c-0.166626,0.0488281-0.3302002,0.1074219-0.4993896,0.1481934c-0.2773438,0.0671387-0.5609131,0.1103516-0.8439941,0.1557617  c-0.1433105,0.0231934-0.2839355,0.0578613-0.4287109,0.0754395c-0.4302979,0.0515137-0.8654785,0.0795898-1.3040771,0.0795898  c-6.0971661,0-11.0576153-4.9814453-11.0576153-11.1054688c0-0.4277344,0.0316162-0.8510742,0.0804443-1.2705078  c0.0070801-0.0603027,0.0117188-0.1208496,0.0197754-0.1809082c0.0528564-0.3972168,0.1296387-0.7890625,0.2243652-1.175293  c0.0178223-0.0725098,0.0362549-0.1447754,0.0554199-0.217041c0.1020508-0.3823242,0.2220459-0.7587891,0.3632813-1.1264648  c0.0228271-0.059082,0.048584-0.1169434,0.0722656-0.1757813c0.1540527-0.3813477,0.3231201-0.7561035,0.5175781-1.1174316  c0.0041504-0.0078125,0.0090332-0.0151367,0.0133057-0.0229492c0.1929932-0.3566895,0.40979-0.6999512,0.6402588-1.0336914  c0.03479-0.0505371,0.067627-0.1022949,0.1032715-0.1523438c0.2277832-0.3186035,0.4746094-0.6237793,0.7348633-0.9174805  c0.0507813-0.057373,0.1020508-0.1142578,0.1540527-0.1706543c0.2657471-0.2875977,0.5454102-0.5629883,0.8413086-0.8220215  c0.0493164-0.0432129,0.1009521-0.0839844,0.151123-0.1264648C29.0181713,56.3374023,29.3444653,56.083252,29.6899242,55.8525391z   M49.2797661,78.2441406C45.7031059,81.9560547,40.9120903,84,35.7895317,84  c-10.3715801,0-18.8090801-8.4726563-18.8090801-18.8876953c0-8.0712891,5.1352539-15.2265625,12.6411133-17.8398438v6.2880859  c-0.0469971,0.0253906-0.0911865,0.0546875-0.1378174,0.0808105c-0.119873,0.0666504-0.2366943,0.1369629-0.3540039,0.2072754  c-0.1439209,0.0859375-0.2871094,0.1728516-0.427002,0.2641602c-0.1148682,0.0751953-0.2270508,0.1530762-0.3391113,0.2314453  c-0.1359863,0.0949707-0.270752,0.1911621-0.402832,0.2910156c-0.1088867,0.0825195-0.2155762,0.1674805-0.3215332,0.2529297  c-0.1282959,0.1035156-0.2547607,0.2087402-0.3786621,0.3168945c-0.1032715,0.0898438-0.2043457,0.1816406-0.3045654,0.2746582  c-0.1193848,0.1108398-0.2365723,0.2236328-0.3516846,0.338623c-0.09729,0.0974121-0.1928711,0.1958008-0.2871094,0.2961426  c-0.1108398,0.1179199-0.21875,0.2380371-0.3250732,0.3601074c-0.090332,0.1035156-0.1795654,0.2077637-0.2666016,0.314209  c-0.1020508,0.1247559-0.2008057,0.251709-0.2982178,0.3798828c-0.0834961,0.1098633-0.1662598,0.2199707-0.2463379,0.3325195  c-0.0932617,0.1311035-0.1824951,0.2646484-0.270874,0.3989258c-0.0755615,0.1149902-0.151001,0.2294922-0.2230225,0.3466797  c-0.0847168,0.1376953-0.1645508,0.2780762-0.2441406,0.4189453c-0.0673828,0.1191406-0.1352539,0.237793-0.1987305,0.3588867  c-0.0756836,0.1437988-0.145752,0.2905273-0.2160645,0.4372559c-0.0588379,0.1225586-0.1187744,0.2446289-0.1738281,0.3691406  c-0.0664063,0.1508789-0.1269531,0.3041992-0.1877441,0.4572754c-0.0495605,0.1247559-0.1010742,0.248291-0.1468506,0.3745117  c-0.057251,0.157959-0.1074219,0.3183594-0.1588135,0.4785156c-0.0402832,0.1257324-0.0830078,0.2502441-0.1195068,0.3771973  c-0.0473633,0.1650391-0.0866699,0.3322754-0.1275635,0.4990234c-0.0308838,0.1259766-0.0650635,0.2504883-0.0922852,0.3771973  c-0.0375977,0.1760254-0.0662842,0.3544922-0.0966797,0.5324707c-0.0205078,0.1201172-0.0454102,0.2387695-0.0625,0.3596191  c-0.0283203,0.199707-0.0463867,0.4016113-0.0656738,0.6035156c-0.0095215,0.1013184-0.024292,0.2016602-0.0314941,0.3034668  c-0.0217285,0.3044434-0.0333252,0.6108398-0.0333252,0.918457c0,7.2265625,5.8574219,13.1054688,13.0576153,13.1054688  c1.0603027,0,2.1052246-0.130127,3.114624-0.3798828c3.027832-0.7490234,5.7349854-2.5739746,7.5733643-5.1894531  c0.0012207-0.001709,0.0018311-0.0039063,0.0030518-0.0056152c1.5477295-2.2060547,2.3660889-4.810791,2.3660889-7.5305176  c0-0.3601074-0.0166016-0.7177734-0.0452881-1.0732422c-0.1611328-1.9921875-0.7675781-3.8999023-1.7845459-5.6025391  c-0.1715088-0.2875977-0.3546143-0.5690918-0.5490723-0.8447266c-0.0023193-0.0031738-0.0054932-0.005127-0.0078125-0.0083008  c-0.303833-0.4394531-0.6365967-0.8557129-0.9908447-1.2519531c-0.1123047-0.1257324-0.2384033-0.2368164-0.3554688-0.3579102  c-0.2568359-0.2653809-0.5153809-0.5280762-0.7937012-0.7702637c-0.15625-0.1359863-0.3234863-0.2570801-0.486084-0.385498  c-0.2587891-0.2045898-0.5183105-0.4057617-0.7923584-0.5900879c-0.1864014-0.1252441-0.3800049-0.2375488-0.572876-0.3530273  c-0.1719971-0.1030273-0.3347168-0.2202148-0.5115967-0.3151855v-6.2871094  c2.7548828,0.9599609,5.2666016,2.5683594,7.3251953,4.7011719c0.456543,0.4709473,0.8857422,0.9616699,1.2871094,1.4714355  c0.8026123,1.0192871,1.4935303,2.114502,2.0684814,3.2780762c0.2871094,0.5812988,0.5454102,1.1796875,0.7738037,1.7944336  c0.0001221,0.0004883,0.0004883,0.0007324,0.0006104,0.0012207c0.0001221,0.0002441,0.0002441,0.0004883,0.0003662,0.0007324  c0.7866211,2.1005859,1.1855469,4.3193359,1.1855469,6.5927734c0,0.628418-0.0372314,1.2512207-0.0977783,1.8693848  c-0.1044922,1.0661621-0.2922363,2.1164551-0.5753174,3.1418457c-0.0874023,0.3164063-0.2010498,0.6254883-0.3052979,0.9372559  c-0.0737305,0.220459-0.1337891,0.4448242-0.2159424,0.6628418C52.4907036,74.1699219,51.1039848,76.3632813,49.2797661,78.2441406z   M45.4018364,65.1123047c0-0.5053711,0.0269775-1.0068359,0.0662842-1.5061035  c0.0097656-0.123291,0.0205078-0.246582,0.0327148-0.3693848c0.0488281-0.4968262,0.1103516-0.9912109,0.197998-1.4799805  c0.0019531-0.010498,0.0046387-0.020752,0.0065918-0.03125c0.0615234-0.3398438,0.1484375-0.6738281,0.2287598-1.0092773  c0.0114746,0.0263672,0.0240479,0.0522461,0.0352783,0.0786133c0.1226807,0.2890625,0.2352295,0.5825195,0.3323975,0.8808594  c0.0081787,0.0249023,0.0185547,0.0488281,0.0264893,0.0737305c0.1026611,0.3227539,0.1861572,0.6516113,0.2585449,0.9836426  c0.020752,0.0949707,0.0371094,0.1911621,0.0552979,0.2868652c0.0478516,0.2504883,0.0869141,0.5031738,0.1174316,0.7578125  c0.0119629,0.1000977,0.0251465,0.1999512,0.0344238,0.3005371c0.0314941,0.342041,0.0526123,0.6865234,0.0526123,1.0339355  c0,0.3486328-0.0211182,0.6943359-0.0524902,1.0375977c-0.0091553,0.1008301-0.0223389,0.2006836-0.0343018,0.3010254  c-0.0302734,0.2553711-0.0693359,0.5087891-0.1169434,0.7600098c-0.0180664,0.0961914-0.0344238,0.1928711-0.0551758,0.2880859  c-0.0720215,0.3327637-0.1552734,0.6623535-0.2573242,0.9858398c-0.0085449,0.0268555-0.0196533,0.0527344-0.0283203,0.0793457  c-0.0961914,0.296875-0.2072754,0.588623-0.3283691,0.8762207c-0.0114746,0.0270996-0.0244141,0.0537109-0.0361328,0.0808105  c-0.0810547-0.3374023-0.1690674-0.6733398-0.2312012-1.0153809c-0.001709-0.0087891-0.0039063-0.017334-0.0054932-0.0258789  c-0.088501-0.4904785-0.1502686-0.9868164-0.199585-1.4853516c-0.012207-0.123291-0.0229492-0.246582-0.0327148-0.3703613  C45.4290581,66.123291,45.4018364,65.619873,45.4018364,65.1123047z M64.210434,84  c-4.8085976,0-9.3251991-1.8007813-12.819828-5.0927734c0.1939697-0.2194824,0.3723145-0.449707,0.5560303-0.6762695  c0.0871582-0.1074219,0.1787109-0.2114258,0.2636719-0.3205566c0.3848877-0.4943848,0.7453613-1.0046387,1.0827637-1.5302734  c0.0782471-0.1218262,0.1497803-0.2480469,0.2255859-0.371582c0.2681885-0.4382324,0.5198975-0.8862305,0.755127-1.3442383  c0.0726318-0.1411133,0.1479492-0.2805176,0.2172852-0.4233398c0.0393066-0.0810547,0.0849609-0.1584473,0.1231689-0.2399902  c0.3143311,0.3408203,0.6462402,0.6621094,0.9920654,0.965332c0.0771484,0.0678711,0.1616211,0.125,0.2401123,0.190918  c0.2960205,0.2475586,0.5982666,0.4863281,0.9136963,0.7062988c0.1445313,0.1008301,0.2958984,0.189209,0.4440918,0.2839355  c0.2626953,0.1677246,0.5272217,0.3310547,0.8007813,0.4794922c0.1691895,0.0917969,0.3416748,0.1748047,0.5146484,0.2592773  c0.2672119,0.130127,0.5371094,0.2521973,0.8127441,0.3640137c0.1809082,0.0732422,0.3623047,0.1430664,0.5463867,0.208252  c0.2839355,0.1005859,0.5712891,0.1879883,0.8620605,0.2687988c0.1811523,0.0505371,0.3607178,0.1030273,0.5443115,0.1455078  c0.3200684,0.0742188,0.6446533,0.1291504,0.9709473,0.1789551c0.1591797,0.0244141,0.3157959,0.057373,0.4763184,0.0756836  c0.4884033,0.0561523,0.980835,0.090332,1.4780312,0.090332c7.2001953,0,13.0576172-5.8789063,13.0576172-13.1054688  c0-0.3076172-0.0115967-0.6140137-0.0333252-0.918457c-0.0072021-0.1018066-0.0219727-0.2021484-0.0314941-0.3034668  c-0.0192871-0.2019043-0.0373535-0.4038086-0.0656738-0.6035156c-0.0170898-0.1208496-0.0419922-0.239502-0.0625-0.3596191  c-0.0303955-0.1779785-0.059082-0.3564453-0.0966797-0.5324707c-0.0272217-0.126709-0.0614014-0.2512207-0.0922852-0.3771973  c-0.0408936-0.166748-0.0802002-0.3339844-0.1275635-0.4990234c-0.036499-0.1269531-0.0792236-0.2514648-0.1195068-0.3771973  c-0.0513916-0.1601563-0.1015625-0.3205566-0.1588135-0.4785156c-0.0457764-0.1262207-0.09729-0.2497559-0.1468506-0.3745117  c-0.060791-0.1530762-0.1213379-0.3063965-0.1877441-0.4572754c-0.0550537-0.1245117-0.1149902-0.246582-0.1738281-0.3691406  c-0.0703125-0.1467285-0.1403809-0.293457-0.2160645-0.4372559c-0.0634766-0.1210938-0.1313477-0.2397461-0.1987305-0.3588867  c-0.0795898-0.1408691-0.1594238-0.28125-0.2441406-0.4189453c-0.0720215-0.1171875-0.1474609-0.2316895-0.2230225-0.3466797  c-0.0883789-0.1342773-0.1776123-0.2678223-0.270874-0.3989258c-0.0800781-0.1125488-0.1628418-0.2226563-0.2463379-0.3325195  c-0.0974121-0.1281738-0.196167-0.255127-0.2982178-0.3798828c-0.0870361-0.1064453-0.1762695-0.2106934-0.2666016-0.314209  c-0.1063232-0.1220703-0.2142334-0.2421875-0.3250732-0.3601074c-0.0942383-0.1003418-0.1898193-0.1987305-0.2871094-0.2961426  c-0.1151123-0.1149902-0.2322998-0.2277832-0.3516846-0.338623c-0.1002197-0.0930176-0.2012939-0.1848145-0.3045654-0.2746582  c-0.1239014-0.1081543-0.2503662-0.2133789-0.3786621-0.3168945c-0.105957-0.0854492-0.2126465-0.1704102-0.3215332-0.2529297  c-0.1320801-0.0998535-0.2668457-0.1960449-0.402832-0.2910156c-0.1120605-0.0783691-0.2242432-0.15625-0.3391113-0.2314453  c-0.1398926-0.0913086-0.2830811-0.1782227-0.427002-0.2641602c-0.1173096-0.0703125-0.2341309-0.140625-0.3540039-0.2072754  c-0.0466309-0.026123-0.0908203-0.0554199-0.1378174-0.0808105v-6.2880859  c7.5058594,2.6132813,12.6411133,9.7685547,12.6411133,17.8398438C83.019516,75.5273438,74.582016,84,64.210434,84z"></path></svg>