<svg height='100px' width='100px'  fill="#000000" xmlns:dc="http://purl.org/dc/elements/1.1/" xmlns:cc="http://creativecommons.org/ns#" xmlns:rdf="http://www.w3.org/1999/02/22-rdf-syntax-ns#" xmlns:svg="http://www.w3.org/2000/svg" xmlns="http://www.w3.org/2000/svg" xmlns:sodipodi="http://sodipodi.sourceforge.net/DTD/sodipodi-0.dtd" xmlns:inkscape="http://www.inkscape.org/namespaces/inkscape" version="1.1" x="0px" y="0px" viewBox="0 0 100 100"><g transform="translate(0,-952.36218)"><path d="m 50,959.36218 c -10.7333,0 -20.5847,5.9146 -27.625,15.5625 -6.73424,9.2285 -10.9862,21.895 -11.34375,36.43752 l 4,0 c 0.36158,-13.77082 4.431,-25.64832 10.59375,-34.09382 2.00922,-2.7531 4.23952,-5.113 6.625,-7.0937 -1.4389,2.7591 -2.25,5.8688 -2.25,9.1875 0,11.022 8.978,20 20,20 11.022,0 20,-8.978 20,-20 0,-3.3187 -0.8111,-6.4284 -2.25,-9.1875 2.38548,1.9807 4.61578,4.3406 6.625,7.0937 6.16275,8.4454 10.23217,20.323 10.59375,34.09382 l 4,0 C 88.6112,996.81968 84.35924,984.15318 77.625,974.92468 70.5847,965.27678 60.7333,959.36218 50,959.36218 z m 0,4 c 9,-0.013 16,6.9872 16,15.9995 0,8.8603 -7.1398,16 -16,16 -8.8602,0 -16,-7.1397 -16,-16 0,-9.0123 7,-16.0123 16,-15.9995 z m -44,50.00002 0,8 3,1 0,23 8,0 0,-23 3,-1 0,-8 z m 74,0 0,8 3,1 0,23 8,0 0,-23 3,-1 0,-8 z" style="text-indent:0;text-transform:none;direction:ltr;block-progression:tb;baseline-shift:baseline;color:#000000;enable-background:accumulate;" fill="#000000" fill-opacity="1" stroke="none" marker="none" visibility="visible" display="inline" overflow="visible"></path></g></svg>