<svg height='100px' width='100px'  fill="#000000" xmlns:dc="http://purl.org/dc/elements/1.1/" xmlns:cc="http://creativecommons.org/ns#" xmlns:rdf="http://www.w3.org/1999/02/22-rdf-syntax-ns#" xmlns:svg="http://www.w3.org/2000/svg" xmlns="http://www.w3.org/2000/svg" xmlns:sodipodi="http://sodipodi.sourceforge.net/DTD/sodipodi-0.dtd" xmlns:inkscape="http://www.inkscape.org/namespaces/inkscape" version="1.1" x="0px" y="0px" viewBox="0 0 100 100"><g transform="translate(0,-952.36218)"><g transform="matrix(0.97516578,0,0,0.97516578,-19.725328,911.69468)"><g transform="matrix(1.1603656,0,0,1.1603656,-15.662183,-334.99476)"><g transform="matrix(1.0014732,0,0,1.0014732,-109.91068,-139.48825)" style="" fill="#000000"><path style="" d="m 160.03656,490.55562 v -0.36199 c 0,-5.0735 4.12721,-9.20165 9.20165,-9.20165 h 2.72107 c 5.07443,0 9.20164,4.12815 9.20164,9.20165 v 1.0128 c 2.12535,0.94154 4.112,2.1415 5.91907,3.5581 0.0741,-0.60711 0.11686,-1.22372 0.11686,-1.84983 v -2.72107 c 0,-8.40167 -6.83496,-15.23663 -15.23663,-15.23663 h -2.72106 c -8.40167,0 -15.23663,6.83496 -15.23663,15.23663 v 2.72107 c 0,0.25367 0.006,0.50639 0.0191,0.75626 1.85743,-1.26742 3.87448,-2.31727 6.01503,-3.11534 z" fill="#000000"></path><path style="color:#000000;enable-background:accumulate;" d="m 36.895636,37.27742 a 22.367979,23.520967 0 1 1 -44.7359585,0 22.367979,23.520967 0 1 1 44.7359585,0 z" transform="matrix(1.1043644,0,0,1.0502289,153.70407,476.32078)" fill="#000000" fill-opacity="0.98431373" fill-rule="nonzero" stroke="none" marker="none" visibility="visible" display="inline" overflow="visible"></path><path d="m 198.98929,497.80558 v -0.26566 c 0,-3.72358 3.02906,-6.75333 6.75333,-6.75333 h 1.99706 c 3.72425,0 6.75331,3.02975 6.75331,6.75333 v 0.74331 c 1.55986,0.69103 3.0179,1.57171 4.34416,2.61138 0.0544,-0.44557 0.0858,-0.89811 0.0858,-1.35763 v -1.99706 c 0,-6.16621 -5.01635,-11.18256 -11.18255,-11.18256 h -1.99705 c -6.1662,0 -11.18255,5.01635 -11.18255,11.18256 v 1.99706 c 0,0.18618 0.004,0.37165 0.014,0.55504 1.36321,-0.93019 2.84358,-1.7007 4.41459,-2.28644 z" style="" fill="#000000"></path><path transform="matrix(0.81052144,0,0,0.77078997,194.56079,487.57736)" d="m 36.895636,37.27742 a 22.367979,23.520967 0 1 1 -44.7359585,0 22.367979,23.520967 0 1 1 44.7359585,0 z" style="color:#000000;enable-background:accumulate;" fill="#000000" fill-opacity="0.98431373" fill-rule="nonzero" stroke="none" marker="none" visibility="visible" display="inline" overflow="visible"></path></g></g></g></g></svg>