<svg id="Layer_1" data-name="Layer 1" xmlns="http://www.w3.org/2000/svg" viewBox="0 0 354 275"><path d="M11.66,44.28,50.24,66a1.66,1.66,0,0,0,2.25-.61c5.32-9.16,8.49-14.13,13.69-23S74.37,35.63,77.37,37c4.1,1.83,7.07,3.89,2,13.24C74.8,58.81,71.11,64.28,66,73.11a1.67,1.67,0,0,0,.56,2.25c1.18.74,2.27,1.42,3.39,2.07q109.81,63.55,219.66,127c2.25,1.3,10.88,5.1,12.13,6,5.07,3.6,11.59,3.89,13.42,3.94,32.74.87,32.7,3.71,32.62,8-.07,4.16-1.79,7.33-32.42,7-10.66-.11-21.33.09-32,.09-7.83,0-15.66.08-23.5,0-26-.54-32.4-2.26-32.26-6.86.13-4.38-3.55-9.29,32.21-8.26.33,0,.66,0,1,0,5.44.1,12.17-.08,13.33-6.15a1.73,1.73,0,0,0-.77-1.87L61.75,83.77a1.67,1.67,0,0,0-2.27.61c-3,5.13-5.87,10.09-8.75,15.06-2.17,3.74-4.32,7.5-6.51,11.23-3.48,5.92-6,6.72-11.2,3.64-5-3-5.59-5.5-2.33-11.19C35,95.54,43.36,81.2,46,76.64a1.65,1.65,0,0,0-.6-2.26l-38.2-22a1.66,1.66,0,0,1-.63-2.23l2.81-5.19A1.66,1.66,0,0,1,11.66,44.28Z"/><path d="M-1,75l12.14-7.13,1.32,1.95L-1,79Z" fill="#fff"/></svg>