<svg id="Layer_1" data-name="Layer 1" xmlns="http://www.w3.org/2000/svg" viewBox="0 0 100 100"><path d="M65,96.27c-.23-.93-.47-1.81-.71-2.64H52V82.19H56.2a1.68,1.68,0,0,0,1.58-1.14A8.3,8.3,0,0,0,55,79.2,3.86,3.86,0,0,0,53.76,79,5.07,5.07,0,0,1,50,78a5,5,0,0,1-3.75,1,3.76,3.76,0,0,0-1.2.24,7.93,7.93,0,0,0-2.6,1.63l-.23.22a1.67,1.67,0,0,0,1.58,1.14H48V93.63H35.71c-.24.83-.48,1.71-.71,2.64A5.18,5.18,0,0,1,31.46,100H68.54A5.19,5.19,0,0,1,65,96.27Z"/><path d="M25.52,97.72a5.15,5.15,0,0,1-.6-3.93c0-.05,0-.1,0-.16H14.21a1.68,1.68,0,0,0-1.67,1.68V100H28.48A5.16,5.16,0,0,1,25.52,97.72Z"/><path d="M71.52,100H87.46V95.31a1.68,1.68,0,0,0-1.67-1.68H75a1.24,1.24,0,0,1,0,.16A5.2,5.2,0,0,1,71.52,100Z"/><path d="M31.3,10.72a5,5,0,0,1,5-5H39.5v.68A1.68,1.68,0,0,0,41.18,8h6.06V27.58H32.86l-1.56.54L28,29.29l-3,1-.64.22-5.73,2-.63.22-1.78.62a1.67,1.67,0,1,0,1.1,3.16l2.27-.78.64-.22,5.8-2,.65-.22L28,32.83l3.35-1.16,2.12-.74H66.58l2.12.74,3.35,1.16,1.32.46.65.22,5.8,2,.65.22,2.26.78a1.52,1.52,0,0,0,.55.1,1.68,1.68,0,0,0,.55-3.26h0l-1.78-.62-.63-.22-5.73-2-.64-.23-3-1L68.7,28.12l-1.56-.54H52.76V8h6.06A1.68,1.68,0,0,0,60.5,6.37V5.69h3.18a5,5,0,0,1,5,5V27.41l3.35,1.17V10.72a8.36,8.36,0,0,0-8.37-8.37H60.5V1.68A1.68,1.68,0,0,0,58.82,0H41.18A1.68,1.68,0,0,0,39.5,1.68v.67H36.32A8.36,8.36,0,0,0,28,10.72V28.58l3.35-1.17ZM51.09,26.91v.67H48.91V8h2.18Z"/><path d="M31.3,50.38a28.6,28.6,0,0,1-3.35-3V84.46a39.31,39.31,0,0,1,3.35-6.38V50.38Z"/><path d="M31.3,40.05V32.38L28,33.54v1.87A49.54,49.54,0,0,0,31.3,40.05Z"/><path d="M72.05,35.41V33.54L68.7,32.38v7.68A50.15,50.15,0,0,0,72.05,35.41Z"/><path d="M68.7,78.09a38.71,38.71,0,0,1,3.35,6.36V47.37a29.66,29.66,0,0,1-3.35,3Z"/><path d="M20,28.94a3,3,0,0,0-1.59,2.93L24,30A3,3,0,0,0,20,28.94Z"/><path d="M80,28.94A3,3,0,0,0,76,30l5.53,1.92A3,3,0,0,0,80,28.94Z"/><path d="M28,99.08a4.86,4.86,0,0,0,.81.31l.12,0a4.55,4.55,0,0,0,1.08.13,4.84,4.84,0,0,0,1.21-.16l.13,0a4.52,4.52,0,0,0,3.05-3.24c.22-.87.43-1.69.66-2.48C37.21,86,40,82.18,42,80.33l.12-.1a8.36,8.36,0,0,1,2.69-1.66,4.5,4.5,0,0,1,1.42-.28h.06A4.49,4.49,0,0,0,50,77.12a4.49,4.49,0,0,0,3.7,1.17h.06a4.5,4.5,0,0,1,1.42.28,8.18,8.18,0,0,1,2.69,1.66,14.24,14.24,0,0,1,2,2.11C61.51,84.55,63.4,88.1,65,93.63c.23.79.45,1.61.66,2.48a4.52,4.52,0,0,0,3,3.24l.13,0a4.84,4.84,0,0,0,1.21.16,4.55,4.55,0,0,0,1.08-.13l.12,0a4.86,4.86,0,0,0,.81-.31A4.51,4.51,0,0,0,74.43,94c0-.1-.05-.21-.08-.32a64.6,64.6,0,0,0-2.3-7.4,40.38,40.38,0,0,0-3.35-6.9,25.77,25.77,0,0,0-4.65-5.71A17.36,17.36,0,0,0,58.19,70L58,70l3.82-16.26L62,53c.23,0,.47-.11.73-.19A16.32,16.32,0,0,0,68.12,50c.19-.14.39-.29.58-.45a32.19,32.19,0,0,0,3.35-3.13,57.56,57.56,0,0,0,7.43-10.29l-5.81-2c-.55.9-1.09,1.75-1.62,2.53A45.88,45.88,0,0,1,68.7,41.1a26.87,26.87,0,0,1-4.2,4.07,11.66,11.66,0,0,1-3.13,1.76,4.21,4.21,0,0,1-.46.13,1.71,1.71,0,0,1-.32.07l-.23,0a3.12,3.12,0,0,0-.75.05,3.16,3.16,0,0,0-.76-.09H54.78A8.15,8.15,0,0,1,50,48.65a8.38,8.38,0,0,1-1.87-.21,8.24,8.24,0,0,1-2.92-1.32H41.15a3.16,3.16,0,0,0-.76.09,2.76,2.76,0,0,0-.76-.05l-.22,0a1.89,1.89,0,0,1-.32-.07,11.83,11.83,0,0,1-4.68-2.77A29,29,0,0,1,31.3,41.1,45.88,45.88,0,0,1,28,36.63c-.53-.78-1.07-1.62-1.62-2.53l-5.81,2A58.06,58.06,0,0,0,28,46.41a32.19,32.19,0,0,0,3.35,3.13l.58.45a16.32,16.32,0,0,0,5.41,2.83c.26.08.5.14.73.19l.17.71L42,70l-.2.06A19.34,19.34,0,0,0,33,76.86a28.76,28.76,0,0,0-1.69,2.47A40.38,40.38,0,0,0,28,86.23a64.6,64.6,0,0,0-2.3,7.4c0,.11-.06.22-.08.32A4.51,4.51,0,0,0,28,99.08Z"/><path d="M57.34,42.15a7.54,7.54,0,1,0-11.89,4.3,8.13,8.13,0,0,0,1,.67,7.58,7.58,0,0,0,7,0,8.25,8.25,0,0,0,1.06-.67A7.46,7.46,0,0,0,57.34,42.15Z"/></svg>