<svg id="Layer_1" data-name="Layer 1" xmlns="http://www.w3.org/2000/svg" viewBox="0 0 100 100"><path d="M99.25,42.87l-2.5-1.64a1.6,1.6,0,0,0-2.21.5L77.1,69s0,0,0,0L67.4,62.78c-.62.24-1.26.47-1.93.69a3.41,3.41,0,0,1-1.38.17A3.52,3.52,0,0,1,61,61.23a3.45,3.45,0,0,1,.09-2.45L43.7,47.7a11.25,11.25,0,0,1,.42,7.11,11.64,11.64,0,0,1-.67,1.85L65.11,70.43H9.82L15.74,39l8.85,5.63a11.32,11.32,0,0,1,4.26-3.15,11.6,11.6,0,0,1,3.74-.87,10.14,10.14,0,0,1,1.35,0l6.35-10.28a1.6,1.6,0,0,0-.5-2.21l-.61-.3a1.6,1.6,0,0,0-2.21.5L30.29,39.18,10.21,26.4A1.62,1.62,0,0,0,8,26.81L5.41,30.49a1.61,1.61,0,0,0,.4,2.23l5,3.16L4.28,70.43H1.6A1.61,1.61,0,0,0,0,72v4.48H89.34V72a1.61,1.61,0,0,0-1.6-1.61H83.51L99.75,45.08A1.6,1.6,0,0,0,99.25,42.87Z"/><path d="M41.32,44.05l9.73-15.4a1.6,1.6,0,0,0-.5-2.21l-2.5-1.64a1.6,1.6,0,0,0-2.21.5L36,41l.2,0A11.22,11.22,0,0,1,41.32,44.05Z"/><circle cx="90.4" cy="30.69" r="7.21"/><path d="M73.76,50.76A21.76,21.76,0,0,0,76,48.39a17.58,17.58,0,0,0,3.09-5.22,3.53,3.53,0,0,1,6.76,2,23.64,23.64,0,0,1-4.1,7.31,31.12,31.12,0,0,1-7.58,6.84A35.4,35.4,0,0,1,68.8,62.2l-.25.11a4,4,0,0,0,.66.18c2.12,1.41,4.78,2.11,8.08-.18,5.57-4.59,8.09-8,10.76-14.3a7.85,7.85,0,0,0-3-10.07c-2.69-1.5-6.3.41-7.74,3.4-1.1,1.8-2.36,4-3.82,6.2l-.44-5.65a4.32,4.32,0,0,0-2.64-3.66L55.16,31.82a4.33,4.33,0,1,0-3.35,8l12.84,5.39L65.48,56l1-.42A27.19,27.19,0,0,0,73.76,50.76Z"/><path d="M61.63,61a2.89,2.89,0,0,0,2.51,2,2.75,2.75,0,0,0,1.13-.14c.5-.16,1-.33,1.45-.51s.7-.27,1-.41l.46-.19a35.12,35.12,0,0,0,6.09-3.28,30.55,30.55,0,0,0,6.94-6.38,22.51,22.51,0,0,0,4-7.1,2.88,2.88,0,0,0-5.53-1.63h0a18.52,18.52,0,0,1-3.2,5.42,23.67,23.67,0,0,1-2.68,2.78,28.14,28.14,0,0,1-8.15,5l-.14.06c-.66.26-1.35.52-2.07.76a2.87,2.87,0,0,0-1.8,1.75A2.81,2.81,0,0,0,61.63,61Z"/><path d="M27.69,43.4a10.14,10.14,0,1,0,14.8,12.65A9.9,9.9,0,0,0,43,54.52a10.07,10.07,0,0,0-1.19-8A9.82,9.82,0,0,0,40.71,45a10.18,10.18,0,0,0-4.85-2.94L35.31,42c-.29-.06-.58-.1-.87-.14a9.34,9.34,0,0,0-1.18-.07A10.05,10.05,0,0,0,27.69,43.4Zm9.44,9.53a4,4,0,1,1-6.28-4.28,3.62,3.62,0,0,1,.41-.27,4,4,0,0,1,5.92,4.29C37.16,52.76,37.15,52.85,37.13,52.93Z"/><path d="M34,49.2A2.78,2.78,0,1,0,35,54a2.7,2.7,0,0,0,.89-1.41v0a3,3,0,0,0,.09-.66A2.81,2.81,0,0,0,34,49.2Z"/></svg>