<svg id="Layer_1" data-name="Layer 1" xmlns="http://www.w3.org/2000/svg" viewBox="0 0 184.12 196"><g id="Layer_2" data-name="Layer 2"><g id="Layer_1-2" data-name="Layer 1-2"><path d="M96.68,41.06c-1.07-.07-1.81-.15-2.54-.15H37.63c-1.68,0-2.83,0-2.75,2.35q1.92,54,0,108-.57,15.24-1.1,30.48c-.11,3-1.37,4.26-4.33,4.27H10.7c-2.65,0-3.88-1.28-4-4q-3-64-1.35-128c.37-13.5.93-27,1.41-40.48.12-3.21,1.41-4.46,4.62-4.48,6,0,12-.05,18,0,2.91,0,4.28,1.31,4.44,4.2.3,5.32.63,10.65.79,16,.06,1.88.58,2.61,2.61,2.6q29-.11,58,0c2.18,0,2.64-.78,2.67-2.77a39.43,39.43,0,0,0-3.3-15.51c-1.24-3-.07-4.93,3.18-5.46a121.86,121.86,0,0,1,35.82-1,73.71,73.71,0,0,1,8.58,1.51c2.42.63,3.18,2.39,2.14,4.64-4.73,10.21-4.43,20.68-1.62,31.24,2.43,9.14,5.12,18.22,7.61,27.34,2.85,10.42,3.49,20.82-.57,31.13a13.74,13.74,0,0,1-6.54,7.2,4,4,0,0,0-1.85,2.75,64.9,64.9,0,0,0,0,9.25,3.16,3.16,0,0,0,1.62,2.26c5,2.06,6.68,4.25,6.6,9.6a57,57,0,0,1-.78,10.11c-.55,2.8-2.87,4.43-5.72,4.89-1.38.22-1.84.83-1.83,2.12v6c0,1.52.67,2.14,2.13,2h.25a11.76,11.76,0,0,0,11.74-4.51c4.3-5.16,9.37-9.69,14-14.58a5,5,0,0,0,1.28-3.05q.18-8,0-16a4,4,0,0,0-1.21-2.75,7.41,7.41,0,0,1-3-6.27q-.06-14.38,0-28.77A7.46,7.46,0,0,1,170.78,76c3.08-1.54,5.64-.58,8.1,1.26,2,1.5,2.44,3.75,2.45,6q.09,14.25,0,28.51a8.34,8.34,0,0,1-2.92,6.37,4.84,4.84,0,0,0-1.38,3.19c-.14,5.92.05,11.84-.15,17.75a7.22,7.22,0,0,1-1.76,4.38c-5.87,6.26-12,12.3-17.89,18.51a6.85,6.85,0,0,1-5.24,2.37c-2.75,0-5.51.1-8.25,0-1.84-.06-2.57.67-2.51,2.5.08,2.67.08,5.33,0,8,0,1.75.66,2.38,2.37,2.31,2.42-.08,4.84,0,7.25,0a2.63,2.63,0,0,1,3,2.22,2.43,2.43,0,0,1,0,.66v2.75c.08,2.31-1,3.26-3.33,3.25q-31.14-.06-62.27,0c-2.83,0-3.47-.69-3.51-3.58v-2.25c0-2,1-3.08,3.08-3.06h7.25c1.57,0,2.3-.52,2.26-2.16-.06-2.83-.06-5.67,0-8.5,0-1.67-.68-2.2-2.24-2.19-3.17,0-6.34.08-9.49-.2a6.31,6.31,0,0,1-3.67-1.69c-6.25-6.24-12.43-12.55-18.47-19A7.24,7.24,0,0,1,61.78,139c-.2-5.83,0-11.67-.17-17.5,0-1.22-1-2.43-1.55-3.6-.81-1.59-2.42-3.11-2.46-4.69-.22-10.49-.25-21,0-31.49.07-3.58,2.91-6,6.49-6.53a7.55,7.55,0,0,1,7.24,3.94,11.64,11.64,0,0,1,1,4.58c.09,9.17,0,18.34,0,27.51a8.39,8.39,0,0,1-3.08,7A4,4,0,0,0,67.94,121q-.15,8.12,0,16.25a4.6,4.6,0,0,0,1.26,2.8c5.77,6,11.54,12,17.52,17.8,1,1,3,1.16,4.54,1.19,6,.12,6,0,6.08-6,0-2.26,0-3.76-3-4.33a6.67,6.67,0,0,1-5.19-6.12,56.27,56.27,0,0,1,0-11.46,7.25,7.25,0,0,1,6-6.51c1.63-.36,2.15-1.16,2.09-2.78-.1-3,.1-6-.07-9a3.36,3.36,0,0,0-1.42-2.53c-4.8-1.9-6.71-5.89-8.11-10.39-3-9.59-2-19.07.67-28.52l8-28.31A15.73,15.73,0,0,0,96.68,41.06Zm-74.56,101v-1.13h6.49a2.5,2.5,0,0,0,2.69-2.31c0-.11,0-.23,0-.35a2.67,2.67,0,0,0-2.14-3.1,2.58,2.58,0,0,0-.39,0c-1.24-.1-2.49,0-3.74,0-3.23,0-3.23,0-3.23-3.28V16.33a4.82,4.82,0,0,0-.06-2A2.61,2.61,0,0,0,20.15,13c-.4-.06-1.06.7-1.38,1.22s0,1,0,1.48V130.49c0,4.53,0,4.53-4.65,4.6h-2c-1.9,0-2.7,1.14-2.74,2.86-.05,2.07,1.08,3,3.13,3h5.86v1.12H12c-1.79,0-2.54,1-2.6,2.66-.08,2.23,1.09,3.15,3.23,3.14,1.93,0,3.87,0,5.8.08V149H12c-1.8,0-2.56,1-2.62,2.66-.09,2.11,1.06,3,3.1,3s4.05.14,6.08.22V156c-2,0-4,.06-6,0s-3,.63-3.09,2.66c-.05,2.2,1.18,2.92,3.17,2.88,1.41,0,2.83,0,4.24.06a10.91,10.91,0,0,1,1.85.4l-.07,1c-2.09,0-4.18.07-6.27,0s-2.93.89-3,2.8,1.13,2.59,2.9,2.57,3.33,0,5,.06a4.11,4.11,0,0,1,1.4.67c-.48.3-1,.85-1.45.88-1.83.1-3.66.07-5.5,0s-2.27,1.12-2.29,2.59.39,2.64,2.23,2.6,3.83-.05,5.74,0c.44,0,.86.53,1.28.82-.41.29-.81.82-1.24.84-1.91.1-3.83.07-5.74,0S9.48,178,9.43,179.48s.54,2.62,2.28,2.62h17.5c1.77,0,2.25-1.33,2.21-2.74s-.58-2.59-2.4-2.51-3.83.07-5.75,0c-.43,0-.84-.54-1.25-.83.42-.28.82-.79,1.26-.81,1.91-.1,3.83-.09,5.74-.07,1.75,0,2.38-1,2.39-2.53s-.59-2.73-2.5-2.66a52.9,52.9,0,0,1-5.5,0c-.48,0-.94-.59-1.41-.91.46-.25.91-.69,1.37-.71,1.83-.06,3.67,0,5.5,0s2.54-1.16,2.55-2.72A2.34,2.34,0,0,0,28.78,163H23.53a7.48,7.48,0,0,1-1.61-.42v-.74a16.88,16.88,0,0,1,2-.28h4.75c2.09,0,2.75-1.36,2.62-3.16S30.13,156,28.4,156c-2.16.08-4.32,0-6.48,0V155a19.88,19.88,0,0,1,2.19-.3,21.63,21.63,0,0,0,4.48,0,3.92,3.92,0,0,0,2.48-2.11c.72-2.16-.42-3.41-2.82-3.47-2.05-.06-4.1,0-6.15,0v-1.18c1.92,0,3.84,0,5.76,0s3.38-.57,3.36-2.94S29.78,142,27.78,142s-3.78.05-5.66.05ZM66.26,37.38H88.5c2.42,0,4.84.09,7.25-.06.62,0,1.21-.78,1.82-1.2a15.31,15.31,0,0,0-1.76-1,3.23,3.23,0,0,0-1.24,0H40.83c-1.58,0-3.17-.1-4.74,0-.45,0-.84.77-1.26,1.18a5,5,0,0,0,1.2,1,3.87,3.87,0,0,0,1.48.08Zm69,80.5v-4c0-1.34-.48-2.18-2.06-2-1.74.18-3.48.24-5.22.32-1.46.07-2,.82-2,2.25v5.23c0,3.53-.06,3.53,3.46,3.75,5.79.38,5.79.38,5.78-5.55Zm-31.77-.11v1.75c0,4.27,0,4.27,4.22,4,1-.06,2-.12,3-.15,1.41,0,2.1-.59,2-2.14a36.41,36.41,0,0,1,0-5.72c.22-2.32-.59-3.23-3-3.41-6.25-.46-6.24-.57-6.26,5.67Zm5.25,53.1c0-1.42-.08-2.84,0-4.25.12-1.75-.61-2.39-2.34-2.33s-3.07-.08-3,2.21c.06,2.83,0,5.67,0,8.5,0,1.43.49,2.08,2,2.13,3.18.09,3.32,0,3.32-3.26,0-1,0-2,0-3Zm21.16-.23h0c0,1.5.08,3,0,4.49-.11,1.81.91,2.08,2.35,2s3,.49,3-1.85c0-3,.05-6-.08-9a2.39,2.39,0,0,0-1.18-1.82c-2.66-.94-4,.13-4,3Zm-21.15-16V153.1c0-2.95-1.45-4.35-4.09-3s-.8,4.45-1.13,6.74A2.7,2.7,0,0,0,105,159c3.25.66,3.75.15,3.74-3.15Zm26.5-.13a16.74,16.74,0,0,1,0-2.24c.21-1.73-.45-2.45-2.22-2.32-1.58.12-3.31-.2-3.16,2.31.1,1.74-.05,3.49.06,5.23a2,2,0,0,0,.85,1.51c2.63,1.14,4.42-.12,4.43-3,0-.55,0-1,0-1.54Z"/></g></g></svg>