<svg id="Layer_1" data-name="Layer 1" xmlns="http://www.w3.org/2000/svg" viewBox="0 0 190 195"><g id="Layer_2" data-name="Layer 2"><g id="Layer_1-2" data-name="Layer 1-2"><path d="M10.44,69.48c.46-15.53,1-35.76,1.63-56,.09-3.06,1.52-4.93,4.69-5,6.16-.05,12.32,0,18.48,0,3.38,0,4.72,1.81,4.8,5,.59,22,1.24,44,1.77,65.92,0,2,.7,2.38,2.47,2.38q22.74-.07,45.47,0c1.69,0,2.42-.58,2.66-2.15C94.49,66.4,100,54.07,102.66,41c2-9.61,2.12-19.14-2-28.36-1.49-3.31-.22-5.17,3.27-5.76a119.06,119.06,0,0,1,36.29-1c2.63.36,5.28.64,7.88,1.17,2.86.57,3.9,2.92,2.57,5.77-4.36,9.35-3.92,19-2,28.78,2.21,11.08,6.53,21.56,9,32.56,2.22,9.87,2.17,19.65-1.75,29.14a11.26,11.26,0,0,1-6.35,6.38c-3.33,1.29-1.19,3.83-1.6,5.74-.36,1.67,1.29,1.19,2.26,1.43,3.11.76,5.24,2.69,5.7,5.87a24.15,24.15,0,0,1,0,7c-.53,3.42-2.94,5.28-6.24,5.92-3.68.7-1.7,3.59-1.65,5.2.07,2.09,1.73.37,2.56.1q12.09-3.82,24.12-7.83c2.57-.86,4.19-.16,5,2.4,1.05,3.22,2.16,6.43,3.15,9.68.68,2.25,0,3.86-2.42,4.63-10.26,3.31-20.48,6.72-30.76,9.94-1.59.49-1.85,1.21-1.85,2.61,0,4.66,0,9.33-.17,14,0,1.46.68,1.66,1.85,1.62,2.49-.1,5-.06,7.49-.23,3.8-.26,3.42,2.39,3.56,4.82.17,2.72-1,4.07-3.74,4.07-12.15,0-24.31-.25-36.46.1-8.57.24-17.14-.64-25.7.14-2,.19-4.25-.15-3.85-2.86.36-2.41-1.4-6.3,3.83-6.08,8.5.37,8.5.2,8.51-8.27,0-9.69,0-9.62-10-12.65-7.6-2.3-15.14-4.81-22.71-7.25-2-.65-3.12-2-2.43-4.17,1.09-3.47,2.35-6.89,3.45-10.36.75-2.35,2.34-2.91,4.47-2.22q12.77,4.16,25.48,8.44c1.33.45,1.76.32,1.85-1.16.17-2.64.11-4.81-3.39-5.18-2.34-.24-3.58-2.13-4.43-4.25-2.7-6.65,0-12.34,6.63-14,.82-.21,1.27-.66,1.1-1.35-.43-1.83,1.18-4.54-1-5.44C95.84,107.51,94,102,93,96.25c-.66-3.86-1.76-5.23-6-5.13-14.32.32-28.65.12-43,0-1.79,0-2.24.56-2.24,2.31,0,29.39-.94,58.77-1.9,88.15-.1,3.31-1.7,5.14-5.06,5.17-6,0-12,0-18-.05-3.13-.06-4.8-1.64-4.92-5C10.77,145.93,9.75,110.07,10.44,69.48Zm14.31,4.67v53.72c0,7.3,0,7.3-7.16,7.83h-.25a2.22,2.22,0,0,0-2.27,2.64c.06,1.62.75,2.5,2.4,2.52h5.75c.55,0,1.35-.06,1.38.7s-.72,1-1.41,1H17.7c-1.83,0-2.72.84-2.62,2.78s1,2.52,2.69,2.49,3.66,0,5.49,0c.53,0,1.37-.14,1.42.64s-.74,1-1.41,1H18c-2-.07-3,.71-3,2.77s1,2.62,2.86,2.57,3.33-.05,5,0c.66,0,1.82-.33,1.77.73,0,.82-1.15.8-1.87.81H18c-1.86,0-3,.63-3,2.75s1.06,2.78,3,2.73c1.75-.05,3.5,0,5.25,0,.52,0,1.38-.22,1.43.56s-.9.88-1.48.91c-1.67.08-3.33,0-5,0s-3.13.36-3.17,2.55,1,3,3.07,2.9c1.83-.07,3.66,0,5.49,0,.46,0,1.14,0,1.14.64s-.66.69-1.13.7c-1.75,0-3.5.06-5.25,0s-3.29.34-3.31,2.66,1.35,3,3.39,2.91h5.24c.46,0,1.13.05,1,.75,0,.24-.63.54-1,.55-1.91.06-3.82,0-5.74.07s-3,.76-2.93,2.83,1.09,2.65,2.84,2.65H34.16c2,0,2.87-1,2.8-3S35.72,177,34,177h-5.5c-.47,0-1.1-.11-1.09-.75s.63-.7,1.11-.71c1.92,0,3.83.06,5.75,0A2.44,2.44,0,0,0,37,173.42a2,2,0,0,0,0-.42c0-2-1-2.67-2.81-2.67H28.7c-.54,0-1.3-.07-1.22-.85,0-.24.77-.56,1.2-.57,1.66-.07,3.33-.08,5,0,1.93.07,3.28-.42,3.33-2.68.05-2.45-1.46-2.86-3.45-2.78-1.5.06-3,0-4.49,0-.67,0-1.5-.06-1.47-.92s.86-.63,1.4-.64h5.25c1.75,0,2.76-.77,2.76-2.7s-.88-2.74-2.73-2.73H28.79c-.57,0-1.26-.14-1.18-.92s.72-.61,1.19-.61h5.5A2.35,2.35,0,0,0,37,153a2.08,2.08,0,0,0,0-.61c.09-1.87-.76-2.81-2.63-2.82h-5c-.78,0-1.78,0-1.84-.83-.08-1.1,1-.81,1.7-.83,1.67-.06,3.34,0,5,0s2.66-.53,2.75-2.4-.7-2.82-2.58-2.83-3.66,0-5.49,0c-.67,0-1.47-.18-1.43-1s.82-.71,1.38-.72c1.75,0,3.51-.08,5.25,0,2,.1,2.89-.78,2.9-2.79s-1.25-2.45-3-2.4c-1.42,0-2.84-.09-4.25,0-2,.16-2.56-.55-2.56-2.56q.11-58.73,0-117.44c0-1.11.62-2.9-1.38-2.82C24,13,24.7,14.68,24.7,15.7Q24.72,44.92,24.75,74.15Zm116.69,95a2.8,2.8,0,0,1,0-1c1.68-4.49-3.33-6.25-4-9.8-.1-.53-1-.31-1.58-.25-3.94.43-3.53,3.22-3.51,6,0,2.18.09,3.73,2.93,3.52,1.74-.14,2.2,1.28,2.14,2.71s-.62,2.95-2.5,2.72c-3-.37-2.72,1.94-2.79,3.55-.11,2.28,1.86,1.21,3,1.37s2-.09,3,.05c3.25.45,4.45-.55,3.43-4-.51-1.42-.13-3.19-.12-4.85Zm-31.69.89c0,8.07,0,8,7.1,7.82,1.64,0,2-.72,1.9-2.11s.35-2.84-1.83-2.7c-1.91.13-3.2-.34-3.2-2.69s1.2-3,3.12-2.87c1.6.07,2-.69,2-2.12a12.4,12.4,0,0,1,0-3.22c.65-3-1.61-3.42-3.52-4-2.31-.72-1.89,1.37-2.41,2.51-.23.52-.61,1.21-1,1.33-2.29.61-2.19,2.28-2.08,4.08,0,1.33,0,2.66,0,4ZM66.89,87.64H89.33c.91,0,2.53.69,2.49-1.07,0-1.52-1.55-.92-2.4-.92q-22.68-.06-45.37,0c-.85,0-2.09-.38-2.14,1s1.2,1,2,1Zm51.88,57.42h0a17.43,17.43,0,0,1,0-3.23c.78-4.1-.93-5.14-4.93-5.37-3.69-.21-4.63.85-4.13,4.16.25,1.66-.7,3.76,2.1,4.27,3.34.62,6,1.85,4.21,6.14-.51,1.23.44,1.8,1.6,1.91,1.34.11,1.15-.84,1.14-1.67C118.76,149.2,118.77,147.13,118.77,145.06Zm13.69.1h0v6c0,.87-.33,2,1.25,1.74,1.12-.17,1.7-.8,1.27-1.9-1.59-4,.68-5.42,4.06-6a2.5,2.5,0,0,0,2.42-2.59,2.33,2.33,0,0,0-.07-.53,29,29,0,0,1,0-3.73c0-1.31-.5-1.68-1.81-1.65-7.1.18-7.1.15-7.14,7.23C132.45,144.17,132.46,144.67,132.46,145.16Zm-18-29.18c1.21-.93,4.91,1.63,4.15-2.25-.72-3.71-4.58-.73-6.69-2.06-.62-.4-1.62-.7-2.09.45a4.43,4.43,0,0,0-.11.73c-.72,4.3,2.38,3,4.74,3.15Zm22.44,0a23.78,23.78,0,0,1,2.67,0c2.46.3,1.79-1.49,1.88-2.77.11-1.6-.64-1.95-2.15-1.67a27.82,27.82,0,0,1-4.91.41c-1.54,0-2.07.66-1.93,2.11.36,3.64,3.23.94,4.44,1.94Z"/></g></g></svg>