<svg id="Layer_1" data-name="Layer 1" xmlns="http://www.w3.org/2000/svg" viewBox="0 0 196 197"><g id="Layer_2" data-name="Layer 2"><g id="Layer_1-2" data-name="Layer 1-2"><path d="M7.11,85.89c.45-16.83,1.2-45.3,2-73.76C9.18,8.9,10.76,7,14.21,7c6.08,0,12.16,0,18.24,0,3.13,0,4.59,1.42,4.76,4.67,2.45,49.19,2.53,98.39.81,147.59-.12,3.42.58,4.37,4.24,4.32,18.74-.23,37.48-.12,56.22,0,2.28,0,3.29-.55,3-2.91a25,25,0,0,1-.06-3c0-3.75,1.06-7.64-4.39-9.36-3-1-4.26-4.5-4-7.93.31-5-.87-10,.67-14.87a8.08,8.08,0,0,1,6-5.69c1.64-.4,1.78-1.43,1.79-2.79s-.36-1.79-1.75-2.14c-4.25-1.1-6.64-4-6.74-8.43-.34-15.87.62-17,16.43-17.61,3.49-.14,6.3-.14,4.78-4.86a3.35,3.35,0,0,1,0-1c0-7.36-1-8.17-8.49-7-1.55.25-1.34,1.23-1.3,2.18.11,2.88-1.15,3.9-4.07,3.87q-19.86-.2-39.73,0c-2.78,0-4-1-3.87-3.78.13-3.57.08-7.16,0-10.74,0-2.36,1.19-3.36,3.36-3.36q20.61,0,41.22.08c1.81,0,2.84.92,3,2.91.54,6.55,5.48,2.12,8.23,3s1.58-2.08,1.59-3.3c.1-9.57,0-9.57,9.66-9.52h.25c9.7.06,9.78.06,9.58,9.79,0,2.39.34,3.6,3,3.21,3.12-.46,7.66,1.77,7.35-4.52-.06-1.29,1.83-1.46,3.09-1.47l40.7-.09c2.19,0,3.41.84,3.37,3.26-.05,3.66.08,7.32.11,11,0,2.41-1,3.58-3.62,3.57-13.58-.08-27.15,0-40.73,0-1.42,0-3.23-.17-3-1.75.62-5.38-3.06-3.94-6-4.3-3.58-.45-4.62.85-4.34,4.31.2,2.33.47,4.75-.42,7.14-.54,1.43.94,1.16,1.77,1.22,4.4.3,8.82.33,13.17.94s6.73,3.67,6.76,8c0,4,.78,8.13-.58,12.13a7.92,7.92,0,0,1-5.91,5.18c-1.3.35-1.91.71-1.82,2.07s.06,2.43,1.9,3c4.1,1.17,6.51,4.19,6.41,8.43-.13,5.44,1.09,11-.77,16.32a6.38,6.38,0,0,1-4.14,4.35c-3.32.82-3.47,2.92-3.41,5.68q.22,10.86,0,21.74c0,2,.49,2.7,2.5,2.52,1.73-.17,3.51.11,5.24-.07,3.75-.38,5.27,1.1,5.24,4.94s-2,4.43-5.25,4.4q-31.22-.26-62.42-.28c-2.16,0-3.14-.83-2.92-2.94s-1.35-5.41,2.66-5.86a59.05,59.05,0,0,1,6.24-.22c1.9,0,3.74.52,3.69-2.69,0-3-1.39-3.08-3.7-3.07q-28.73.09-57.46,0c-2,0-2.74.51-2.92,2.59C36.32,188,36.27,188,24,188H13.87c-3.18,0-4.75-1.71-4.86-4.75C8,154.65,7.2,126.1,7.11,85.89ZM24.63,73.76V14.05c0-1.16.49-2.82-1.46-2.82S22,12.92,22,13.88c0,38.23-.17,76.45.11,114.67,0,5.86-.81,8.86-7.34,7.53-1.82-.37-2.66.89-2.69,2.72s1,2.5,2.65,2.48,3.66,0,5.49,0c.75,0,1.69.05,1.65,1.05s-1,.68-1.6.69c-1.92,0-3.83,0-5.75,0-1.66,0-2.35.93-2.42,2.51s.56,2.65,2.17,2.77c1.82.13,3.66,0,5.49.07.78,0,2-.35,2,.77.09,1.3-1.19.81-1.91.84-1.66.08-3.33.06-5,0-1.82,0-2.78.72-2.83,2.62s.78,2.8,2.65,2.81h6c.61,0,1.28.18,1.12,1-.06.28-.74.6-1.14.61-2,.06-4,0-6,0-1.73,0-2.53.89-2.62,2.63s.68,2.73,2.37,2.85,3.33,0,5,.07c.83,0,2.29-.42,2.32.71,0,1.31-1.4.69-2.2.74-1.58.09-3.17,0-4.75,0-1.88,0-2.7,1-2.72,2.79a2.47,2.47,0,0,0,2.1,2.81,2.57,2.57,0,0,0,.62,0h5.49c.62,0,1.57-.24,1.54.73s-1,.65-1.61.67h-5.5c-1.83,0-2.71.95-2.65,2.85s.92,2.77,2.75,2.77h5.49c.59,0,1.57-.28,1.52.73s-1,.67-1.6.68c-1.83.05-3.66,0-5.5.05s-2.65,1-2.66,2.84a2.42,2.42,0,0,0,2.75,2.73H31.28c2.39,0,3.08-1.31,2.82-3.38-.37-2.93-2.73-2-4.49-2.24s-4.31.85-4.57-.8c-.19-1.14,2.8-.41,4.36-.6,2-.26,4.66.71,4.72-2.78.06-3.71-2.75-2.62-4.82-2.91-1.54-.22-4.19.91-4.32-.75-.09-1.22,2.84-.47,4.41-.61,2-.17,4.66.68,4.73-2.79s-2.5-2.67-4.57-2.91c-1.61-.19-4.42,1-4.54-.73-.1-1.45,2.83-.42,4.4-.67,1.95-.33,4.7.79,4.73-2.77s-2.61-2.59-4.65-2.81c-1.56-.18-4.54.56-4.4-.6.24-2,2.86-.61,4.43-.93,1.86-.37,4.44.82,4.59-2.61s-2.26-2.68-4.27-2.9c-1.72-.19-5,.73-4.84-.64.17-2,3-.55,4.71-.89s4.3.72,4.41-2.54c.12-3.57-2.5-2.65-4.53-2.93C28,142.67,25,144,25,142c0-1.8,2.93-.56,4.55-.75,2.21-.27,5.39.49,4.48-3.32s-4.32-1.53-6.58-1.94c-1.59-.29-2.93.16-2.92-2.39C24.67,113.73,24.62,93.74,24.63,73.76ZM131,165.21c0,3.82.1,7.64,0,11.46-.06,1.69.16,3.15,2.09,2.43,2.29-.85,6.51,2.57,6.81-2.42.4-6.71-.21-13.47.24-20.17.31-4.64-.88-6.19-5.68-5.64-2.75.31-3.71.77-3.49,3.63C131.22,158.05,131,161.64,131,165.21Zm-61.27,2.18H40.24c-.89,0-2.3-.5-2.23,1.13.07,1.42,1.34.9,2.16.9h59c.87,0,2.1.28,2.13-1s-1.21-1-2.06-1ZM117,156.61c1.81-5.34-1.6-6.24-6.49-5.67-1,.12-2.4-.59-2.43,1.19-.06,3.4,0,6.8,0,10.2,0,.91.58,1.2,1.45,1.32C116.36,164.62,116.94,164.15,117,156.61ZM112.63,179c1.23-.91,4.3,1.93,4.38-2.35.14-6.36-4.52-2.52-6.87-3.37s-2,1.17-2.2,2.67C107.36,180.13,110.4,178.72,112.63,179Zm23.17-63.22c-1.42,1.21-5.05-1.07-4.48,1.54.7,3.16,4.62.91,7,1.57,1.28.34,1.89-.38,1.65-1.66-.54-3.1-2.89-.39-4.17-1.47Zm-23.42,3.33c1.29-1.3,5,.94,4.27-1.75-.75-3-4.66-.68-7.07-1.43-1.1-.35-1.75.26-1.57,1.47.49,3.21,3,.6,4.37,1.69Zm.24,50.52c1.26-1,4,1,4-1.24,0-2.07-2.73-.92-4.14-.9s-4.22-1.08-4.22.79c0,2.51,2.88.41,4.36,1.33Z"/></g></g></svg>