<svg height='100px' width='100px'  fill="#000000" xmlns="http://www.w3.org/2000/svg" xmlns:xlink="http://www.w3.org/1999/xlink" version="1.1" x="0px" y="0px" viewBox="0 0 305.785 304.952" style="enable-background:new 0 0 305.785 304.952;" xml:space="preserve"><g><g><path style="" d="    M152.801,4.5c53.738,0,104.994,43.489,104.994,43.489s43.49,48.404,43.49,104.995" fill="none" stroke="#000000" stroke-width="9" stroke-linecap="round" stroke-linejoin="round" stroke-miterlimit="10"></path><path style="" d="    M152.801,300.452c53.738,0,104.994-43.49,104.994-43.49s43.49-48.402,43.49-104.994" fill="none" stroke="#000000" stroke-width="9" stroke-linecap="round" stroke-linejoin="round" stroke-miterlimit="10"></path><path style="" d="    M152.984,4.5C99.247,4.5,47.99,47.989,47.99,47.989S4.5,96.393,4.5,152.984" fill="none" stroke="#000000" stroke-width="9" stroke-linecap="round" stroke-linejoin="round" stroke-miterlimit="10"></path><path style="" d="    M152.984,300.452c-53.737,0-104.994-43.49-104.994-43.49S4.5,208.56,4.5,151.968" fill="none" stroke="#000000" stroke-width="9" stroke-linecap="round" stroke-linejoin="round" stroke-miterlimit="10"></path><path style="" d="    M259.017,87.801c0,0-42.452-17.003-106.216-17.003c-63.763,0-106.215,17.003-106.215,17.003s-10.517,28.848-10.517,63.353    c0,34.504,10.517,67.313,10.517,67.313S97.729,233.14,152.8,233.14c55.073,0,106.216-14.673,106.216-14.673    s10.516-32.809,10.516-67.313C269.532,116.649,259.017,87.801,259.017,87.801z" fill="none" stroke="#000000" stroke-width="9" stroke-linecap="round" stroke-linejoin="round" stroke-miterlimit="10"></path><line style="" x1="259.144" y1="51.665" x2="259.144" y2="87.337" fill="none" stroke="#000000" stroke-width="9" stroke-linecap="round" stroke-linejoin="round" stroke-miterlimit="10"></line><line style="" x1="46.6" y1="51.665" x2="46.6" y2="87.337" fill="none" stroke="#000000" stroke-width="9" stroke-linecap="round" stroke-linejoin="round" stroke-miterlimit="10"></line><line style="" x1="259.144" y1="217.93" x2="259.144" y2="255.408" fill="none" stroke="#000000" stroke-width="9" stroke-linecap="round" stroke-linejoin="round" stroke-miterlimit="10"></line><line style="" x1="46.6" y1="217.119" x2="46.6" y2="254.599" fill="none" stroke="#000000" stroke-width="9" stroke-linecap="round" stroke-linejoin="round" stroke-miterlimit="10"></line><path style="" d="    M153.052,23.309c-0.01-6.27-0.033-12.539-0.068-18.809" fill="none" stroke="#000000" stroke-width="9" stroke-linecap="round" stroke-linejoin="round" stroke-miterlimit="10"></path><path style="" d="    M153.018,50.347c0.012-2.939,0.022-5.878,0.028-8.816" fill="none" stroke="#000000" stroke-width="9" stroke-linecap="round" stroke-linejoin="round" stroke-miterlimit="10"></path><path style="" d="    M153.061,271.586c-0.002-8.099-0.024-16.196-0.067-24.295" fill="none" stroke="#000000" stroke-width="9" stroke-linecap="round" stroke-linejoin="round" stroke-miterlimit="10"></path><path style="" d="    M152.984,299.438c0.019-3.358,0.034-6.717,0.046-10.074" fill="none" stroke="#000000" stroke-width="9" stroke-linecap="round" stroke-linejoin="round" stroke-miterlimit="10"></path><line style="" x1="300.723" y1="151.969" x2="269.533" y2="151.969" fill="none" stroke="#000000" stroke-width="9" stroke-linecap="round" stroke-linejoin="round" stroke-miterlimit="10"></line><line style="" x1="34.927" y1="151.969" x2="4.5" y2="151.969" fill="none" stroke="#000000" stroke-width="9" stroke-linecap="round" stroke-linejoin="round" stroke-miterlimit="10"></line><rect x="114.404" y="143.01" transform="matrix(0.7071 -0.7071 0.7071 0.7071 -71.7466 132.7593)" style="" width="19.946" height="19.946" fill="none" stroke="#000000" stroke-width="9" stroke-linecap="round" stroke-linejoin="round" stroke-miterlimit="10"></rect><rect x="142.612" y="143.01" transform="matrix(0.7071 -0.7071 0.7071 0.7071 -63.4844 152.7057)" style="" width="19.946" height="19.946" fill="none" stroke="#000000" stroke-width="9" stroke-linecap="round" stroke-linejoin="round" stroke-miterlimit="10"></rect><polyline style="" points="    67.962,138.88 82.066,152.983 67.962,167.088   " fill="none" stroke="#000000" stroke-width="9" stroke-linecap="round" stroke-linejoin="round" stroke-miterlimit="10"></polyline><rect x="86.197" y="143.01" transform="matrix(0.7071 -0.7071 0.7071 0.7071 -80.0088 112.8133)" style="" width="19.946" height="19.946" fill="none" stroke="#000000" stroke-width="9" stroke-linecap="round" stroke-linejoin="round" stroke-miterlimit="10"></rect><rect x="170.82" y="143.01" transform="matrix(0.7071 -0.7071 0.7071 0.7071 -55.2219 172.6559)" style="" width="19.946" height="19.946" fill="none" stroke="#000000" stroke-width="9" stroke-linecap="round" stroke-linejoin="round" stroke-miterlimit="10"></rect><rect x="199.028" y="143.011" transform="matrix(0.7071 -0.7071 0.7071 0.7071 -46.9606 192.5938)" style="" width="19.947" height="19.945" fill="none" stroke="#000000" stroke-width="9" stroke-linecap="round" stroke-linejoin="round" stroke-miterlimit="10"></rect><polyline style="" points="    237.208,167.088 223.105,152.983 237.208,138.88   " fill="none" stroke="#000000" stroke-width="9" stroke-linecap="round" stroke-linejoin="round" stroke-miterlimit="10"></polyline></g></g></svg>