<svg id="Layer_1" data-name="Layer 1" xmlns="http://www.w3.org/2000/svg" viewBox="0 0 1000 391.94"><path d="M1000,380.94c-3.47,8.28-9.7,11.12-18.6,11-40.11-.29-80.23-.11-120.34-.14-11.18,0-18.26-8.91-15-18.73,2-6.11,7.25-9.69,14.71-9.74,11.49-.09,23,0,34.46,0,28.46,0,56.93.19,85.39-.11,8.84-.1,15.6,2.25,19.39,10.68Z"/><path d="M0,250.94c3.4-8.36,9.64-11.17,18.54-11.1,39.28.29,78.56.13,117.84.13h4c8.3.42,14.44,6.51,14.39,14.25s-6.06,14-14.49,14.07c-16.64.21-33.29.07-49.93.07-23.64,0-47.27-.25-70.9.14-8.88.14-15.59-2.22-19.44-10.59Z"/><path d="M363.58,75.73h-105c-18.49,0-29.53-11.07-29.55-29.54,0-6.34-.1-12.67,0-19C229.33,11.82,241.11,0,256.51,0q107-.09,213.92,0a27.29,27.29,0,0,1,27.38,26.85q.3,10.5,0,21C497.28,64.78,486,75.7,469,75.71Q416.32,75.77,363.58,75.73Z"/><path d="M636.19,199.09c-34.32,0-68.65-.58-103,.23-19.66.46-32.71-13.42-31.24-31.65.45-5.63,0-11.33.09-17a27.33,27.33,0,0,1,26.06-27.13c2.49-.15,5-.08,7.49-.08H740a46.07,46.07,0,0,1,10.41,1,26.8,26.8,0,0,1,20.38,25.38c.2,7.16.09,14.33,0,21.49-.12,16.23-11.47,27.7-27.75,27.74C707.5,199.15,671.85,199.09,636.19,199.09Z"/><path d="M493.25,154.94c.71,12.1-1.72,24.2,4.89,34.88-75.22,29.76-118.25,84.12-128.79,164.49H334.47C338.6,263.1,406.55,179.2,493.25,154.94Z"/><path d="M938.58,354.36H903.15c-3.43-37.65-16.38-71.4-39.59-101s-52.77-50.42-88.88-63.12c7-11,4.56-23.29,5.27-35.16C862,177.39,933.76,258.29,938.58,354.36Z"/><path d="M220,31.29c.8,12-1.74,24.18,5,35-75,29.64-118.12,83.9-128.63,164.36H61.65C64.48,147.05,126.24,58.79,220,31.29Z"/><path d="M350.72,391.86H289.3c-9.41,0-15.95-5.77-16.08-14.06-.12-8.5,6.45-14.42,16.22-14.43H410.29a27.77,27.77,0,0,1,8.36,1,13.91,13.91,0,0,1,9,15.5c-1.25,7-7,11.86-14.54,11.89C392.34,391.94,371.53,391.86,350.72,391.86Z"/><path d="M623.85,114.74c-15.84,0-30.29,0-44.75-.07a5.47,5.47,0,0,1-3.39-1.61,193.25,193.25,0,0,0-74.07-46.21c6.84-11.11,4-23.35,5-35.84C554.73,46.05,593.17,73.75,623.85,114.74Z"/><path d="M649,268.38H590.57a50.08,50.08,0,0,1-6-.23A14.12,14.12,0,0,1,572.1,253.7,14.3,14.3,0,0,1,585,240.05a38.15,38.15,0,0,1,4-.09H709.32a27.86,27.86,0,0,1,7.39.78,14,14,0,0,1-2.31,27.34c-4.29.43-8.64.26-13,.26Q675.2,268.41,649,268.38Z"/><path d="M663.29,208.52c.89,7.23,1.78,14.47,2.73,22.14H630.24c-1-7.21-2.1-14.4-3.24-22.14Z"/></svg>