<svg id="Layer_1" data-name="Layer 1" xmlns="http://www.w3.org/2000/svg" viewBox="0 0 428.7 530"><g id="Layer_2" data-name="Layer 2"><g id="Layer_1-2" data-name="Layer 1-2"><path d="M35.21,299.2c-.56,2.52-1.18,4.78-1.53,7.07A7.28,7.28,0,0,1,30,311.69a6.87,6.87,0,0,1-7.82-.16,6.35,6.35,0,0,1-3-6.74c1.45-6.1,2.73-12.23,4.08-18.34,1.49-6.77,3-13.53,4.46-20.3,1.3-6,2.52-12.1,3.83-18.14,1.36-6.36,2.8-12.72,4.18-19.08s2.69-12.73,4.07-19.09,2.76-12.52,4.12-18.79c1-4.49,1.91-9,2.89-13.47Q48.88,168,51,158.5q2-9,4-18.1c1.48-6.77,3-13.52,4.46-20.3A105.29,105.29,0,0,1,62.93,106a44,44,0,0,1,13.3-18.65C85,79.84,95.79,75.8,107.91,74c8.64-1.29,17.22-2.89,25.81-4.35,5.36-.91,10.7-1.88,16.07-2.69,2.58-.38,3.82-1.14,3.72-3.68-.25-6.16-.14-12.33,0-18.5,0-1.8-.62-2.55-2.84-2.49-4.2.11-8.41.09-12.61,0-2.14,0-3,.66-2.95,2.49.07,5.59-.09,11.17.11,16.75.07,2-.81,3-3,3.14-3,.26-5.87,1.35-8.79,1.34-.9-.83-.55-1.71-.56-2.51,0-6.08-.12-12.16,0-18.24,0-2.37-1-3-3.59-3-4.79.12-9.59,0-14.38.08-2.24.06-3.22-.42-3.06-2.5.2-2.48,0-5,0-7.42,1.18-.85,2.51-.68,3.76-.68h44c3.8,0,3.8,0,3.81-3.35V19h18.84c4.25,0,4.25,0,4.26-3.71V9.16h73.72c0,2.36.16,4.6,0,6.83s.61,3.11,3.42,3c5.47-.17,11,0,16.42,0a5.76,5.76,0,0,1,3.16.41c0,3,.16,6.15,0,9.28-.17,2.42.54,3.3,3.67,3.26,15-.15,29.91,0,44.85-.11,2.42,0,3.36.52,3.12,2.65a32.37,32.37,0,0,0,0,5.74c.12,1.69-.7,2.19-2.58,2.15-4.29-.09-8.6,0-12.9,0-5.48,0-5.48,0-5.48,4.54v16.5a3.71,3.71,0,0,1-.54,2.76c-3.45-.58-7-1.14-10.62-1.84-1.37-.26-1.17-1.38-1.17-2.29,0-5.5-.11-11,0-16.5,0-2.33-.69-3.34-3.62-3.21-4.09.18-8.21.08-12.31,0-1.73,0-2.48.51-2.47,2,0,6.75.07,13.5,0,20.25,0,1.66,1.18,1.92,2.58,2.15,6.6,1.13,13.24,2.09,19.81,3.34,12.06,2.31,24.63,3.08,36.17,7,17.37,6,28.71,16.89,32.91,32.58,3.84,14.18,6.42,28.58,9.5,42.89,2.92,13.58,6,27.13,9,40.7,3.7,17.1,7.26,34.22,11,51.31C397,258,400,271.5,403,285c1.45,6.62,2.8,13.26,4.23,19.88.82,3.79-1.49,6.9-5.76,7.69A7.72,7.72,0,0,1,393,307.1c-.46-2-.94-4.06-1.23-6.11-.23-1.57-1.18-1.86-2.82-1.69-14.79,1.6-29.59,3.15-44.38,4.75-4.54.5-9.08,1-13.59,1.71-6.92,1.09-13-1.17-19.25-3.1q-15.45-4.82-30.85-9.67c-2.91-.91-5.87-1.83-8.72-2.78s-3.78-.53-3.78,2V373.7c0,1.7.66,2.21,2.6,2.5,8.33,1.23,16.68,2.43,24.93,4,10.85,2.11,18.22,7.78,20.69,17.64,2,7.85,4.39,15.62,6.55,23.45,1.72,6.29,3.33,12.6,5,18.9q3.21,12,6.48,24,2.64,9.69,5.3,19.37c1,3.79,2.25,7.54,3.14,11.35,2.51,10.78-4.13,21.37-16.56,24.91-11.85,3.38-22.93-.84-29.33-9a23.53,23.53,0,0,1-3.87-9c-2.18-8.49-4.52-17-6.94-25.39-2.25-7.88-4.13-15.85-6.27-23.76s-4.37-15.63-6.54-23.45a62.68,62.68,0,0,1-1.6-6.56,3.91,3.91,0,0,0-3.81-3.51c-9.09-1.42-18.22-2.74-27.25-4.39-8.56-1.56-17.3-2.39-25.7-4.63-3.19-.85-5.87.73-8.83,1.15-7.09,1-14.13,2.37-21.19,3.57q-11.16,1.9-22.3,3.77c-1,.18-2.11.31-3.17.43-3.69.42-4.43,1.18-5.25,4.35-1.59,6.23-3.4,12.43-5.09,18.64-2.22,8.16-4.4,16.32-6.63,24.48-2.11,7.74-4.22,15.49-6.4,23.22-1.65,5.8-2.69,11.73-5.08,17.36-2.75,6.47-8.22,10.61-15.71,12.77-13,3.77-25.88-2.44-30.63-12a18.79,18.79,0,0,1-1.35-13.16c1.27-5.27,2.82-10.49,4.28-15.73,1.8-6.52,3.65-13,5.43-19.57C95,453.2,96.66,447,98.35,440.77c1.85-6.83,3.75-13.65,5.59-20.48,1.73-6.38,3.52-12.75,5.06-19.17,1.82-7.66,5.09-14.44,13.69-18.41,4.53-2.1,9.56-2.65,14.47-3.53,6.46-1.17,13-2.13,19.48-3.15,1-.16,1.57-.55,1.54-1.47V292.88c0-3.46-.49-3.63-4.42-2.38-10.08,3.21-20.23,6.29-30.34,9.42-5.56,1.72-11.18,3.31-16.67,5.16-4,1.33-7.91.94-11.86.55-7.54-.75-15-1.78-22.55-2.61-11.73-1.28-23.41-2.5-35.12-3.73C36.66,299.23,36.14,299.24,35.21,299.2ZM153.46,78.93c-1.36.09-2.24.08-3.08.22-15,2.61-30.13,4.85-45,7.95C89.76,90.31,79.94,99,75.89,112.31c-1.71,5.64-2.64,11.4-3.89,17.11-1.4,6.29-2.83,12.58-4.18,18.86s-2.6,12.58-3.95,18.86c-1.45,6.7-2.94,13.39-4.4,20.08-1.33,6.07-2.62,12.15-3.94,18.23Q52.85,217.71,50.22,230c-1.39,6.36-2.82,12.72-4.19,19.09-1.44,6.71-2.79,13.42-4.24,20.12-.47,2.11.48,2.77,2.88,2.91,4.38.25,8.73.74,13.1,1.22q19.93,2.18,39.76,4.41a6.86,6.86,0,0,0,2.85-.36c6.94-2.16,13.91-4.26,20.84-6.43,12.3-4,24.71-8,37.16-11.72,6.19-1.9,12.35-4,19.17-4,23.85.07,47.7,0,71.56,0a34.51,34.51,0,0,1,10.09,1.23c20.65,6.41,41.26,12.89,61.93,19.24,2.62.8,5.18,2.15,8.11,1.88,6.3-.6,12.59-1.34,18.88-2,11.22-1.21,22.43-2.51,33.68-3.56,2.8-.26,3.52-1,3-3.27-2.19-10.05-4.22-20.12-6.4-30.17-2.12-9.8-4.42-19.57-6.53-29.37-2.16-10-4.14-19.95-6.32-29.91s-4.48-19.72-6.6-29.61c-2.69-12.5-5.08-25-8.28-37.46-2.21-8.62-8-15.2-16.26-20.28-7.31-4.46-15.95-5.55-24.42-7-9.07-1.58-18.11-3.18-27.21-4.62-3.08-.48-6.12-1.46-9.77-1.27V88h-3.33c-14.17,0-28.34.07-42.51-.06-2.92,0-3.52.79-3.52,3.12.09,23.08,0,46.16,0,69.24a3.87,3.87,0,0,1-.54,2.86,83.19,83.19,0,0,0-19.76-.1,3.15,3.15,0,0,1-.53-2.51V91.31c0-3.31,0-3.31-3.76-3.31H156.85a6.26,6.26,0,0,1-3.43-.43Z" fill="#010101"/><path d="M290.06,510.55H136.52c1.36-4.55,2.72-8.92,4-13.31.31-1.12,1.17-1.16,2.14-1.21,9.66-.41,19.31-.82,29-1.29s19.09-1.05,28.64-1.43c2.6-.1,2.67-1.28,2.67-2.93V447.64c0-5.17-.09-10.34,0-15.5.06-2.16-.73-2.91-3.33-2.88-9.77.11-19.55.05-29.33.06-3.06,0-6-.33-8.51-2.09-.86-.61-1.8-1.17-1.63-2.17s1.32-1.06,2.29-1.22c9.55-1.59,19.11-3.13,28.63-4.83,6.95-1.24,14-2.06,20.87-3.64,2.87-.66,5.5.71,8.21,1.11,9.6,1.42,19.13,3.07,28.68,4.67,5.26.88,10.56,1.8,15.74,2.79,2.34.44,2.65,1.63.72,3.12-2.46,1.88-5.58,2.23-8.74,2.24-9.77,0-19.54.07-29.33,0-2.62,0-3.59.57-3.52,2.93q.15,29.11,0,58.24c0,1.94.5,2.78,3,2.89,19,.83,38,1.8,57,2.7,1.29.06,2.11.21,2.47,1.52C287.36,501.81,288.71,506,290.06,510.55Z" fill="#010101"/><path d="M134.37,301.94a3.83,3.83,0,0,1,.66,3q0,33.22.07,66.46c0,2.35-.65,3.46-3.63,3.67a61.62,61.62,0,0,0-8,1.58c-1-.61-.57-1.61-.57-2.46q0-33-.09-66c0-2.06.66-3.14,3.1-3.7A87.43,87.43,0,0,0,134.37,301.94Z" fill="#010101"/><path d="M292.1,301.94c3.68,1.13,7.26,2.12,10.73,3.34,1.43.5.89,1.91.9,2.94v65.72a4.71,4.71,0,0,1-.41,2.83c-3.33-.83-6.73-1.5-10.16-2-1.88-.21-1.63-1.63-1.63-2.78V305.52A5.88,5.88,0,0,1,292.1,301.94Z" fill="#010101"/><path d="M405.9,270.3a14.46,14.46,0,0,1,13.53,10.21c1.85,5.93-1.37,12.16-7.75,15-1.65-4.12-2-8.42-3.06-12.59S406.87,274.64,405.9,270.3Z" fill="#010101"/><path d="M20.6,270.51c-1.84,8.42-3.64,16.63-5.46,24.9-5.46-1.7-9.58-8.23-8.14-14.6C8.23,275.39,14.72,270.38,20.6,270.51Z" fill="#010101"/><path d="M167.54,206.48c.1-21.54,20.66-38.93,45.93-38.85s45.68,17.61,45.58,39.15-20.8,39.24-46.17,38.95c-25.19-.13-45.49-17.64-45.34-39.11Z" fill="#010101"/><path d="M123.5,264.68a3.38,3.38,0,0,1-.65-2.84V91.63c0-1.8.4-2.72,2.76-2.9a57.9,57.9,0,0,0,7.44-1.32c1.48-.31,2,.2,2,1.35v169.5c0,2.18-.63,3.35-3.26,3.92C129,262.89,126.22,263.73,123.5,264.68Z" fill="#010101"/><path d="M303.15,264.67c-3.2-1-6.3-1.93-9.39-2.8-2-.55-2.2-1.78-2.2-3.32v-168c0-3.39,0-3.39,3.92-2.74a38,38,0,0,0,4.89.76c2.92.13,3.52,1.36,3.52,3.68q-.13,84.74-.08,169.46A4,4,0,0,1,303.15,264.67Z" fill="#010101"/></g></g></svg>