<svg height='100px' width='100px'  fill="#000000" xmlns="http://www.w3.org/2000/svg" xmlns:xlink="http://www.w3.org/1999/xlink" version="1.1" x="0px" y="0px" viewBox="0 0 513.072 117.643" style="enable-background:new 0 0 513.072 117.643;" xml:space="preserve"><g><path d="M74.822,32.102l-5.76,6.586c1.833,3.271,3.002,6.96,3.33,10.886l2.43-3.085V32.102z"></path><path d="M409.727,0H102.902L85.037,20.424c1.515,2.928,2.467,6.189,2.717,9.644l20.802-26.412h295.523l82.042,103.668H26.91   l31.586-40.106v-15.38c0-0.341-0.025-0.676-0.053-1.01L0,117.643h513.072L409.727,0z"></path><ellipse transform="matrix(0.2958 -0.9553 0.9553 0.2958 194.4018 329.6792)" cx="320.801" cy="32.989" rx="11.062" ry="11.064"></ellipse><path d="M270.029,31.791c0.548-0.131,2.486-0.531,4.908-1.014c3.734-0.748,8.791-1.736,12.912-2.539   c1.64-0.318,3.131-0.607,4.332-0.842l2.99,6.191c-10.873,5.176-14.867,8.419-23.244,18.344c-1.68,1.986-2.826,5.855-1.23,7.133   c4.633,3.771,29.604,0.191,40.654-0.695c5.266,1.612,13.916,3.688,23.695,3.703c5.648-0.002,11.688-0.705,17.646-2.672   c2.063-0.684,3.185-2.908,2.501-4.971c-0.682-2.064-2.906-3.184-4.968-2.502c-4.977,1.646-10.184,2.275-15.179,2.273   c-7.015,0.004-13.59-1.242-18.37-2.5c-1.878-0.493-3.475-0.983-4.718-1.397c-0.028-0.067-0.042-0.136-0.074-0.203l-13.936-28.853   c-0.775-1.604-2.54-2.49-4.288-2.152h-0.002c0,0-6.329,1.223-12.696,2.471c-3.185,0.625-6.376,1.254-8.799,1.742   c-1.213,0.244-2.232,0.451-2.974,0.609c-0.372,0.078-0.673,0.145-0.917,0.201c-0.126,0.029-0.23,0.055-0.364,0.09   c-0.069,0.017-0.14,0.037-0.268,0.08c-0.068,0.021-0.147,0.047-0.286,0.105c-0.154,0.076-0.313,0.1-0.852,0.475   c-1.752,1.287-2.129,3.75-0.842,5.5C266.688,31.768,268.464,32.289,270.029,31.791z"></path><path d="M357.199,46.659c4.43,0.905,8.519,2.617,9.617,7.405c0.58,2.535-0.385,5.32-1.725,7.428   c-3.18,4.998-10.004,7.097-15.385,8.484c-12.264,3.164-25.459,3.222-38.046,2.833c-1.212-0.037-2.823,0.982-0.764,1.046   c14.387,0.444,29.79,0.454,43.642-3.934c5.643-1.787,11.87-4.476,14.504-10.166c3.719-8.031-3.535-12.665-10.359-14.059   C357.865,45.529,355.307,46.272,357.199,46.659z"></path><path d="M337.111,45.669c3.661-0.509,7.47-0.676,11.138-0.189c1.071,0.142,2.455,0.188,3.408-0.428   c0.93-0.602-0.423-1.108-0.936-1.176c-4.954-0.657-10.046-0.549-14.995,0.139c-0.31,0.043-2.318,0.411-1.709,1.141   C334.637,45.897,336.287,45.784,337.111,45.669z"></path><path d="M300.51,68.038c-4.568,0.922-8.723,0.876-13.238-0.122c-2.649-0.585-5.146-0.634-7.768,0.122   c-2.303,0.664-1.787,2.656,0.532,1.987c2.825-0.815,5.556,0.264,8.358,0.719c4.237,0.689,8.479,0.122,12.648-0.719   C303.423,69.544,302.837,67.568,300.51,68.038z"></path><path d="M263.866,61.745c-6.225,1.49-12.196-0.071-18.327-1.193c-3.538-0.648-6.971-0.709-10.055,1.306   c-2.192,1.434,0.985,2.814,2.567,1.78c3.179-2.078,9.679,0.449,13.072,1.052c4.527,0.804,8.984,0.792,13.457-0.278   C266.994,63.834,266.26,61.172,263.866,61.745z"></path><path d="M48.553,25.017c2.563-5.265,7.94-8.9,14.191-8.913c8.723,0.018,15.777,7.072,15.794,15.797v16.723h5.577L84.111,31.9   c0-11.803-9.564-21.371-21.367-21.371c-9.388,0-17.34,6.061-20.211,14.475c0.973-0.106,1.961-0.166,2.961-0.166   C46.529,24.838,47.549,24.902,48.553,25.017z"></path><path d="M62.496,69.838h6.002l-0.002-18c0-12.703-10.295-22.998-23-23c-12.704,0.002-22.998,10.297-23,23h6.001   c0.019-9.389,7.61-16.98,16.999-16.998c9.387,0.018,16.982,7.609,17,16.998V69.838z"></path><path d="M167.777,56.867c14.57,1.057,29.782,0.805,44.09-2.28c4.385-0.946,8.346-2.627,12.488-4.278   c5.963-2.377,12.592-3.201,18.947-3.608c6.881-0.442,13.999-0.232,20.828,0.795c1.346,0.203,2.475-1.747,0.863-1.989   c-6.184-0.93-12.5-1.137-18.74-0.989c-5.303,0.127-10.591,0.748-15.775,1.859c-5.449,1.168-10.303,3.784-15.611,5.349   c-14.767,4.352-31.586,4.185-46.854,3.077C166.527,54.693,166.16,56.749,167.777,56.867z"></path></g></svg>