<svg height='100px' width='100px'  fill="#000000" xmlns="http://www.w3.org/2000/svg" xmlns:xlink="http://www.w3.org/1999/xlink" version="1.1" x="0px" y="0px" viewBox="0 0 256.527 331.267" style="enable-background:new 0 0 256.527 331.267;" xml:space="preserve"><g><path d="M132.933,0.591c-12.1-2.816-24.193,4.709-27.012,16.809c-0.54,2.321-0.697,4.643-0.517,6.898h44.851   C151.145,13.373,143.93,3.152,132.933,0.591z"></path><path d="M145.598,36.298h-35.529c2.605,3.359,6.171,6.003,10.411,7.463h14.694C139.276,42.34,142.913,39.751,145.598,36.298z"></path><path d="M251.264,18.017c0-2.761-2.238-5-5-5h-8.914c-2.762,0-5,2.239-5,5v8.281h-10.258c0.134,1.266,0.059,2.556-0.26,3.827   c-0.357,1.428-0.725,2.816-1.103,4.173h11.62v296.97h18.914V34.298h5.264v-8h-5.264V18.017z"></path><path d="M24.176,26.298v-8.281c0-2.761-2.238-5-5-5h-8.912c-2.762,0-5,2.239-5,5v8.281H0v8h5.264v296.97h18.912V34.298h11.631   c-0.38-1.358-0.753-2.739-1.111-4.166c-0.324-1.29-0.391-2.583-0.257-3.834H24.176z"></path><path d="M105.654,26.298H56.42c0.741,2.835,1.537,5.507,2.381,8h49.88h38.304h50.738c0.804-2.373,1.601-5.031,2.373-8h-50.095   H105.654z"></path><path d="M144.299,196.171c4.572,0,9.031-2.321,11.568-6.519c3.229-5.345,2.305-12.023-1.822-16.321l-12.327,22.588   C142.574,196.085,143.438,196.171,144.299,196.171z"></path><path d="M121.814,153.304l2.89-16.911l0.636-3.724h4.98l3.07,17.966l-3.966,7.267l-12.946,23.724l-8.682,15.908   c-3.572,6.546-1.166,14.745,5.381,18.317c2.055,1.121,4.271,1.653,6.457,1.653c4.779,0,9.41-2.543,11.861-7.035l8.241-15.1   l12.78-23.417l6.822-12.499c1.469-2.689,1.973-5.724,1.457-8.744l-7.465-43.683l8.678-36.979   c4.879,2.976,11.225,5.773,18.928,5.838c0.023,0,0.047,0,0.07,0c3.82,0,7.922-0.801,11.854-2.65   c5.967-2.784,11.309-7.795,15.754-14.897c3.619-5.78,6.762-12.987,9.458-22.041c0.196-0.656,0.389-1.324,0.579-2   c0.425-1.504,0.839-3.054,1.24-4.657c0.282-1.127,0.329-2.256,0.188-3.343c-0.09-0.688-0.255-1.359-0.496-2   c-1.006-2.673-3.26-4.826-6.24-5.571c-4.482-1.12-9.02,1.341-10.604,5.571c-0.119,0.317-0.226,0.642-0.31,0.979   c-0.087,0.35-0.177,0.679-0.264,1.021c-0.745,2.909-1.525,5.571-2.33,8c-0.227,0.686-0.455,1.352-0.686,2   c-2.888,8.139-6.013,13.44-8.785,16.556c-1.936,2.192-3.641,3.377-5.131,4.08c-1.496,0.689-2.832,0.943-4.297,0.953   c-3.432,0.077-7.918-1.914-11.393-4.391c-1.73-1.208-3.189-2.453-4.174-3.363c-0.488-0.452-0.859-0.82-1.09-1.055   c-0.117-0.117-0.199-0.2-0.238-0.247l-0.01-0.01c-2.084-2.297-5.084-3.269-7.939-2.865c-0.596-0.121-1.207-0.196-1.834-0.196   h-52.855c-0.523,0-1.033,0.059-1.535,0.144c-2.682-0.209-5.428,0.772-7.373,2.921v-0.003l-0.01,0.01   c-0.309,0.338-2.795,2.885-6.166,5.113c-3.377,2.286-7.512,4.003-10.73,3.942c-1.465-0.01-2.799-0.264-4.299-0.953   c-2.205-1.041-5.018-3.224-8.133-8.163c-1.928-3.06-3.907-7.162-5.788-12.473c-0.229-0.647-0.456-1.316-0.682-2   c-0.804-2.43-1.584-5.095-2.33-8c-0.088-0.341-0.176-0.675-0.263-1.021c-0.084-0.337-0.19-0.661-0.309-0.979   c-1.582-4.23-6.12-6.691-10.605-5.571c-2.979,0.746-5.234,2.899-6.24,5.571c-0.241,0.641-0.406,1.312-0.496,2   c-0.142,1.087-0.094,2.218,0.189,3.346c0.404,1.606,0.822,3.147,1.248,4.654c0.191,0.676,0.384,1.344,0.579,2   c3.806,12.771,8.476,21.904,14.181,28.44c3.326,3.788,7.063,6.649,11.024,8.497c3.932,1.85,8.033,2.65,11.853,2.65   c0.025,0,0.049,0,0.07,0c7.313-0.061,13.396-2.585,18.17-5.385l8.57,36.518l-8.602,50.347l-0.078,0.459   c-0.006,0.036-0.007,0.072-0.013,0.108c-0.052,0.314-0.084,0.626-0.112,0.938c-0.014,0.145-0.032,0.288-0.041,0.433   c-0.016,0.267-0.014,0.53-0.015,0.795c0.001,0.19-0.007,0.381,0.002,0.571c0.008,0.203,0.032,0.402,0.05,0.604   c0.021,0.244,0.037,0.488,0.072,0.73c0.021,0.152,0.056,0.3,0.083,0.451c0.05,0.279,0.097,0.559,0.164,0.834   c0.035,0.146,0.083,0.285,0.123,0.429c0.075,0.27,0.148,0.541,0.24,0.807c0.067,0.193,0.149,0.381,0.226,0.57   c0.081,0.205,0.157,0.412,0.248,0.612c0.123,0.267,0.263,0.526,0.402,0.786c0.062,0.114,0.116,0.233,0.181,0.347   c0.172,0.297,0.361,0.584,0.555,0.867c0.048,0.071,0.091,0.145,0.141,0.216c0.191,0.27,0.399,0.525,0.61,0.78   c0.068,0.082,0.13,0.169,0.201,0.25c0.181,0.209,0.377,0.404,0.57,0.602c0.12,0.122,0.234,0.248,0.359,0.366   c0.153,0.145,0.318,0.277,0.479,0.415c0.186,0.16,0.369,0.321,0.565,0.472c0.124,0.096,0.255,0.182,0.383,0.272   c0.247,0.176,0.495,0.351,0.758,0.512c0.032,0.02,0.061,0.043,0.093,0.063l14.789,8.936l12.945-23.725L121.814,153.304z"></path></g></svg>