<svg height='100px' width='100px'  fill="#000000" xmlns="http://www.w3.org/2000/svg" xmlns:xlink="http://www.w3.org/1999/xlink" version="1.1" x="0px" y="0px" viewBox="0 0 100 100" enable-background="new 0 0 100 100" xml:space="preserve"><g><path fill="#000000" d="M81.792,64.037l-5.121-10.239c-0.085-0.169-0.258-0.276-0.447-0.276h-1.678c-0.002,0-0.003,0-0.005,0   h-0.642c2.326-2.846,2.321-2.975,1.987-3.282c-0.297-2.471-1.758-13.478-4.348-14.849c-0.206-0.109-0.356-0.177-0.574-0.235   l-1.379,7.046c0.007,2.212-1.772,4.082-3.959,4.082h-0.982v2.064h0.548c0.276,0,0.5,0.224,0.5,0.5v8.146c0,0.276-0.224,0.5-0.5,0.5   h-0.548v1.942h3.224c0.276,0,0.5,0.224,0.5,0.5v13.78c0,0.216-0.139,0.408-0.344,0.475c-0.018,0.006-0.516,0.165-1.414,0.393v9.545   c0,2.298-1.87,4.168-4.168,4.168H38.903c-2.298,0-4.168-1.87-4.168-4.168v-9.545c-0.897-0.228-1.395-0.387-1.413-0.393   c-0.206-0.067-0.344-0.259-0.344-0.475v-13.78c0-0.276,0.224-0.5,0.5-0.5h3.876v-1.942h-0.549c-0.276,0-0.5-0.224-0.5-0.5v-8.146   c0-0.276,0.224-0.5,0.5-0.5h0.549v-2.064h-1.637c-2.188,0-3.967-1.87-3.967-4.168l-1.37-6.963c-0.239,0.085-0.457,0.177-0.576,0.24   c-2.589,1.37-4.049,12.376-4.347,14.848c-0.334,0.307-0.339,0.437,1.986,3.282h-2.336c-0.189,0-0.362,0.107-0.447,0.276   l-5.119,10.239c-0.121,0.243-0.027,0.537,0.212,0.665l1.146,0.611c0.225,0.118,0.501,0.051,0.646-0.156l1.533-2.21   c-0.308,3.727-0.989,12.084-1.221,16.032c-0.292,4.95,0.486,6.022,0.883,6.282l6.632,3.405c0.005,0.067,0.014,0.148,0.014,0.2   c0,0.16,0.077,0.311,0.206,0.404c1.784,1.297,5.466,1.465,5.643,1.472h15.437l15.456,0c0.156-0.006,3.839-0.174,5.623-1.471   c0.129-0.094,0.206-0.244,0.206-0.404c0-0.053,0.009-0.136,0.014-0.205l6.671-3.429c0.348-0.231,1.125-1.304,0.833-6.253   c-0.232-3.949-0.913-12.307-1.221-16.034l1.535,2.211c0.145,0.208,0.421,0.274,0.646,0.156l1.146-0.611   C81.819,64.574,81.913,64.279,81.792,64.037z M23.292,60.885l-2.313,3.336l-0.324-0.173l4.763-9.527h0.611L23.292,60.885z    M80.355,64.222l-2.316-3.337l-2.734-6.363h0.609l4.765,9.527L80.355,64.222z"></path><path fill="#000000" d="M43.812,18.533h2.444c0.19,0,0.364-0.107,0.448-0.278l2.065-4.165h3.785l2.065,4.165   c0.084,0.17,0.258,0.278,0.448,0.278h2.444c0.006,0,0.013,0,0.02,0c0.276,0,0.5-0.224,0.5-0.5c0-0.128-0.048-0.245-0.127-0.333   l-3.37-6.797c-0.084-0.17-0.258-0.278-0.448-0.278h-6.851c-0.19,0-0.364,0.108-0.448,0.278l-3.425,6.908   c-0.077,0.155-0.068,0.339,0.023,0.486S43.639,18.533,43.812,18.533z"></path><path fill="#000000" d="M28.61,33.896h44.112c0.135,0,0.263-0.054,0.357-0.15s0.146-0.226,0.143-0.361l-0.221-9.846   c0-2.298-2.068-4.168-4.61-4.168H32.94c-2.542,0-4.611,1.87-4.611,4.157l-0.219,9.857c-0.003,0.135,0.048,0.265,0.143,0.361   S28.476,33.896,28.61,33.896z"></path><path fill="#000000" d="M43.182,57.493h-0.549v1.942h16.729v-1.942h-0.549c-0.276,0-0.5-0.224-0.5-0.5v-8.146   c0-0.276,0.224-0.5,0.5-0.5h0.549v-2.064H42.633v2.064h0.549c0.276,0,0.5,0.224,0.5,0.5v8.146   C43.682,57.27,43.458,57.493,43.182,57.493z"></path><path fill="#000000" d="M59.362,35.018l-16.729-0.025v10.29h16.729V35.018z M50.672,42.543c-1.287,0-2.334-1.047-2.334-2.334   c0-1.287,1.047-2.333,2.334-2.333s2.334,1.046,2.334,2.333C53.006,41.496,51.959,42.543,50.672,42.543z"></path><path fill="#000000" d="M35.735,74.824v9.305c0,1.747,1.421,3.168,3.168,3.168h23.536c1.747,0,3.168-1.421,3.168-3.168v-9.305   c-2.869,0.66-8.133,1.597-14.936,1.597C43.869,76.421,38.604,75.483,35.735,74.824z"></path><path fill="#000000" d="M67.365,60.436h-2.724v6.041c0,0.276-0.224,0.5-0.5,0.5h-4.279c-0.276,0-0.5-0.224-0.5-0.5v-6.041H42.633   v6.041c0,0.276-0.224,0.5-0.5,0.5h-4.278c-0.276,0-0.5-0.224-0.5-0.5v-6.041h-3.376v12.909c1.495,0.434,7.746,2.076,16.693,2.076   s15.199-1.643,16.693-2.076V60.436z M50.672,74.389c-1.287,0-2.334-1.047-2.334-2.334c0-1.287,1.047-2.333,2.334-2.333   s2.334,1.046,2.334,2.333C53.006,73.342,51.959,74.389,50.672,74.389z"></path><path fill="#000000" d="M60.147,50.682v4.478c0,0.276,0.224,0.5,0.5,0.5h2.708c0.276,0,0.5-0.224,0.5-0.5v-4.478   c0-0.276-0.224-0.5-0.5-0.5h-2.708C60.371,50.182,60.147,50.405,60.147,50.682z"></path><path fill="#000000" d="M38.14,50.682v4.478c0,0.276,0.224,0.5,0.5,0.5h2.708c0.276,0,0.5-0.224,0.5-0.5v-4.478   c0-0.276-0.224-0.5-0.5-0.5H38.64C38.363,50.182,38.14,50.405,38.14,50.682z"></path><rect x="60.362" y="57.493" fill="#000000" width="3.279" height="8.483"></rect><path fill="#000000" d="M65.624,45.283c1.636,0,2.967-1.421,2.967-3.168l1.379-7.082l-5.328-0.008v10.257H65.624z"></path><rect x="60.362" y="35.022" fill="#000000" width="3.279" height="13.328"></rect><rect x="38.354" y="57.493" fill="#000000" width="3.278" height="8.483"></rect><rect x="38.354" y="34.989" fill="#000000" width="3.278" height="13.361"></rect><path fill="#000000" d="M32.744,42.029c0.007,1.833,1.338,3.254,2.974,3.254h1.637V34.985l-5.991-0.009L32.744,42.029z"></path></g></svg>