<svg height='100px' width='100px'  fill="#000000" xmlns="http://www.w3.org/2000/svg" xmlns:xlink="http://www.w3.org/1999/xlink" version="1.1" x="0px" y="0px" viewBox="0 0 100 100" style="enable-background:new 0 0 100 100;" xml:space="preserve"><g><path d="M8.64037,69.36578c-0.7358,0-1.41561-0.4794-1.63762-1.22011c-0.34678-1.15528-0.70535-2.35181-0.95192-3.57586   C4.07526,56.04867,4.93189,47.6798,8.35253,42.23448c1.81642-2.89114,4.27138-4.75569,7.09964-5.39128   c2.81942-0.65918,5.85006-0.04224,8.75691,1.77712c5.45612,3.41671,9.87584,10.5694,11.82095,19.1318   c0.45386,1.87634,0.68373,3.71339,0.83207,5.1005c0.1002,0.94112-0.5796,1.784-1.51974,1.8842   c-0.93915,0.08448-1.78302-0.57961-1.88322-1.51876c-0.13753-1.28495-0.34776-2.97857-0.76036-4.68398   c-1.72702-7.6036-5.67421-14.11382-10.30612-17.01379c-2.11801-1.32523-4.25173-1.78596-6.17817-1.34193   c-1.93135,0.43519-3.64364,1.77417-4.96493,3.87646C8.34762,48.67495,7.63638,56.2589,9.39581,63.84678   c0.22497,1.11795,0.55996,2.23589,0.88414,3.3165c0.27212,0.90379-0.24166,1.85866-1.14742,2.1298   C8.96946,69.3422,8.80344,69.36578,8.64037,69.36578z"></path><path d="M93.61797,57.67549c-0.53441,0-1.06097-0.24952-1.39497-0.7191c-0.54816-0.76822-0.36938-1.83705,0.40081-2.38521   c3.55228-2.53257,4.92171-9.72652,3.25953-17.1081c-2.01781-8.62822-7.69398-14.99305-12.37599-13.93601   c-0.06287,0.01473-0.12771,0.02554-0.19254,0.0334c-0.78983,0.22398-1.63271-0.12967-2.00798-0.87824   c-0.42242-0.84484-0.08056-1.87339,0.76625-2.29582c0.32026-0.16013,0.62283-0.21219,0.82912-0.22889   c6.64284-1.39006,13.8083,5.82353,16.31533,16.53931c1.98833,8.82077,0.09234,17.31047-4.60932,20.66038   C94.3076,57.57135,93.96181,57.67549,93.61797,57.67549z"></path><path d="M27.12085,85.3353c-0.67096,0-1.30754-0.39688-1.58064-1.05508c-0.3625-0.87234,0.0501-1.87241,0.92245-2.23589   l66.49713-27.65982c0.86449-0.35759,1.87241,0.04912,2.23589,0.92344c0.36348,0.87235-0.05108,1.87241-0.92343,2.23589   L27.77708,85.20367C27.56194,85.29208,27.33992,85.3353,27.12085,85.3353z"></path><path d="M44.00006,47.35266c-0.94505,0-1.7113-0.76625-1.7113-1.7113c0-11.59893-3.27918-17.56589-6.52987-18.33313   c-3.20943-0.75348-7.23914,2.99036-10.759,10.03007c-0.42144,0.84681-1.44999,1.18867-2.29582,0.76527   c-0.84484-0.42242-1.18769-1.45097-0.76527-2.29581c5.94437-11.88775,11.70601-12.51745,14.60599-11.82979   c5.74003,1.3547,9.16656,9.45342,9.16656,21.66339C45.71136,46.58641,44.94511,47.35266,44.00006,47.35266z"></path><path d="M51.69993,45.47043c-0.94505,0-1.7113-0.76625-1.7113-1.7113c0-8.21071-1.63271-14.46845-4.48259-17.16803   c-0.95487-0.90477-1.96869-1.32916-3.06797-1.25548c-3.42555,0.21121-6.12217,0.83306-8.00343,1.84982   c-0.83207,0.44895-1.87045,0.13852-2.31841-0.69159c-0.44895-0.83109-0.1395-1.86946,0.69159-2.31841   c2.35378-1.27218,5.43943-2.00994,9.43377-2.25554c2.04433-0.11592,3.9914,0.6464,5.61821,2.18775   c3.5788,3.39215,5.55141,10.37096,5.55141,19.65148C53.41123,44.70417,52.64498,45.47043,51.69993,45.47043z"></path><path d="M77.70543,37.82852c-0.94505,0-1.7113-0.76625-1.7113-1.7113c0-10.52912-2.94321-15.93416-5.8589-16.62084   c-2.84496-0.66703-6.52888,2.82728-9.66266,9.1145c-0.42046,0.84288-1.45195,1.18769-2.29287,0.76822   c-0.84681-0.42144-1.19064-1.44901-0.76822-2.29483c5.46988-10.97709,10.80812-11.55178,13.50769-10.91814   c5.32055,1.25155,8.49756,8.71074,8.49756,19.9511C79.41673,37.06226,78.65047,37.82852,77.70543,37.82852z"></path><path d="M84.77658,36.06024c-0.94505,0-1.7113-0.76625-1.7113-1.7113c0-10.86902-3.07288-16.22985-5.92767-16.61102   c-3.12985-0.4126-6.11432,0.19156-8.62331,1.75354c-0.80359,0.49708-1.85866,0.25149-2.35574-0.54915   c-0.49905-0.8026-0.25346-1.85768,0.54816-2.35672c3.19273-1.98539,6.9572-2.75262,10.88081-2.23982   c5.49149,0.73285,8.90034,8.39736,8.90034,20.00317C86.48788,35.29398,85.72163,36.06024,84.77658,36.06024z"></path><path d="M45.88426,77.57845c-0.11101,0-0.223-0.01179-0.33598-0.0334c-0.92638-0.18468-1.52858-1.08454-1.34389-2.01191   c4.49536-22.58682-0.58451-35.23198-15.52844-38.66048c-0.92147-0.21219-1.49714-1.12973-1.28593-2.05022   c0.21219-0.92147,1.12679-1.49813,2.05022-1.28593c16.88707,3.8745,22.98272,18.22899,18.11995,42.66465   C47.3981,77.01456,46.68391,77.57845,45.88426,77.57845z"></path><path d="M54.38182,73.87096c-0.10806,0-0.21809-0.00983-0.33008-0.03144c-0.92736-0.18076-1.53251-1.08061-1.35175-2.00798   c1.96672-10.08705,1.33996-18.61212-1.9235-26.00746c-2.79192,0.82127-4.80284,1.28397-6.55344,1.51384   c-0.94505,0.12083-1.79775-0.53736-1.91956-1.47356c-0.1228-0.93719,0.53638-1.79579,1.47356-1.91957   c1.81052-0.23774,4.09946-0.79966,7.4199-1.82133c0.80555-0.24265,1.66611,0.12673,2.03745,0.87923   c4.13384,8.3895,5.05728,18.03448,2.82532,29.48507C55.90058,73.30315,55.18344,73.87096,54.38182,73.87096z"></path><path d="M81.18697,62.8644c-0.0668,0-0.13361-0.00393-0.20237-0.01179c-0.93719-0.11003-1.60914-0.96077-1.49911-1.89992   c2.16712-18.42056-2.70351-29.21885-14.89285-33.01083c-0.90182-0.28096-1.4048-1.23976-1.12384-2.14158   c0.28096-0.90084,1.23583-1.40971,2.14159-1.1258c13.82008,4.29987,19.63183,16.64049,17.27412,36.67902   C82.78235,62.22389,82.0436,62.8644,81.18697,62.8644z"></path><path d="M86.94567,60.46937c-0.09824,0-0.19648-0.00786-0.29472-0.02554c-0.9313-0.16307-1.55412-1.04918-1.39301-1.97851   c1.32032-7.57806,0.85664-14.22974-1.56591-21.94041c-1.80954,0.56192-3.73303,0.99318-5.73904,1.28495   c-0.93916,0.14342-1.80365-0.50887-1.94118-1.44606c-0.13557-0.93522,0.51279-1.80365,1.44606-1.93921   c2.40682-0.35071,4.66825-0.91558,6.72339-1.67987c0.43224-0.15915,0.90968-0.1395,1.32817,0.05796   c0.41653,0.19746,0.73679,0.55504,0.88611,0.99122c3.04144,8.87578,3.73106,16.66505,2.23392,25.25692   C88.48407,59.88387,87.76104,60.46937,86.94567,60.46937z"></path><path d="M15.82646,40.22355c-0.76724,0-1.46571-0.51968-1.65924-1.29772c-0.22791-0.91754,0.33008-1.84589,1.24664-2.0738   l26.11945-6.50137c0.9195-0.2289,1.8449,0.3291,2.0738,1.24664c0.22791,0.91754-0.33008,1.84589-1.24664,2.0738l-26.11945,6.50137   C16.10152,40.20685,15.96301,40.22355,15.82646,40.22355z"></path><path d="M49.6448,31.83994c-0.76625,0-1.46571-0.52066-1.65825-1.2987c-0.22791-0.91754,0.33008-1.8449,1.24762-2.07282   l26.17643-6.50137c0.92344-0.22496,1.84687,0.33106,2.07281,1.24762c0.22791,0.91754-0.33008,1.8449-1.24762,2.07282   l-26.17643,6.50137C49.91986,31.82324,49.78233,31.83994,49.6448,31.83994z"></path><path d="M11.68279,69.51707c-5.14864,0-8.75397-1.16903-10.37489-3.55817c-1.46964-2.16909-1.93037-6.08485,4.22226-12.44083   c0.65525-0.67784,1.73783-0.69552,2.41861-0.0393c0.67882,0.65819,0.69651,1.74077,0.0393,2.42058   c-3.44913,3.5621-4.88831,6.6055-3.84797,8.13801c2.13962,3.15736,15.60605,4.02382,42.63223-7.08883   c0.87235-0.36741,1.87241,0.05698,2.23196,0.93129c0.35955,0.87431-0.05698,1.87241-0.93129,2.23196   C33.03476,66.29683,20.23144,69.51707,11.68279,69.51707z"></path><path d="M11.30457,77.32697c-3.09056,0-5.60839-0.42242-7.43856-1.29281c-2.15927-1.02757-2.99036-2.49917-3.30766-3.55228   c-0.88807-2.98054-0.53245-6.35795-0.18862-9.62337c0.09922-0.93915,0.95487-1.70934,1.88616-1.57966   c0.93915,0.09824,1.6278,0.88218,1.52858,1.82133c-0.33499,3.18291-0.63953,6.07895,0.05207,8.39933   c0.16995,0.56388,0.67489,1.05114,1.49911,1.44409c4.92171,2.33413,19.60825,0.70142,41.32076-8.23822   c0.8753-0.36741,1.87241,0.05502,2.23392,0.92933c0.35955,0.87432-0.05698,1.87438-0.93129,2.23393   C33.04262,74.01046,19.94458,77.32697,11.30457,77.32697z"></path><path d="M34.36293,35.60441c-0.13753,0-0.27703-0.0167-0.41653-0.05108c-0.91656-0.22987-1.47356-1.15822-1.24467-2.07576   c0.90182-3.60238,2.38816-6.24399,4.54546-8.07514c0.72303-0.61202,1.79971-0.52361,2.41174,0.19746   c0.61104,0.72008,0.52262,1.8007-0.19746,2.41174c-1.59342,1.35175-2.71824,3.4118-3.4393,6.29704   C35.82766,35.08572,35.13017,35.60441,34.36293,35.60441z"></path><path d="M67.77949,27.33476c-0.279,0-0.56389-0.06877-0.82716-0.21416c-0.82716-0.45779-1.12581-1.49911-0.66801-2.32627   c1.81543-3.27623,3.50512-5.70663,5.02191-7.2244c0.66801-0.66802,1.75256-0.66703,2.42058,0.00098s0.66801,1.75158,0,2.4196   c-1.27512,1.27316-2.81353,3.50709-4.4482,6.46208C68.96619,27.01647,68.38267,27.33476,67.77949,27.33476z"></path><path d="M24.47138,85.80881c-4.80677,0-9.73536-3.34205-13.5627-9.30311c-0.50985-0.79376-0.27899-1.85277,0.51575-2.3636   c0.79474-0.5069,1.85276-0.28096,2.36458,0.51673c3.55129,5.53275,8.1891,8.43862,12.10878,7.57806   c3.7851-0.91164,6.58389-5.21642,7.45428-11.50757c0.12771-0.93522,0.99318-1.58556,1.92841-1.46178   c0.93621,0.12968,1.59047,0.99416,1.4608,1.92939c-1.06981,7.74113-4.83624,13.11474-10.07625,14.37611   C25.93905,85.73219,25.20718,85.80881,24.47138,85.80881z"></path></g></svg>