<svg id="Layer_1" data-name="Layer 1" xmlns="http://www.w3.org/2000/svg" viewBox="0 0 957.96 1013.43">
  <path d="M41.76,65.11c.37-51.9,5.88-55.51,56.15-55.48C206.23,11.38,197-12.5,202.26,160.86c4,58.07,3.09,116.37,1.16,174.54-1.37,41.38,12.66,49.71,54.42,47.32,108.28-6.18,216.65-5.3,325,.32,37.55,1.95,49.43-10.31,47.65-43.06-1.53-27.94.2-56-.53-84-.47-18.2,4.75-41.82-23.47-43.83-24.54-1.76-49.82-7.25-63.11,28.28-17.91,47.87-52.65,81.71-104.4,95.3-16.06,5.17-40.55,7.67-46-14.43-2-8.25,9.46-22.36,16.48-23.49,73.24-11.72,96.06-56.33,106.19-120.92,1.25-16.16,23.78-55.84,42.45-24.55,7.2,13.15,21.86,10.73,33,11.09,42.55,1.37,85.16,1.07,127.75.62,24.06-.25,47.14,2.15,68.2-18.82,16-16,26.43.09,30.69,18.39C844.8,333.24,933.89,269.06,944.87,321c-6.17,19.26-21.36,18-30.84,16.87-54.17-6.41-91.06-37.81-116.1-85.66-7.7-14.71-18.43-34.14-31.89-38.39-51.39-16.22-63.32,5.83-57.55,74.73,5.07,60.62.61,121.35-.79,182.16-.63,27.44,18.58,46.65,34.49,47.41,59.69-.43,102.5,5.63,90.55,77.3-2.41,24-16.18,35.61-37.33,41.41C690.5,638.23,709.6,659.52,707,751c-.8,22,.31,38.63,31.29,38.05,29.42-.55,33.13-14.92,32.1-38a286.54,286.54,0,0,1,1.19-43.65c2.14-63.53,115.39-77.81,121.27-13.2C897.4,755,896,816.66,891.19,877.49c-2.18,27.66-30,37.68-56.52,37.26-90.06-2.29-33.55-86.54-106.31-76.64-26.21,2-19.87,22.18-21,37.89-.72,10-.47,20.15-.51,30.23-.08,20.39,8.2,30.39,30.53,29.65,31.31-1,94,2.33,94,2.33l-.31,45.55-326.14-.83,1.29-45.67s58.13-2.43,87.2-1.35c25.59,1,37.92-9.28,36.86-35.2-.46-11.19,3-23.7-1-33.28-4.65-11.26-13.86-25.8-23.89-28.5-16.45-4.44-35.43-3.69-42.31,20.76-14.44,82.48-130.37,68.21-125.88-14.33-.89-44.78-.35-89.68,1.89-134.41-1-82,126.41-75.21,124.3,2.78.91,14.52.76,29.12.6,43.69-.25,23.26,12.09,30.55,34,31.09,28.35.7,29.55-13.41,30.37-47.45-4.2-31.69,17.21-99.86-35.92-101.28-8.87,0-17.89-.63-26.84-1.08-56.62-2.82-71.5-28.65-66-83.15,1.32-13.1,4.69-42.31,83.6-37.29,35.33-.09,47.34-28.1,43.9-66.85-.89-10-15-17.11-25-17.21-123.57-1.2-247.15-.6-370.73-.8-26.7,0-26.52,17.73-26.69,36.66-3.16,168,.83,347.29-10,513.58l-152.24.9C31.63,723.34,39.53,382.63,41.76,65.11Zm97.1,639.1-13.92-3c-2.59-6.47,4.35-466.58-4-659.77l-9.13.82c-4.73,186.52-9.43,655.44-11.21,659.85-12.92,2.08-29.55,3.42-29.75,20.43l-.35,222.1A17.51,17.51,0,0,0,88,962.18l47.75.18a21.45,21.45,0,0,0,21.54-21.57L156.07,725.4A21.79,21.79,0,0,0,138.86,704.21Zm87.68-296.93.11,4H601.77l-.09-4Z"/>
</svg>
