<svg id="Layer_1" data-name="Layer 1" xmlns="http://www.w3.org/2000/svg" viewBox="0 0 191.06 189.58"><g id="Layer_2" data-name="Layer 2"><g id="Layer_1-2" data-name="Layer 1-2"><path d="M6.74,83.29c.69-19.35.49-41.51,1.74-63.64.17-3,.1-6,.19-9S10.16,6.05,13.05,6c6.73-.11,13.47-.06,20.2.08,2.34,0,3.31,1.43,3.46,4,.7,11.64,1,23.3,1.18,35,0,2.7.2,2.86,2.81,2.86h58c2.77,0,2.78,0,1.91-2.59-.55-1.38-1-2.79-1.44-4.22-.48-2.17.57-3.52,2.76-3.85,2.71-.42,5.37-1.19,8.15-1.12,2.14.05,1.39-1.61,1.56-2.69.2-1.25-.45-1.6-1.59-1.58-3.66,0-7.33.09-11,0-1.12,0-1.72.24-1.82,1.44-.17,2.1-1.48,2.74-3.44,2.72H82.05c-2.65,0-3.45-.82-3.48-3.41v-9c0-1.84.85-2.93,2.63-2.91,2.35,0,1.55-1,.84-2.06-2-3.05-5.22-4.19-8.47-5.24a33.39,33.39,0,0,0-8.9-1.14,4.77,4.77,0,0,1-4.22-6.75,3.64,3.64,0,0,1,3.4-2.49,32.58,32.58,0,0,1,16,2.83c3.51,1.69,7,3.31,9.41,6.51a16.6,16.6,0,0,1,3,6.47c.26,1.1.6,1.85,1.93,1.75a2.66,2.66,0,0,1,2.87,1.92c.39,1.18,1.1,1.44,2.25,1.44q21.48-.06,43-.06c1.08,0,2.16.06,3.24,0,1.4,0,2.8.19,3.12-1.92.17-1.13,1.48-1.43,2.64-1.36,1.36.08,1.94-.57,2.08-1.9.41-4.1,2.84-7,5.9-9.43,6.16-4.82,13.4-6.36,21-6.48a5,5,0,0,1,4.17,1.8c.92,1.21,1.68,2.72.85,4.17-1,1.79-2.35,3.54-4.76,3.49a26.45,26.45,0,0,0-11.41,2.12c-2.09.93-4.28,1.81-5.71,3.78-1.2,1.65-1,2.15.91,2.47a2.49,2.49,0,0,1,2.43,2.53,1.66,1.66,0,0,1,0,.32c-.06,3.17-.08,6.34,0,9.5.07,2-.91,3-2.76,3-4.33.07-8.66,0-13,0-1.6,0-2.73-.75-2.63-2.59.08-1.34-.5-1.62-1.81-1.58-3.58.12-7.16.06-10.74,0-1.31,0-2.29.07-2.21,1.81,0,1.37.09,2.53,1.91,2.47,2.61-.1,5.09.78,7.65,1.08,3,.36,4.24,2.3,2.95,5.06a35.74,35.74,0,0,0-3.3,16.19,74.89,74.89,0,0,0,3.14,18.38c2.53,8.91,5.9,17.61,7.34,26.79,1.23,7.87.84,15.73-2.52,23.19a10.08,10.08,0,0,1-3.41,4.21,4.59,4.59,0,0,0-2.21,4.6,21.45,21.45,0,0,1,0,3c0,1,.26,1.53,1.37,1.63a7.54,7.54,0,0,1,7.06,8,5.14,5.14,0,0,1-.06.55c-.13,1.24.05,2.5,0,3.75a6.91,6.91,0,0,1-6.46,6.71c-1.43.13-1.83.64-1.81,2,.08,4.41.13,8.83,0,13.24,0,1.93.82,2.48,2.56,2.42,2.16-.07,4.32,0,6.49,0,2.62,0,3.19.53,3.4,3.19.41,5.33-.54,6.38-6.06,5.9a76.9,76.9,0,0,0-15.17,0c-2.1.24-4.29-.33-6.44-.41-6.24-.25-12.45.65-18.7.45-3.41-.11-6.79-.54-10.21-.54-2.52,0-5,.65-7.46.55a17.38,17.38,0,0,1-2.49-.18c-3.22-.52-3.51-.88-3.58-4.2-.11-5.12,0-5.19,5-5.23h5.74c1.21,0,1.86-.27,1.85-1.65V161.3c0-1.3-.41-2-1.85-2a6.05,6.05,0,0,1-5-2.78,4.11,4.11,0,0,0-3.78-1.82c-16.41.06-32.81,0-49.22,0-2.74,0-2.82,0-2.77,2.75.15,8.17-1,16.28-1,24.43a4.56,4.56,0,0,1-4.37,4.2q-9.5.09-19,0c-3,0-4.63-1.81-4.73-4.69C7.58,149.63,6.58,117.84,6.74,83.29Zm63.89-25H41.15c-2.72,0-2.73,0-2.69,2.71.3,19.9.26,39.81.08,59.72-.07,7.3.09,14.62-.94,21.89-.27,1.92.44,2.56,2.51,2.56h50c1.39,0,2.39-.26,3-1.57a5.52,5.52,0,0,1,4.53-3.15c2.73-.16,2.87-1.58,2.64-3.59a6.27,6.27,0,0,1,0-1.5,3.77,3.77,0,0,0-1.86-4,11.54,11.54,0,0,1-4.11-5.17c-3.56-8.75-3.67-17.74-1.46-26.69,2.09-8.43,5-16.67,7.23-25.06a68.88,68.88,0,0,0,2.5-13.66c.13-1.92-.34-2.6-2.42-2.57C90.29,58.29,80.46,58.29,70.63,58.29Zm-46.5,14h0V11.34c0-.86-.6-1.1-1.34-1.13a1.09,1.09,0,0,0-1.2,1,1.48,1.48,0,0,0,0,.21V132.29c0,1.52-.52,2.13-2,2.07s-3.16,0-4.74,0c-2.45,0-3.06.55-3.11,2.54s.63,2.72,3.17,2.78h5.24c.62,0,1.27.22,1.3.9s-.74.77-1.3.79H14.9c-2.49,0-3.15.55-3.18,2.47s.8,2.76,3.21,2.8h5c.7,0,1.5.18,1.54,1,.05,1-.91.76-1.5.77H14.72c-2.23,0-3,.73-3,2.68s.85,2.7,3,2.71h5.74c.51,0,1,.25,1,.86s-.61.71-1.1.71c-1.75,0-3.5,0-5.25.05-2.67,0-3.45.63-3.41,2.75s.85,2.68,3.57,2.66h4.5c.68,0,1.57.05,1.61.82,0,1-.94.71-1.54.73h-5c-2.47,0-3.18.64-3.17,2.75s.61,2.58,3,2.64c1.74,0,3.49,0,5.24.05.65,0,1.5,0,1.45.91s-.87.61-1.41.62H14.21a2.27,2.27,0,0,0-2.53,2,2.07,2.07,0,0,0,0,.43c-.1,2.08.67,3,2.92,3.11,1.91.09,3.83,0,5.75,0,.49,0,1.08.11,1.06.77s-.6.7-1.1.7H14.54c-1.73,0-2.91.58-2.89,2.57s.84,2.85,2.94,2.87H30.83c1.74,0,2.89-.62,2.84-2.62s-.79-2.77-2.94-2.8H25.24c-.46,0-1.12-.09-1.14-.71s.61-.76,1.09-.78c1.75-.06,3.49,0,5.24-.08,2.64,0,3.2-.53,3.19-2.68s-.7-2.76-3.15-2.78h-5c-.56,0-1.32,0-1.24-.84.06-.51.67-.72,1.19-.72h5.49c1.61,0,2.74-.51,2.75-2.42,0-2.22-.56-3-2.63-3-1.74-.06-3.49,0-5.24,0-.56,0-1.31,0-1.32-.74s.75-.76,1.31-.77c1.83,0,3.66.09,5.49.07,2,0,2.48-1.4,2.46-3a2.25,2.25,0,0,0-2-2.49,2.78,2.78,0,0,0-.5,0h-5c-.75,0-2,.37-2-.75s1.32-.94,2.22-.93c1.58,0,3.16.05,4.74.05,1.76,0,2.55-.87,2.47-2.66s-.64-2.72-2.49-2.69-3.67,0-5.5,0c-.56,0-1.34,0-1.34-.74s.66-1,1.41-1H31.5c1.91,0,2.18-1.1,2.16-2.65s-.49-2.61-2.25-2.61H25.92c-.63,0-1.57.19-1.63-.7s.77-1.06,1.6-1h5.24c1.74,0,2.54-.84,2.55-2.57S33,134.21,31,134.3c-1.5.07-3-.05-4.5,0-1.77.12-2.47-.39-2.46-2.36C24.16,112.11,24.13,92.2,24.13,72.29Zm41,76.71v-.06H40.38c-.59,0-1.17,0-1.75.05a.92.92,0,0,0-.88.94V150a1,1,0,0,0,.94,1,8.69,8.69,0,0,0,1.25,0H89.87c.79,0,1.9.29,1.95-.93.06-1.41-1.13-1.11-2-1.11Zm41.45,19.55h0c0,2.16.07,4.33,0,6.49-.06,1.4.4,2,1.84,1.89a19.06,19.06,0,0,1,2,0c1.28,0,1.81-.68,1.59-1.93-.72-3.89-.21-7.81-.34-11.71-.1-3,0-3-3.19-3.07-1.49,0-1.87.5-1.82,1.87C106.68,164.22,106.58,166.38,106.58,168.55Zm32-.21c0-2.07-.08-4.15,0-6.22.08-1.57-.54-2.14-2-1.87-1.27.23-3.13-.74-3,1.95.16,4.14.12,8.3,0,12.44-.05,1.82.82,2,2.29,2s2.9.21,2.75-2.06c-.1-2.08,0-4.16,0-6.24Zm.09-31.54c-.38-.84,1-2.58-1.2-2.74-3-.23-3.84.31-3.88,2.17-.06,3.13.09,3.21,3.27,3.37,2.3.12,1.72-1.43,1.85-2.8Zm-32.08-.23c0,3,.06,3,1.58,3,3.16,0,3.41-.24,3.39-2.78,0-3,.36-2.23-3.63-2.71-2.27-.26-.82,1.79-1.3,2.49Z"/></g></g></svg>