<svg height='100px' width='100px'  fill="#000000" xmlns="http://www.w3.org/2000/svg" xmlns:xlink="http://www.w3.org/1999/xlink" version="1.1" x="0px" y="0px" viewBox="0 0 100 100" style="enable-background:new 0 0 100 100;" xml:space="preserve"><g><path d="M49.97089,99.99988C22.41738,99.99988,0,77.55695,0,49.97101C0,22.41751,22.41738,0.00012,49.97089,0.00012   c27.58594,0,50.02886,22.41738,50.02886,49.97089C99.99975,77.55695,77.55682,99.99988,49.97089,99.99988z M49.97089,3.42356   c-25.66689,0-46.54745,20.88057-46.54745,46.54745c0,25.69931,20.88057,46.60543,46.54745,46.60543   c25.69932,0,46.60543-20.90612,46.60543-46.60543C96.57632,24.30412,75.6702,3.42356,49.97089,3.42356z"></path><path d="M7.86976,75.35589c-0.848,0-1.58398-0.62888-1.69501-1.49161c-0.12184-0.93742,0.54044-1.79622,1.47785-1.91807   c3.41557-0.44021,6.88617-7.31655,6.60907-16.84988c-0.32623-9.70234-4.43061-16.36545-7.94936-16.36545   c-0.75563,0-1.39138,0.22305-2.13522,0.791c-0.75072,0.57778-1.82275,0.43137-2.39856-0.31935   c-0.57483-0.75072-0.43137-1.82471,0.31935-2.39856c1.37861-1.05336,2.76311-1.47982,4.27438-1.49652   c5.96349,0,10.9365,8.57233,11.31088,19.68276c0.31542,10.85789-3.80862,19.60317-9.59229,20.35192   C8.01716,75.35196,7.94248,75.35589,7.86976,75.35589z"></path><path d="M12.72093,43.69702c-0.44807,0-0.89516-0.17491-1.23023-0.52275c-0.65737-0.67899-0.6387-1.76281,0.04127-2.4192   c23.1681-22.3938,60.98011-31.6461,79.31963-19.41844c0.78609,0.52373,0.99834,1.58692,0.47559,2.37301   c-0.52471,0.78511-1.58987,0.99932-2.37399,0.4746c-15.4585-10.30468-50.83854-4.35691-75.0433,19.03129   C13.57778,43.53685,13.14935,43.69702,12.72093,43.69702z"></path><path d="M45.31329,60.49089c-9.24936,0-19.16689-0.48541-29.50105-1.4582c-0.94135-0.08844-1.63212-0.92366-1.54369-1.865   c0.08942-0.94135,0.9384-1.6449,1.86402-1.54271c20.44232,1.92396,39.20929,1.92593,54.27277,0.00589   c0.92562-0.11791,1.79622,0.54437,1.91413,1.48178c0.11988,0.93742-0.54436,1.79425-1.48178,1.91413   C63.17527,60.00351,54.57935,60.49089,45.31329,60.49089z M77.52145,57.95771c-0.80771,0-1.52502-0.57384-1.68027-1.39531   c-0.17491-0.92759,0.43628-1.82373,1.36583-1.99864c8.58609-1.61738,15.37989-3.9226,20.19078-6.85276   c0.80574-0.49524,1.86107-0.23484,2.35238,0.5709c0.4913,0.80771,0.23582,1.86009-0.57188,2.3514   c-5.16463,3.14633-12.34361,5.6009-21.33847,7.29493C77.7337,57.94788,77.6256,57.95771,77.52145,57.95771z"></path><path d="M58.07353,92.49663c-15.48405,0-31.44073-7.30672-46.31359-21.67256c-0.67997-0.65639-0.69864-1.73923-0.04225-2.4192   c0.65835-0.67997,1.74119-0.69962,2.42018-0.04127c23.35971,22.55888,49.39114,26.8588,71.43317,11.79728   c0.7802-0.53258,1.84535-0.33213,2.37793,0.44807s0.33212,1.84535-0.44807,2.37793   C78.18963,89.3503,68.2318,92.49663,58.07353,92.49663z"></path><path d="M73.91132,61.58159c-1.19289,0-2.37203-0.39501-3.28194-1.12804c-0.98065-0.78806-1.58791-1.89645-1.70975-3.12471   c-0.12578-1.20076,0.24761-2.39955,1.04746-3.37037c0.8706-1.05336,2.18534-1.73333,3.61209-1.86697   c1.42873-0.17294,2.85155,0.23386,3.92654,1.09464c0.98851,0.79199,1.59969,1.89841,1.71957,3.11685   c0.12577,1.20272-0.24762,2.40151-1.04747,3.37037c-0.87649,1.06319-2.20499,1.74512-3.64353,1.8709   C74.32795,61.5698,74.11964,61.58159,73.91132,61.58159z M74.2179,55.47759c-0.0845,0-0.16901,0.00393-0.25352,0.01376   c-0.01965,0.00393-0.03734,0.00589-0.05699,0.00589c-0.53061,0.04717-1.00423,0.28103-1.30098,0.64067   c-0.14935,0.1808-0.32034,0.47559-0.28299,0.84308c0.04127,0.40091,0.26727,0.65835,0.45004,0.80574   c0.35963,0.28693,0.87453,0.42449,1.41103,0.35374c0.58171-0.05109,1.0573-0.28496,1.35404-0.64459   c0.14936-0.18277,0.32034-0.47755,0.283-0.84702c-0.03931-0.38519-0.26924-0.64263-0.45397-0.79002   C75.05705,55.61122,74.65025,55.47759,74.2179,55.47759z"></path><path d="M58.7535,35.76731c-0.78806,0-1.49751-0.5483-1.67044-1.35011c-0.20045-0.92366,0.38715-1.83454,1.31081-2.03401   c7.74301-1.67536,14.83749-2.43885,21.1164-2.26296c0.94527,0.02653,1.69009,0.8136,1.66258,1.7579   c-0.02554,0.94429-0.84505,1.65669-1.75691,1.66357c-6.02343-0.17786-12.8251,0.56893-20.29886,2.18632   C58.99522,35.75454,58.87338,35.76731,58.7535,35.76731z"></path><path d="M66.28426,42.09929c-0.75465,0-1.44444-0.5031-1.65079-1.26757c-0.24565-0.91285,0.29675-1.85125,1.20862-2.0969   c4.15253-1.11527,7.71942-1.53976,10.89523-1.30884c0.94331,0.06976,1.65079,0.89025,1.58005,1.83258   c-0.06879,0.94429-0.91579,1.6449-1.8316,1.58103c-2.79456-0.2093-5.98216,0.1867-9.7554,1.20075   C66.58101,42.08061,66.43166,42.09929,66.28426,42.09929z"></path></g></svg>