<svg height="100px" width="100px" fill="#000000" xmlns="http://www.w3.org/2000/svg" xmlns:xlink="http://www.w3.org/1999/xlink" version="1.1" x="0px" y="0px" viewBox="0 0 100 100" style="enable-background:new 0 0 100 100" xml:space="preserve">
    <g>
        <path d="M87.4,77.4c-0.2-0.6-0.8-0.9-1.4-0.9h-8.5V14c0-0.8-0.7-1.5-1.5-1.5s-1.5,0.7-1.5,1.5v62.5h-9.4c0.2-0.3,0.4-0.6,0.4-1v-4   c0-0.4-0.2-0.8-0.4-1.1l-0.9-0.9l0.9-0.9c0.3-0.3,0.4-0.7,0.4-1.1v-4c0-0.4-0.2-0.8-0.4-1.1l-0.9-0.9l0.9-0.9   c0.3-0.3,0.4-0.7,0.4-1.1v-4c0-0.4-0.2-0.8-0.4-1.1l-2-2C62.8,52.2,62.4,52,62,52H51.5v-6c0-0.8-0.7-1.5-1.5-1.5s-1.5,0.7-1.5,1.5   v6H38c-0.4,0-0.8,0.2-1.1,0.4l-2,2c-0.3,0.3-0.4,0.7-0.4,1.1v4c0,0.4,0.2,0.8,0.4,1.1l0.9,0.9l-0.9,0.9c-0.3,0.3-0.4,0.7-0.4,1.1v4   c0,0.4,0.2,0.8,0.4,1.1l0.9,0.9l-0.9,0.9c-0.3,0.3-0.4,0.7-0.4,1.1v4c0,0.4,0.1,0.7,0.4,1H14c-0.6,0-1.2,0.4-1.4,0.9   c-0.2,0.6-0.1,1.2,0.3,1.6l8,8c0.3,0.3,0.7,0.4,1.1,0.4h56c0.4,0,0.8-0.2,1.1-0.4l8-8C87.5,78.6,87.6,78,87.4,77.4z M22.6,84.5   l-5-5h64.8l-5,5H22.6z M61.4,55l1.1,1.1v2.8L61.4,60H38.6l-1.1-1.1v-2.8l1.1-1.1H61.4z M37.5,64.1l1.1-1.1h22.8l1.1,1.1v2.8   L61.4,68H38.6l-1.1-1.1V64.1z M37.5,72.1l1.1-1.1h22.8l1.1,1.1v2.8L61.4,76H38.6l-1.1-1.1V72.1z"/>
    </g>
</svg>
