<svg id="Layer_2" data-name="Layer 2" xmlns="http://www.w3.org/2000/svg" viewBox="0 0 248.73 257.96"><path d="M79.35,257H44.09c-8.32,0-14.47-3.72-18-11.2s-2.41-14.63,2.94-21q47.11-55.72,94.28-111.42a19,19,0,0,1,15.09-7h71.25c8.33,0,14.4,3.91,17.83,11.42s2.21,14.5-3,20.73Q177.37,194.26,130.2,250a19.19,19.19,0,0,1-15.35,7ZM58.42,236.21A11,11,0,0,0,47.59,225.1,11.15,11.15,0,0,0,36.46,236a11,11,0,0,0,22,.23Zm149.65-120.8a11,11,0,0,0-10.95,11,11,11,0,1,0,21.91,0,10.86,10.86,0,0,0-10.72-11Z"/><path d="M35.32,130c-7.42-2.69-10.88-8.27-12-15.33a104.71,104.71,0,0,1,5.85-54.48A23.12,23.12,0,0,1,39.24,47.89c5.47-3.14,11.35-4.61,17-1.08s7.28,9.69,6.73,16a96.41,96.41,0,0,1-3.72,17.7c-1.09-5.82-2.12-11.62-3.4-17.37a9.66,9.66,0,0,0-11.4-7.53,9.24,9.24,0,0,0-2.19.73,9.37,9.37,0,0,0-5.53,10.21c2.19,12.12,4.45,24.22,6.9,36.28,1.15,5.65,4.79,7.63,12.37,7.64,1.8,9.39,3.58,18.73,5.58,29.26C45.85,153.59,42.27,170.47,55,189.08L39.09,207.83c.53-7.27,1-13.76,1.47-20.24.56-7.47,1.6-15,1.59-22.42,0-5.14-1.26-10.32-2.29-15.41C38.53,143.17,36.85,136.64,35.32,130Z"/><path d="M182,102.91h-6l6-19.55c-25.31,4.13-50.51,6.82-75.64,11.54l-1.8-4.66c2.36-.77,4.77-1.94,7.3-2.32,24-3.58,47.93-7,72-10.53l.69-2.24c-2.81-.75-5.7-1.11-8.14-2.35-1-.51-1.76-3.17-1.36-4.46,5.39-17.48,11-34.89,16.57-52.31,1.41-4.4,4.54-3.05,7.56-2.13s4.36,2.61,3.35,5.77l-7.22,22.82,4.94,1.67Z"/><path d="M89.92,22.41a22.9,22.9,0,1,1,0-.15A.76.76,0,0,1,89.92,22.41Z"/><path d="M59.36,92.56c11.91-1.13,23.51-2.18,35.1-3.37,5.33-.54,9.24,1.89,9.84,6.43s-2.59,8.21-8,8.74l-42,4a7.46,7.46,0,0,1-8.52-6.23v-.06Q42.27,84.46,39,66.79a7.5,7.5,0,0,1,5.65-9c.24-.05.48-.09.73-.12,4-.67,7.71,2.08,8.58,6.51C55.73,73.57,57.51,83,59.36,92.56Z"/><path d="M89.58,107.15l7.77-.73L90,116.06c10,3.21,8.66,12.06,10.14,19.62l-20.29,24c-1.17-7.54-2.28-14.66-3.39-21.86l-2.73-.52c-3.12,4.06-6.25,8.13-9.57,12.47,3.7,8.33,1.72,17.07,1.18,25.75a5.67,5.67,0,0,1-1.31,2.8c-2.34,2.91-4.8,5.73-7.48,8.89-3.14-8.82-8.69-16.8-5.64-26.59a23.16,23.16,0,0,1,3.35-7.17C65.9,138,77.74,122.62,89.58,107.15Z"/><path d="M224,144.92v85.46c0,9.86-7,17.26-16.86,17.33-23.16.16-46.31,0-69.47,0a4.8,4.8,0,0,1-.94-.24c1.58-1.88,3-3.63,4.58-5.45H204c10.4,0,14.36-4,14.36-14.29,0-23.24.15-46.47-.1-69.71C218.16,152.65,219,148.21,224,144.92Z"/><path d="M58.19,110.36l22.29,4c-5.59,7.3-11,14.31-16.36,21.33L63,135.64C61.45,127.42,59.85,119.17,58.19,110.36Z"/><path d="M192.12,256.8v-5.48H209.7v5.48Z"/></svg>