<svg height='100px' width='100px'  fill="#000000" xmlns="http://www.w3.org/2000/svg" xmlns:xlink="http://www.w3.org/1999/xlink" version="1.1" x="0px" y="0px" viewBox="0 0 100 98.158" enable-background="new 0 0 100 98.158" xml:space="preserve"><g><path d="M74.309,45.319l-1.454-1.129c-0.456,0.202-0.957,0.318-1.487,0.318c-2.035,0-3.685-1.65-3.685-3.685   c0-0.206,0.028-0.404,0.061-0.601l-2.073-1.609c-2.313-1.735-3.74,0.923-5.548,3.332s-3.312,3.659-0.999,5.394l1.914,1.486   c0.471-0.218,0.99-0.348,1.542-0.348c2.035,0,3.685,1.65,3.685,3.685c0,0.229-0.027,0.451-0.067,0.668l1.565,1.215   c2.313,1.735,3.436-0.024,5.244-2.433C74.813,49.203,76.621,47.054,74.309,45.319z"></path><path d="M90.134,57.248l-12.51-9.515c-0.201,1.763-1.38,3.35-2.542,4.891c0,0-1.735,2.306-2.428,2.964l11.874,9.031   c2.511,1.91,4.099,0.418,5.647-1.618C91.723,60.966,92.646,59.158,90.134,57.248z"></path><g><path d="M58.925,39.738c1.333-1.823,2.822-3.896,5.229-3.942c-0.073-0.175-0.19-0.332-0.362-0.468l-5.171-4.347    c-1.401-1.106-3.34,1.802-5.519,4.564c-2.179,2.762-3.775,4.332-2.373,5.438l4.975,4.182    C55.843,43.767,57.384,41.847,58.925,39.738z"></path></g><path d="M79.093,78.875c-0.218-0.314-53.471-51.593-53.471-51.593l46.272,57.362c0.573,0.539,4.471,2.371,4.576,3.238   c0.128,1.055-1.489,3.358-2.551,3.402c-0.704,0.029-2.312-3.19-2.716-3.682c0,0-60.304-74.592-60.99-74.774   c-2.43-2.289-9.058-6.533-9.152-9.145C1.025,2.684,2.893,0.85,3.895,0.85c3.381,0,6.312,8.571,9.562,9.606   c0.224,0.241,35.343,26.99,35.343,26.99c0.456-0.726,4.965-6.442,5.77-7.246L20.393,4.206c-0.603-0.933-2.341-1.863-3.174-2.222   C13.942,0.571,6.516-0.545,3.045,0.283C2.299,0.461,0.816,1.289,0.493,1.984c-1.56,3.366,0.99,10.884,1.984,14.458   c0.223,0.801,3.101,4.454,3.256,4.5l58.315,72.542c0.421,0.512,2.193,2.162,2.499,2.336c2.742,1.567,9.494,3.03,12.474,1.984   c0.994-0.349,2.531-2.11,2.835-3.118C82.923,91.146,82.087,81.125,79.093,78.875z"></path><g><path d="M93.672,58.199c0.29,0.795,0.221,2.285,0.209,2.359c2.207,0.562,3.852,2.55,3.852,4.929c0,2.814-2.289,5.103-5.103,5.103    c-2.069,0-3.846-1.243-4.646-3.017c-0.399,0.114-2.028,0.134-2.409,0.042c0.916,3.03,3.73,5.243,7.055,5.243    c4.064,0,7.371-3.307,7.371-7.371C100,61.778,97.243,58.708,93.672,58.199z"></path></g></g></svg>