<svg height='100px' width='100px'  fill="#000000" xmlns="http://www.w3.org/2000/svg" xmlns:xlink="http://www.w3.org/1999/xlink" version="1.1" x="0px" y="0px" viewBox="0 0 271.061 359" style="enable-background:new 0 0 271.061 359;" xml:space="preserve"><g><g><path style="" d="    M266.561,179.5c0,94.95-33.011,172.24-74.181,174.92v0.08H80.89c-10,0-19.55-4.4-28.3-12.4c-9.71-8.88-18.44-22.2-25.72-38.859    c-7.06-16.17-12.74-35.49-16.61-56.972c-1.15-6.339-2.13-12.869-2.94-19.559C5.48,211.689,4.5,195.86,4.5,179.5    c0-5.65,0.12-11.24,0.35-16.75c0.26-6.271,0.66-12.44,1.2-18.5c1.68-18.84,4.69-36.59,8.79-52.69    c1.45-5.739,3.05-11.27,4.77-16.569c5.28-16.222,11.76-30.271,19.13-41.46c3.04-4.631,6.24-8.76,9.57-12.36    C58.19,10.479,69.24,4.5,80.89,4.5h111.49v0.08C233.55,7.26,266.561,84.54,266.561,179.5z" fill="none" stroke="#000000" stroke-width="9" stroke-linecap="round" stroke-linejoin="round" stroke-miterlimit="10"></path><path style="" d="    M164.648,332.481c-12.887-16.476-20.81-36.258-26.545-56.209c-6.391-22.234-10.082-45.169-11.717-68.229    c-1.67-23.55-1.337-47.272,1.219-70.747c2.45-22.502,6.759-45.001,14.212-66.409c6.072-17.439,14.189-35.421,26.674-49.279    c1.443-1.604,2.953-3.145,4.539-4.605" fill="none" stroke="#000000" stroke-width="9" stroke-linecap="round" stroke-linejoin="round" stroke-miterlimit="10"></path><path style="" d="    M186.469,84.377c3.125-3.161,6.457-4.869,9.914-4.869c17.842,0,32.307,45.443,32.307,101.5c0,56.056-14.465,101.5-32.307,101.5    c-6.519,0-12.588-6.067-17.664-16.504" fill="none" stroke="#000000" stroke-width="9" stroke-linecap="round" stroke-linejoin="round" stroke-miterlimit="10"></path><path style="" d="    M248.471,182.597c0,71.547-21.307,129.549-47.588,129.549c-26.283,0-47.59-58.002-47.59-129.549    c0-71.549,21.307-129.55,47.59-129.55c10.965,0,21.064,10.097,29.111,27.063" fill="none" stroke="#000000" stroke-width="9" stroke-linecap="round" stroke-linejoin="round" stroke-miterlimit="10"></path><polyline style="" points="    124.268,186.832 92.268,203.391 57.935,238.282 48.268,226.832 85.062,188.166 126.076,167.499   " fill="none" stroke="#000000" stroke-width="9" stroke-linecap="round" stroke-linejoin="round" stroke-miterlimit="10"></polyline><path style="" d="    M59,191.439l-9.67,11.45L21,170.001l-16.15-7.25c0.26-6.271,0.66-12.441,1.2-18.5l22.16,10.519L59,191.439z" fill="none" stroke="#000000" stroke-width="9" stroke-linecap="round" stroke-linejoin="round" stroke-miterlimit="10"></path><polyline style="" points="    129.393,113.121 97.393,129.68 63.06,164.571 53.393,153.121 90.187,114.455 135.528,92.293   " fill="none" stroke="#000000" stroke-width="9" stroke-linecap="round" stroke-linejoin="round" stroke-miterlimit="10"></polyline><path style="" d="    M64.12,117.729l-9.66,11.45L28.12,97.29l-13.28-5.73c1.45-5.739,3.05-11.27,4.77-16.569l15.72,7.069L64.12,117.729z" fill="none" stroke="#000000" stroke-width="9" stroke-linecap="round" stroke-linejoin="round" stroke-miterlimit="10"></path><polyline style="" points="    152.971,317.79 118.57,339.54 106.12,354.5 86.38,354.5 110.13,324.96 145.6,302.3   " fill="none" stroke="#000000" stroke-width="9" stroke-linecap="round" stroke-linejoin="round" stroke-miterlimit="10"></polyline><polyline style="" points="    131.957,255.218 101.445,274.383 70.137,312.011 59.549,301.406 92.998,259.811 129.786,234.805   " fill="none" stroke="#000000" stroke-width="9" stroke-linecap="round" stroke-linejoin="round" stroke-miterlimit="10"></polyline><path style="" d="    M59.55,267.42l-8.68,12.21l-29.12-31.91l-11.49-1.45c-1.15-6.34-2.13-12.871-2.94-19.56l20.34,5.24L59.55,267.42z" fill="none" stroke="#000000" stroke-width="9" stroke-linecap="round" stroke-linejoin="round" stroke-miterlimit="10"></path><path style="" d="    M59.55,332.3l-6.96,9.8c-9.71-8.88-18.44-22.2-25.72-38.858L59.55,332.3z" fill="none" stroke="#000000" stroke-width="9" stroke-linecap="round" stroke-linejoin="round" stroke-miterlimit="10"></path><polyline style="" points="    152.766,42.402 121.632,57.313 85.211,90.019 76.269,77.993 115.38,41.674 164.575,23.466   " fill="none" stroke="#000000" stroke-width="9" stroke-linecap="round" stroke-linejoin="round" stroke-miterlimit="10"></polyline><polyline style="" points="    48.31,21.17 71.96,46.02 62.3,57.47 38.74,33.53   " fill="none" stroke="#000000" stroke-width="9" stroke-linecap="round" stroke-linejoin="round" stroke-miterlimit="10"></polyline><polyline style="" points="    98.54,4.5 87.84,14.439 96.78,26.46 121.24,4.5   " fill="none" stroke="#000000" stroke-width="9" stroke-linecap="round" stroke-linejoin="round" stroke-miterlimit="10"></polyline></g></g></svg>