<svg id="Layer_1" data-name="Layer 1" xmlns="http://www.w3.org/2000/svg" viewBox="0 0 1024 1024"><path d="M192.05,510c0,36.34.15,72.67-.08,109-.07,11.29,3.73,26.52-11.63,29.45-14.67,2.8-32.18,7.44-42.86-11.17C126.27,655.5,108.7,651.33,94,647.88,88.3,646.54,82.32,632.74,82,624.43c-1.26-38.16-.55-76.39-.55-117.31H4.92V465.79H81.49c0-38.49-.12-74.69.07-110.89.06-12-3.5-27,12.26-31.4,15.4-4.31,32.1-6.42,43.48,11,11.63-18,28.73-15.22,44.12-10.11,5.25,1.75,9.92,13.4,10.15,20.68,1.07,33.29.48,66.63.48,99.95V462.7c13.86,5.25,21.93,1.68,29.84-8.85,34.82-46.36,70.71-91.9,105.78-138.06,18.21-24,42.41-35.17,71.82-35.27q112-.42,224,0c30.27.08,54.61,12,73.14,36.5q52,68.58,105,136.34c4.52,5.77,11.83,9.36,17.84,14l5.07-3.32c0-37.39-.09-74.78,0-112.17,0-11.4-3.21-25.73,12.63-28.83,14.7-2.88,31.11-6.31,38.74,6.72,12.75-3,23.84-6.83,35.19-7.92,17.24-1.65,24.21,8.07,24,24.85-.35,38.76-.11,77.52-.11,118.19H1018v40.91H935.14v98c0,4.32.06,8.64,0,13-.21,12.1,3.21,27.9-12.07,31.44-14.64,3.39-32.37,7.74-43.78-10.94-11.5,18.67-29,13.72-44.3,10.3-4.78-1.07-9.71-13.44-9.93-20.77-1-34.53-.24-69.11-.7-103.66-.07-5.4-3.19-10.77-4.9-16.15-5.45,3.1-12.5,4.93-16.08,9.5Q749.13,585.63,696,655.61c-18.14,23.84-41.71,35.33-71.59,35.24q-112.95-.33-225.9,0c-29.93.07-53.37-11.8-71.47-35.57C291.87,609.12,256.69,563,220.61,517.66,215.33,511,205,508.39,197,503.9Zm118.41,18.92c3.82,39.35,5.72,76.07,33.52,103a24.83,24.83,0,0,1,3.32,4.44c12.68,19.21,31.08,27.36,53.51,27.37,74.05,0,148.13,1,222.13-.82,15.19-.37,33.77-7.21,44.47-17.59,26.61-25.82,49-55.24,40.73-97.19-2.14-10.94,13.24-21,21-21.77,4.9-1.85,10.17,2.17,10.71,26.86l51.58-67.36c-18-23.27-35.13-45.47-55-71.19l-5,12.82c-5,12.87-24.22,9.74-24.66-4.07a49.62,49.62,0,0,1,.78-9.95c4.4-25.35-3.07-47.08-21.77-65.11-5.27-5.08-9-11.69-13.62-17.5-11.4-14.44-26.15-21.94-44.74-21.92q-115.69.11-231.4,0c-19.23,0-33,9.08-46.16,23-30.23,32-42.95,67.61-34.85,112.87,0,0-4.35,11.68-14.55,6.18-8.65-4.66-18.68-13.18-24.73-21.95-12.93,16.79-28.16,36.59-43.86,57,15.7,20.41,31,40.27,48.23,62.71,2-13.9,16.35-31.1,22.84-26.86C303.85,520.63,310,524.05,310.46,528.88Z"/></svg>