<svg height='100px' width='100px'  fill="#000000" xmlns="http://www.w3.org/2000/svg" xmlns:xlink="http://www.w3.org/1999/xlink" version="1.1" x="0px" y="0px" viewBox="0 0 66 66" enable-background="new 0 0 66 66" xml:space="preserve"><g><path d="M52.11,44.0351c0.41-0.1801,0.83-0.3301,1.25-0.4601l-3.77-25.26h-2.64c-0.2,0-0.37-0.1-0.49-0.25h-7.57   c-0.47,0-0.84-0.38-0.84-0.84c0-0.47,0.37-0.8401,0.84-0.8401h7.49c0.07-0.1599,0.19-0.2899,0.36-0.3499l3.94-1.41l0.27-0.25   l-0.86-0.92l8.33-7.77l0.9,0.96l0.42-0.3899c0.33-0.3101,0.87-0.29,1.18,0.05c0.32,0.3398,0.29,0.8699-0.05,1.1799l-2.36,2.1899   c0.31,0.75,0.14,1.6201-0.44,2.1901l-5.45,5.35l3.86,25.91c3.38,0.0599,6.64,1.7899,8.52,4.84H43.47L52.11,44.0351z"></path><path d="M65,49.965c0,1.8401-0.76,3.51-1.96,4.71c-1.21,1.21-2.87,1.9501-4.71,1.9501h-11.4l0.51,1c0.1,0.2,0.31,0.33,0.54,0.33   h5.7c0.65,0,1.18,0.53,1.18,1.1799c0,0.6501-0.53,1.1801-1.18,1.1801h-5.7c-1.12,0-2.13-0.62-2.64-1.61l-1.07-2.08H23.43   l-1.06,2.33c-0.37,0.8301-1.2,1.36-2.11,1.36h-7.44c-0.91,0-1.74-0.5299-2.11-1.36l-1.06-2.33H5.27c-2.37,0-4.27-1.9-4.27-4.27   c0-1.3199,1.0699-2.39,2.39-2.39H65z"></path></g></svg>