<svg height='100px' width='100px'  fill="#000000" xmlns="http://www.w3.org/2000/svg" xmlns:xlink="http://www.w3.org/1999/xlink" xml:space="preserve" version="1.1" style="shape-rendering:geometricPrecision;text-rendering:geometricPrecision;image-rendering:optimizeQuality;" viewBox="0 0 210 348" x="0px" y="0px" fill-rule="evenodd" clip-rule="evenodd"><defs></defs><g><path d="M162 0l0 77 -67 20 0 -60 67 -37zm-77 100l-48 15 0 -46 48 -26 0 57zm-56 17l-29 9 0 -37 29 -16 0 44zm133 -32l0 53 -67 7 0 -41 67 -19zm-77 61l-48 6 0 -32 48 -13 0 39zm-56 7l-29 3 0 -25 29 -9 0 31zm133 -9l0 60 -67 -6 0 -48 67 -6zm-77 53l-48 -5 0 -36 48 -5 0 46zm-56 -6l-29 -3 0 -28 29 -3 0 34zm133 19l0 53 -67 -19 0 -41 67 7zm-77 32l-48 -14 0 -32 48 6 0 40zm-56 -16l-29 -9 0 -25 29 4 0 30zm133 45l0 77 -67 -37 0 -60 67 20zm-77 34l-48 -26 0 -46 48 15 0 57zm-56 -30l-29 -16 0 -37 29 9 0 44z"></path><rect class="fil0" x="174" width="36.1449" height="348.396"></rect></g></svg>