<svg height='100px' width='100px'  fill="#000000" xmlns="http://www.w3.org/2000/svg" xmlns:xlink="http://www.w3.org/1999/xlink" version="1.1" x="0px" y="0px" viewBox="0 0 307.23 307.448" style="enable-background:new 0 0 307.23 307.448;" xml:space="preserve"><g><g><circle style="" cx="151.326" cy="155.096" r="28.647" fill="none" stroke="#000000" stroke-width="9" stroke-linecap="round" stroke-linejoin="round" stroke-miterlimit="10"></circle><path style="" d="    M215.525,146.366c3.499,25.778-8.837,52.214-32.996,65.494c-2.617,1.438-5.285,2.676-8.004,3.714 M284.266,82.019    C244.603,9.865,153.952-16.476,81.797,23.188C9.643,62.852-16.698,153.503,22.966,225.657s130.311,98.487,202.465,58.823    C297.585,244.817,323.93,154.174,284.266,82.019z M87.634,143.309c2.791-15.077,10.893-29.06,23.445-38.98    c2.793-2.222,5.813-4.229,9.04-6.003c23.533-12.937,51.597-9.711,71.412,5.965c6.592,5.21,12.266,11.79,16.561,19.603    c3.951,7.188,6.395,14.797,7.435,22.474c3.499,25.778-8.837,52.214-32.996,65.494c-2.617,1.438-5.285,2.676-8.004,3.714    c-16.298,6.286-33.985,5.525-49.241-1.17c-12.624-5.521-23.574-15.103-30.722-28.104    C87.068,172.664,84.996,157.508,87.634,143.309z M111.079,104.328c2.793-2.222,5.813-4.229,9.04-6.003    c23.533-12.937,51.597-9.711,71.412,5.965 M87.634,143.309c-2.638,14.199-0.566,29.355,6.929,42.991    c7.147,13.002,18.098,22.583,30.722,28.104" fill="none" stroke="#000000" stroke-width="9" stroke-linecap="round" stroke-linejoin="round" stroke-miterlimit="10"></path><path style="" d="    M270.99,120.626c-1.819-6.453-4.202-12.813-7.177-19.038" fill="none" stroke="#000000" stroke-width="9" stroke-linecap="round" stroke-linejoin="round" stroke-miterlimit="10"></path><path style="" d="    M192.916,38.376c17.05,5.801,32.859,15.362,46.064,28.304" fill="none" stroke="#000000" stroke-width="9" stroke-linecap="round" stroke-linejoin="round" stroke-miterlimit="10"></path><path style="" d="    M258.498,91.593c-3.505-5.923-7.446-11.446-11.761-16.548" fill="none" stroke="#000000" stroke-width="9" stroke-linecap="round" stroke-linejoin="round" stroke-miterlimit="10"></path><path style="" d="    M273.599,131.771c3.027,16.46,2.576,33.172-1.062,49.132" fill="none" stroke="#000000" stroke-width="9" stroke-linecap="round" stroke-linejoin="round" stroke-miterlimit="10"></path><path style="" d="    M38.363,113.925c2.224-6.439,4.997-12.692,8.273-18.697" fill="none" stroke="#000000" stroke-width="9" stroke-linecap="round" stroke-linejoin="round" stroke-miterlimit="10"></path><path style="" d="    M112.452,39.007c-5.972,2.15-11.851,4.796-17.59,7.951c-7.852,4.315-15.047,9.373-21.533,15.035" fill="none" stroke="#000000" stroke-width="9" stroke-linecap="round" stroke-linejoin="round" stroke-miterlimit="10"></path><path style="" d="    M52.526,85.552c3.729-5.527,7.927-10.776,12.584-15.682" fill="none" stroke="#000000" stroke-width="9" stroke-linecap="round" stroke-linejoin="round" stroke-miterlimit="10"></path><path style="" d="    M35.132,124.912c-3.832,15.659-4.574,32.095-1.958,48.334" fill="none" stroke="#000000" stroke-width="9" stroke-linecap="round" stroke-linejoin="round" stroke-miterlimit="10"></path><path style="" d="    M177.26,273.511c-6.613,1.31-13.266,2.056-19.903,2.256" fill="none" stroke="#000000" stroke-width="9" stroke-linecap="round" stroke-linejoin="round" stroke-miterlimit="10"></path><path style="" d="    M229.834,249.072c-5.395,4.306-11.22,8.204-17.47,11.639c-7.791,4.284-15.848,7.629-24.038,10.063" fill="none" stroke="#000000" stroke-width="9" stroke-linecap="round" stroke-linejoin="round" stroke-miterlimit="10"></path><path style="" d="    M71.436,244.005c12.664,11.54,27.503,20.135,43.408,25.462" fill="none" stroke="#000000" stroke-width="9" stroke-linecap="round" stroke-linejoin="round" stroke-miterlimit="10"></path><path style="" d="    M146.028,275.565c-6.809-0.42-13.551-1.424-20.167-2.974" fill="none" stroke="#000000" stroke-width="9" stroke-linecap="round" stroke-linejoin="round" stroke-miterlimit="10"></path><circle style="" cx="151.326" cy="155.096" r="28.647" fill="none" stroke="#000000" stroke-width="9" stroke-linecap="round" stroke-linejoin="round" stroke-miterlimit="10"></circle><path style="" d="    M191.531,104.289c6.591,5.211,12.265,11.79,16.56,19.604c3.951,7.188,6.396,14.796,7.436,22.472" fill="none" stroke="#000000" stroke-width="9" stroke-linecap="round" stroke-linejoin="round" stroke-miterlimit="10"></path><path style="" d="    M125.285,214.403c15.256,6.696,32.943,7.457,49.242,1.171" fill="none" stroke="#000000" stroke-width="9" stroke-linecap="round" stroke-linejoin="round" stroke-miterlimit="10"></path><circle style="" cx="151.326" cy="155.096" r="28.647" fill="none" stroke="#000000" stroke-width="9" stroke-linecap="round" stroke-linejoin="round" stroke-miterlimit="10"></circle><path style="" d="    M141.802,110.632c23.531-4.779,47.629,9.618,53.708,33.032" fill="none" stroke="#000000" stroke-width="9" stroke-linecap="round" stroke-linejoin="round" stroke-miterlimit="10"></path><path style="" d="    M126.017,193.07c-15.319-10.189-22.55-29.816-18.985-47.66" fill="none" stroke="#000000" stroke-width="9" stroke-linecap="round" stroke-linejoin="round" stroke-miterlimit="10"></path><path style="" d="    M156.346,200.458c-2.969,0.327-5.97,0.36-8.946,0.101" fill="none" stroke="#000000" stroke-width="9" stroke-linecap="round" stroke-linejoin="round" stroke-miterlimit="10"></path><line style="" x1="111.079" y1="104.327" x2="112.453" y2="39.007" fill="none" stroke="#000000" stroke-width="9" stroke-linecap="round" stroke-linejoin="round" stroke-miterlimit="10"></line><line style="" x1="33.174" y1="173.245" x2="87.634" y2="143.309" fill="none" stroke="#000000" stroke-width="9" stroke-linecap="round" stroke-linejoin="round" stroke-miterlimit="10"></line><line style="" x1="191.531" y1="104.289" x2="192.916" y2="38.375" fill="none" stroke="#000000" stroke-width="9" stroke-linecap="round" stroke-linejoin="round" stroke-miterlimit="10"></line><line style="" x1="272.537" y1="180.903" x2="215.525" y2="146.366" fill="none" stroke="#000000" stroke-width="9" stroke-linecap="round" stroke-linejoin="round" stroke-miterlimit="10"></line><line style="" x1="229.834" y1="249.072" x2="174.525" y2="215.574" fill="none" stroke="#000000" stroke-width="9" stroke-linecap="round" stroke-linejoin="round" stroke-miterlimit="10"></line><line style="" x1="71.436" y1="244.005" x2="125.285" y2="214.403" fill="none" stroke="#000000" stroke-width="9" stroke-linecap="round" stroke-linejoin="round" stroke-miterlimit="10"></line><path style="" d="    M22.966,225.657c-10.054-18.291-15.865-37.77-17.763-57.304c0,0,5.147-4.157,13.329-5.222c8.182-1.064,13.587,1.722,13.587,1.722    c1.467,16.268,6.244,32.507,14.617,47.737c8.372,15.231,19.522,27.966,32.471,37.922c0,0-0.544,6.058-5.827,12.396    c-5.284,6.337-11.552,8.454-11.552,8.454C46.353,259.291,33.02,243.948,22.966,225.657z" fill="none" stroke="#000000" stroke-width="9" stroke-linecap="round" stroke-linejoin="round" stroke-miterlimit="10"></path><path style="" d="    M150.237,4.548c20.863-0.523,40.835,3.268,59.056,10.559c0,0,1.328,6.482-1.487,14.237c-2.814,7.757-7.772,11.276-7.772,11.276    c-15.123-6.173-31.74-9.393-49.115-8.957c-17.376,0.436-33.81,4.486-48.604,11.411c0,0-5.129-3.267-8.331-10.872    c-3.2-7.604-2.2-14.145-2.2-14.145C109.617,9.861,129.371,5.071,150.237,4.548z" fill="none" stroke="#000000" stroke-width="9" stroke-linecap="round" stroke-linejoin="round" stroke-miterlimit="10"></path><path style="" d="    M277.997,236.962c11.621-17.335,19.123-36.228,22.731-55.519c0,0-4.76-4.595-12.816-6.374c-8.058-1.78-13.687,0.52-13.687,0.52    c-2.891,16.076-9.079,31.831-18.757,46.268c-9.679,14.437-21.906,26.141-35.683,34.921c0,0,0.011,6.081,4.716,12.858    c4.706,6.777,10.764,9.438,10.764,9.438C251.741,268.409,266.372,254.298,277.997,236.962z" fill="none" stroke="#000000" stroke-width="9" stroke-linecap="round" stroke-linejoin="round" stroke-miterlimit="10"></path><path style="" d="    M263.813,101.588l1.861-1.023c1.374-0.755,2.304-1.99,2.714-3.379c0.398-1.392,0.274-2.934-0.479-4.307    c-1.506-2.74-4.947-3.74-7.688-2.234l-1.724,0.948" fill="none" stroke="#000000" stroke-width="9" stroke-linecap="round" stroke-linejoin="round" stroke-miterlimit="10"></path><path style="" d="    M273.599,131.771l3.53-1.405c0.22-0.09,0.433-0.188,0.632-0.297c2.472-1.359,3.598-4.372,2.531-7.055    c-1.15-2.905-4.444-4.324-7.353-3.162l-1.95,0.773" fill="none" stroke="#000000" stroke-width="9" stroke-linecap="round" stroke-linejoin="round" stroke-miterlimit="10"></path><path style="" d="    M238.98,66.68l2.248-1.622c0.193-0.137,0.391-0.266,0.589-0.375c2.473-1.357,5.62-0.692,7.313,1.646    c1.837,2.526,1.27,6.069-1.27,7.9l-1.123,0.816" fill="none" stroke="#000000" stroke-width="9" stroke-linecap="round" stroke-linejoin="round" stroke-miterlimit="10"></path><path style="" d="    M157.356,275.767l-0.002,0.667c-0.01,3.126-2.553,5.657-5.674,5.654c-2.14-0.007-3.995-1.193-4.955-2.94    c-0.445-0.81-0.7-1.742-0.695-2.728l-0.002-0.854" fill="none" stroke="#000000" stroke-width="9" stroke-linecap="round" stroke-linejoin="round" stroke-miterlimit="10"></path><path style="" d="    M125.862,272.591l-0.221,1.731c-0.394,3.098-3.227,5.301-6.324,4.908c-1.868-0.236-3.409-1.356-4.252-2.89    c-0.558-1.015-0.814-2.205-0.656-3.436l0.435-3.438" fill="none" stroke="#000000" stroke-width="9" stroke-linecap="round" stroke-linejoin="round" stroke-miterlimit="10"></path><path style="" d="    M188.326,270.775l0.184,1.509c0.288,2.366-0.924,4.573-2.885,5.65c-0.618,0.34-1.308,0.569-2.044,0.655    c-3.107,0.388-5.934-1.825-6.307-4.929l-0.015-0.15" fill="none" stroke="#000000" stroke-width="9" stroke-linecap="round" stroke-linejoin="round" stroke-miterlimit="10"></path><path style="" d="    M52.526,85.552l-0.156-0.104c-2.645-1.665-6.145-0.875-7.815,1.762c-1.141,1.812-1.134,4.013-0.173,5.76    c0.448,0.816,1.096,1.523,1.935,2.057l0.32,0.201" fill="none" stroke="#000000" stroke-width="9" stroke-linecap="round" stroke-linejoin="round" stroke-miterlimit="10"></path><path style="" d="    M38.363,113.925l-1.206-0.568c-2.827-1.328-6.206-0.117-7.533,2.709c-0.803,1.703-0.682,3.605,0.161,5.139    c0.558,1.015,1.426,1.869,2.549,2.394l2.798,1.313" fill="none" stroke="#000000" stroke-width="9" stroke-linecap="round" stroke-linejoin="round" stroke-miterlimit="10"></path><path style="" d="    M73.33,61.993l-0.761-0.625c-1.848-1.519-4.356-1.67-6.325-0.588c-0.61,0.336-1.173,0.794-1.641,1.369    c-1.913,2.325-1.664,5.705,0.507,7.721" fill="none" stroke="#000000" stroke-width="9" stroke-linecap="round" stroke-linejoin="round" stroke-miterlimit="10"></path></g></g></svg>