<svg height='100px' width='100px'  fill="#000000" xmlns="http://www.w3.org/2000/svg" xmlns:xlink="http://www.w3.org/1999/xlink" version="1.1" x="0px" y="0px" viewBox="0 0 66 66" enable-background="new 0 0 66 66" xml:space="preserve"><g><g><path d="M55.015,25.54c-0.53-1.21-1.2899-2.26-2.25-3.14c-1.53-1.4-2.4-3.39-2.4-5.46V2c0-1.1-0.8999-2-2-2h-4.71    c-1.1001,0-2,0.9-2,2v5.51c0,4.77-3.88,8.65-8.65,8.65s-8.65-3.88-8.65-8.65V2c0-1.1-0.8999-2-2-2h-4.72c-1.1,0-2,0.9-2,2    c-0.1799,14.55,0.9,17.29-2.3,20.3101c-2.03,1.93-3.1499,4.43-3.1499,7.03V62c0,2.2,1.79,4,4,4h37.6299c2.2001,0,4-1.8,4-4V29.34    C55.8149,28.04,55.5449,26.76,55.015,25.54z M20.2151,61.44h-5.02c-0.55,0-1-0.45-1-1v-4.69c0-0.55,0.45-1,1-1    c0.5599,0,1,0.45,1,1v3.69h4.02c0.5599,0,1,0.45,1,1C21.2151,60.9901,20.775,61.44,20.2151,61.44z M37.015,24.28    c-0.51,0.26-0.65,0.3-0.77,0.35c-1.87,0.79-4.24,0.86-6.22,0.1c-0.01-0.01-0.02-0.01-0.03-0.01c-6.89-2.65-5.49-10.38-5.64-11    c3.55,4.96,10.6101,6.01,15.54,1.9c0.09-0.09,0.1899-0.1801,0.28-0.26c0.1899-0.18,0.3799-0.35,0.55-0.54    c0.0999-0.1,0.1899-0.2,0.2799-0.31c0.17-0.19,0.33-0.39,0.48-0.59c0.0599-0.07,0.12-0.13,0.17-0.2    C41.3149,14.5601,43.1851,20.75,37.015,24.28z"></path></g></g></svg>