<svg xmlns="http://www.w3.org/2000/svg" viewBox="0 0 80.51 103.97">
    <g id="Layer_2" data-name="Layer 2">
        <g id="Layer_1-2" data-name="Layer 1">
            <path d="M12.13.11c3.63-.27,3.63-.27,3.65,2.81,0,3.34.07,6.67,0,10,0,1.71.62,2.37,2.35,2.36q22,0,44,0c1.95,0,2.66-.74,2.62-2.67-.1-4.15,0-8.29,0-12.55h3.58c.07,1,.2,1.9.2,2.85q0,38.49,0,77c0,2.41-.29,4.82-.32,7.23,0,2.93.31,3.21,3.35,3.24,2.33,0,4.68-.14,7,.11a2.78,2.78,0,0,1,1.88,1.9c.23,2.73.07,5.49.1,8.24,0,1.48-.68,2-2.13,2.1-3.8.35-7.58,1.25-11.37,1.23a96.42,96.42,0,0,1-12.86-1.37c-.55-.08-1.31-1.24-1.35-1.94-.16-2.65,0-5.33-.08-8,0-1.77.82-2.33,2.46-2.29,2.33.06,4.67-.07,7,0,2.13.08,3-.76,2.95-2.94-.19-7.24-.33-14.48-.38-21.72q-.09-12.75,0-25.5c0-2.26-.53-3.27-3.08-3.25q-21.49.16-43,0c-2.19,0-2.92.68-2.91,2.85.07,11.17.05,22.33,0,33.5q0,7.11-.25,14.23c-.06,2,.66,2.92,2.75,2.83,2.41-.11,4.83,0,7.24,0,1.57,0,2.27.64,2.24,2.25-.06,2.58.12,5.17-.05,7.74,0,.78-.79,2.08-1.37,2.17A75.18,75.18,0,0,1,14.23,104a93,93,0,0,1-12.84-1.38c-.54-.08-1.28-1.24-1.31-1.93-.15-2.74,0-5.5-.07-8.25,0-1.54.74-2,2.16-2,2.08,0,4.17,0,6.25,0,3.73,0,3.83-.09,3.81-3.74Q12.13,60.91,12,35.17c0-10.75,0-21.5,0-32.24C12,2,12.08,1.14,12.13.11ZM40.41,17.72c-7.33,0-14.65,0-22,0-1.89,0-2.75.53-2.67,2.54.11,2.91.1,5.83,0,8.74,0,1.86.74,2.48,2.54,2.45,4.41-.07,8.82,0,13.23,0h29c4.19,0,4.19,0,4.19-4.06,0-2.25-.09-4.5,0-6.74s-.66-3-2.87-2.92C54.73,17.78,47.57,17.72,40.41,17.72Z"/>
        </g>
    </g>
</svg>
