<svg id="Layer_1" data-name="Layer 1" xmlns="http://www.w3.org/2000/svg" viewBox="0 0 90.8 220.75"><path d="M42.25,18.69A11.77,11.77,0,0,1,40.47,23c-.48.72-1.08-1.31-1.2-1.91s.36-6.32.24-7.63S42.37,17.14,42.25,18.69Z" fill="#98221f"/><path d="M37.36,13.56a5.4,5.4,0,0,0,0,4.65c.84,1.91,1.44-2.27,1.44-4.18C38.8,13.56,37.6,13.08,37.36,13.56Z" fill="#98221f"/><path d="M44.4.08c-.18-.24-4-.12-6,3.58,3-2.45,5.64-2.26,6-2.69A.8.8,0,0,0,44.4.08Z" fill="#98221f"/><path d="M48.54,18.69A12,12,0,0,0,50.33,23c.48.72,1.08-1.31,1.2-1.91s-.36-6.32-.24-7.63S48.42,17.14,48.54,18.69Z" fill="#98221f"/><path d="M53.43,13.56a5.37,5.37,0,0,1,0,4.65C52.6,20.12,52,15.94,52,14,52,13.56,53.2,13.08,53.43,13.56Z" fill="#98221f"/><path d="M46.4.08c.18-.24,4.05-.12,6,3.58-3-2.45-5.64-2.26-6-2.69A.8.8,0,0,1,46.4.08Z" fill="#98221f"/><path d="M33.63,53.27C32.35,50.73,30.44,44.2,29,43.09s-2.86.16-4.77,3S21.85,50.57,22,51.68C25.51,51.52,30.28,53.91,33.63,53.27Z" fill="#98221f"/><path d="M57.17,53.27c1.28-2.54,3.18-9.07,4.62-10.18s2.86.16,4.77,3,2.39,4.46,2.23,5.57C65.28,51.52,60.51,53.91,57.17,53.27Z" fill="#98221f"/></svg>