<svg id="Display" xmlns="http://www.w3.org/2000/svg" viewBox="0 0 90.8 220.75"><path d="M30.53,154.69a71.65,71.65,0,0,1-1.13,9.12c-1.16,6-2.76,13.59-.19,19.24.8,1.76,2.2,6.23,3.44,4.74s2.45-1.31,1.61-3.9a50.45,50.45,0,0,1-1.28-15,77.75,77.75,0,0,0-.26-13.36C32.56,154.71,30.92,152.76,30.53,154.69Z" fill="#98221f"/><path d="M33.7,156.09c.24,1.78.63,11.08.74,16a89.86,89.86,0,0,0,1.06,12.73c.44,1.89,3.42,4.15,4.17,5s1.85-1.28,2.26-5.36-1.87-14.73-3.36-18.48-2.22-6.7-2.64-8S33.52,154.79,33.7,156.09Z" fill="#98221f"/><path d="M33.72,187.85c-1,1.08-1.8.81-1.23,3.32s2.87,12.32,3.29,17.93.86,10,.85,11.23c0,.59,1.31.6,1.31-.23a104.09,104.09,0,0,1,.88-16.58c1.13-6.91,1.53-10.84,0-12.76S35.64,185.71,33.72,187.85Z" fill="#98221f"/><path d="M32.55,197.85c.81,2.52,2.38,12.44,2.12,15.42a21,21,0,0,0,.29,6.56c.35,1.56-1.67.22-1.42-.73s.72-1.18-.07-5.37S31.3,203.93,32.55,197.85Z" fill="#98221f"/><path d="M60.27,154.69a71.65,71.65,0,0,0,1.13,9.12c1.15,6,2.76,13.59.19,19.24-.8,1.76-2.2,6.23-3.44,4.74s-2.45-1.31-1.62-3.9a50.09,50.09,0,0,0,1.29-15,76.72,76.72,0,0,1,.26-13.36C58.24,154.71,59.88,152.76,60.27,154.69Z" fill="#98221f"/><path d="M57.1,156.09c-.25,1.78-.63,11.08-.74,16a89.86,89.86,0,0,1-1.06,12.73c-.45,1.89-3.42,4.15-4.17,5s-1.85-1.28-2.26-5.36,1.87-14.73,3.36-18.48,2.22-6.7,2.63-8S57.28,154.79,57.1,156.09Z" fill="#98221f"/><path d="M57.08,187.85c1,1.08,1.8.81,1.23,3.32S55.44,203.49,55,209.1s-.86,10-.85,11.23c0,.59-1.31.6-1.31-.23A105.38,105.38,0,0,0,52,203.52c-1.14-6.91-1.53-10.84,0-12.76S55.15,185.71,57.08,187.85Z" fill="#98221f"/><path d="M58.25,197.85c-.81,2.52-2.39,12.44-2.12,15.42a21,21,0,0,1-.29,6.56c-.35,1.56,1.67.22,1.42-.73s-.73-1.18.07-5.37S59.5,203.93,58.25,197.85Z" fill="#98221f"/></svg>