<svg id="Layer_1" data-name="Layer 1" xmlns="http://www.w3.org/2000/svg" viewBox="0 0 90.8 220.75"><path d="M15.49,74.59c-.16,2.71-1.48,5-3.25,8.57C11.25,79.93,13.59,75.07,15.49,74.59Z" fill="#98221f"/><path d="M12,75.12c-3,7.53.53,12.44-7.27,27.94C4.6,96.73,8,84.83,12,75.12Z" fill="#98221f"/><path d="M9.61,75.54C4.84,80.47,3.41,94.31,0,101.13c-.31,1.08,3,2.47,3,1.51C3.08,99.36,4.58,87.58,9.61,75.54Z" fill="#98221f"/><path d="M15.82,78.67c.76,1,2.73.52,3.6-.65s-.63,3.37-3.38,9.11S9.11,98,7.91,99.87c3.24-7.26,3.8-12.41,4.91-14.88S15.3,79.83,15.82,78.67Z" fill="#98221f"/><path d="M75.3,74.59c.17,2.71,1.49,5,3.26,8.57C79.55,79.93,77.21,75.07,75.3,74.59Z" fill="#98221f"/><path d="M78.8,75.12c3,7.53-.53,12.44,7.26,27.94C86.2,96.73,82.79,84.83,78.8,75.12Z" fill="#98221f"/><path d="M81.19,75.54c4.77,4.93,6.2,18.77,9.59,25.59.31,1.08-3,2.47-3,1.51C87.72,99.36,86.22,87.58,81.19,75.54Z" fill="#98221f"/><path d="M75,78.67c-.76,1-2.73.52-3.6-.65s.63,3.37,3.37,9.11S81.69,98,82.89,99.87C79.65,92.61,79.08,87.46,78,85S75.5,79.83,75,78.67Z" fill="#98221f"/></svg>