<svg id="Layer_1" data-name="Layer 1" xmlns="http://www.w3.org/2000/svg" viewBox="0 0 90.8 220.75"><path d="M40.47,98.77c1.12,1.69,4.12,1.75,4.12,5.08s-.47,6.69-.31,8-2.52-4-3.18-7.32C40.3,100.52,40.15,98.29,40.47,98.77Z" fill="#98221f"/><path d="M29.85,90.93c-2.44,1.36-3,8.11-3.7,12.77s.41-2.94,3.7-5.85c4.17-3.7,7.75-3.1,7-4.53S33.07,89.14,29.85,90.93Z" fill="#98221f"/><path d="M36.77,95.47A15,15,0,0,0,26,108.83c-.72,6.92,1.91,10.62,1.91,14.08,4.26-7.12,13.12-6.45,13.12-11.82,0-2.26-1.19-5.25-1.91-11.93C38.77,95.59,38.32,95,36.77,95.47Z" fill="#98221f"/><path d="M50.33,98.77c-1.12,1.69-4.15,1.75-4.15,5.08s.49,6.69.34,8,2.52-4,3.18-7.32C50.49,100.52,50.65,98.29,50.33,98.77Z" fill="#98221f"/><path d="M61,90.93c2.44,1.36,3,8.11,3.7,12.77s-.41-2.94-3.7-5.85c-4.18-3.7-7.75-3.1-7-4.53S57.73,89.14,61,90.93Z" fill="#98221f"/><path d="M54,95.47a15,15,0,0,1,10.74,13.36c.71,6.92-1.91,10.62-1.91,14.08-4.26-7.12-13.12-6.45-13.12-11.82,0-2.26,1.19-5.25,1.91-11.93C52,95.59,52.48,95,54,95.47Z" fill="#98221f"/></svg>