<svg id="Layer_1" data-name="Layer 1" xmlns="http://www.w3.org/2000/svg" viewBox="0 0 90.8 220.75"><path d="M25.33,116.83c.72,2.83,2.5,6.55,1.4,9.73a21.15,21.15,0,0,0-1.26,6.5C24.36,124.52,24.55,120.81,25.33,116.83Z" fill="#98221f"/><path d="M28.3,124.34c-1,3.86-2.58,11.46-2.14,15.74s2.6,9.79,2.17,13.51a19.85,19.85,0,0,0,.6,7.86l.35-2.77c-.25-3,1.28-6,1.85-9s-.91-4.37-.77-11.67.88-14.49,1.94-17.4C30.81,122,29.19,123,28.3,124.34Z" fill="#98221f"/><path d="M33.47,119.92c-.51,1.93-2.34,16.59-1.28,24.06s6.16,17.15,6.27,19.54l1.13-1.37c.35-2.88-3.35-7.61-3.53-14.41-.33-12.4,2.9-17.45,1.71-30.29A11.06,11.06,0,0,0,33.47,119.92Z" fill="#98221f"/><path d="M42.68,115.19c-.07,3.59,0,20.07-2,23.86-.79-6.65-1.32-10.75-1.32-10.75a88.27,88.27,0,0,0,.15-12.2C40.31,115.35,42.06,114.51,42.68,115.19Z" fill="#98221f"/><path d="M38.63,133.42c.9,4,2,10.17,1.82,13.64s.87,8.56-.42,11.61c-1.87-4.34-2.89-8.35-2.46-11.95S38.71,135.32,38.63,133.42Z" fill="#98221f"/><path d="M65.47,116.83c-.72,2.83-2.5,6.55-1.4,9.73a20.86,20.86,0,0,1,1.25,6.5C66.43,124.52,66.25,120.81,65.47,116.83Z" fill="#98221f"/><path d="M62.5,124.34c1,3.86,2.58,11.46,2.14,15.74s-2.6,9.79-2.17,13.51a20,20,0,0,1-.6,7.86l-.35-2.77c.25-3-1.28-6-1.86-9s.92-4.37.78-11.67-.88-14.49-1.95-17.4C60,122,61.61,123,62.5,124.34Z" fill="#98221f"/><path d="M57.33,119.92c.51,1.93,2.34,16.59,1.28,24.06s-6.16,17.15-6.27,19.54l-1.13-1.37c-.35-2.88,3.34-7.61,3.53-14.41.33-12.4-2.9-17.45-1.72-30.29A11.09,11.09,0,0,1,57.33,119.92Z" fill="#98221f"/><path d="M48.11,115.19c.08,3.59,0,20.07,2,23.86.78-6.65,1.32-10.75,1.32-10.75a88.27,88.27,0,0,1-.15-12.2C50.48,115.35,48.74,114.51,48.11,115.19Z" fill="#98221f"/><path d="M52.17,133.42c-.9,4-2,10.17-1.82,13.64s-.88,8.56.42,11.61c1.87-4.34,2.89-8.35,2.46-11.95S52.08,135.32,52.17,133.42Z" fill="#98221f"/></svg>