<svg id="Layer_1" data-name="Layer 1" xmlns="http://www.w3.org/2000/svg" viewBox="0 0 90.8 220.75"><path d="M42.85,62.77c-.38-2.52-2.54-1.86-5.41-4.73-2.22-2.22-5.56-3-9.7-3.82-3.7-.71-5.73-.95-5.57,0,.5,3,5.55,16.74,7.64,22.48a1,1,0,0,0,1,.66H43.09a.77.77,0,0,0,.77-.81C43.6,71.34,43.25,65.42,42.85,62.77Z" fill="#98221f"/><path d="M48,65c.37-2.52,2.54-4.13,5.4-7,2.23-2.22,5.57-3,9.71-3.82,3.7-.71,5.72-.95,5.56,0-.49,3-5.54,16.74-7.63,22.48a1,1,0,0,1-.95.66H47.8a.77.77,0,0,1-.77-.81C47.29,71.34,47.64,67.69,48,65Z" fill="#98221f"/></svg>