<svg id="Layer_1" data-name="Layer 1" xmlns="http://www.w3.org/2000/svg" viewBox="0 0 90.8 220.75"><path d="M28.69,78.4c.4,3-.31,9.55-.47,11s1.59-.32,3.81-.32C33.31,89.06,28.37,76,28.69,78.4Z" fill="#98221f"/><path d="M62.1,78.4c-.4,3,.32,9.55.48,11s-1.59-.32-3.82-.32C57.49,89.06,62.42,76,62.1,78.4Z" fill="#98221f"/><path d="M43.26,78.32l-11.83-.08a.67.67,0,0,0-.64.9c1.7,4.83,2.67,8.72,4.75,10.4,5.88,4.77,8.56,12.09,8.75,7,.11-2.78,0-10.52-.36-17.57A.69.69,0,0,0,43.26,78.32Z" fill="#98221f"/><path d="M47.63,78.32l11.83-.08a.67.67,0,0,1,.64.9c-1.7,4.83-2.68,8.72-4.75,10.4-5.88,4.77-8.56,12.09-8.76,7-.1-2.78,0-10.52.37-17.57A.69.69,0,0,1,47.63,78.32Z" fill="#98221f"/></svg>