<svg id="Layer_1" data-name="Layer 1" xmlns="http://www.w3.org/2000/svg" viewBox="0 0 90.8 220.75"><path d="M43.09,17.18a10,10,0,0,1-2.62,9.65,68,68,0,0,1-10,7.84c-1.12.6,2.86-.3,6.52,1.2s6.36,2.84,6.2-.15,1.59-8,1.59-11.73V18C44.76,17.26,42.85,16.36,43.09,17.18Z" fill="#98221f"/><path d="M29.17,35.72c-2.38-.42-7.63,1.33-6.52,1.33s6.2.46,8,3.6,4.94,10.62,8,13.76,5.25,6.13,5.25,2.24S44,40.89,42.38,39.76C38.72,37.22,33.56,36.5,29.17,35.72Z" fill="#98221f"/><path d="M47.71,17.18a10,10,0,0,0,2.62,9.65,67.48,67.48,0,0,0,10,7.84c1.12.6-2.86-.3-6.52,1.2s-6.36,2.84-6.2-.15S46,27.73,46,24V18C46,17.26,48,16.36,47.71,17.18Z" fill="#98221f"/><path d="M61.63,35.72c2.38-.42,7.63,1.33,6.52,1.33s-6.21.46-8,3.6-4.93,10.62-7.95,13.76S47,60.54,47,56.65s-.19-15.76,1.43-16.89C52.08,37.22,57.24,36.5,61.63,35.72Z" fill="#98221f"/></svg>