<svg id="Layer_1" data-name="Layer 1" xmlns="http://www.w3.org/2000/svg" viewBox="0 0 90.8 220.75"><path d="M16.59,60.36c.28,4.24,1.63,11.67.34,14.39s3.49-1.75,4.77-8c1.22-6-2.23-12.25-.32-17.47C17.72,53.21,16.37,57,16.59,60.36Z" fill="#98221f"/><path d="M16.35,54.46c-1.06,2.15-3.69,13.15-4.12,19.27C11.36,68.86,12.6,57.67,16.35,54.46Z" fill="#98221f"/><path d="M15.05,62.45c-.39,1.91-1,6.55-1.31,9-.15,1.11,1.75,2.38,2,.67C16.25,68.57,15.84,58.63,15.05,62.45Z" fill="#98221f"/><path d="M74.21,60.36c-.28,4.24-1.63,11.67-.34,14.39s-3.5-1.75-4.77-8c-1.22-6,2.23-12.25.32-17.47C73.08,53.21,74.43,57,74.21,60.36Z" fill="#98221f"/><path d="M74.45,54.46c1.06,2.15,3.68,13.15,4.11,19.27C79.44,68.86,78.2,57.67,74.45,54.46Z" fill="#98221f"/><path d="M75.74,62.45c.4,1.91,1,6.55,1.31,9,.16,1.11-1.75,2.38-2,.67C74.55,68.57,75,58.63,75.74,62.45Z" fill="#98221f"/></svg>