<svg id="Layer_2_copy" data-name="Layer 2 copy" xmlns="http://www.w3.org/2000/svg" viewBox="0 0 1024 1024">
  <path d="M379.23,798.43q-107.94,0-215.9,0c-15.38,0-28.31-4.7-36.65-18.21-7.84-12.69-8.15-26.27-.91-39.09,7.41-13.13,19.13-19.6,34.72-19.58q212.16.21,424.33.09c5.3,0,10.6-.06,15.89,0,20.34.27,36,15,37.68,35.39a37.74,37.74,0,0,1-32.08,40.61,89.1,89.1,0,0,1-14,.72Q485.78,798.47,379.23,798.43ZM860.6,302.62c4.94,0,10.06-.12,14.78-1.38,19.09-5.11,30.13-23.34,27.24-44.18-2.53-18.22-19.14-31.38-40.59-31.4q-217.78-.12-435.56,0c-24.39,0-41.42,16.41-41.24,38.81.19,22.65,17.07,38.16,41.68,38.17q108.42,0,216.84,0T860.6,302.62ZM708.25,963.31c7.77,0,15.57-.4,23.31-1.13,164.69-15.57,281.83-166.24,256.37-329.66C966.46,494.66,845.69,390.91,706.28,390.77q-181.8-.18-363.6,0c-3.11,0-6.24-.13-9.34.13C307.72,393,291.53,416.59,298.88,441c5.17,17.15,19.54,26.82,40.19,26.82q181.8,0,363.6,0c121.68.05,216.42,99,211.32,220.51-4.5,107.12-96.5,197.33-203.42,198-122.13.75-244.27.35-366.4.4-90,0-180.08-.19-270.12.32a51.22,51.22,0,0,0-25.3,7.37c-14.37,8.84-19.4,26.93-14.12,42.85s19.29,26,37.08,26q163.11.11,326.21,0Q553.08,963.37,708.25,963.31ZM318.44,60.64C156.43,60.45,25.15,196.73,33,359c4.48,92.26,45.1,166,119.36,220.51,49.18,36.12,105.1,53.58,166.09,53.71q181.8.38,363.59.07c2.8,0,5.62.11,8.41-.12,27.88-2.27,44.49-30.22,32.42-55.2-7.59-15.7-20.91-21.73-38.14-21.7q-181.8.28-363.59.06c-24.47,0-48.58-3.18-71.48-12.12-81-31.61-129.73-90.4-138.25-176.87C103,281.26,138.85,214,211.9,167.55c34.9-22.19,73.84-30.18,115-30.14q311.25.28,622.5-.15a51.35,51.35,0,0,0,23.11-5.48c15.5-8.19,22.1-26.41,17.43-43.33-4.6-16.66-19.42-27.74-37.74-27.75q-163.11-.09-326.21,0Q472.2,60.65,318.44,60.64Z" fill="#f7f7f7"/>
</svg>
