<svg id="Layer_2_copy" data-name="Layer 2 copy" xmlns="http://www.w3.org/2000/svg" viewBox="0 0 1024 1024">
  <path d="M447.09,684.14q-66.21,0-132.41,0c-9.44,0-17.37-2.88-22.48-11.16-4.81-7.79-5-16.11-.56-24,4.54-8,11.74-12,21.29-12q130.13.12,260.24.05c3.25,0,6.5,0,9.74,0,12.48.16,22.06,9.18,23.11,21.7a23.15,23.15,0,0,1-19.67,24.91,55.62,55.62,0,0,1-8.57.44Q512.43,684.16,447.09,684.14Zm295.2-304.07a35.18,35.18,0,0,0,9.07-.85c11.71-3.13,18.48-14.31,16.71-27.09-1.56-11.17-11.75-19.25-24.9-19.25q-133.56-.09-267.11,0c-15,0-25.4,10.07-25.29,23.81s10.46,23.4,25.55,23.41h133Q675.81,380.12,742.29,380.07ZM648.86,785.26c4.77,0,9.55-.25,14.3-.69A175.73,175.73,0,0,0,820.39,582.39c-13.17-84.54-87.24-148.17-172.73-148.26q-111.49-.11-223,0c-1.91,0-3.83-.08-5.73.08-15.71,1.3-25.64,15.77-21.13,30.73,3.17,10.52,12,16.45,24.65,16.45q111.5,0,223,0c74.63,0,132.72,60.68,129.6,135.23-2.76,65.7-59.18,121-124.76,121.42-74.89.46-149.8.22-224.7.25-55.22,0-110.44-.12-165.66.2A31.4,31.4,0,0,0,244.41,743c-8.81,5.43-11.9,16.52-8.66,26.28s11.83,16,22.74,16q100,.06,200.06,0Q553.71,785.3,648.86,785.26ZM409.8,231.67c-99.35-.12-179.86,83.46-175,183,2.74,56.58,27.65,101.78,73.2,135.23,30.16,22.15,64.45,32.86,101.86,32.94,74.32.16,148.65.05,223,.05,1.72,0,3.44.06,5.15-.08,17.1-1.39,27.29-18.53,19.89-33.85-4.66-9.63-12.83-13.33-23.39-13.31q-111.5.18-223,0c-15,0-29.78-2-43.83-7.44-49.66-19.38-79.56-55.44-84.78-108.47-5.2-52.77,16.8-94,61.61-122.5,21.4-13.61,45.28-18.51,70.49-18.49q190.89.18,381.77-.09a31.42,31.42,0,0,0,14.18-3.36c9.5-5,13.55-16.2,10.68-26.58-2.82-10.21-11.91-17-23.14-17q-100-.06-200.06,0Q504.1,231.69,409.8,231.67Z" fill="#f7f7f7"/>
</svg>
