<svg id="Layer_3" data-name="Layer 3" xmlns="http://www.w3.org/2000/svg" xmlns:xlink="http://www.w3.org/1999/xlink" viewBox="0 0 1024 1024"><defs><linearGradient id="linear-gradient" x1="269.52" y1="730.64" x2="985.69" y2="730.64" gradientTransform="translate(1248.84 1376.56) rotate(180)" gradientUnits="userSpaceOnUse"><stop offset="0" stop-color="#d9d9d9"/><stop offset="0.14" stop-color="#fff"/></linearGradient><linearGradient id="linear-gradient-2" x1="439.89" y1="915.43" x2="1156.06" y2="915.43" gradientTransform="translate(-396.91 -551.3)" xlink:href="#linear-gradient"/><linearGradient id="linear-gradient-3" x1="198.61" y1="904.11" x2="330.55" y2="904.11" gradientTransform="matrix(1, 0, 0, 1, 0, 0)" xlink:href="#linear-gradient"/><linearGradient id="linear-gradient-4" x1="691.75" y1="105.94" x2="823.69" y2="105.94" gradientTransform="matrix(1, 0, 0, 1, 0, 0)" xlink:href="#linear-gradient"/></defs><path d="M455,459.15H660.66A186.92,186.92,0,0,1,847.54,646h0c0,103.21-83.67,186.88-186.88,186.88,0,0-115.08.81-197.87,1.34h0a82.52,82.52,0,0,0-82,82.44l0,25.25a22.34,22.34,0,0,0,22.34,22.42h278.1c171.36,0,298.09-138.59,298.09-310,0,0-1-45.8-3-59.89a310.23,310.23,0,0,0-299-267c-2.36-.06-399.5,0-399.63,0-11.62,0-15.52,9.9-14.31,21.46C271.84,429.83,341.77,459.07,455,459.15Z" fill="url(#linear-gradient)"/><path d="M567.28,550.91H361.64A186.92,186.92,0,0,1,174.76,364h0c0-103.21,83.67-186.88,186.88-186.88,0,0,115.08-.81,197.87-1.35h0a82.51,82.51,0,0,0,82-82.43l0-25.25a22.35,22.35,0,0,0-22.34-22.43H341.07C169.71,45.69,43,184.28,43,355.64c0,0,1,45.8,3,59.9a310.23,310.23,0,0,0,299,267c2.36.07,399.5,0,399.63,0,11.62,0,15.52-9.91,14.31-21.47C750.46,580.22,680.53,551,567.28,550.91Z" fill="url(#linear-gradient-2)"/><circle cx="264.58" cy="904.11" r="65.97" fill="url(#linear-gradient-3)"/><circle cx="757.72" cy="105.94" r="65.97" fill="url(#linear-gradient-4)"/></svg>