<svg id="Layer_3_copy" data-name="Layer 3 copy" xmlns="http://www.w3.org/2000/svg" viewBox="0 0 1024 1024">
  <path d="M461.31,463.34H670.59A190.23,190.23,0,0,1,860.77,653.52h0c0,105-85.15,190.19-190.18,190.19,0,0-117.12.82-201.38,1.36h0A84,84,0,0,0,385.79,929l0,25.7a22.73,22.73,0,0,0,22.73,22.82h283c174.39,0,303.35-141,303.35-315.43,0,0-1-46.61-3-60.95a315.71,315.71,0,0,0-304.3-271.74c-2.41-.06-406.56,0-406.69,0-11.83,0-15.8,10.08-14.57,21.84C274.89,433.5,346.06,463.26,461.31,463.34Z" fill="#fff"/>
  <path d="M561,556.72H351.71A190.23,190.23,0,0,1,161.53,366.54h0c0-105,85.15-190.18,190.18-190.18,0,0,117.12-.82,201.38-1.37h0a84,84,0,0,0,83.42-83.89l0-25.7A22.73,22.73,0,0,0,613.8,42.57h-283c-174.39,0-303.35,141-303.35,315.43,0,0,1.05,46.61,3.05,61a313.84,313.84,0,0,0,51.88,134.1c55.39,81,147.53,134.89,252.42,137.63,2.41.06,406.56,0,406.69,0,11.83,0,15.8-10.08,14.57-21.85C747.41,586.55,676.24,556.8,561,556.72Z" fill="#fff"/>
  <circle cx="257.31" cy="916.17" r="67.14" fill="#fff" stroke="#fff" stroke-miterlimit="10" stroke-width="1.46"/>
  <circle cx="763.54" cy="103.89" r="67.14" fill="#fff"/>
</svg>
