<svg id="Layer_1" data-name="Layer 1" xmlns="http://www.w3.org/2000/svg" viewBox="0 0 93.6 213.43">
    <path
        d="M45.34,105.09c.31-3.18.16-11.13.16-14.48,0-1.27-1.12-2.86-1.12-3.81s-7-2.55-7-1A53.77,53.77,0,0,0,40.72,104C42.15,107.79,45,108.27,45.34,105.09Z"
        fill="#98221f" />
    <path
        d="M38.46,83.46a10.56,10.56,0,0,1,5.48,1.19c1.21.62,1.56.12,1.56-1.55V77.85c0-1.19-1.84-1.71-4.1-1.71s-4.73,1-4.73,4.69C36.67,83.1,37.11,83.67,38.46,83.46Z"
        fill="#98221f" />
    <path
        d="M38.06,75.31a10.76,10.76,0,0,1,5.88-.6c1.35.16,1.56.12,1.56-1.55V68.39c0-1.2-2.31-1.67-4.7-.72s-4.13,3-4.13,5.13S36.84,75.91,38.06,75.31Z"
        fill="#98221f" />
    <path
        d="M38.06,67.71a12.92,12.92,0,0,1,5.88-2.22c1.35-.2,1.56-.3,1.56-2V61c0-1.19-2.43-1.31-4.7-.36-2.51,1.06-4.13,2.82-4.13,4.95S36.84,68.65,38.06,67.71Z"
        fill="#98221f" />
    <path
        d="M48.3,105c-.32-3.18-.16-11.14-.16-14.48,0-1.27,1.12-2.86,1.12-3.81s7-2.55,7-1a53.52,53.52,0,0,1-3.34,18.14C51.48,107.66,48.62,108.14,48.3,105Z"
        fill="#98221f" />
    <path
        d="M55.18,83.33a10.62,10.62,0,0,0-5.49,1.19c-1.21.62-1.55.12-1.55-1.55V77.72c0-1.19,1.83-1.71,4.1-1.71S57,77,57,80.7C57,83,56.53,83.54,55.18,83.33Z"
        fill="#98221f" />
    <path
        d="M55.58,75.17a10.89,10.89,0,0,0-5.89-.59c-1.35.16-1.55.12-1.55-1.55V68.25c0-1.19,2.31-1.67,4.7-.71s4.13,3,4.13,5.13S56.8,75.78,55.58,75.17Z"
        fill="#98221f" />
    <path
        d="M55.58,67.57a13.06,13.06,0,0,0-5.89-2.21c-1.35-.2-1.55-.3-1.55-2V60.86c0-1.2,2.43-1.31,4.7-.36,2.5,1,4.13,2.82,4.13,5S56.8,68.52,55.58,67.57Z"
        fill="#98221f" /></svg>