<svg id="Layer_1" data-name="Layer 1" xmlns="http://www.w3.org/2000/svg" viewBox="0 0 93.6 213.43"><path d="M39.13,189.61c.18-7.63-1.69-23.39-5.45-22.6-2.2.46-1,8.44,1.29,17.09s5,22.05,6.78,28.77l1.42-.21C40.05,203,38.94,197.24,39.13,189.61Z" fill="#98221f"/><path d="M31.33,182.9c.52,5.1,4.7,16.46,7.38,30.53l1.11-.45c-2.21-7.06-4-22.5-7.27-34.19C31.8,176.07,30.82,177.79,31.33,182.9Z" fill="#98221f"/><path d="M43.14,208c-.56-2.43-.56-8.47,0-12.83s-.31-7-1.17-8.63C40.94,184.56,41.25,203.43,43.14,208Z" fill="#98221f"/><path d="M42,181.72c0,3.66,1.57,7.36,2.26,5.15s.41-9.28-1.19-15.68A37.59,37.59,0,0,0,42,181.72Z" fill="#98221f"/><path d="M40.88,168.09c-.83,1.73-1,4.45,0,8.74.64-7.63,3.18-8,4-12.24a23.24,23.24,0,0,0-.16-8.91A33.94,33.94,0,0,1,40.88,168.09Z" fill="#98221f"/><path d="M38.09,157.59c-2.06,0-3.65,1.59-2.22,3.65s2.7,1.59,4.13.16S40.64,157.59,38.09,157.59Z" fill="#98221f"/><path d="M32,164.3c.95-.79,2.31.21,3.66,2.23a28.1,28.1,0,0,0-.32-3.66c-1.11-1-1.38-2.45-1.67-3.78a35.16,35.16,0,0,0-2.31-6.72C32.51,156.11,31.1,160.7,32,164.3Z" fill="#98221f"/><path d="M37.28,164a29.61,29.61,0,0,1,1.43,5.09,22.57,22.57,0,0,1,1.75-6.2C40,163.5,38.23,164.46,37.28,164Z" fill="#98221f"/><path d="M41.28,10a3.89,3.89,0,0,1,3.51-.56c1,.54,1.44.87,1.2-.26S44.16,6.2,42.43,6.58s-2.37,2.55-2.23,3.83C40.26,11,40.84,10.48,41.28,10Z" fill="#98221f"/><path d="M42.51,13.22c1.7-.3,2.93-.74,3.27-1.91.13-.48.28-.88-1-.57a12.34,12.34,0,0,1-3.3.3c-.6,0-1.24-.23-1.3.4C40.06,12.77,40.12,13.63,42.51,13.22Z" fill="#98221f"/><path d="M41,6.26a4.58,4.58,0,0,1,4.17-.2c1.46.88,1.36.75,1.36,0S46.2,2.79,46.2.88c0-1.09-1.6-1.15-3.57-.27s-2.91,1.91-2.4,2.79S40.3,6.66,41,6.26Z" fill="#98221f"/><path d="M48.45,6.06a4.58,4.58,0,0,1,4.17.2c.68.4.2-1.91.75-2.86S53,1.5,51,.61,47.4-.21,47.4.88c0,1.91-.31,4.44-.31,5.18S47,6.94,48.45,6.06Z" fill="#98221f"/><path d="M37.68,17.16a9.05,9.05,0,0,0,1.67,4.69c1.07,1.37,2.84,2.17,1.89,1a16.29,16.29,0,0,1-2.19-6C39,16.26,37.63,16.61,37.68,17.16Z" fill="#98221f"/><path d="M44.09,25.27c1.31.75,2.38.55,1.9,0a16.52,16.52,0,0,1-1.54-2.59c-.18-.41-3.28-1.7-3.1-1.09A7,7,0,0,0,44.09,25.27Z" fill="#98221f"/><path d="M38.88,10.63c.16-1.73.95-4.09.75-5.25s-.82-2.25-1.57-.27S37.72,7.7,37.93,9,38.68,12.81,38.88,10.63Z" fill="#98221f"/><path d="M42.44,20.28c0,.91,3.09,1.63,4.36,1.63s4.36-.72,4.36-1.63-2.91-.37-4.36-.37S42.44,19.37,42.44,20.28Z" fill="#98221f"/><path d="M52.32,10c.44.51,1,1,1.08.44.14-1.28-.49-3.45-2.23-3.83S47.86,8,47.62,9.15s.17.8,1.19.26A3.89,3.89,0,0,1,52.32,10Z" fill="#98221f"/><path d="M51.09,13.22c2.39.41,2.45-.45,2.32-1.78l-4.6-.7c-1.27-.31-1.12.09-1,.57C48.16,12.48,49.39,12.92,51.09,13.22Z" fill="#98221f"/><path d="M54.25,21.85a9.05,9.05,0,0,0,1.67-4.69c0-.55-1.31-.9-1.38-.29a16.09,16.09,0,0,1-2.18,6C51.41,24,53.18,23.22,54.25,21.85Z" fill="#98221f"/><path d="M49.15,22.68a15.89,15.89,0,0,1-1.55,2.59c-.47.55.6.75,1.91,0a7,7,0,0,0,2.74-3.68C52.43,21,49.33,22.27,49.15,22.68Z" fill="#98221f"/><path d="M55.67,9c.21-1.29.62-1.9-.13-3.88s-1.36-.88-1.57.27.59,3.52.75,5.25C54.92,12.81,55.47,10.29,55.67,9Z" fill="#98221f"/><path d="M54.51,189.48c-.19-7.64,1.69-23.39,5.45-22.6,2.2.46,1,8.44-1.29,17.09s-5,22-6.78,28.77l-1.42-.21C53.58,202.91,54.69,197.11,54.51,189.48Z" fill="#98221f"/><path d="M62.3,182.77c-.51,5.1-4.69,16.46-7.37,30.53l-1.12-.45c2.22-7.06,4.06-22.5,7.28-34.19C61.84,175.94,62.81,177.66,62.3,182.77Z" fill="#98221f"/><path d="M50.49,207.87c.56-2.42.57-8.46,0-12.82s.32-7,1.18-8.63C52.7,184.43,52.38,203.3,50.49,207.87Z" fill="#98221f"/><path d="M51.61,181.59c0,3.66-1.57,7.36-2.26,5.15s-.41-9.28,1.18-15.68A37.61,37.61,0,0,1,51.61,181.59Z" fill="#98221f"/><path d="M52.75,168c.84,1.73,1,4.45,0,8.74-.63-7.63-3.18-7.95-4-12.25a23.18,23.18,0,0,1,.16-8.9C49.41,160.16,50.53,163.34,52.75,168Z" fill="#98221f"/><path d="M55.54,157.45c2.07,0,3.66,1.6,2.23,3.66s-2.7,1.59-4.14.16S53,157.45,55.54,157.45Z" fill="#98221f"/><path d="M61.61,164.17c-1-.79-2.32.2-3.66,2.22a28.11,28.11,0,0,1,.32-3.65c1.11-1,1.37-2.45,1.67-3.78a35.82,35.82,0,0,1,2.3-6.72C61.13,156,62.54,160.56,61.61,164.17Z" fill="#98221f"/><path d="M56.36,163.85a28.59,28.59,0,0,0-1.43,5.09,22.92,22.92,0,0,0-1.75-6.2C53.66,163.37,55.4,164.33,56.36,163.85Z" fill="#98221f"/></svg>