<svg id="Layer_1" data-name="Layer 1" xmlns="http://www.w3.org/2000/svg" viewBox="0 0 93.6 213.43"><path d="M18.89,55c-2.27,6.68-5.29,16.27-1.95,17.7s6.92-5.73,8-10.5a47.28,47.28,0,0,0,1.2-7.28A18.12,18.12,0,0,1,23.62,53,17.8,17.8,0,0,1,18.89,55Z" fill="#98221f"/><path d="M15.78,75.39c-3.16-8,0-15.6,1.91-19.81A2.3,2.3,0,0,0,16,57c-1.51,3.33-3,10.74-1.67,16.59C14.91,76.07,16.15,76.3,15.78,75.39Z" fill="#98221f"/><path d="M15.75,77.33c-.6,1.55,1.31.24,3.34-1.43a12.76,12.76,0,0,0,4.17-7.28C20.4,74.35,16.34,75.78,15.75,77.33Z" fill="#98221f"/><path d="M74.75,54.85c2.27,6.68,5.29,16.27,2,17.7s-6.92-5.73-8-10.5a47.81,47.81,0,0,1-1.19-7.28A18.85,18.85,0,0,0,70,52.86,17.6,17.6,0,0,0,74.75,54.85Z" fill="#98221f"/><path d="M77.85,75.25c3.17-8,0-15.59-1.91-19.8a2.31,2.31,0,0,1,1.68,1.43c1.51,3.33,3,10.74,1.66,16.58C78.73,75.94,77.49,76.17,77.85,75.25Z" fill="#98221f"/><path d="M77.89,77.2c.6,1.55-1.31.24-3.34-1.43a12.83,12.83,0,0,1-4.18-7.28C73.24,74.22,77.29,75.65,77.89,77.2Z" fill="#98221f"/></svg>