<svg id="Layer_1" data-name="Layer 1" xmlns="http://www.w3.org/2000/svg" viewBox="0 0 93.6 213.43"><path d="M42.35,41.66c-7.75,3.1-11.69,8.11-16.82,10.62,2,2.27,7.16,5.13,11.81,6.32s8.35-.47,8.35-2.26A4.88,4.88,0,0,0,45,53.59a6,6,0,0,0,.71-3.1,7.31,7.31,0,0,0-.47-3,21.87,21.87,0,0,0,.35-3.7A2.28,2.28,0,0,0,42.35,41.66Z" fill="#98221f"/><path d="M38.65,38.92a8.67,8.67,0,0,0-7.75,4.41c-1.07,2.15-2.51,5.49-5.37,7.76,5.13-2.51,8.79-8.33,16.82-10.62C43.19,40.23,42.35,39,38.65,38.92Z" fill="#98221f"/><path d="M51.28,41.53C59,44.63,63,49.64,68.11,52.15c-2,2.27-7.16,5.13-11.81,6.32S48,58,48,56.2a4.86,4.86,0,0,1,.71-2.74,6,6,0,0,1-.71-3.1,7.31,7.31,0,0,1,.47-3,21.87,21.87,0,0,1-.35-3.7A2.27,2.27,0,0,1,51.28,41.53Z" fill="#98221f"/><path d="M55,38.79a8.67,8.67,0,0,1,7.76,4.41c1.07,2.15,2.5,5.49,5.37,7.76C63,48.45,59.32,42.63,51.28,40.34,50.45,40.1,51.28,38.91,55,38.79Z" fill="#98221f"/></svg>