<svg id="Layer_1" data-name="Layer 1" xmlns="http://www.w3.org/2000/svg" viewBox="0 0 93.6 213.43"><path d="M21.37,77.2c-1.05.74-6.19,3.23-8.38,8.41a37.14,37.14,0,0,1,7.37-4.19C22.11,80.63,22.27,76.57,21.37,77.2Z" fill="#98221f"/><path d="M13.4,72.64c-2.63,2.27-5,6-7.16,17.06A31.79,31.79,0,0,1,0,103.05l1.55-.45c.46-1.23,6.9-10.74,10.2-16.51C15.55,79.44,12.92,74.55,13.4,72.64Z" fill="#98221f"/><path d="M16.82,84.43c-2.14,1.11-5.37,3.42-7.93,8.81-2.12,4.42-5.6,9.92-5.6,9.92l.5.23a117.91,117.91,0,0,1,8.3-12.23A72.71,72.71,0,0,0,16.82,84.43Z" fill="#98221f"/><path d="M9.91,96.22c-1.59,2.72-3.32,7-4.28,8.18l.47.56c2.59-4.82,8-12.53,9.81-17.39A63.05,63.05,0,0,0,9.91,96.22Z" fill="#98221f"/><path d="M20,82.58c-2,2.08-3.5,8.27-13.17,22.94C14.15,96,20.35,86.33,20,82.58Z" fill="#98221f"/><path d="M72.27,77.07c1,.74,6.19,3.23,8.38,8.41a37.14,37.14,0,0,0-7.37-4.19C71.52,80.5,71.36,76.44,72.27,77.07Z" fill="#98221f"/><path d="M80.24,72.51c2.62,2.27,5,6,7.16,17.06a31.79,31.79,0,0,0,6.24,13.35l-1.56-.45c-.45-1.23-6.89-10.74-10.19-16.51C78.09,79.31,80.72,74.42,80.24,72.51Z" fill="#98221f"/><path d="M76.81,84.3c2.15,1.1,5.38,3.42,7.94,8.81,2.12,4.42,5.6,9.92,5.6,9.92l-.5.23A119.17,119.17,0,0,0,81.55,91,73.23,73.23,0,0,1,76.81,84.3Z" fill="#98221f"/><path d="M83.73,96.08c1.58,2.73,3.31,7,4.28,8.19l-.47.56C85,100,79.52,92.3,77.72,87.44A62,62,0,0,1,83.73,96.08Z" fill="#98221f"/><path d="M73.63,82.45c2,2.08,3.51,8.27,13.18,22.94C79.49,95.87,73.28,86.2,73.63,82.45Z" fill="#98221f"/></svg>