<svg id="Layer_1" data-name="Layer 1" xmlns="http://www.w3.org/2000/svg" viewBox="0 0 93.6 213.43"><path d="M36,36.13c.83-.71,3.7-3.45,3.7-3.45l-.12-1.44s-4.3,2.51-9.66,5.25C31.58,36.37,35.16,36.85,36,36.13Z" fill="#98221f"/><path d="M39.57,23.73c.24,2.74.6,6.8,2.74,10.5s3.58,6.44,3.58,6.44c.72-2.75-.47-7.16-2-10S39.93,25,39.57,23.73Z" fill="#98221f"/><path d="M39.33,36.49c-.22.33,2.75.88,3,.33s-1.21-2-1.76-4.18A10.16,10.16,0,0,1,39.33,36.49Z" fill="#98221f"/><path d="M50.28,27.9a1.5,1.5,0,0,1-1.52-1,7.18,7.18,0,0,1-2,.28,7.31,7.31,0,0,1-2-.28,1.48,1.48,0,0,1-1.51,1,12.1,12.1,0,0,1,3.48,4.93A12.1,12.1,0,0,1,50.28,27.9Z" fill="#98221f"/><path d="M57.65,36c-.84-.71-3.7-3.46-3.7-3.46l.12-1.43s4.29,2.51,9.66,5.25C62.06,36.24,58.48,36.72,57.65,36Z" fill="#98221f"/><path d="M54.07,23.6c-.24,2.74-.6,6.8-2.75,10.5s-3.57,6.44-3.57,6.44c-.72-2.75.47-7.16,2-10S53.71,24.91,54.07,23.6Z" fill="#98221f"/><path d="M54.31,36.36c.22.33-2.75.88-3,.33s1.21-2,1.76-4.18A10,10,0,0,0,54.31,36.36Z" fill="#98221f"/></svg>