<svg id="Layer_1" data-name="Layer 1" xmlns="http://www.w3.org/2000/svg" viewBox="0 0 93.6 213.43"><path d="M31.38,95.94c2.5,2.27,5.72,4.06,5.24,1.08a75.89,75.89,0,0,1-1.31-13.36,5.41,5.41,0,0,0-3.22-4.78c-1.79-.95-2.38-.35-2.38,2s-.24,6-.48,8.59S28.87,93.68,31.38,95.94Z" fill="#98221f"/><path d="M27.56,68.62c.71,4.78,2.7,7.68,4.89,9.07,1.31.84,1.19-3.94,0-4.89A27,27,0,0,1,27.8,66C27.44,65.16,27.27,66.68,27.56,68.62Z" fill="#98221f"/><path d="M29,65.4a11,11,0,0,0,4.18,5.73c1.31.84.92-3.31-.24-4.3C31.38,65.52,28.73,64.42,29,65.4Z" fill="#98221f"/><path d="M27.92,63.14c.83.88,2.55,1.13,2.44.5a7,7,0,0,0-2.18-3.77C27.47,59.29,27.29,62.47,27.92,63.14Z" fill="#98221f"/><path d="M30.22,59.55a11,11,0,0,0,3.18,6.33c.92.82,1.46-3.18.48-3.82C31.85,60.75,30.12,58.53,30.22,59.55Z" fill="#98221f"/><path d="M34.6,61c.95.53,1.35-.93.36-1.31-1.56-.6-3.4-2.36-3-1.44A6.45,6.45,0,0,0,34.6,61Z" fill="#98221f"/><path d="M30.18,57.33c-.83-.41-2.09-1.45-2.29-.83-.34,1-.42,2,.62,2S31,57.75,30.18,57.33Z" fill="#98221f"/><path d="M62.26,95.81c-2.5,2.27-5.73,4.06-5.25,1.08a75.06,75.06,0,0,0,1.31-13.37,5.42,5.42,0,0,1,3.23-4.77c1.79-1,2.38-.35,2.38,2s.24,6,.48,8.59S64.77,93.55,62.26,95.81Z" fill="#98221f"/><path d="M66.08,68.49c-.72,4.78-2.7,7.68-4.89,9.07-1.31.84-1.2-3.94,0-4.89a27.17,27.17,0,0,0,4.65-6.8C66.2,65,66.37,66.55,66.08,68.49Z" fill="#98221f"/><path d="M64.65,65.27A11,11,0,0,1,60.47,71c-1.31.83-.93-3.31.24-4.3C62.26,65.39,64.91,64.29,64.65,65.27Z" fill="#98221f"/><path d="M65.72,63c-.84.88-2.55,1.13-2.44.49a7,7,0,0,1,2.17-3.76C66.17,59.16,66.35,62.34,65.72,63Z" fill="#98221f"/><path d="M63.42,59.42a11,11,0,0,1-3.19,6.33c-.91.81-1.46-3.19-.47-3.82C61.78,60.62,63.51,58.4,63.42,59.42Z" fill="#98221f"/><path d="M59,60.86c-.95.53-1.35-.93-.36-1.31,1.55-.6,3.4-2.37,3-1.44A6.42,6.42,0,0,1,59,60.86Z" fill="#98221f"/><path d="M63.46,57.2c.83-.41,2.08-1.45,2.29-.83.34,1,.42,2-.63,2S62.62,57.62,63.46,57.2Z" fill="#98221f"/></svg>