<svg id="Layer_1" data-name="Layer 1" xmlns="http://www.w3.org/2000/svg" viewBox="0 0 93.6 213.43"><path d="M35.71,156h0c1.14-.73,3.55-.76,7.42.83,1.59-1.59,2.08-18.17.78-24.52-2.68-11.47-8.79-24.24-11.06-30.14-.37-1.14-.67-2.14-.88-3-1.27,4.45-2.52,26.19-1.43,30.22.32,8.11,1.51,20.68,4.21,27.68A2.08,2.08,0,0,1,35.71,156Z" fill="#98221f"/><path d="M31,107.19c.16-.63,1.48-4.51,1.48-3.56,0,3.66-1.59,15.59-1.75,23.23s5.79,22.71,4,30.25c-5.25-8.59-6.21-23.93-5.64-30.31C29.75,119.65,30.86,107.83,31,107.19Z" fill="#98221f"/><path d="M57.93,155.86h0c-1.15-.72-3.55-.75-7.43.84-1.59-1.59-2.07-18.17-.77-24.52,2.68-11.47,8.79-24.24,11.06-30.15.37-1.13.67-2.13.87-3,1.27,4.45,2.53,26.19,1.44,30.22-.32,8.11-1.51,20.68-4.22,27.68A2.08,2.08,0,0,0,57.93,155.86Z" fill="#98221f"/><path d="M62.62,107.06c-.16-.63-1.49-4.51-1.49-3.56,0,3.66,1.59,15.59,1.75,23.23s-5.78,22.71-4,30.25c5.25-8.59,6.21-23.93,5.65-30.31C63.89,119.52,62.78,107.7,62.62,107.06Z" fill="#98221f"/></svg>