<svg id="Layer_1" data-name="Layer 1" xmlns="http://www.w3.org/2000/svg" viewBox="0 0 93.6 213.43"><path d="M18.25,53.71a12.79,12.79,0,0,0,6.45-2.86c3.22-2.63,6.22-9.74,6.68-11.1.35-1.07-2.91-.81-4.3.36C22.55,43.93,20.16,48.34,18.25,53.71Z" fill="#98221f"/><path d="M26.25,39.75c.83-.59-3.82-1.55-6.69,1.19s-3.46,9.67-3.22,13.25C17.66,53.59,19.45,44.29,26.25,39.75Z" fill="#98221f"/><path d="M75.39,53.58a12.76,12.76,0,0,1-6.45-2.86c-3.22-2.63-6.22-9.74-6.68-11.1-.36-1.07,2.9-.81,4.3.36C71.09,43.8,73.48,48.21,75.39,53.58Z" fill="#98221f"/><path d="M67.39,39.62c-.83-.6,3.82-1.55,6.68,1.19s3.46,9.67,3.22,13.25C76,53.46,74.19,44.16,67.39,39.62Z" fill="#98221f"/></svg>